<svg id="delete_table" data-name="delete table" xmlns="http://www.w3.org/2000/svg" xmlns:xlink="http://www.w3.org/1999/xlink" width="29" height="38" viewBox="0 0 29 38">
  <defs>
    <clipPath id="clip-path">
      <rect id="Rectangle_1913" data-name="Rectangle 1913" width="29" height="38" fill="#1a051d" stroke="#000" stroke-width="1"/>
    </clipPath>
  </defs>
  <g id="Group_2705" data-name="Group 2705" clip-path="url(#clip-path)">
    <path id="Path_7864" data-name="Path 7864" d="M19.959,48.874H30.692c.337,0,.673.006,1.01.009.6,0,.814.3.765.829-.307,3.3-.626,6.6-.9,9.9-.215,2.566-.367,5.136-.567,7.7a14.433,14.433,0,0,1-.3,2.321A3.582,3.582,0,0,1,27.963,72.3a8.923,8.923,0,0,1-2.238.276c-3.788.027-7.576.016-11.365.011-3.952-.006-5.426-1.393-5.628-5.078-.16-2.919-.475-5.83-.705-8.746-.2-2.489-.371-4.98-.558-7.47-.032-.428-.067-.856-.126-1.281-.136-.977-.036-1.12,1-1.135,1.473-.021,2.946-.006,4.42-.007h7.2" transform="translate(-5.452 -34.7)" fill="#1a051d"/>
    <path id="Path_7865" data-name="Path 7865" d="M0,10.555A30.354,30.354,0,0,1,1.5,6.938,5.1,5.1,0,0,1,6.2,4.277c.708,0,1.585.149,2.069-.2.366-.267.244-1.221.316-1.873A2.371,2.371,0,0,1,11.211.025c1.85-.046,3.7-.015,5.553-.015.336,0,.673,0,1.01.011a2.384,2.384,0,0,1,2.5,2.675,3.236,3.236,0,0,0,0,.5c.04.994.091,1.047,1.1,1.081.42.014.841,0,1.262,0a5.187,5.187,0,0,1,5,3.2c.442.935.733,1.942,1.15,3.071ZM14.4,4.28v0c.963,0,1.927-.017,2.889.006.746.018.911-.391.9-1.035-.008-.6-.185-.958-.856-.954-1.926.011-3.852.015-5.778,0-.747-.007-.9.4-.9,1.038-.009.707.3.977.983.958.92-.025,1.842-.006,2.763-.006" transform="translate(0 0)" fill="#1a051d"/>
  </g>
</svg>
