<svg id="Add_a_new_user" data-name="Add a new user" xmlns="http://www.w3.org/2000/svg" xmlns:xlink="http://www.w3.org/1999/xlink" width="39.608" height="39.449" viewBox="0 0 39.608 39.449">
  <defs>
    <clipPath id="clip-path">
      <circle id="Ellipse_439" data-name="Ellipse 439" cx="18.823" cy="18.823" r="18.823" fill="none" stroke="#707070" stroke-width="2"/>
    </clipPath>
  </defs>
  <g id="Group_2735" data-name="Group 2735">
    <g id="Group_2456" data-name="Group 2456" transform="translate(0 0)">
      <g id="Group_2455" data-name="Group 2455" transform="translate(0)">
        <g id="Path_7875" data-name="Path 7875" fill="none">
          <path d="M18.823,0A18.823,18.823,0,1,1,0,18.823,18.823,18.823,0,0,1,18.823,0Z" stroke="none"/>
          <path d="M 18.82341766357422 1.999996185302734 C 14.3297176361084 1.999996185302734 10.10498809814453 3.74993896484375 6.927457809448242 6.927457809448242 C 3.74993896484375 10.10498809814453 1.999996185302734 14.3297176361084 1.999996185302734 18.82341766357422 C 1.999996185302734 23.31711769104004 3.74993896484375 27.54184722900391 6.927457809448242 30.7193775177002 C 10.10498809814453 33.89689636230469 14.3297176361084 35.6468391418457 18.82341766357422 35.6468391418457 C 23.31711769104004 35.6468391418457 27.54184722900391 33.89689636230469 30.7193775177002 30.7193775177002 C 33.89689636230469 27.54184722900391 35.6468391418457 23.31711769104004 35.6468391418457 18.82341766357422 C 35.6468391418457 14.3297176361084 33.89689636230469 10.10498809814453 30.7193775177002 6.927457809448242 C 27.54184722900391 3.74993896484375 23.31711769104004 1.999996185302734 18.82341766357422 1.999996185302734 M 18.82341766357422 -3.814697265625e-06 C 29.21930694580078 -3.814697265625e-06 37.6468391418457 8.427528381347656 37.6468391418457 18.82341766357422 C 37.6468391418457 29.21930694580078 29.21930694580078 37.6468391418457 18.82341766357422 37.6468391418457 C 8.427528381347656 37.6468391418457 -3.814697265625e-06 29.21930694580078 -3.814697265625e-06 18.82341766357422 C -3.814697265625e-06 8.427528381347656 8.427528381347656 -3.814697265625e-06 18.82341766357422 -3.814697265625e-06 Z" stroke="none" fill="#000"/>
        </g>
        <g id="Mask_Group_1299" data-name="Mask Group 1299" clip-path="url(#clip-path)">
          <g id="Path_7792" data-name="Path 7792" transform="translate(12.242 9.269)" fill="none">
            <path d="M6.637,0a6.574,6.574,0,0,1,3.682,12.063,6.544,6.544,0,0,1-3.682,1.105A6.584,6.584,0,1,1,6.637,0Z" stroke="none"/>
            <path d="M 6.637230396270752 2.000002861022949 C 4.08025074005127 2.000002861022949 2 4.056323051452637 2 6.583883285522461 C 2 9.111443519592285 4.08025074005127 11.16776275634766 6.637230396270752 11.16776275634766 C 7.565220355987549 11.16776275634766 8.492570877075195 10.89439296722412 9.184080123901367 10.41598320007324 C 10.51255035400391 9.499963760375977 11.27445983886719 8.10322380065918 11.27445983886719 6.583883285522461 C 11.27445983886719 4.056323051452637 9.194210052490234 2.000002861022949 6.637230396270752 2.000002861022949 M 6.637230396270752 2.86102294921875e-06 C 10.30287075042725 2.86102294921875e-06 13.2744607925415 2.94770336151123 13.2744607925415 6.583883285522461 C 13.2744607925415 8.823773384094238 12.14687061309814 10.80241298675537 10.31941032409668 12.06250381469727 C 9.350100517272949 12.73311328887939 8.044839859008789 13.16776371002197 6.637230396270752 13.16776371002197 C 2.971590042114258 13.16776371002197 0 10.22006320953369 0 6.583883285522461 C 0 2.94770336151123 2.971590042114258 2.86102294921875e-06 6.637230396270752 2.86102294921875e-06 Z" stroke="none" fill="#000"/>
          </g>
          <g id="Ellipse_438" data-name="Ellipse 438" transform="translate(9.072 22.089)" fill="none" stroke="#000" stroke-width="2">
            <ellipse cx="9.807" cy="10.943" rx="9.807" ry="10.943" stroke="none"/>
            <ellipse cx="9.807" cy="10.943" rx="8.807" ry="9.943" fill="none"/>
          </g>
        </g>
      </g>
    </g>
    <path id="Path_7874" data-name="Path 7874" d="M8.181,0a8.28,8.28,0,0,1,8.181,8.376,8.28,8.28,0,0,1-8.181,8.376A8.28,8.28,0,0,1,0,8.376,8.28,8.28,0,0,1,8.181,0Z" transform="translate(23.246 22.698)" fill="#ffde0b"/>
  </g>
  <path id="Path_7805" data-name="Path 7805" d="M-13.936-20.711h-4.434v4.673h-1.576v-4.673h-4.412v-1.467h4.412v-4.64h1.576v4.64h4.434Z" transform="translate(51.166 52.644)" stroke="#ffde0b" stroke-width="0.1"/>
</svg>
