<svg id="client_goals" data-name="client goals" xmlns="http://www.w3.org/2000/svg" xmlns:xlink="http://www.w3.org/1999/xlink" width="45" height="45" viewBox="0 0 45 45">
  <defs>
    <clipPath id="clip-path">
      <circle id="Ellipse_451" data-name="Ellipse 451" cx="16.028" cy="16.028" r="16.028" transform="translate(0 0)" fill="none" stroke="#000" stroke-width="1"/>
    </clipPath>
  </defs>
  <g id="Group_3002" data-name="Group 3002" transform="translate(461.096 13349.35)">
    <circle id="Ellipse_426" data-name="Ellipse 426" cx="22.5" cy="22.5" r="22.5" transform="translate(-461.096 -13349.35)" fill="#5ac0ff"/>
  </g>
  <g id="Group_2978" data-name="Group 2978" transform="translate(6.244 6.243)">
    <path id="Path_7788" data-name="Path 7788" d="M16.257,0A16.257,16.257,0,1,1,0,16.257,16.257,16.257,0,0,1,16.257,0Z" transform="translate(0)" fill="none"/>
    <g id="Mask_Group_1301" data-name="Mask Group 1301" transform="translate(0.264 0.264)" clip-path="url(#clip-path)">
      <g id="Group_2908" data-name="Group 2908" transform="translate(5.733 2.359)">
        <path id="Path_7149" data-name="Path 7149" d="M19.1,29.476c0-.6-.036-1.1.01-1.6a.947.947,0,0,1,.9-.858c.507-.046-2.567-.032-2.056-.039.811-.012,1.017-.225,1.021-1.064,0-.349.007-.7,0-1.046A2.37,2.37,0,0,0,17.682,22.7a7.631,7.631,0,0,1-2.944-2.521.575.575,0,0,0-.373-.2A4.912,4.912,0,0,1,10.076,14.9c0-.313-.011-.628,0-.941a1.668,1.668,0,0,1,1.555-1.693c.457-.043.918-.028,1.377-.042.183-.006.365-.02.582-.032.013-.215.02-.385.037-.554a.713.713,0,0,1,.683-.71,3.157,3.157,0,0,1,.357-.009H25.964c.1,0,.206,0,.307.006a.737.737,0,0,1,.713.74c.013.153.018.307.029.513.2.016.377.038.556.044.442.017.887,0,1.327.044a1.6,1.6,0,0,1,1.523,1.493,7.032,7.032,0,0,1-.132,2.494,4.721,4.721,0,0,1-3.937,3.685.78.78,0,0,0-.574.354,6.6,6.6,0,0,1-2.575,2.25,2.581,2.581,0,0,0-1.558,2.582c.01.3,0,.592,0,.888.01.728.233.953.961.963.391.006-1.608-.006-1.216,0,1,.029,1.343.383,1.337,1.416C22.72,29.647,22.4,29.476,19.1,29.476ZM13.593,13.6c-.622,0-1.2,0-1.768,0-.273,0-.392.168-.391.438,0,.4-.013.8,0,1.2a3.473,3.473,0,0,0,1.738,2.943,5.713,5.713,0,0,0,.764.324c-.509-1.653-.219-3.247-.347-4.908m13.093,4.845a3.406,3.406,0,0,0,2.2-2.12,6.167,6.167,0,0,0,.183-2.377.463.463,0,0,0-.311-.327c-.571-.034-1.147-.016-1.74-.016-.129,1.629.17,3.228-.334,4.84" transform="translate(-10.074 -1.912)"/>
        <path id="Path_7150" data-name="Path 7150" d="M19.272,26.961H16.015a.935.935,0,0,1-.247-.018c-.136-.034-.219-.193-.219-.5,0-.425-.011-.85.006-1.272.025-.64.255-1.083.563-1.135a.752.752,0,0,1,.139-.006H22.3a.758.758,0,0,1,.166.009c.252.06.454.332.5.844A13.925,13.925,0,0,1,23,26.545a.628.628,0,0,1-.2.381c-.08.07-.181.034-.273.034H19.272" transform="translate(-9.004 1.019)"/>
        <path id="Path_7151" data-name="Path 7151" d="M18.054,9.243A6.423,6.423,0,0,1,18.888,7.1a5.989,5.989,0,0,1,2.056-.834,9.819,9.819,0,0,0-1.369-.413,1.172,1.172,0,0,1-1.07-1.1,10.683,10.683,0,0,0-.362-1.194c-.267.28-.309,1.076-.367,1.066a1.5,1.5,0,0,1-1.4,1.279,7.7,7.7,0,0,0-1.079.324c.667.379,1.464.415,1.884.841a6.761,6.761,0,0,1,.874,2.175" transform="translate(-9.052 -3.558)"/>
        <path id="Path_7152" data-name="Path 7152" d="M13.6,10.684a1.9,1.9,0,0,1,1.779-1.707C14.167,8.4,14.167,8.4,13.509,7.066a1.887,1.887,0,0,1-1.612,1.9,1.82,1.82,0,0,1,1.695,1.725" transform="translate(-10.523 -3.613)"/>
        <path id="Path_7153" data-name="Path 7153" d="M26.074,10.3c.688-1.342.688-1.342,2.13-2.113A2.059,2.059,0,0,1,26.139,6.38a1.968,1.968,0,0,1-1.853,1.882A2.042,2.042,0,0,1,26.074,10.3" transform="translate(-8.489 -4.125)"/>
      </g>
    </g>
  </g>
</svg>
