<svg id="goals_worked_on" data-name="goals worked on" xmlns="http://www.w3.org/2000/svg" width="45" height="45" viewBox="0 0 45 45">
  <g id="Group_3004" data-name="Group 3004" transform="translate(-117 -1902)">
    <g id="Group_3003" data-name="Group 3003" transform="translate(578.096 15251.35)">
      <circle id="Ellipse_426" data-name="Ellipse 426" cx="22.5" cy="22.5" r="22.5" transform="translate(-461.096 -13349.35)" fill="#5ac0ff"/>
    </g>
  </g>
  <g id="Group_3104" data-name="Group 3104" transform="translate(-113 -1724)">
    <path id="Intersection_3" data-name="Intersection 3" d="M11.713,28.109q-2.343-.886-4.676-1.8c-.764-.3-.876-.533-.67-1.327.238-.912.468-1.827.735-2.73a.693.693,0,0,0-.171-.733c-.447-.523-.881-1.06-1.293-1.612a.76.76,0,0,0-.741-.33c-1.014.068-2.029.112-3.043.162-.676.034-.881-.114-.993-.791Q.427,16.322.018,13.687a.824.824,0,0,1,.7-1.043c.946-.253,1.893-.506,2.844-.743A.671.671,0,0,0,4.1,11.33a17.013,17.013,0,0,1,.691-1.946.814.814,0,0,0-.085-.858c-.551-.811-1.085-1.632-1.616-2.455-.374-.583-.333-.8.215-1.24Q5.3,3.224,7.289,1.62c.61-.491.964-.481,1.516.061q1.05,1.028,2.077,2.078a.674.674,0,0,0,.723.2,19.9,19.9,0,0,1,2.087-.35.667.667,0,0,0,.612-.424c.413-.866.888-1.7,1.287-2.576A.928.928,0,0,1,16.564,0l5.491,2.108a.788.788,0,0,1,.085.761c-.307,1.024-.566,2.061-.861,3.09a.588.588,0,0,0,.131.595q.7.864,1.377,1.754a.689.689,0,0,0,.657.283c1.033-.064,2.066-.115,3.1-.168.679-.036.892.124,1,.784q.422,2.578.829,5.158c.111.7-.09,1-.782,1.188-.929.252-1.856.5-2.79.733a.6.6,0,0,0-.481.491,20.846,20.846,0,0,1-.824,2.127.49.49,0,0,0,.043.583q.975,1.308,1.926,2.636c.434.6.415.834-.138,1.286q-2.023,1.654-4.064,3.283a.929.929,0,0,1-1.437-.1c-.683-.677-1.363-1.357-2.031-2.047a.78.78,0,0,0-.869-.229,11.824,11.824,0,0,1-1.923.32.775.775,0,0,0-.738.509c-.374.825-.781,1.634-1.191,2.442-.234.463-.434.664-.76.664A1.77,1.77,0,0,1,11.713,28.109Zm-2.9-16.13a5.694,5.694,0,0,0,3.3,7.508,5.658,5.658,0,0,0,7.455-3.3,5.806,5.806,0,0,0-5.389-7.916A5.775,5.775,0,0,0,8.815,11.979Z" transform="translate(121.392 1732.375)"/>
    <g id="Group_3103" data-name="Group 3103" transform="translate(127.277 1738.186)">
      <g id="Group_909" data-name="Group 909" transform="translate(0 0)">
        <g id="Path_7766" data-name="Path 7766" fill="#5ac0ff">
          <path d="M 8.314187049865723 16.12837791442871 C 4.00542688369751 16.12837791442871 0.4999970495700836 12.62294673919678 0.4999970495700836 8.314187049865723 C 0.4999970495700836 4.00542688369751 4.00542688369751 0.4999970495700836 8.314187049865723 0.4999970495700836 C 12.62294673919678 0.4999970495700836 16.12837791442871 4.00542688369751 16.12837791442871 8.314187049865723 C 16.12837791442871 12.62294673919678 12.62294673919678 16.12837791442871 8.314187049865723 16.12837791442871 Z" stroke="none"/>
          <path d="M 8.314187049865723 0.9999971389770508 C 4.281126976013184 0.9999971389770508 0.9999971389770508 4.281126976013184 0.9999971389770508 8.314187049865723 C 0.9999971389770508 12.34724712371826 4.281126976013184 15.62837696075439 8.314187049865723 15.62837696075439 C 12.34724712371826 15.62837696075439 15.62837696075439 12.34724712371826 15.62837696075439 8.314187049865723 C 15.62837696075439 4.281126976013184 12.34724712371826 0.9999971389770508 8.314187049865723 0.9999971389770508 M 8.314187049865723 -3.814697265625e-06 C 12.90598678588867 -3.814697265625e-06 16.62837791442871 3.722387313842773 16.62837791442871 8.314187049865723 C 16.62837791442871 12.90598678588867 12.90598678588867 16.62837791442871 8.314187049865723 16.62837791442871 C 3.722387313842773 16.62837791442871 -3.814697265625e-06 12.90598678588867 -3.814697265625e-06 8.314187049865723 C -3.814697265625e-06 3.722387313842773 3.722387313842773 -3.814697265625e-06 8.314187049865723 -3.814697265625e-06 Z" stroke="none" fill="#000"/>
        </g>
      </g>
      <path id="Path" d="M6.128.184a.642.642,0,0,1,.9,0,.623.623,0,0,1,0,.889L3.209,4.843a.642.642,0,0,1-.9,0L.186,2.749a.623.623,0,0,1,0-.889.642.642,0,0,1,.9,0L2.759,3.51Z" transform="translate(4.984 6.356)"/>
    </g>
  </g>
</svg>
