<svg xmlns="http://www.w3.org/2000/svg" width="16.628" height="16.628" viewBox="0 0 16.628 16.628">
  <g id="Group_3103" data-name="Group 3103" transform="translate(0 0)">
    <g id="Group_909" data-name="Group 909" transform="translate(0 0)">
      <g id="Path_7766" data-name="Path 7766" fill="#5ac0ff">
        <path d="M 8.314187049865723 16.12837791442871 C 4.00542688369751 16.12837791442871 0.4999970495700836 12.62294673919678 0.4999970495700836 8.314187049865723 C 0.4999970495700836 4.00542688369751 4.00542688369751 0.4999970495700836 8.314187049865723 0.4999970495700836 C 12.62294673919678 0.4999970495700836 16.12837791442871 4.00542688369751 16.12837791442871 8.314187049865723 C 16.12837791442871 12.62294673919678 12.62294673919678 16.12837791442871 8.314187049865723 16.12837791442871 Z" stroke="none"/>
        <path d="M 8.314187049865723 0.9999971389770508 C 4.281126976013184 0.9999971389770508 0.9999971389770508 4.281126976013184 0.9999971389770508 8.314187049865723 C 0.9999971389770508 12.34724712371826 4.281126976013184 15.62837696075439 8.314187049865723 15.62837696075439 C 12.34724712371826 15.62837696075439 15.62837696075439 12.34724712371826 15.62837696075439 8.314187049865723 C 15.62837696075439 4.281126976013184 12.34724712371826 0.9999971389770508 8.314187049865723 0.9999971389770508 M 8.314187049865723 -3.814697265625e-06 C 12.90598678588867 -3.814697265625e-06 16.62837791442871 3.722387313842773 16.62837791442871 8.314187049865723 C 16.62837791442871 12.90598678588867 12.90598678588867 16.62837791442871 8.314187049865723 16.62837791442871 C 3.722387313842773 16.62837791442871 -3.814697265625e-06 12.90598678588867 -3.814697265625e-06 8.314187049865723 C -3.814697265625e-06 3.722387313842773 3.722387313842773 -3.814697265625e-06 8.314187049865723 -3.814697265625e-06 Z" stroke="none" fill="#000"/>
      </g>
    </g>
    <path id="Path" d="M6.128.184a.642.642,0,0,1,.9,0,.623.623,0,0,1,0,.889L3.209,4.843a.642.642,0,0,1-.9,0L.186,2.749a.623.623,0,0,1,0-.889.642.642,0,0,1,.9,0L2.759,3.51Z" transform="translate(4.984 6.356)"/>
  </g>
</svg>
