<svg id="Group_3102" data-name="Group 3102" xmlns="http://www.w3.org/2000/svg" width="16.908" height="16.908" viewBox="0 0 16.908 16.908">
  <g id="Group_909" data-name="Group 909" transform="translate(0 0)">
    <g id="Path_7766" data-name="Path 7766" fill="none">
      <path d="M8.454,0A8.454,8.454,0,1,1,0,8.454,8.454,8.454,0,0,1,8.454,0Z" stroke="none"/>
      <path d="M 8.454048156738281 0.9999980926513672 C 4.343868255615234 0.9999980926513672 0.9999980926513672 4.343868255615234 0.9999980926513672 8.454048156738281 C 0.9999980926513672 12.56422805786133 4.343868255615234 15.9080982208252 8.454048156738281 15.9080982208252 C 12.56422805786133 15.9080982208252 15.9080982208252 12.56422805786133 15.9080982208252 8.454048156738281 C 15.9080982208252 4.343868255615234 12.56422805786133 0.9999980926513672 8.454048156738281 0.9999980926513672 M 8.454048156738281 -1.9073486328125e-06 C 13.12308788299561 -1.9073486328125e-06 16.9080982208252 3.785008430480957 16.9080982208252 8.454048156738281 C 16.9080982208252 13.12308788299561 13.12308788299561 16.9080982208252 8.454048156738281 16.9080982208252 C 3.785008430480957 16.9080982208252 -1.9073486328125e-06 13.12308788299561 -1.9073486328125e-06 8.454048156738281 C -1.9073486328125e-06 3.785008430480957 3.785008430480957 -1.9073486328125e-06 8.454048156738281 -1.9073486328125e-06 Z" stroke="none" fill="#000"/>
    </g>
  </g>
  <path id="Path" d="M6.231.187a.653.653,0,0,1,.915,0,.633.633,0,0,1,0,.9L3.263,4.925a.653.653,0,0,1-.915,0L.19,2.795a.633.633,0,0,1,0-.9.653.653,0,0,1,.915,0L2.8,3.569Z" transform="translate(5.068 6.463)"/>
</svg>
