<svg id="notes_on_the_client_progress" data-name="notes on the client progress" xmlns="http://www.w3.org/2000/svg" width="45" height="45" viewBox="0 0 45 45">
  <g id="Group_3004" data-name="Group 3004" transform="translate(-117 -1902)">
    <g id="Group_3003" data-name="Group 3003" transform="translate(578.096 15251.35)">
      <circle id="Ellipse_426" data-name="Ellipse 426" cx="22.5" cy="22.5" r="22.5" transform="translate(-461.096 -13349.35)" fill="#5ac0ff"/>
    </g>
  </g>
  <g id="Group_3116" data-name="Group 3116" transform="translate(10920.269 6530)">
    <path id="Path_7970" data-name="Path 7970" d="M161.911,54.627c0,1.458,0,2.758-.009,4.058,0,.09-.132.178-.3.386a5.983,5.983,0,0,1-.748-.623c-.834-.959-1.671-1.917-2.455-2.916a2.219,2.219,0,0,0-1.974-.925c-2.387.055-4.78-.055-7.165.039a3.929,3.929,0,0,1-4.2-4.146c.11-2.924.016-5.855.03-8.783a3.653,3.653,0,0,1,4.015-4.01q8.9-.011,17.8,0c2.544,0,4.07,1.4,4.132,3.949q.109,4.5,0,9.014c-.059,2.535-1.594,3.937-4.149,3.956-1.575.012-3.151,0-4.98,0" transform="translate(-11055.561 -6553.114)"/>
    <path id="Path_7971" data-name="Path 7971" d="M-14.454-21.015h-4.213v4.44h-1.5v-4.44h-4.192v-1.394h4.192v-4.409h1.5v4.409h4.213Z" transform="translate(-10878.079 -6484.896)" fill="#5ac0ff" stroke="#5ac0ff" stroke-width="0.3"/>
  </g>
</svg>
