<svg id="print_mini" data-name="print mini" xmlns="http://www.w3.org/2000/svg" xmlns:xlink="http://www.w3.org/1999/xlink" width="34" height="34" viewBox="0 0 34 34">
  <defs>
    <clipPath id="clip-path">
      <rect id="Rectangle_757" data-name="Rectangle 757" width="34" height="34" fill="#fff"/>
    </clipPath>
  </defs>
  <g id="Group_902" data-name="Group 902" clip-path="url(#clip-path)">
    <path id="Path_1069" data-name="Path 1069" d="M28.819,26.143c.541,0,.954.01,1.366,0a3.868,3.868,0,0,0,3.8-3.832q.035-4,0-8.007a3.864,3.864,0,0,0-3.735-3.823c-.435-.019-.872,0-1.385,0-.015-.237-.04-.444-.04-.651q0-2.789,0-5.578A4.245,4.245,0,0,0,28.341,2.1,3.766,3.766,0,0,0,24.933.016q-7.87-.033-15.741,0A3.9,3.9,0,0,0,5.28,3.881c-.033,1.946-.008,3.894-.009,5.841v.746c-.382,0-.725.016-1.066,0A4,4,0,0,0,0,14.646c.07,2.47.053,4.944.005,7.415A3.96,3.96,0,0,0,4.1,26.149c.366-.016.733,0,1.174,0v.833c0,.963,0,1.925,0,2.888A3.945,3.945,0,0,0,9.395,34q7.641.007,15.282,0a3.937,3.937,0,0,0,4.137-4.05c.024-1.028.005-2.056.006-3.084v-.719m-2.689-6.5a1.921,1.921,0,0,1,.052.295c0,3.325.01,6.649,0,9.974,0,1.036-.49,1.467-1.579,1.468q-7.541,0-15.083,0c-1.177,0-1.618-.448-1.619-1.634q0-4.757,0-9.514c0-.188.027-.376.044-.589Zm-18.207-9.2c-.012-.221-.027-.371-.027-.522q0-2.852,0-5.7c0-1.129.461-1.584,1.6-1.584q7.535,0,15.07,0c1.155,0,1.607.433,1.614,1.566.011,1.945.005,3.89,0,5.835a2.316,2.316,0,0,1-.072.41ZM5.9,13.1a1.939,1.939,0,1,1-1.953,1.949A1.93,1.93,0,0,1,5.9,13.1" transform="translate(0.001 0)" fill="#fff"/>
  </g>
</svg>
