<svg id="save_and_finish_mini" data-name="save and finish mini" xmlns="http://www.w3.org/2000/svg" width="34" height="34" viewBox="0 0 34 34">
  <g id="Group_909" data-name="Group 909">
    <g id="Path_7766" data-name="Path 7766" fill="none">
      <path d="M17,0A17,17,0,1,1,0,17,17,17,0,0,1,17,0Z" stroke="none"/>
      <path d="M 17 2 C 12.99336051940918 2 9.226520538330078 3.560270309448242 6.393400192260742 6.393400192260742 C 3.560270309448242 9.226520538330078 2 12.99336051940918 2 17 C 2 21.00664901733398 3.560270309448242 24.77347946166992 6.393400192260742 27.60659980773926 C 9.226520538330078 30.43972969055176 12.99334907531738 32 17 32 C 21.00664901733398 32 24.77347946166992 30.43972969055176 27.60660934448242 27.60660934448242 C 30.43972969055176 24.77347946166992 32 21.00664901733398 32 17 C 32 12.99334907531738 30.43972969055176 9.226520538330078 27.60659980773926 6.393400192260742 C 24.77347946166992 3.560270309448242 21.00664901733398 2 17 2 M 17 0 C 26.38885116577148 0 34 7.611160278320312 34 17 C 34 26.38885116577148 26.38885116577148 34 17 34 C 7.611160278320312 34 0 26.38885116577148 0 17 C 0 7.611160278320312 7.611160278320312 0 17 0 Z" stroke="none" fill="#000"/>
    </g>
  </g>
  <path id="Path" d="M12.462.374a1.306,1.306,0,0,1,1.831,0,1.266,1.266,0,0,1,0,1.807L6.525,9.85a1.306,1.306,0,0,1-1.831,0L.379,5.59a1.266,1.266,0,0,1,0-1.807,1.306,1.306,0,0,1,1.831,0l3.4,3.356Z" transform="translate(10.234 13.025)"/>
</svg>
