<svg id="service_provided" data-name="service provided" xmlns="http://www.w3.org/2000/svg" xmlns:xlink="http://www.w3.org/1999/xlink" width="45" height="45" viewBox="0 0 45 45">
  <defs>
    <clipPath id="clip-path">
      <rect id="Rectangle_1535" data-name="Rectangle 1535" width="26.227" height="14.075" fill="none" stroke="#5ac0ff" stroke-width="1"/>
    </clipPath>
  </defs>
  <g id="Group_3002" data-name="Group 3002" transform="translate(461.096 13349.35)">
    <circle id="Ellipse_426" data-name="Ellipse 426" cx="22.5" cy="22.5" r="22.5" transform="translate(-461.096 -13349.35)" fill="#5ac0ff"/>
  </g>
  <g id="Group_3070" data-name="Group 3070" transform="translate(9.387 24.76)">
    <g id="Group_2143" data-name="Group 2143" transform="translate(0 0)" clip-path="url(#clip-path)">
      <path id="Path_7379" data-name="Path 7379" d="M26.227,2.564a4.559,4.559,0,0,1-1.11,1.678,51.656,51.656,0,0,1-6.955,6.684,5.339,5.339,0,0,1-3.878,1.231c-1.833-.167-3.675-.244-5.512-.367a5.056,5.056,0,0,0-3,.733c-.749.448-1.495.9-2.244,1.348a1.545,1.545,0,0,1-.409.2.672.672,0,0,1-.615-.282.486.486,0,0,1,.113-.6C4.627,11.886,6.55,10.4,9.2,10.717c1.845.219,3.713.233,5.57.352A3.34,3.34,0,0,0,17,10.386a42.142,42.142,0,0,0,6.517-6.043c.418-.458.838-.917,1.238-1.391a1.057,1.057,0,0,0-.009-1.515,1.071,1.071,0,0,0-1.511.066c-2.431,2.02-4.86,4.042-7.316,6.031a2.214,2.214,0,0,1-1.206.486c-1.414.061-2.832.025-4.248.029-.367,0-.621-.171-.627-.537s.237-.553.608-.553h.349c1.106,0,2.212,0,3.318,0a2.654,2.654,0,0,0,.633-.059.952.952,0,0,0-.206-1.883C13.977,5,13.413,5.033,12.851,5c-1.295-.066-2.593-.11-3.881-.248A5.6,5.6,0,0,0,4.349,6.335a9.59,9.59,0,0,1-1.68,1.122c-.517.3-1.078.532-1.6.83-.4.228-.793.254-1.039-.134-.164-.572.388-.786.607-.9a18.046,18.046,0,0,0,3.62-2.277A6.287,6.287,0,0,1,9.333,3.668c1.3.157,2.626.128,3.938.205.729.043,1.454.149,2.182.195a.846.846,0,0,0,.518-.17c1.061-.811,2.135-1.609,3.155-2.471a2.231,2.231,0,0,1,2.982-.4c.145-.135.3-.281.455-.422a2.151,2.151,0,0,1,3.546.879c.034.089.078.175.118.262ZM16.456,5.046l.19.564,4.565-3.726c-.6-.161-.673-.163-.982.086C18.983,2.98,17.743,4,16.456,5.046" transform="translate(0 0)" stroke="#5ac0ff" stroke-width="0.2"/>
    </g>
  </g>
  <path id="Intersection_2" data-name="Intersection 2" d="M14.332,23.848q-1.482-.56-2.958-1.136c-.483-.188-.554-.337-.424-.84.15-.577.3-1.156.465-1.727a.438.438,0,0,0-.108-.464c-.283-.331-.557-.67-.818-1.02a.481.481,0,0,0-.469-.209c-.642.043-1.283.071-1.925.1-.427.022-.557-.072-.628-.5q-.275-1.665-.534-3.332a.521.521,0,0,1,.443-.66c.6-.16,1.2-.32,1.8-.47a.425.425,0,0,0,.342-.362A10.764,10.764,0,0,1,9.954,12a.515.515,0,0,0-.054-.543c-.348-.513-.687-1.032-1.022-1.553-.237-.369-.211-.5.136-.785Q10.272,8.1,11.533,7.089c.386-.311.61-.3.959.039q.664.651,1.314,1.315a.426.426,0,0,0,.457.127,12.587,12.587,0,0,1,1.32-.221.422.422,0,0,0,.387-.268c.261-.548.562-1.078.814-1.63a.587.587,0,0,1,.616-.385L20.875,7.4a.5.5,0,0,1,.054.482c-.194.648-.358,1.3-.545,1.955a.372.372,0,0,0,.083.376q.446.547.871,1.11a.436.436,0,0,0,.416.179c.653-.04,1.307-.073,1.959-.106.429-.023.564.078.633.5q.267,1.631.525,3.263c.07.441-.057.632-.495.752-.588.159-1.174.318-1.765.463a.38.38,0,0,0-.3.311,13.188,13.188,0,0,1-.521,1.345.31.31,0,0,0,.027.369q.617.828,1.219,1.668c.274.38.263.527-.087.814q-1.28,1.046-2.571,2.077a.588.588,0,0,1-.909-.064c-.432-.428-.862-.859-1.285-1.3a.493.493,0,0,0-.55-.145,7.481,7.481,0,0,1-1.217.2.491.491,0,0,0-.467.322c-.237.522-.494,1.034-.753,1.545-.148.293-.274.42-.481.42A1.12,1.12,0,0,1,14.332,23.848ZM12.5,13.643A3.627,3.627,0,1,0,15.9,11.3,3.654,3.654,0,0,0,12.5,13.643Z" transform="translate(6.596 0.822)"/>
</svg>
