<svg id="client_situation_changes_icon" xmlns="http://www.w3.org/2000/svg" xmlns:xlink="http://www.w3.org/1999/xlink" width="26" height="26" viewBox="0 0 26 26">
  <defs>
    <clipPath id="clip-path">
      <rect id="Rectangle_1185" data-name="Rectangle 1185" width="20.377" height="20.379" fill="#fff"/>
    </clipPath>
  </defs>
  <g id="Group_1991" data-name="Group 1991">
    <g id="Group_1684" data-name="Group 1684">
      <g id="Ellipse_381" data-name="Ellipse 381" fill="#007fff" stroke="#007fff" stroke-width="1">
        <circle cx="13" cy="13" r="13" stroke="none"/>
        <circle cx="13" cy="13" r="12.5" fill="none"/>
      </g>
    </g>
  </g>
  <g id="Group_1683" data-name="Group 1683" transform="translate(2.71 2.811)">
    <path id="Subtraction_2" data-name="Subtraction 2" d="M5.494,14.008H5.479A8.334,8.334,0,0,1,0,11.952l.12-1.139A5.585,5.585,0,0,1,3.788,6.721a3.633,3.633,0,0,1-1.67-4.3A3.571,3.571,0,0,1,5.479,0h.076A3.556,3.556,0,0,1,7.7.759,3.628,3.628,0,0,1,8.9,2.485,3.6,3.6,0,0,1,7.2,6.72a5.573,5.573,0,0,1,3.573,3.722l.285,1.436A8.284,8.284,0,0,1,5.494,14.008Zm.012-6.7h0a4.824,4.824,0,0,0-1.127.135,4.677,4.677,0,0,0-3.5,3.99.293.293,0,0,0,.148.306A7.462,7.462,0,0,0,5.485,13.2h.281c.076,0,.139,0,.2,0a2.008,2.008,0,0,0,.2-.02c.041-.006.081-.011.122-.015a7.222,7.222,0,0,0,3.407-1.235c.072-.049.134-.09.186-.124.294-.192.294-.192.224-.487-.016-.067-.035-.149-.056-.251A4.615,4.615,0,0,0,5.506,7.312ZM5.487,6.279h.072a2.66,2.66,0,0,0,1.847-.774,2.713,2.713,0,0,0,.026-3.842A2.742,2.742,0,0,0,5.5.85H5.5a2.743,2.743,0,0,0-1.925.815A2.694,2.694,0,0,0,2.78,3.589,2.723,2.723,0,0,0,5.441,6.28Zm7.045,3.851h0l1.084-2.59A8.345,8.345,0,0,1,12.532,10.13Z" transform="translate(5.245 5.986)" fill="#fff" stroke="#fff" stroke-width="0.5"/>
    <g id="Group_1682" data-name="Group 1682" transform="translate(0)">
      <g id="Group_1682-2" data-name="Group 1682" clip-path="url(#clip-path)">
        <path id="Path_7363" data-name="Path 7363" d="M10.385,0c.057.03.114.059.17.09a.789.789,0,0,1,.4.868.808.808,0,0,1-.737.612c-.536.043-1.078.058-1.6.152a8.572,8.572,0,0,0-6.9,6.917A8.393,8.393,0,0,0,3.76,15.912,8.324,8.324,0,0,0,8.68,18.666a8.6,8.6,0,0,0,9.577-5.452,8.442,8.442,0,0,0,.515-3.748,8.557,8.557,0,0,0-1.542-4.245c-.046-.065-.1-.128-.172-.228-.011.1-.022.155-.023.214,0,.3.008.6,0,.906a.782.782,0,0,1-.854.8.77.77,0,0,1-.707-.665,2.4,2.4,0,0,1-.012-.293q0-1.212,0-2.424A2.89,2.89,0,0,1,15.479,3a.726.726,0,0,1,.727-.6q1.493-.006,2.987,0A.784.784,0,1,1,19.2,3.966c-.293.008-.587,0-.907,0a1.542,1.542,0,0,0,.086.152,10.211,10.211,0,0,1,1.885,4.513c.043.272.076.547.114.82v1.42a1.636,1.636,0,0,0-.038.165c-.037.291-.06.584-.109.873a9.827,9.827,0,0,1-1.946,4.459,10.03,10.03,0,0,1-6.809,3.922,10.158,10.158,0,0,1-8.557-2.972A10.008,10.008,0,0,1,.036,11,10.156,10.156,0,0,1,3.351,2.638,10,10,0,0,1,8.83.09c.209-.028.417-.06.625-.09Z" transform="translate(0)" fill="#fff"/>
      </g>
    </g>
  </g>
</svg>
