<svg id="Housing" xmlns="http://www.w3.org/2000/svg" xmlns:xlink="http://www.w3.org/1999/xlink" width="26" height="25" viewBox="0 0 26 25">
  <defs>
    <clipPath id="clip-path">
      <rect id="Rectangle_735" data-name="Rectangle 735" width="17.066" height="15.132" fill="#fff"/>
    </clipPath>
  </defs>
  <g id="Ellipse_382" data-name="Ellipse 382" fill="#007fff" stroke="#007fff" stroke-width="1">
    <ellipse cx="13" cy="12.5" rx="13" ry="12.5" stroke="none"/>
    <ellipse cx="13" cy="12.5" rx="12.5" ry="12" fill="none"/>
  </g>
  <g id="Group_856" data-name="Group 856" transform="translate(4.469 3.947)">
    <g id="Group_855" data-name="Group 855" transform="translate(0 0)" clip-path="url(#clip-path)">
      <path id="Path_1028" data-name="Path 1028" d="M13.709,4.52c.749.717,1.445,1.457,2.223,2.1.328.27.627.565.949.854a.537.537,0,0,1,.184.419v0c-.022.465-.066.513-.512.517-.6.005-1.207,0-1.865,0v.621q0,2.69,0,5.38c0,.482-.19.7-.679.708-.885.017-1.77.012-2.655,0a.692.692,0,0,1-.719-.738c-.009-1,0-2,0-3v-.709h-4.2v.863c0,.908,0,1.817,0,2.725,0,.642-.226.862-.875.865q-1.188.006-2.376,0c-.465,0-.663-.2-.664-.656q-.005-2.62,0-5.24a4.152,4.152,0,0,0,0-.489.328.328,0,0,0-.374-.328A8.694,8.694,0,0,1,1.12,8.42C.91,8.405.7,8.416.488,8.411.09,8.4.023,8.338,0,7.936c0-.036,0-.071,0-.108a.438.438,0,0,1,.136-.316C.949,6.736,1.743,5.921,2.615,5.2c.533-.441.98-.965,1.514-1.394.7-.564,1.284-1.255,1.977-1.817.52-.422.967-.908,1.462-1.349A8.652,8.652,0,0,1,8.251.1a.46.46,0,0,1,.563,0A7.307,7.307,0,0,1,9.5.638c.687.627,1.364,1.265,2.1,1.944.044-.346-.029-.646.151-.907.112-.162.211-.274.427-.261.278.016.559,0,.838,0,.472,0,.675.2.7.693.012.256,0,.512,0,.768Z" transform="translate(0 0)" fill="#fff"/>
    </g>
  </g>
</svg>
