<svg id="Legal_and_Financial_icon" xmlns="http://www.w3.org/2000/svg" width="26" height="26.178" viewBox="0 0 26 26.178">
  <g id="Ellipse_403" data-name="Ellipse 403" fill="#007fff" stroke="#007fff" stroke-width="1">
    <circle cx="13" cy="13" r="13" stroke="none"/>
    <circle cx="13" cy="13" r="12.5" fill="none"/>
  </g>
  <path id="Path_7376" data-name="Path 7376" d="M6.3,0A6.3,6.3,0,1,1,0,6.3,6.3,6.3,0,0,1,6.3,0Z" transform="translate(4.792 1.311)" fill="#007fff"/>
  <path id="Path_7376_-_Outline" data-name="Path 7376 - Outline" d="M6.3.6A5.7,5.7,0,1,0,12,6.3,5.7,5.7,0,0,0,6.3.6m0-.6A6.3,6.3,0,1,1,0,6.3,6.3,6.3,0,0,1,6.3,0Z" transform="translate(4.792 1.311)" fill="#fff"/>
  <path id="Path_7371" data-name="Path 7371" d="M13.59,11.023a8.569,8.569,0,0,0-.99.527,1.466,1.466,0,0,0-.172,2.309,5.138,5.138,0,0,0,1.482.864c.273.124.551.243.812.388a.68.68,0,0,1,.429.725c-.057.318-.314.462-.6.557-.012,0-.026,0-.039.006a2.566,2.566,0,0,1-1.991-.34c-.074-.042-.146-.088-.228-.137l-.589.945a3.839,3.839,0,0,0,1.8.727v.948h1.266v-1.02c.147-.05.258-.086.368-.126a2.256,2.256,0,0,0,.9-.607,1.619,1.619,0,0,0-.072-2.289,3.834,3.834,0,0,0-.674-.465c-.475-.246-.97-.455-1.45-.691a1.732,1.732,0,0,1-.416-.288.4.4,0,0,1,.042-.691,1.077,1.077,0,0,1,.276-.145,1.911,1.911,0,0,1,.968-.057,2.377,2.377,0,0,1,1.048.446l.664-.977a6.6,6.6,0,0,0-1.59-.614v-.97a9.5,9.5,0,0,0-1.244,0Z" transform="translate(-3.002 -6.678)" fill="#fff"/>
  <g id="Group_1685" data-name="Group 1685" transform="translate(9.938 11.51)">
    <path id="Path_7372" data-name="Path 7372" d="M72.8,3.615l-.122.132a.786.786,0,0,1-1.11.043l-2.478-2.3a.786.786,0,0,1-.042-1.11l.122-.132a.785.785,0,0,1,1.11-.043l2.478,2.3a.786.786,0,0,1,.042,1.11" transform="translate(-62.091 0)" fill="#fff"/>
    <path id="Path_7373" data-name="Path 7373" d="M80.887,29.375h0a.849.849,0,0,1-1.2.046l-3.519-3.259a.849.849,0,0,1,1.153-1.245l3.519,3.259a.848.848,0,0,1,.046,1.2" transform="translate(-68.499 -21.075)" fill="#fff"/>
    <path id="Path_7374" data-name="Path 7374" d="M6.123,5.748h0A1.041,1.041,0,0,1,4.652,5.8l-4.318-4A1.041,1.041,0,1,1,1.749.277l4.318,4a1.041,1.041,0,0,1,.056,1.471" transform="translate(0 10.22) rotate(-43)" fill="#fff"/>
    <path id="Path_7375" data-name="Path 7375" d="M53.83,24.094l-.122.132a.786.786,0,0,1-1.11.043l-2.478-2.3a.786.786,0,0,1-.042-1.11l.122-.132a.785.785,0,0,1,1.11-.043l2.478,2.3a.786.786,0,0,1,.042,1.11" transform="translate(-46.233 -17.121)" fill="#fff"/>
    <rect id="Rectangle_1186" data-name="Rectangle 1186" width="4.132" height="3.617" transform="translate(4.617 3.636) rotate(-47.193)" fill="#fff"/>
  </g>
</svg>
