<svg id="Risky" xmlns="http://www.w3.org/2000/svg" xmlns:xlink="http://www.w3.org/1999/xlink" width="26" height="22.873" viewBox="0 0 26 22.873">
  <defs>
    <clipPath id="clip-path">
      <rect id="Rectangle_732" data-name="Rectangle 732" width="26" height="22.873" transform="translate(0 0)" fill="none"/>
    </clipPath>
  </defs>
  <g id="Group_850" data-name="Group 850">
    <g id="Group_849" data-name="Group 849" clip-path="url(#clip-path)">
      <path id="Path_1013" data-name="Path 1013" d="M13,22.872H1.381A1.337,1.337,0,0,1,.026,21.777a1.307,1.307,0,0,1,.164-.936L3.72,14.727,11.811.711a1.345,1.345,0,0,1,2.37,0q3.6,6.235,7.2,12.47Q23.588,17,25.8,20.827a1.3,1.3,0,0,1-.065,1.49,1.272,1.272,0,0,1-1.021.552c-.1.005-.194,0-.291,0H13m0-1.033H24.6" transform="translate(0 0.001)" fill="#007fff"/>
    </g>
  </g>
  <path id="Path_1019" data-name="Path 1019" d="M570.32,287.947a1.8,1.8,0,0,1,.52-1.3,1.368,1.368,0,0,1,2.11.174,1.844,1.844,0,0,1,.356,1.349q-.1.941-.205,1.883-.142,1.3-.285,2.6-.13,1.191-.258,2.382c-.031.288-.061.577-.1.864a.654.654,0,0,1-1.283,0c-.087-.762-.168-1.524-.251-2.286q-.111-1.013-.221-2.027t-.224-2.056q-.073-.672-.145-1.345c-.009-.083-.011-.167-.017-.246" transform="translate(-558.822 -280.31)" fill="#fff"/>
  <path id="Path_1020" data-name="Path 1020" d="M586.889,850.794a1.234,1.234,0,1,1-1.218-1.242,1.237,1.237,0,0,1,1.218,1.242" transform="translate(-572.652 -832.297)" fill="#fff"/>
</svg>
