<svg id="backup_data_icon" data-name="backup data icon" xmlns="http://www.w3.org/2000/svg" xmlns:xlink="http://www.w3.org/1999/xlink" width="66.184" height="55.272" viewBox="0 0 66.184 55.272">
  <defs>
    <clipPath id="clip-path">
      <rect id="Rectangle_1249" data-name="Rectangle 1249" width="66.184" height="55.272" fill="none"/>
    </clipPath>
  </defs>
  <g id="Group_1840" data-name="Group 1840" clip-path="url(#clip-path)">
    <path id="Path_7678" data-name="Path 7678" d="M60.51,32.779c.443.112.729.173,1.009.258a1.973,1.973,0,0,1,1.435,2.19q-.712,6.181-1.436,12.361c-.1.875-.183,1.753-.264,2.631A2.53,2.53,0,0,1,58.5,52.745q-9.822.013-19.644,0a2.585,2.585,0,0,1-2.824-2.586c-.332-3.1-.705-6.2-1.054-9.3-.213-1.9-.422-3.795-.616-5.694a1.942,1.942,0,0,1,1.494-2.144c.281-.077.571-.122,1.013-.215V30.864c0-.809-.011-1.618,0-2.428.02-1.1.336-1.424,1.456-1.48.587-.03,1.178-.01,1.766-.01,1.545,0,3.09.017,4.635-.008a2,2,0,0,1,1.906.863,2.842,2.842,0,0,0,2.8,1.263c3.124-.087,6.253-.033,9.379-.027,1.357,0,1.663.313,1.691,1.7.014.656,0,1.313,0,2.045m-2.314.067V31.273h-1.2c-2.758,0-5.517-.06-8.272.026-1.4.044-2.535-.189-3.28-1.481a1.411,1.411,0,0,0-1.41-.657c-1.322.039-2.646.008-3.971.016-.283,0-.568.05-.861.079v3.589Z" transform="translate(3.214 2.52)"/>
    <path id="Path_7679" data-name="Path 7679" d="M16.64,41.144l2.185,4.107c-5.01.5-9.725-.045-13.659-3.546A15,15,0,0,1,9.4,16.484a3.246,3.246,0,0,0,.373-.2C11.24,6.058,18.984.621,26.5.055A17.473,17.473,0,0,1,39.132,4.022a18.133,18.133,0,0,1,6.6,11.431,14.4,14.4,0,0,1,11.1,3.808,14.889,14.889,0,0,1,4.729,8.7,5.825,5.825,0,0,1-2.157.152c-.694.034-1.393.008-2.167.008-.128-.357-.254-.689-.367-1.027a10.633,10.633,0,0,0-9.661-7.329,11.605,11.605,0,0,0-2.732.266c-1.8.329-2.955-.517-3-2.366a12.892,12.892,0,0,0-2.533-7.5,13.391,13.391,0,0,0-10.89-5.738A13.689,13.689,0,0,0,14.423,15.35a15.667,15.667,0,0,0-.279,2.4,2.209,2.209,0,0,1-1.854,2.382,10.348,10.348,0,0,0-5.039,3.016A10.227,10.227,0,0,0,4.945,33.7a10.216,10.216,0,0,0,8.022,7.1,29.125,29.125,0,0,0,3.672.34" transform="translate(0 0)" stroke="#fff" stroke-width="0.8"/>
    <path id="Path_7680" data-name="Path 7680" d="M23.541,33.673c1.131,6.451,5.162,10.47,10.466,13.536-2.654.671-8.057-.715-11.007-3.3a17.6,17.6,0,0,1-5.586-10.229c-.477,0-.947.021-1.415,0-1.082-.058-1.429-.633-.845-1.5q2.091-3.108,4.267-6.16a1.138,1.138,0,0,1,2.014.009q2.178,3.048,4.271,6.156c.559.828.245,1.411-.749,1.494-.43.035-.865.005-1.417.005" transform="translate(1.392 2.377)"/>
  </g>
</svg>
