<svg id="download_icon" data-name="download icon" xmlns="http://www.w3.org/2000/svg" xmlns:xlink="http://www.w3.org/1999/xlink" width="27.622" height="22.611" viewBox="0 0 27.622 22.611">
  <defs>
    <clipPath id="clip-path">
      <rect id="Rectangle_1259" data-name="Rectangle 1259" width="27.622" height="22.611" fill="none"/>
    </clipPath>
  </defs>
  <g id="Group_1868" data-name="Group 1868">
    <g id="Group_1867" data-name="Group 1867" clip-path="url(#clip-path)">
      <path id="Path_7717" data-name="Path 7717" d="M27.875,45.673a.861.861,0,0,1-1.212.125.87.87,0,0,1-.125-.125L22.749,41.01a.861.861,0,0,1,.668-1.4H31a.861.861,0,0,1,.668,1.4Z" transform="translate(-13.396 -23.38)" fill="#020202"/>
      <path id="Path_7718" data-name="Path 7718" d="M30.553,37.233H27.969a.861.861,0,0,1-.861-.861v-6.89a.861.861,0,0,1,.861-.862h2.584a.861.861,0,0,1,.861.862v6.89a.861.861,0,0,1-.861.861" transform="translate(-15.45 -18.423)" fill="#020202"/>
      <path id="Path_7719" data-name="Path 7719" d="M26.739,10.434h-.021A6.567,6.567,0,0,0,25.471,8.9a6.356,6.356,0,0,0-4.9-1.68A8,8,0,0,0,17.66,2.178,7.71,7.71,0,0,0,12.086.427,8.058,8.058,0,0,0,4.705,7.589a1.406,1.406,0,0,1-.165.088A6.619,6.619,0,0,0,2.673,18.806,7.413,7.413,0,0,0,8.7,20.371l-.964-1.812v0a12.785,12.785,0,0,1-1.62-.15,4.507,4.507,0,0,1-3.54-3.133,4.511,4.511,0,0,1-.158-2.462h.006c.056-.158.112-.3.162-.453a4.679,4.679,0,0,1,1.209-1.924H3.787A4.558,4.558,0,0,1,5.816,9.287a.975.975,0,0,0,.818-1.051,6.891,6.891,0,0,1,.123-1.059,6.041,6.041,0,0,1,6.015-4.82,5.91,5.91,0,0,1,4.805,2.532A5.69,5.69,0,0,1,18.7,8.2a1,1,0,0,0,1.324,1.044,5.148,5.148,0,0,1,1.206-.117,4.692,4.692,0,0,1,4.263,3.234c.05.149.105.3.162.453h.006a4.507,4.507,0,0,1-.158,2.462,4.507,4.507,0,0,1-3.539,3.133,12.785,12.785,0,0,1-1.62.15v0l-.964,1.812A7.412,7.412,0,0,0,25.4,18.806a6.616,6.616,0,0,0,1.339-8.372" transform="translate(-0.224 -0.223)"/>
      <path id="Path_7720" data-name="Path 7720" d="M26.739,10.434h-.021A6.567,6.567,0,0,0,25.471,8.9a6.356,6.356,0,0,0-4.9-1.68A8,8,0,0,0,17.66,2.178,7.71,7.71,0,0,0,12.086.427,8.058,8.058,0,0,0,4.705,7.589a1.406,1.406,0,0,1-.165.088A6.619,6.619,0,0,0,2.673,18.806,7.413,7.413,0,0,0,8.7,20.371l-.964-1.812v0a12.785,12.785,0,0,1-1.62-.15,4.507,4.507,0,0,1-3.54-3.133,4.511,4.511,0,0,1-.158-2.462h.006c.056-.158.112-.3.162-.453a4.679,4.679,0,0,1,1.209-1.924H3.787A4.558,4.558,0,0,1,5.816,9.287a.975.975,0,0,0,.818-1.051,6.891,6.891,0,0,1,.123-1.059,6.041,6.041,0,0,1,6.015-4.82,5.91,5.91,0,0,1,4.805,2.532A5.69,5.69,0,0,1,18.7,8.2a1,1,0,0,0,1.324,1.044,5.148,5.148,0,0,1,1.206-.117,4.692,4.692,0,0,1,4.263,3.234c.05.149.105.3.162.453h.006a4.507,4.507,0,0,1-.158,2.462,4.507,4.507,0,0,1-3.539,3.133,12.785,12.785,0,0,1-1.62.15v0l-.964,1.812A7.412,7.412,0,0,0,25.4,18.806,6.616,6.616,0,0,0,26.739,10.434Z" transform="translate(-0.224 -0.223)" fill="none"/>
    </g>
  </g>
</svg>
