<svg id="icon_backup_folder" data-name="icon backup folder" xmlns="http://www.w3.org/2000/svg" xmlns:xlink="http://www.w3.org/1999/xlink" width="83" height="61.574" viewBox="0 0 83 61.574">
  <defs>
    <clipPath id="clip-path">
      <rect id="Rectangle_918" data-name="Rectangle 918" width="83" height="61.574" fill="#fff"/>
    </clipPath>
    <clipPath id="clip-path-2">
      <rect id="Rectangle_1258" data-name="Rectangle 1258" width="33.368" height="27.866"/>
    </clipPath>
  </defs>
  <g id="Group_1159" data-name="Group 1159">
    <g id="Group_1158" data-name="Group 1158" clip-path="url(#clip-path)">
      <path id="Path_1139" data-name="Path 1139" d="M30.863,46.976q-13.055,0-26.111,0A4.421,4.421,0,0,1,.133,43.644a6.487,6.487,0,0,1-.127-1.5Q0,23.508,0,4.868c0-3.1,1.758-4.835,4.885-4.84C11.983.02,19.077.051,26.17,0A2.127,2.127,0,0,1,28.5,1.4c.847,1.932,1.917,3.765,2.78,5.691a2.122,2.122,0,0,0,2.28,1.446c7.747-.063,15.5-.04,23.243-.018a6.7,6.7,0,0,1,2.213.329,4.222,4.222,0,0,1,2.774,4.245c.014,5.735.006,11.471.006,17.206,0,3.924-.1,7.851.03,11.771a4.73,4.73,0,0,1-5,4.948c-8.652-.105-17.306-.041-25.959-.041" transform="translate(11.911 5.293)" fill="#ffde0b"/>
    </g>
  </g>
  <g id="Group_1862" data-name="Group 1862" transform="translate(24.816 17.854)" clip-path="url(#clip-path-2)">
    <path id="Path_7713" data-name="Path 7713" d="M47.54,29.883c.223.056.368.087.509.13a1,1,0,0,1,.723,1.1q-.359,3.116-.724,6.232c-.051.441-.092.884-.133,1.327a1.275,1.275,0,0,1-1.389,1.274q-4.952.007-9.9,0a1.3,1.3,0,0,1-1.424-1.3c-.168-1.564-.356-3.126-.531-4.689-.108-.957-.213-1.913-.31-2.871A.979.979,0,0,1,35.11,30c.142-.039.288-.062.511-.109v-.979c0-.408-.006-.816,0-1.224.01-.554.169-.718.734-.746.3-.015.594,0,.89,0,.779,0,1.558.009,2.337,0a1.008,1.008,0,0,1,.961.435,1.433,1.433,0,0,0,1.413.637c1.575-.044,3.153-.017,4.729-.014.684,0,.839.158.852.855.007.331,0,.662,0,1.031m-1.167.034v-.793h-.607c-1.39,0-2.782-.03-4.17.013a1.605,1.605,0,0,1-1.653-.747.711.711,0,0,0-.711-.331c-.667.02-1.334,0-2,.008-.143,0-.286.025-.434.04v1.81Z" transform="translate(-15.412 -12.086)"/>
    <path id="Path_7714" data-name="Path 7714" d="M8.389,20.744l1.1,2.071c-2.526.252-4.9-.023-6.886-1.788A7.562,7.562,0,0,1,4.74,8.311a1.637,1.637,0,0,0,.188-.1A9.205,9.205,0,0,1,13.362.027a8.81,8.81,0,0,1,6.367,2,9.142,9.142,0,0,1,3.328,5.763,7.262,7.262,0,0,1,5.6,1.92A7.507,7.507,0,0,1,31.039,14.1a2.937,2.937,0,0,1-1.087.077c-.35.017-.7,0-1.093,0-.065-.18-.128-.347-.185-.518a5.361,5.361,0,0,0-4.871-3.7,5.851,5.851,0,0,0-1.377.134,1.14,1.14,0,0,1-1.512-1.193,6.5,6.5,0,0,0-1.277-3.781,6.751,6.751,0,0,0-5.49-2.893A6.9,6.9,0,0,0,7.272,7.739a7.9,7.9,0,0,0-.141,1.212,1.114,1.114,0,0,1-.935,1.2,5.217,5.217,0,0,0-2.541,1.521,5.156,5.156,0,0,0-1.163,5.32,5.151,5.151,0,0,0,4.045,3.579,14.684,14.684,0,0,0,1.851.171" transform="translate(0 0)" stroke="#91cefe" stroke-width="0.1"/>
    <path id="Path_7715" data-name="Path 7715" d="M19.243,29.574c.57,3.252,2.6,5.279,5.277,6.825a7.549,7.549,0,0,1-5.549-1.666,8.875,8.875,0,0,1-2.816-5.157c-.24,0-.477.01-.713,0-.545-.029-.721-.319-.426-.757q1.054-1.567,2.151-3.106a.574.574,0,0,1,1.016,0q1.1,1.537,2.154,3.1c.282.417.123.711-.378.753-.217.018-.436,0-.715,0" transform="translate(-6.673 -11.398)"/>
  </g>
</svg>
