<svg id="icon_security_incidents_folder" data-name="icon security incidents folder" xmlns="http://www.w3.org/2000/svg" xmlns:xlink="http://www.w3.org/1999/xlink" width="83" height="61.574" viewBox="0 0 83 61.574">
  <defs>
    <clipPath id="clip-path">
      <rect id="Rectangle_918" data-name="Rectangle 918" width="83" height="61.574" fill="#fff"/>
    </clipPath>
    <clipPath id="clip-path-2">
      <rect id="Rectangle_1250" data-name="Rectangle 1250" width="25.438" height="28.55" fill="none"/>
    </clipPath>
  </defs>
  <g id="Group_1159" data-name="Group 1159">
    <g id="Group_1158" data-name="Group 1158" clip-path="url(#clip-path)">
      <path id="Path_1139" data-name="Path 1139" d="M30.863,46.976q-13.055,0-26.111,0A4.421,4.421,0,0,1,.133,43.644a6.487,6.487,0,0,1-.127-1.5Q0,23.508,0,4.868c0-3.1,1.758-4.835,4.885-4.84C11.983.02,19.077.051,26.17,0A2.127,2.127,0,0,1,28.5,1.4c.847,1.932,1.917,3.765,2.78,5.691a2.122,2.122,0,0,0,2.28,1.446c7.747-.063,15.5-.04,23.243-.018a6.7,6.7,0,0,1,2.213.329,4.222,4.222,0,0,1,2.774,4.245c.014,5.735.006,11.471.006,17.206,0,3.924-.1,7.851.03,11.771a4.73,4.73,0,0,1-5,4.948c-8.652-.105-17.306-.041-25.959-.041" transform="translate(11.911 5.293)" fill="#ffde0b"/>
    </g>
  </g>
  <g id="Group_1863" data-name="Group 1863" transform="translate(28.215 19.174)">
    <g id="Group_1842" data-name="Group 1842" transform="translate(0 0)" clip-path="url(#clip-path-2)">
      <path id="Path_7681" data-name="Path 7681" d="M12.582,0h.293c.068.022.136.043.2.067l9.666,3.507c.612.222,1.226.443,1.837.667a.864.864,0,0,1,.6.743c.053.43.086.862.122,1.294q.04.487.065.975c.022.417.037.834.054,1.25.005.127.01.253.015.38v1.7c0,.045-.012.09-.012.135,0,.568-.032,1.134-.079,1.7-.037.435-.075.87-.125,1.3q-.12,1.029-.324,2.046a21.448,21.448,0,0,1-.982,3.456,16.049,16.049,0,0,1-2.724,4.7,13.353,13.353,0,0,1-5.469,3.913,11.522,11.522,0,0,1-2.479.663l-.328.049h-.372l-.28-.041a11.418,11.418,0,0,1-1.983-.478,13.287,13.287,0,0,1-5.716-3.768A15.323,15.323,0,0,1,2.088,20.5a21.393,21.393,0,0,1-1.76-6.1q-.13-.9-.2-1.8c-.047-.579-.08-1.158-.1-1.738,0-.133-.02-.265-.03-.4V9c.01-.113.026-.226.029-.34q.023-1,.1-2Q.2,5.837.275,5.015a1.011,1.011,0,0,1,.086-.308.91.91,0,0,1,.561-.483q2.216-.8,4.429-1.605L12.582,0M23.653,9.656c-.015-.564-.024-1.007-.04-1.45-.011-.31-.024-.619-.046-.928-.032-.468-.075-.936-.106-1.4-.007-.1-.039-.152-.133-.17l-.009,0Q18.076,3.8,12.833,1.895a.28.28,0,0,0-.206,0Q8.938,3.236,5.248,4.574,3.677,5.144,2.1,5.713a.13.13,0,0,0-.1.131c-.007.137-.026.273-.035.409-.04.615-.087,1.229-.115,1.845-.024.534-.037,1.069-.035,1.6,0,.6.02,1.206.047,1.809.022.485.059.97.1,1.453.057.61.141,1.217.245,1.821A20.748,20.748,0,0,0,3.019,18a15.247,15.247,0,0,0,1.813,3.683,11.861,11.861,0,0,0,4.6,4.05,10.461,10.461,0,0,0,3.05.98,1.227,1.227,0,0,0,.32.019c.2-.023.406-.059.607-.1a11.173,11.173,0,0,0,3.524-1.407,11.9,11.9,0,0,0,3.646-3.478,15.278,15.278,0,0,0,1.879-3.812,20.74,20.74,0,0,0,.859-3.619c.062-.419.113-.84.159-1.261.039-.356.068-.714.093-1.071q.032-.463.046-.928c.016-.508.025-1.017.034-1.4"/>
      <path id="Path_7682" data-name="Path 7682" d="M51.936,44.271c.073,0,.127,0,.182,0a3.271,3.271,0,0,1,.438.032,1.331,1.331,0,0,1,1.069,1.306c0,.623,0,1.246,0,1.869,0,1.142-.015,2.283.005,3.424a1.393,1.393,0,0,1-1.425,1.42c-2.377-.015-4.755-.005-7.132-.005-.277,0-.554,0-.832,0a1.31,1.31,0,0,1-1.061-.535,1.278,1.278,0,0,1-.271-.8q0-2.686,0-5.371a1.343,1.343,0,0,1,1.32-1.339c.082,0,.163,0,.245,0,.035,0,.07,0,.116-.007,0-.053.008-.1.008-.148,0-.835,0-1.67,0-2.5a2.618,2.618,0,0,1,.7-1.819,2.591,2.591,0,0,1,1.679-.853,2.871,2.871,0,0,1,.3-.016c.659,0,1.318,0,1.976,0a2.664,2.664,0,0,1,2.637,2.2,3.146,3.146,0,0,1,.042.525c0,.822,0,1.644,0,2.466v.156m-1.814,0c0-.051.007-.082.007-.114,0-.86,0-1.721,0-2.581a.888.888,0,0,0-.049-.277.825.825,0,0,0-.767-.568c-.7-.008-1.395,0-2.092,0a.622.622,0,0,0-.126.014.855.855,0,0,0-.688.837c0,.864,0,1.727,0,2.591,0,.028,0,.057.009.1h3.71M47.717,49.22v.91c0,.039,0,.079,0,.118a.265.265,0,0,0,.272.264c.186,0,.372,0,.557,0a.264.264,0,0,0,.267-.258c0-.032,0-.065,0-.1,0-.632,0-1.265,0-1.9a.191.191,0,0,1,.087-.178,1.068,1.068,0,0,0,.467-.93,1.1,1.1,0,0,0-1.351-1.044,1.1,1.1,0,0,0-.39,1.97.2.2,0,0,1,.091.186c0,.32,0,.639,0,.959" transform="translate(-35.537 -32.235)"/>
    </g>
  </g>
  <g id="Group_1864" data-name="Group 1864" transform="translate(45.129 16.952)">
    <path id="Path_7247" data-name="Path 7247" d="M123.615,130.4a6.559,6.559,0,1,1,6.577-6.555,6.55,6.55,0,0,1-6.577,6.555" transform="translate(-117.055 -117.282)"/>
    <path id="Path_7697" data-name="Path 7697" d="M1.494-9.813H3.01L3.389-15.4H1.115Zm.758,3.069A1.124,1.124,0,0,0,3.425-7.857,1.1,1.1,0,0,0,2.252-8.945,1.1,1.1,0,0,0,1.078-7.857,1.124,1.124,0,0,0,2.252-6.744Z" transform="translate(4.244 18.061)" fill="#ffde0b"/>
  </g>
</svg>
