<svg id="incident_response_Uploaded_popup_icon" data-name="incident response Uploaded popup icon" xmlns="http://www.w3.org/2000/svg" xmlns:xlink="http://www.w3.org/1999/xlink" width="102.307" height="78.158" viewBox="0 0 102.307 78.158">
  <defs>
    <clipPath id="clip-path">
      <rect id="Rectangle_923" data-name="Rectangle 923" width="38.764" height="47.659" transform="translate(-2 -2)" fill="none" stroke="#020202" stroke-width="1"/>
    </clipPath>
    <clipPath id="clip-path-2">
      <rect id="Rectangle_918" data-name="Rectangle 918" width="90.291" height="66.984" fill="#fff"/>
    </clipPath>
    <filter id="Path_1139" x="4.462" y="10.434" width="84.251" height="68.146" filterUnits="userSpaceOnUse">
      <feOffset dy="2" input="SourceAlpha"/>
      <feGaussianBlur stdDeviation="2.5" result="blur"/>
      <feFlood flood-color="#007ee5" flood-opacity="0.153"/>
      <feComposite operator="in" in2="blur"/>
      <feComposite in="SourceGraphic"/>
    </filter>
    <clipPath id="clip-path-3">
      <rect id="Rectangle_1250" data-name="Rectangle 1250" width="27.673" height="31.058" fill="none"/>
    </clipPath>
  </defs>
  <g id="Group_1165" data-name="Group 1165" transform="matrix(0.899, 0.438, -0.438, 0.899, 68.387, 2.674)" clip-path="url(#clip-path)">
    <path id="Path_1162" data-name="Path 1162" d="M.037,22.893H.013q0,.675,0,1.35.021,6.825.044,13.65c0,1.023,0,2.05.087,3.068a4.837,4.837,0,0,0,1.22,2.765,5.807,5.807,0,0,0,4.615,2.109c2.354,0,4.708.013,7.062.017q7.749.013,15.5.022a5.6,5.6,0,0,0,3.1-.9,5.726,5.726,0,0,0,2.075-2.415,6.2,6.2,0,0,0,.542-2.74q-.025-8.852-.035-17.7-.011-5.644-.021-11.289a.929.929,0,0,0-.279-.706q-.989-.975-1.97-1.958Q28.014,4.223,24.079.279a.776.776,0,0,0-.591-.246c-.473.007-.947,0-1.421,0Q14.048.018,6.029,0A6.547,6.547,0,0,0,3.451.463,5.424,5.424,0,0,0,.86,2.679,6.109,6.109,0,0,0,0,6.024q.035,8.434.037,16.869" transform="translate(-0.149 -0.168)" fill="#020202" stroke="#020202" stroke-width="1"/>
    <path id="Path_1163" data-name="Path 1163" d="M.037,22.893Q.022,14.458,0,6.024A6.109,6.109,0,0,1,.86,2.679,5.424,5.424,0,0,1,3.451.463,6.548,6.548,0,0,1,6.029,0q8.019.022,16.038.033c.474,0,.947.008,1.421,0a.776.776,0,0,1,.591.246q3.934,3.944,7.871,7.886.981.983,1.97,1.958a.93.93,0,0,1,.279.706q.005,5.645.021,11.289.017,8.852.035,17.7a6.206,6.206,0,0,1-.542,2.74,5.726,5.726,0,0,1-2.075,2.415,5.6,5.6,0,0,1-3.1.9q-7.749-.011-15.5-.022c-2.354,0-4.708-.017-7.062-.017a5.807,5.807,0,0,1-4.615-2.109A4.836,4.836,0,0,1,.146,40.96C.063,39.942.064,38.915.06,37.892Q.028,31.067.015,24.242q0-.675,0-1.349H.037m22.8-21.431c-.079,0-.135-.011-.191-.011q-1.678,0-3.356-.006-3.041-.009-6.081-.019c-2.461,0-4.921,0-7.382-.007a4.778,4.778,0,0,0-1.7.3A4.2,4.2,0,0,0,1.425,5.49c-.015.671-.008,1.343-.008,2.014q0,9.112.008,18.224c.008,4.73.035,9.459.056,14.189a5.441,5.441,0,0,0,.038.785A4.383,4.383,0,0,0,5.84,44.42c2.763-.013,5.526.02,8.289.024,4.757.007,9.515,0,14.272.014a4.372,4.372,0,0,0,2.9-1,3.931,3.931,0,0,0,1.5-2.818c.051-.7.032-1.407.032-2.111q0-6.48-.006-12.961c0-1.671-.019-3.341-.024-5.012q-.012-4.39-.017-8.781V11.4h-.306l-3.826-.007a5.715,5.715,0,0,1-3.972-1.548,5.237,5.237,0,0,1-1.8-3.754c-.054-1.392-.028-2.787-.037-4.18,0-.145,0-.291,0-.446m8.9,8.473L24.264,2.458c-.007.16-.015.24-.014.32,0,.9.006,1.8.006,2.7a4.4,4.4,0,0,0,.413,1.978,4.016,4.016,0,0,0,3.408,2.464c1.178.091,2.367.04,3.551.051a.528.528,0,0,0,.112-.041" transform="translate(-0.149 -0.168)" fill="#020202" stroke="#020202" stroke-width="1"/>
    <path id="Path_1164" data-name="Path 1164" d="M21.426.044c0,.155,0,.3,0,.446.009,1.394-.017,2.788.037,4.18a5.238,5.238,0,0,0,1.8,3.754,5.715,5.715,0,0,0,3.973,1.548l3.826.007h.306c0,.141,0,.261,0,.381q.008,4.39.017,8.781c0,1.671.022,3.341.024,5.012q.008,6.48.006,12.961c0,.7.019,1.41-.032,2.111a3.931,3.931,0,0,1-1.5,2.818,4.372,4.372,0,0,1-2.9,1c-4.757-.01-9.515-.007-14.272-.014-2.763,0-5.526-.037-8.289-.024A4.383,4.383,0,0,1,.1,39.284,5.441,5.441,0,0,1,.066,38.5C.045,33.769.018,29.039.009,24.31Q-.007,15.2,0,6.086C0,5.415-.005,4.743.01,4.072A4.2,4.2,0,0,1,2.716.3a4.776,4.776,0,0,1,1.7-.3C6.877,0,9.338,0,11.8.007q3.041.005,6.081.019,1.678,0,3.356.006c.056,0,.112.006.191.011m4.666,35.642-9.757-.02-4.78-.006q-3.163-.005-6.326-.016c-.163,0-.211.061-.206.217.01.295,0,.59,0,.885,0,.317,0,.318.323.319q4.045.009,8.089.016c1.732,0,3.464,0,5.2,0q3.764.007,7.527.021a.333.333,0,0,0,.145-.008c.048-.025.113-.079.114-.121.008-.416,0-.833,0-1.271M26.4,30.411c0-.417,0-.81,0-1.2,0-.123-.039-.18-.168-.181-.326,0-.652-.022-.978-.023q-8.8-.018-17.6-.033c-.8,0-1.6-.007-2.4,0-.078,0-.22.066-.222.105-.015.429-.008.858-.008,1.3Z" transform="translate(1.267 1.25)" fill="#fff"/>
    <path id="Path_1165" data-name="Path 1165" d="M8.195,8.18a.578.578,0,0,1-.123.044c-1.3-.012-2.6.043-3.885-.056a4.394,4.394,0,0,1-3.728-2.7A4.812,4.812,0,0,1,.007,3.309C.006,2.323,0,1.336,0,.35,0,.263.008.175.016,0L8.195,8.18" transform="translate(24.1 1.583)" fill="#fff" stroke="#020202" stroke-width="0.5"/>
    <path id="Path_1168" data-name="Path 1168" d="M0,1.4,0,0H.324q4.8.014,9.61.027Q15.5.038,21.061.04c.328,0,.329,0,.331.334,0,.351,0,.7,0,1.069Z" transform="translate(5.416 28.407)" fill="#007ee5" stroke="#020202" stroke-width="1"/>
  </g>
  <g id="dropbox_folder_icon" data-name="dropbox folder icon" transform="translate(0 11.174)">
    <g id="Group_1159" data-name="Group 1159">
      <g id="Group_1158" data-name="Group 1158" clip-path="url(#clip-path-2)">
        <g transform="matrix(1, 0, 0, 1, 0, -11.17)" filter="url(#Path_1139)">
          <path id="Path_1139-2" data-name="Path 1139" d="M33.574,51.1q-14.2,0-28.4,0A4.81,4.81,0,0,1,.145,47.478a7.057,7.057,0,0,1-.138-1.627Q0,25.573,0,5.3C.007,1.923,1.918.036,5.319.031,13.036.021,20.753.056,28.469,0A2.314,2.314,0,0,1,31,1.521c.921,2.1,2.086,4.1,3.025,6.191A2.308,2.308,0,0,0,36.5,9.285c8.428-.068,16.856-.044,25.285-.019a7.292,7.292,0,0,1,2.407.358,4.593,4.593,0,0,1,3.018,4.618c.016,6.239.006,12.478.006,18.718,0,4.269-.107,8.541.033,12.805a5.146,5.146,0,0,1-5.439,5.382C52.4,51.033,42.987,51.1,33.574,51.1" transform="translate(12.96 16.93)" fill="#ffde0b" stroke="#000" stroke-width="2"/>
        </g>
      </g>
    </g>
  </g>
  <g id="Group_1963" data-name="Group 1963" transform="translate(32.737 32.333)">
    <g id="Group_1842" data-name="Group 1842" transform="translate(0 0)" clip-path="url(#clip-path-3)">
      <path id="Path_7681" data-name="Path 7681" d="M13.687,0h.319c.074.024.148.047.221.073L24.743,3.888c.666.242,1.333.481,2,.726a.94.94,0,0,1,.652.808c.057.468.094.938.133,1.408q.044.53.071,1.061c.024.453.04.907.059,1.36.006.138.011.275.016.413v1.852c0,.049-.013.1-.013.147,0,.618-.034,1.234-.086,1.849-.04.473-.081.947-.136,1.419q-.13,1.12-.353,2.226a23.333,23.333,0,0,1-1.069,3.76,17.459,17.459,0,0,1-2.964,5.111,14.526,14.526,0,0,1-5.95,4.257,12.534,12.534,0,0,1-2.7.721l-.357.054h-.4l-.3-.044a12.421,12.421,0,0,1-2.158-.52,14.454,14.454,0,0,1-6.218-4.1A16.67,16.67,0,0,1,2.272,22.3,23.273,23.273,0,0,1,.357,15.667q-.142-.974-.219-1.955c-.051-.629-.087-1.259-.105-1.89,0-.145-.021-.289-.033-.433v-1.6c.011-.123.028-.246.031-.37q.025-1.09.11-2.177.072-.9.158-1.79A1.1,1.1,0,0,1,.392,5.12.99.99,0,0,1,1,4.594q2.41-.87,4.818-1.746L13.687,0M25.73,10.5c-.016-.614-.026-1.1-.043-1.578-.012-.337-.027-.674-.05-1.01-.035-.509-.082-1.018-.116-1.527-.007-.106-.042-.166-.145-.185l-.01,0q-5.7-2.069-11.407-4.14a.3.3,0,0,0-.224,0Q9.724,3.52,5.709,4.975,4,5.6,2.289,6.215a.142.142,0,0,0-.113.143c-.007.149-.028.3-.038.445-.044.669-.095,1.337-.125,2.007-.026.581-.041,1.163-.038,1.744,0,.656.021,1.312.051,1.967.024.528.065,1.055.114,1.581.062.664.154,1.324.266,1.981a22.571,22.571,0,0,0,.879,3.5,16.587,16.587,0,0,0,1.972,4.006A12.9,12.9,0,0,0,10.265,28a11.38,11.38,0,0,0,3.318,1.067,1.335,1.335,0,0,0,.348.021c.221-.025.442-.064.66-.11a12.155,12.155,0,0,0,3.834-1.53,12.95,12.95,0,0,0,3.966-3.784,16.62,16.62,0,0,0,2.044-4.147,22.562,22.562,0,0,0,.934-3.937c.067-.456.123-.913.173-1.371.042-.388.073-.777.1-1.166q.035-.5.05-1.01c.017-.553.027-1.106.037-1.528"/>
      <path id="Path_7682" data-name="Path 7682" d="M52.729,44.741c.079,0,.139,0,.2,0a3.559,3.559,0,0,1,.476.035A1.448,1.448,0,0,1,54.566,46.2c0,.678,0,1.355,0,2.033,0,1.242-.016,2.484.006,3.725a1.515,1.515,0,0,1-1.55,1.545c-2.586-.016-5.172-.006-7.758-.006-.3,0-.6,0-.9,0a1.425,1.425,0,0,1-1.154-.582,1.39,1.39,0,0,1-.3-.87q0-2.922,0-5.843a1.461,1.461,0,0,1,1.436-1.457c.089,0,.178,0,.266,0,.038,0,.076,0,.127-.008,0-.058.009-.11.009-.161,0-.908,0-1.817,0-2.725a2.848,2.848,0,0,1,.759-1.979,2.818,2.818,0,0,1,1.826-.928,3.121,3.121,0,0,1,.329-.018c.717,0,1.433,0,2.15,0a2.9,2.9,0,0,1,2.868,2.4,3.422,3.422,0,0,1,.046.572c0,.894,0,1.788,0,2.682v.17m-1.973,0c0-.055.007-.09.007-.124,0-.936,0-1.872,0-2.808a.966.966,0,0,0-.053-.3.9.9,0,0,0-.835-.618c-.759-.008-1.517,0-2.276,0a.677.677,0,0,0-.137.015.93.93,0,0,0-.749.911c0,.94,0,1.879,0,2.819,0,.031.005.062.01.109h4.036M48.14,50.124v.99c0,.043,0,.085,0,.128a.289.289,0,0,0,.3.287c.2,0,.4.005.606,0a.287.287,0,0,0,.291-.281c0-.035,0-.071,0-.107,0-.688,0-1.376,0-2.064a.208.208,0,0,1,.1-.193,1.162,1.162,0,0,0,.508-1.011,1.2,1.2,0,0,0-1.47-1.136,1.2,1.2,0,0,0-.425,2.143.217.217,0,0,1,.1.2c0,.348,0,.7,0,1.043" transform="translate(-34.89 -31.647)"/>
    </g>
  </g>
  <g id="Group_1964" data-name="Group 1964" transform="translate(51.138 29.915)">
    <path id="Path_7247" data-name="Path 7247" d="M124.191,131.553a7.135,7.135,0,1,1,7.154-7.131,7.125,7.125,0,0,1-7.154,7.131" transform="translate(-117.055 -117.282)"/>
    <path id="Path_7697" data-name="Path 7697" d="M1.53-9.322H3.179L3.592-15.4H1.118Zm.825,3.338a1.222,1.222,0,0,0,1.277-1.21A1.194,1.194,0,0,0,2.355-8.378,1.194,1.194,0,0,0,1.078-7.194,1.222,1.222,0,0,0,2.355-5.984Z" transform="translate(4.712 18.295)" fill="#ffde0b"/>
  </g>
</svg>
