<svg xmlns="http://www.w3.org/2000/svg" xmlns:xlink="http://www.w3.org/1999/xlink" width="80" height="88.564" viewBox="0 0 80 88.564">
  <defs>
    <filter id="Path_7732" x="0" y="0" width="80" height="88.564" filterUnits="userSpaceOnUse">
      <feOffset dy="3" input="SourceAlpha"/>
      <feGaussianBlur stdDeviation="3" result="blur"/>
      <feFlood flood-opacity="0.161"/>
      <feComposite operator="in" in2="blur"/>
      <feComposite in="SourceGraphic"/>
    </filter>
    <clipPath id="clip-path">
      <rect id="Rectangle_1250" data-name="Rectangle 1250" width="31.488" height="35.34" fill="none"/>
    </clipPath>
  </defs>
  <g id="incident_response_checklist_popup_icon" data-name="incident response checklist popup icon" transform="translate(10 6.997)">
    <g transform="matrix(1, 0, 0, 1, -10, -7)" filter="url(#Path_7732)">
      <path id="Path_7732-2" data-name="Path 7732" d="M0,34.294q0-12.67,0-25.339A8.837,8.837,0,0,1,1.9,3.32,8.425,8.425,0,0,1,5.016.858,8.865,8.865,0,0,1,8.377.043C8.806.026,9.235,0,9.664,0Q30.276,0,50.888,0a9.254,9.254,0,0,1,4.89,1.273,8.734,8.734,0,0,1,2.912,2.9,8.606,8.606,0,0,1,1.263,4.151c.032.556.045,1.114.045,1.67q0,24.694,0,49.388a9.744,9.744,0,0,1-.869,4.228,8.732,8.732,0,0,1-5.648,4.652,10.246,10.246,0,0,1-2.447.305q-21.031.009-42.061,0a9.287,9.287,0,0,1-4.052-.873,8.736,8.736,0,0,1-2.434-1.779,8.6,8.6,0,0,1-2.4-5.066,9.8,9.8,0,0,1-.079-1.285Q0,46.929,0,34.294" transform="translate(10 7)" fill="#ffde0b" stroke="#000" stroke-width="2"/>
    </g>
    <g id="Group_1961" data-name="Group 1961" transform="translate(14.018 8.63)">
      <g id="Group_1842" data-name="Group 1842" transform="translate(0 0)" clip-path="url(#clip-path)">
        <path id="Path_7681" data-name="Path 7681" d="M15.575,0h.363c.084.028.169.053.252.083L28.155,4.424c.758.275,1.517.548,2.274.826a1.07,1.07,0,0,1,.741.92c.065.532.107,1.067.151,1.6q.05.6.081,1.207c.027.516.046,1.032.067,1.548.007.157.012.313.018.47V13.1c-.005.056-.015.112-.015.167,0,.7-.039,1.4-.1,2.1-.045.539-.093,1.077-.155,1.614q-.148,1.274-.4,2.533A26.549,26.549,0,0,1,29.6,23.8a19.866,19.866,0,0,1-3.372,5.816,16.528,16.528,0,0,1-6.77,4.844,14.263,14.263,0,0,1-3.068.82l-.406.061h-.46l-.346-.05a14.134,14.134,0,0,1-2.455-.592,16.447,16.447,0,0,1-7.075-4.665,18.968,18.968,0,0,1-3.065-4.655A26.482,26.482,0,0,1,.406,17.827Q.245,16.719.157,15.6c-.058-.716-.1-1.433-.12-2.151,0-.165-.024-.329-.037-.493V11.142c.012-.14.032-.28.036-.421q.028-1.24.125-2.478Q.242,7.225.34,6.207a1.252,1.252,0,0,1,.106-.382,1.126,1.126,0,0,1,.694-.6q2.742-.99,5.482-1.987L15.575,0m13.7,11.952c-.018-.7-.03-1.247-.049-1.8-.013-.383-.03-.766-.057-1.149-.04-.579-.093-1.158-.132-1.738-.008-.121-.048-.188-.165-.211l-.012,0Q22.374,4.7,15.885,2.346a.346.346,0,0,0-.255,0Q11.064,4.006,6.5,5.661q-1.945.706-3.891,1.41a.162.162,0,0,0-.128.162c-.008.169-.032.337-.043.507-.05.761-.108,1.522-.143,2.283-.03.661-.046,1.323-.043,1.985,0,.746.024,1.493.058,2.239.027.6.074,1.2.129,1.8.07.755.175,1.506.3,2.254a25.683,25.683,0,0,0,1,3.986,18.874,18.874,0,0,0,2.244,4.558,14.682,14.682,0,0,0,5.7,5.014,12.949,12.949,0,0,0,3.776,1.214,1.519,1.519,0,0,0,.4.024c.252-.028.5-.073.751-.125a13.831,13.831,0,0,0,4.363-1.741,14.736,14.736,0,0,0,4.513-4.305A18.912,18.912,0,0,0,27.8,22.206a25.673,25.673,0,0,0,1.063-4.479c.076-.519.14-1.039.2-1.56.048-.441.084-.884.115-1.326q.04-.574.057-1.149c.02-.629.031-1.259.042-1.739"/>
        <path id="Path_7682" data-name="Path 7682" d="M54.083,45.543c.09,0,.158,0,.225,0a4.049,4.049,0,0,1,.542.039A1.648,1.648,0,0,1,56.173,47.2c0,.771,0,1.542,0,2.313,0,1.413-.018,2.826.006,4.239a1.724,1.724,0,0,1-1.764,1.758c-2.943-.019-5.885-.007-8.828-.007-.343,0-.686,0-1.029,0a1.622,1.622,0,0,1-1.314-.662,1.582,1.582,0,0,1-.336-.99q0-3.325,0-6.649a1.663,1.663,0,0,1,1.634-1.657c.1,0,.2,0,.3,0,.044,0,.087-.005.144-.009,0-.066.01-.125.01-.183,0-1.034,0-2.067,0-3.1A3.241,3.241,0,0,1,45.866,40a3.207,3.207,0,0,1,2.078-1.056,3.552,3.552,0,0,1,.374-.02c.815,0,1.631,0,2.446,0a3.3,3.3,0,0,1,3.264,2.727,3.893,3.893,0,0,1,.053.65c.005,1.018,0,2.035,0,3.052v.193m-2.245,0c0-.063.008-.1.008-.142,0-1.065,0-2.13,0-3.2a1.1,1.1,0,0,0-.061-.343,1.021,1.021,0,0,0-.95-.7c-.863-.009-1.726,0-2.59,0a.77.77,0,0,0-.156.017,1.058,1.058,0,0,0-.852,1.036c0,1.069,0,2.138,0,3.207,0,.035.006.07.011.124h4.592m-2.977,6.126V52.8c0,.048,0,.1,0,.146a.329.329,0,0,0,.337.326c.23.006.46.006.69,0a.327.327,0,0,0,.331-.32c0-.04,0-.081,0-.121,0-.783,0-1.566,0-2.349a.237.237,0,0,1,.108-.22,1.322,1.322,0,0,0,.578-1.151,1.36,1.36,0,0,0-1.672-1.292,1.365,1.365,0,0,0-.483,2.439.247.247,0,0,1,.113.23c0,.4,0,.791,0,1.187" transform="translate(-33.784 -30.644)"/>
      </g>
    </g>
    <g id="Group_1962" data-name="Group 1962" transform="translate(35.416 5.88)">
      <path id="Path_7247" data-name="Path 7247" d="M125.175,133.52a8.119,8.119,0,1,1,8.141-8.114,8.107,8.107,0,0,1-8.141,8.114" transform="translate(-117.055 -117.282)"/>
      <path id="Path_7697" data-name="Path 7697" d="M1.593-8.484H3.469L3.938-15.4H1.123Zm.938,3.8A1.391,1.391,0,0,0,3.984-6.063,1.358,1.358,0,0,0,2.531-7.41,1.358,1.358,0,0,0,1.078-6.063,1.391,1.391,0,0,0,2.531-4.686Z" transform="translate(5.51 18.694)" fill="#ffde0b"/>
    </g>
    <path id="Path_7733" data-name="Path 7733" d="M84.878,45.484H95.206a3.316,3.316,0,0,0,1.29-.226,1.467,1.467,0,0,0,.978-1.242,1.563,1.563,0,0,0-1.4-1.684,4.586,4.586,0,0,0-.914-.085q-10.276-.007-20.552,0c-.092,0-.184,0-.274,0a2.149,2.149,0,0,0-1.805.814,1.408,1.408,0,0,0-.013,1.59,1.619,1.619,0,0,0,1.1.713,4.947,4.947,0,0,0,1.01.116q5.129.012,10.259,0" transform="translate(-47.601 10.814)"/>
    <path id="Path_7734" data-name="Path 7734" d="M26.485,81.729c-.065-.048.041.037,0,0,.033.022-1.161-1.046-1.673-1.5a2.3,2.3,0,0,0-1.306-.7,1.925,1.925,0,0,0-1.553.59,1.838,1.838,0,0,0-.388,2.445,4.177,4.177,0,0,0,.5.606c.688.7,1.385,1.4,2.08,2.094.347.348.683.71,1.05,1.036a1.8,1.8,0,0,0,2.272.216A4.168,4.168,0,0,0,28.1,86q3.085-3.078,6.16-6.167c.315-.316.639-.624.943-.949a2.3,2.3,0,0,0,.707-1.337,2.185,2.185,0,0,0-1.25-2.039,1.58,1.58,0,0,0-1.6.011,4.532,4.532,0,0,0-.842.637c-1.731,1.682-3.45,3.376-5.175,5.064-.178.175-.62.553-.556.514" transform="translate(-13.71 -28.037)" stroke="#ffde0b" stroke-width="1"/>
  </g>
</svg>
