<svg xmlns="http://www.w3.org/2000/svg" xmlns:xlink="http://www.w3.org/1999/xlink" width="54" height="45.941" viewBox="0 0 54 45.941">
  <defs>
    <filter id="Path_7833" x="0" y="3.194" width="54" height="42.747" filterUnits="userSpaceOnUse">
      <feOffset dy="1" input="SourceAlpha"/>
      <feGaussianBlur stdDeviation="1.5" result="blur"/>
      <feFlood flood-color="#bababa"/>
      <feComposite operator="in" in2="blur"/>
      <feComposite in="SourceGraphic"/>
    </filter>
  </defs>
  <g id="dropbox_folder" data-name="dropbox folder" transform="translate(4.5 0.6)">
    <g id="Group_2626" data-name="Group 2626">
      <g transform="matrix(1, 0, 0, 1, -4.5, -0.6)" filter="url(#Path_7833)">
        <path id="Path_7833-2" data-name="Path 7833" d="M22.464,33.718q-9.5,0-19,0A3.213,3.213,0,0,1,.1,31.326,4.594,4.594,0,0,1,0,30.253Q0,16.873,0,3.494C0,1.269,1.283.024,3.558.021,8.722.014,13.885.037,19.048,0a1.55,1.55,0,0,1,1.693,1c.616,1.387,1.4,2.7,2.024,4.085a1.545,1.545,0,0,0,1.66,1.038C30.063,6.082,35.7,6.1,41.341,6.114a4.942,4.942,0,0,1,1.611.236A3.03,3.03,0,0,1,44.971,9.4c.011,4.116,0,8.233,0,12.35,0,2.817-.072,5.635.022,8.449a3.421,3.421,0,0,1-3.639,3.551c-6.3-.076-12.6-.029-18.894-.029" transform="translate(4.5 6.69)" fill="#5ac0ff"/>
      </g>
      <path id="Path_7835" data-name="Path 7835" d="M589.9,31.477c-.106-.127-.227-.258-.37-.4q-2.8-2.805-5.607-5.609l-1.231-1.23c-.044-.043-.087-.087-.13-.131a.855.855,0,0,1-.122-1.269,14.251,14.251,0,0,0,2.318-6.455,15.532,15.532,0,0,0,.042-2.853,13.9,13.9,0,0,0-1.112-4.486,15.179,15.179,0,0,0-2.839-4.417,14.453,14.453,0,0,0-3.987-2.968,14.761,14.761,0,0,0-4.4-1.47,15.286,15.286,0,0,0-3.763-.124A13.967,13.967,0,0,0,564.511,1.1a14.228,14.228,0,0,0-6.565,5.25,15.173,15.173,0,0,0-2.464,6.175c-.032.211-.063.428-.092.637l-.036.256v2.67c.024.149.047.3.07.448.054.349.11.709.173,1.058a14.633,14.633,0,0,0,1.781,4.673,13.784,13.784,0,0,0,4.347,4.674,15,15,0,0,0,6.45,2.471,15.52,15.52,0,0,0,3.462.031,14.2,14.2,0,0,0,6.342-2.206c.131-.084.24-.153.344-.216a.946.946,0,0,1,.182-.083l.046-.017.346-.135.28.244.08.068c.076.064.162.136.248.221l1.436,1.427c1.743,1.733,3.545,3.525,5.31,5.3a3.7,3.7,0,0,0,1.446,1.032h1a3.121,3.121,0,0,0,.971-.533,2.148,2.148,0,0,0,.236-3.059m-12.414-9.539a10.45,10.45,0,0,1-7.4,3.175h0a10.439,10.439,0,0,1-7.24-3.025,10.341,10.341,0,0,1,7.24-17.678h0a10.115,10.115,0,0,1,4.069.853,10.519,10.519,0,0,1,3.32,2.293,10.113,10.113,0,0,1,2.933,7.2,9.937,9.937,0,0,1-2.924,7.178" transform="translate(-547.432 -0.001)" stroke="#fff" stroke-width="1.2"/>
    </g>
  </g>
</svg>
