<svg id="forms_uploaded" data-name="forms uploaded" xmlns="http://www.w3.org/2000/svg" width="45" height="45" viewBox="0 0 45 45">
  <g id="Group_3005" data-name="Group 3005" transform="translate(-112 -574)">
    <g id="Group_3002" data-name="Group 3002" transform="translate(573.096 13923.35)">
      <circle id="Ellipse_426" data-name="Ellipse 426" cx="22.5" cy="22.5" r="22.5" transform="translate(-461.096 -13349.35)" fill="#5ac0ff"/>
    </g>
  </g>
  <g id="Group_3068" data-name="Group 3068" transform="translate(7.83 9.433)">
    <g id="Group_2626" data-name="Group 2626" transform="translate(0 0)">
      <path id="Path_7833" data-name="Path 7833" d="M11.829,17.756q-5,0-10.008,0A1.692,1.692,0,0,1,.051,16.5,2.419,2.419,0,0,1,0,15.931Q0,8.885,0,1.84A1.678,1.678,0,0,1,1.874.011C4.593.008,7.312.02,10.03,0a.816.816,0,0,1,.891.528c.324.73.735,1.423,1.066,2.151a.814.814,0,0,0,.874.547C15.831,3.2,18.8,3.211,21.77,3.22a2.6,2.6,0,0,1,.848.124,1.6,1.6,0,0,1,1.063,1.6c.006,2.168,0,4.335,0,6.5,0,1.483-.038,2.968.012,4.449a1.8,1.8,0,0,1-1.916,1.87c-3.316-.04-6.633-.015-9.95-.015" transform="translate(0 0)" fill="#5ac0ff" stroke="#000" stroke-width="1"/>
    </g>
  </g>
  <path id="Path_7960" data-name="Path 7960" d="M-7498.9,9979.118v5.746c0,1.718-.188,4.808,4.657,4.651" transform="translate(7516.244 -9957.116)" fill="none" stroke="#5ac0ff" stroke-linecap="square" stroke-linejoin="round" stroke-width="3"/>
  <path id="Path_7961" data-name="Path 7961" d="M0,0,2.384,2.892,4.865,0" transform="matrix(-1, 0.017, -0.017, -1, 19.807, 23.892)" fill="none" stroke="#5ac0ff" stroke-linecap="round" stroke-linejoin="round" stroke-width="3"/>
  <g id="Group_2630" data-name="Group 2630" transform="translate(23.633 22.002)">
    <g id="Group_2632" data-name="Group 2632" transform="translate(0 0)">
      <g id="Path_7831" data-name="Path 7831" transform="translate(0 0)" fill="#5ac0ff">
        <path d="M 12.09224891662598 15.74325656890869 L 1.443848729133606 15.74325656890869 C 0.9234087467193604 15.74325656890869 0.4999987781047821 15.31984710693359 0.4999987781047821 14.79940700531006 L 0.4999987781047821 1.443846821784973 C 0.4999987781047821 0.9234068393707275 0.9234087467193604 0.4999968409538269 1.443848729133606 0.4999968409538269 L 12.09224891662598 0.4999968409538269 C 12.61268901824951 0.4999968409538269 13.03609848022461 0.9234068393707275 13.03609848022461 1.443846821784973 L 13.03609848022461 14.79940700531006 C 13.03609848022461 15.31984710693359 12.61268901824951 15.74325656890869 12.09224891662598 15.74325656890869 Z" stroke="none"/>
        <path d="M 1.443848609924316 0.9999971389770508 C 1.199109077453613 0.9999971389770508 0.9999990463256836 1.19910717010498 0.9999990463256836 1.443846702575684 L 0.9999990463256836 14.79940700531006 C 0.9999990463256836 15.04414653778076 1.199109077453613 15.24325656890869 1.443848609924316 15.24325656890869 L 12.09224891662598 15.24325656890869 C 12.33698844909668 15.24325656890869 12.53609848022461 15.04414653778076 12.53609848022461 14.79940700531006 L 12.53609848022461 1.443846702575684 C 12.53609848022461 1.19910717010498 12.33698844909668 0.9999971389770508 12.09224891662598 0.9999971389770508 L 1.443848609924316 0.9999971389770508 M 1.443848609924316 -3.814697265625e-06 L 12.09224891662598 -3.814697265625e-06 C 12.88965892791748 -3.814697265625e-06 13.53609848022461 0.6464271545410156 13.53609848022461 1.443846702575684 L 13.53609848022461 14.79940700531006 C 13.53609848022461 15.59682655334473 12.88965892791748 16.24325752258301 12.09224891662598 16.24325752258301 L 1.443848609924316 16.24325752258301 C 0.6464290618896484 16.24325752258301 -9.5367431640625e-07 15.59682655334473 -9.5367431640625e-07 14.79940700531006 L -9.5367431640625e-07 1.443846702575684 C -9.5367431640625e-07 0.6464271545410156 0.6464290618896484 -3.814697265625e-06 1.443848609924316 -3.814697265625e-06 Z" stroke="none" fill="#000"/>
      </g>
    </g>
  </g>
  <path id="Path_7962" data-name="Path 7962" d="M-7498.9,9979.118v5.746c0,1.718-.188,4.808,4.657,4.651" transform="translate(7516.244 -9957.116)" fill="none" stroke="#000" stroke-linecap="square" stroke-linejoin="round" stroke-width="1"/>
  <path id="Path_7963" data-name="Path 7963" d="M0,0,2.384,2.892,4.865,0" transform="matrix(-1, 0.017, -0.017, -1, 19.807, 23.892)" fill="none" stroke="#000" stroke-linecap="round" stroke-linejoin="round" stroke-width="1"/>
  <line id="Line_358" data-name="Line 358" x2="8" transform="translate(26.5 26.503)" fill="none" stroke="#000" stroke-linecap="round" stroke-width="1"/>
  <line id="Line_359" data-name="Line 359" x2="8" transform="translate(26.5 30.503)" fill="none" stroke="#000" stroke-linecap="round" stroke-width="1"/>
  <line id="Line_360" data-name="Line 360" x2="8" transform="translate(26.5 34.503)" fill="none" stroke="#000" stroke-linecap="round" stroke-width="1"/>
</svg>
