<svg id="Component_81_15" data-name="Component 81 – 15" xmlns="http://www.w3.org/2000/svg" width="39.842" height="7.341" viewBox="0 0 39.842 7.341">
  <g id="action01" transform="translate(0.001 0.001)">
    <path id="Path_974" data-name="Path 974" d="M269.729,694.308c-1.163-.016-2.326-.044-3.489-.045q-9.146-.006-18.292,0c-.366,0-.733-.03-1.1-.045q.005-3.592.01-7.182,8.762-.015,17.524-.031,5.256-.011,10.513-.034h11.794V694.2l-.19.081-16.772.031" transform="translate(-246.85 -686.968)" fill="#d6e8fd"/>
  </g>
  <path id="Path_975" data-name="Path 975" d="M254.1,694.308c-.369-.016-.737-.044-1.106-.045-1.933,0-3.865,0-5.8,0a2.763,2.763,0,0,1-.348-.045q0-3.592,0-7.182,2.777-.015,5.554-.031c1.111-.007,2.221-.023,3.332-.034h3.738V694.2l-.06.081-5.316.031" transform="translate(-246.849 -686.968)" fill="#007fff"/>
</svg>
