<svg id="action02" xmlns="http://www.w3.org/2000/svg" width="39.842" height="7.341" viewBox="0 0 39.842 7.341">
  <g id="action02-2" data-name="action02" transform="translate(0.001 0.001)">
    <path id="Path_977" data-name="Path 977" d="M269.729,694.308c-1.163-.016-2.326-.044-3.489-.045q-9.146-.006-18.292,0c-.366,0-.733-.03-1.1-.045q.005-3.592.01-7.182,8.762-.015,17.524-.031,5.256-.011,10.513-.034h11.794V694.2l-.19.081-16.772.031" transform="translate(-246.85 -686.968)" fill="#d6e8fd"/>
  </g>
  <path id="Path_976" data-name="Path 976" d="M261.873,694.308c-.764-.016-1.527-.044-2.291-.045q-6.006-.006-12.011,0c-.241,0-.481-.03-.722-.045q0-3.592.007-7.182,5.753-.015,11.507-.031,3.451-.011,6.9-.034h7.744V694.2l-.124.081-11.013.031" transform="translate(-246.849 -686.968)" fill="#007fff"/>
</svg>
