<svg xmlns="http://www.w3.org/2000/svg" width="72.487" height="70.865" viewBox="0 0 72.487 70.865">
  <g id="add_new_client_icon" data-name="add new client icon" transform="translate(0 0.15)">
    <path id="Path_1199" data-name="Path 1199" d="M113.123,83.014a30.277,30.277,0,1,1-30.352,30.2,30.326,30.326,0,0,1,30.352-30.2m19.58,49.2A27.326,27.326,0,1,0,92.4,95.331c-10.37,11.945-7.764,28.484,1.023,36.889a20.271,20.271,0,0,1,13.415-15.18,13.169,13.169,0,0,1-6.075-15.644,12.978,12.978,0,0,1,24.66.228,13.128,13.128,0,0,1-6.167,15.413,20.329,20.329,0,0,1,13.442,15.18m-19.692,8.41c.579,0,1.158.016,1.736-.006.394-.015.786-.092,1.179-.13a26.183,26.183,0,0,0,12.4-4.5c2.072-1.409,1.751-.817,1.29-3.138a16.877,16.877,0,0,0-33.342,1.352,1.069,1.069,0,0,0,.539,1.115,27.016,27.016,0,0,0,16.2,5.3m.011-25.191a9.834,9.834,0,0,0,9.928-9.8,9.889,9.889,0,1,0-9.928,9.8" transform="translate(-71.014 -83.012)" fill="#fff" stroke="#fff" stroke-width="0.3"/>
    <circle id="Ellipse_384" data-name="Ellipse 384" cx="16.628" cy="16.628" r="16.628" transform="translate(0 37.458)" fill="#fff"/>
    <path id="Path_7355" data-name="Path 7355" d="M8.838-10.278H2v7.29H-2.034v-7.29h-6.8V-13.9h6.8v-7.272H2V-13.9h6.84Z" transform="translate(16.048 66.278)" fill="#007fff" stroke="#007fff" stroke-width="1"/>
  </g>
</svg>
