<svg id="alert_icon" data-name="alert icon" xmlns="http://www.w3.org/2000/svg" width="26.598" height="23.767" viewBox="0 0 26.598 23.767">
  <path id="bell" d="M18.372,16.817c-.808-.964-2.319-2.413-2.319-7.162a7.175,7.175,0,0,0-5.35-7.2V1.485A1.417,1.417,0,0,0,9.366,0,1.417,1.417,0,0,0,8.029,1.485v.967a7.175,7.175,0,0,0-5.35,7.2c0,4.749-1.512,6.2-2.319,7.162A1.542,1.542,0,0,0,0,17.825a1.421,1.421,0,0,0,1.342,1.485H17.39a1.42,1.42,0,0,0,1.342-1.485,1.541,1.541,0,0,0-.36-1.008Zm-15.549.265c.887-1.3,1.857-3.45,1.862-7.4,0-.009,0-.018,0-.027a4.961,4.961,0,0,1,4.683-5.2,4.961,4.961,0,0,1,4.683,5.2c0,.009,0,.018,0,.027,0,3.95.975,6.1,1.862,7.4Zm6.543,6.684A2.835,2.835,0,0,0,12.041,20.8H6.691A2.835,2.835,0,0,0,9.366,23.767Z" transform="translate(0.001)"/>
  <g id="Ellipse_382" data-name="Ellipse 382" transform="translate(12.56 9.729)" fill="#007fff" stroke="#fcfcfc" stroke-width="2">
    <ellipse cx="7.019" cy="7.019" rx="7.019" ry="7.019" stroke="none"/>
    <ellipse cx="7.019" cy="7.019" rx="6.019" ry="6.019" fill="none"/>
  </g>
</svg>
