<svg id="authorized_users_icon" data-name="authorized users icon" xmlns="http://www.w3.org/2000/svg" xmlns:xlink="http://www.w3.org/1999/xlink" width="36.842" height="32.899" viewBox="0 0 36.842 32.899">
  <defs>
    <clipPath id="clip-path">
      <rect id="Rectangle_494" data-name="Rectangle 494" width="29" height="29" fill="none"/>
    </clipPath>
    <clipPath id="clip-path-2">
      <rect id="Rectangle_1149" data-name="Rectangle 1149" width="12.385" height="9.636" fill="#ffde0b"/>
    </clipPath>
  </defs>
  <g id="Group_1633" data-name="Group 1633" transform="translate(-384.543 -150.769)">
    <g id="Group_598" data-name="Group 598" transform="translate(392.385 150.769)">
      <g id="Group_597" data-name="Group 597" clip-path="url(#clip-path)">
        <path id="Path_110" data-name="Path 110" d="M13.372,0h1.621c.073.015.146.035.22.045.593.081,1.193.125,1.777.246a13.938,13.938,0,0,1,8.517,5.367,13.707,13.707,0,0,1,2.716,6.588c.05.375.095.751.142,1.126v1.621c-.016.082-.035.163-.047.246-.081.584-.126,1.176-.244,1.752a13.938,13.938,0,0,1-5.368,8.517,13.7,13.7,0,0,1-6.589,2.715c-.374.05-.75.095-1.125.142H13.372c-.073-.015-.146-.035-.219-.045-.584-.079-1.176-.121-1.753-.239a13.951,13.951,0,0,1-8.542-5.373A13.71,13.71,0,0,1,.142,16.119c-.05-.375-.095-.751-.142-1.126V13.372c.015-.074.033-.147.045-.221.131-.815.2-1.644.4-2.442a13.8,13.8,0,0,1,4.7-7.446A13.8,13.8,0,0,1,12.247.142C12.622.091,13,.047,13.372,0M4.183,21.918a11.184,11.184,0,0,1,6.545-5.664,6.588,6.588,0,1,1,6.914,0,11.185,11.185,0,0,1,6.543,5.665,12.654,12.654,0,1,0-20,0m10.052,4.937c.328-.018.716-.038,1.1-.062.126-.008.251-.027.377-.043a12.592,12.592,0,0,0,7.142-3.335.387.387,0,0,0,.1-.535A9.573,9.573,0,0,0,12.879,17.32a9.431,9.431,0,0,0-7.485,5.592.341.341,0,0,0,.086.473,12.71,12.71,0,0,0,8.755,3.469m5.012-16.212a5.065,5.065,0,1,0-5.083,5.06,5.072,5.072,0,0,0,5.083-5.06" transform="translate(0.392 0.243)"/>
      </g>
    </g>
    <g id="Group_1632" data-name="Group 1632" transform="translate(384.543 165.238)">
      <circle id="Ellipse_384" data-name="Ellipse 384" cx="9.215" cy="9.215" r="9.215" transform="translate(0 -0.001)"/>
    </g>
    <g id="Group_1631" data-name="Group 1631" transform="translate(387.564 169.635)">
      <g id="Group_1631-2" data-name="Group 1631" transform="translate(0 0)" clip-path="url(#clip-path-2)">
        <path id="Path_7322" data-name="Path 7322" d="M12.21,1.584,10.813.174a.6.6,0,0,0-.842,0L4.707,5.394l-2.282-2.3a.6.6,0,0,0-.842,0L.174,4.486a.6.6,0,0,0,0,.842l4.1,4.133a.6.6,0,0,0,.842,0L12.21,2.423a.6.6,0,0,0,0-.842Z" transform="translate(0 0)" fill="#ffde0b"/>
      </g>
    </g>
  </g>
</svg>
