<svg xmlns="http://www.w3.org/2000/svg" width="17.3" height="17.293" viewBox="0 0 17.3 17.293">
  <g id="client_icon" data-name="client icon" transform="translate(0.15 0.15)">
    <path id="Path_908" data-name="Path 908" d="M91.289,83.013a8.5,8.5,0,1,1-8.517,8.476,8.51,8.51,0,0,1,8.517-8.476M96.783,96.82a7.668,7.668,0,1,0-11.022,0,5.689,5.689,0,0,1,3.764-4.26,3.7,3.7,0,0,1-1.7-4.39,3.642,3.642,0,0,1,6.92.064,3.684,3.684,0,0,1-1.731,4.325,5.7,5.7,0,0,1,3.772,4.26m-5.526,2.36c.162,0,.325,0,.487,0,.111,0,.22-.026.331-.036a7.348,7.348,0,0,0,3.479-1.262c.581-.4.491-.229.362-.881a4.736,4.736,0,0,0-9.357.379.3.3,0,0,0,.151.313,7.581,7.581,0,0,0,4.547,1.488m0-7.069a2.76,2.76,0,0,0,2.786-2.751,2.775,2.775,0,1,0-2.786,2.751" transform="translate(-82.771 -83.012)" fill="#007fff" stroke="#007fff" stroke-width="0.3"/>
  </g>
</svg>
