<svg id="close_window_icon" data-name="close window icon" xmlns="http://www.w3.org/2000/svg" width="24" height="24" viewBox="0 0 24 24">
  <rect id="Rectangle_781" data-name="Rectangle 781" width="24" height="24" fill="#020202"/>
  <path id="window-close" d="M164.833,154.71l-3.839,3.839,3.839,3.839a.747.747,0,0,1,0,1.05l-1.394,1.394a.747.747,0,0,1-1.05,0l-3.839-3.839-3.839,3.839a.747.747,0,0,1-1.05,0l-1.394-1.394a.747.747,0,0,1,0-1.05l3.839-3.839-3.839-3.839a.747.747,0,0,1,0-1.05l1.394-1.394a.747.747,0,0,1,1.05,0l3.839,3.839,3.839-3.839a.747.747,0,0,1,1.05,0l1.394,1.394A.736.736,0,0,1,164.833,154.71Z" transform="translate(-146.752 -146.35)" fill="#fff"/>
</svg>
