<svg id="date_info_box" data-name="date info box" xmlns="http://www.w3.org/2000/svg" xmlns:xlink="http://www.w3.org/1999/xlink" width="16.532" height="16" viewBox="0 0 16.532 16">
  <defs>
    <clipPath id="clip-path">
      <rect id="Rectangle_792" data-name="Rectangle 792" width="16.532" height="16" transform="translate(0 0)" fill="none"/>
    </clipPath>
  </defs>
  <g id="Group_983" data-name="Group 983" clip-path="url(#clip-path)">
    <path id="Path_1119" data-name="Path 1119" d="M3.376,7.55V8.632c-.349.017-.669.036-.989.047a1.048,1.048,0,0,0-1.153,1,11.209,11.209,0,0,0-.008,1.232h14a2.413,2.413,0,0,0-.191-1.858c-.46-.643-1.2-.233-1.869-.462-.016-.31-.033-.651-.05-.981,2.341-.609,3.428.845,3.417,2.425q-.034,4.9,0,9.805A2.424,2.424,0,0,1,13.963,22.4c-3.812-.063-7.626-.016-11.439-.021a2.263,2.263,0,0,1-2.5-2.512c-.005-3.2.058-6.4-.025-9.592C-.045,8.5,1,7.1,3.376,7.55M1.268,12.209c-.021.207-.052.367-.052.527,0,2.37-.009,4.74,0,7.11,0,.918.373,1.337,1.189,1.339q5.865.012,11.731,0a1.036,1.036,0,0,0,1.15-1.074c.007-.071.008-.142.008-.213q0-3.591,0-7.181a3.851,3.851,0,0,0-.071-.508Z" transform="translate(0 -6.403)" fill="#161615"/>
    <rect id="Rectangle_791" data-name="Rectangle 791" width="5.614" height="1.109" transform="translate(5.457 1.111)" fill="#161615"/>
    <path id="Path_1120" data-name="Path 1120" d="M26.771,1.614A4.193,4.193,0,0,1,26.794.559a.881.881,0,0,1,.523-.542.5.5,0,0,1,.616.521c.034.729.034,1.461.006,2.191a.548.548,0,0,1-.612.554.558.558,0,0,1-.557-.609c-.012-.353,0-.707,0-1.061h0" transform="translate(-22.944 0)" fill="#161615"/>
    <path id="Path_1121" data-name="Path 1121" d="M82.253,1.691c0,.33.01.661,0,.99a.589.589,0,1,1-1.177-.01c-.013-.683-.01-1.367,0-2.051a.555.555,0,0,1,.556-.61c.4-.016.6.237.619.62.016.353,0,.707,0,1.061" transform="translate(-69.537 -0.008)" fill="#161615"/>
    <path id="Path_1122" data-name="Path 1122" d="M34.949,52.684c.22-.191.359-.318.5-.436.109-.088.228-.163.425-.3L37.7,54.182l3.305-4.628.953.665c-.151.232-.27.428-.4.615-1.051,1.488-2.1,2.978-3.161,4.459-.478.668-.8.674-1.329.03-.7-.859-1.39-1.731-2.117-2.639" transform="translate(-29.979 -42.507)" fill="#161615"/>
  </g>
</svg>
