<svg id="delete_client" data-name="delete client" xmlns="http://www.w3.org/2000/svg" xmlns:xlink="http://www.w3.org/1999/xlink" width="22.506" height="29.491" viewBox="0 0 22.506 29.491">
  <defs>
    <clipPath id="clip-path">
      <rect id="Rectangle_1913" data-name="Rectangle 1913" width="22.506" height="29.491" fill="#1a051d" stroke="#000" stroke-width="1"/>
    </clipPath>
  </defs>
  <g id="Group_2705" data-name="Group 2705" clip-path="url(#clip-path)">
    <path id="Path_7864" data-name="Path 7864" d="M17.123,48.873h8.33c.261,0,.523,0,.784.007.464,0,.632.232.594.644-.238,2.562-.486,5.122-.7,7.686-.167,1.991-.285,3.986-.44,5.979a11.2,11.2,0,0,1-.231,1.8,2.78,2.78,0,0,1-2.125,2.067,6.924,6.924,0,0,1-1.737.214c-2.94.021-5.88.013-8.82.008-3.067,0-4.211-1.081-4.368-3.941-.124-2.265-.368-4.525-.547-6.788-.153-1.932-.288-3.865-.433-5.8-.025-.332-.052-.664-.1-.994-.105-.759-.028-.869.776-.881,1.143-.017,2.287,0,3.43-.005h5.586" transform="translate(-5.864 -37.873)" fill="#1a051d"/>
    <path id="Path_7865" data-name="Path 7865" d="M0,8.191A23.557,23.557,0,0,1,1.164,5.385,3.961,3.961,0,0,1,4.811,3.319c.549,0,1.23.116,1.605-.158.284-.208.19-.948.245-1.453A1.84,1.84,0,0,1,8.7.019c1.436-.035,2.873-.011,4.31-.012.261,0,.523,0,.783.008a1.85,1.85,0,0,1,1.94,2.076,2.512,2.512,0,0,0,0,.392c.031.772.07.813.854.839.326.011.653,0,.979,0a4.026,4.026,0,0,1,3.881,2.483c.343.726.569,1.507.893,2.383ZM11.174,3.322v0c.747,0,1.5-.013,2.242,0,.579.014.707-.3.7-.8-.006-.464-.143-.744-.664-.741-1.495.008-2.99.012-4.484,0-.58-.006-.7.308-.7.806-.007.549.231.758.763.743.714-.019,1.43,0,2.145,0" transform="translate(0 0)" fill="#1a051d"/>
  </g>
</svg>
