<svg id="delete_white" data-name="delete white" xmlns="http://www.w3.org/2000/svg" xmlns:xlink="http://www.w3.org/1999/xlink" width="18.231" height="24" viewBox="0 0 18.231 24">
  <defs>
    <clipPath id="clip-path">
      <rect id="Rectangle_492" data-name="Rectangle 492" width="18.231" height="24" fill="#fff" stroke="#000" stroke-width="1"/>
    </clipPath>
  </defs>
  <g id="Group_579" data-name="Group 579" clip-path="url(#clip-path)">
    <path id="Path_102" data-name="Path 102" d="M15.314,48.872h6.8c.213,0,.426,0,.64.005.379,0,.516.19.484.525-.194,2.09-.4,4.18-.572,6.272-.136,1.625-.232,3.253-.359,4.879a9.14,9.14,0,0,1-.188,1.47,2.268,2.268,0,0,1-1.734,1.687,5.651,5.651,0,0,1-1.417.175c-2.4.017-4.8.01-7.2.007-2.5,0-3.436-.882-3.564-3.216-.1-1.848-.3-3.692-.447-5.539-.125-1.576-.235-3.154-.353-4.73-.02-.271-.042-.542-.08-.811-.086-.619-.023-.709.633-.719.933-.014,1.866,0,2.8,0h4.558" transform="translate(-6.127 -39.896)" fill="#fff"/>
    <path id="Path_103" data-name="Path 103" d="M0,6.684a19.223,19.223,0,0,1,.949-2.29A3.232,3.232,0,0,1,3.926,2.709c.448,0,1,.095,1.31-.129.232-.169.155-.774.2-1.186A1.5,1.5,0,0,1,7.1.016C8.271-.013,9.444.007,10.616.006c.213,0,.426,0,.639.007a1.51,1.51,0,0,1,1.583,1.694,2.05,2.05,0,0,0,0,.32c.026.63.057.663.7.684.266.009.533,0,.8,0A3.285,3.285,0,0,1,17.5,4.739c.28.592.464,1.23.729,1.945ZM9.118,2.711h0c.61,0,1.22-.011,1.83,0,.472.011.577-.248.572-.656,0-.379-.117-.607-.542-.6-1.22.007-2.44.01-3.659,0-.473,0-.568.252-.572.657-.005.448.189.619.622.607.583-.016,1.167,0,1.75,0" transform="translate(0 0)" fill="#fff"/>
  </g>
</svg>
