<svg id="Component_8_55" data-name="Component 8 – 55" xmlns="http://www.w3.org/2000/svg" xmlns:xlink="http://www.w3.org/1999/xlink" width="18.99" height="25" viewBox="0 0 18.99 25">
  <defs>
    <clipPath id="clip-path">
      <rect id="Rectangle_492" data-name="Rectangle 492" width="18.99" height="25" fill="#161615" stroke="#000" stroke-width="1"/>
    </clipPath>
  </defs>
  <g id="Group_579" data-name="Group 579" clip-path="url(#clip-path)">
    <path id="Path_102" data-name="Path 102" d="M15.649,48.873h7.081c.222,0,.444,0,.666.006.394,0,.537.213.5.589-.2,2.345-.413,4.689-.6,7.036-.142,1.823-.242,3.649-.374,5.473a11,11,0,0,1-.2,1.649,2.455,2.455,0,0,1-1.806,1.892,5.489,5.489,0,0,1-1.476.2c-2.5.019-5,.012-7.5.008-2.607,0-3.579-.99-3.713-3.608-.106-2.074-.313-4.142-.465-6.214-.13-1.768-.245-3.538-.368-5.307-.021-.3-.044-.608-.083-.91-.09-.694-.024-.8.659-.807.972-.015,1.944,0,2.916,0h4.748M10.771,57.1q0,2.449,0,4.9a1.862,1.862,0,0,0,.055.655c.058.148.268.346.391.333a.7.7,0,0,0,.481-.333A1.528,1.528,0,0,0,11.758,62c0-.8,0-2.7,0-2.7s0-4.573,0-7.015a1.545,1.545,0,0,0-.059-.652.7.7,0,0,0-.478-.337c-.124-.013-.336.183-.395.331a1.846,1.846,0,0,0-.055.655q0,2.408,0,4.816m5.316.142q0-2.45,0-4.9a1.759,1.759,0,0,0-.045-.656c-.072-.169-.28-.38-.434-.385a.649.649,0,0,0-.455.357,1.634,1.634,0,0,0-.052.654q0,4.816,0,9.632a1.411,1.411,0,0,0,.03.574c.093.192.29.454.451.46s.387-.243.473-.431a1.678,1.678,0,0,0,.035-.656q0-2.325,0-4.65m3.337-.085q0,2.408,0,4.816a1.642,1.642,0,0,0,.053.654.649.649,0,0,0,.453.358c.154,0,.353-.215.437-.383a1.356,1.356,0,0,0,.043-.572q0-4.9,0-9.8c0-.166.045-.366-.03-.49-.112-.184-.318-.44-.475-.433s-.37.265-.452.459a1.781,1.781,0,0,0-.032.657q0,2.366,0,4.733" transform="translate(-6.079 -40.727)" fill="#161615"/>
    <path id="Path_103" data-name="Path 103" d="M0,6.963A20.024,20.024,0,0,1,.989,4.577a3.367,3.367,0,0,1,3.1-1.756c.467,0,1.046.1,1.365-.134.242-.176.161-.806.208-1.235A1.564,1.564,0,0,1,7.4.016c1.22-.03,2.442-.01,3.663-.01.222,0,.444,0,.666.007a1.572,1.572,0,0,1,1.649,1.765,2.135,2.135,0,0,0,0,.333c.027.656.06.691.726.713.277.009.555,0,.833,0a3.422,3.422,0,0,1,3.3,2.11c.292.617.484,1.281.759,2.026ZM9.5,2.824h0c.635,0,1.271-.011,1.906,0,.492.012.6-.258.6-.683-.005-.395-.122-.632-.564-.63-1.271.007-2.541.01-3.812,0-.493,0-.591.262-.6.685-.006.467.2.644.648.632.607-.016,1.215,0,1.823,0" transform="translate(0 0)" fill="#161615"/>
  </g>
</svg>
