<svg id="Dropbox_folder" data-name="Dropbox folder" xmlns="http://www.w3.org/2000/svg" xmlns:xlink="http://www.w3.org/1999/xlink" width="56.734" height="43.529" viewBox="0 0 56.734 43.529">
  <defs>
    <clipPath id="clip-path">
      <rect id="Rectangle_923" data-name="Rectangle 923" width="23.256" height="31.068" fill="none"/>
    </clipPath>
    <clipPath id="clip-path-2">
      <rect id="Rectangle_918" data-name="Rectangle 918" width="51.23" height="37.972" fill="#fff"/>
    </clipPath>
    <filter id="Path_1139" x="-0.148" y="3.322" width="53.16" height="43.994" filterUnits="userSpaceOnUse">
      <feOffset dy="2" input="SourceAlpha"/>
      <feGaussianBlur stdDeviation="2.5" result="blur"/>
      <feFlood flood-color="#007ee5" flood-opacity="0.153"/>
      <feComposite operator="in" in2="blur"/>
      <feComposite in="SourceGraphic"/>
    </filter>
  </defs>
  <g id="Group_1259" data-name="Group 1259" transform="matrix(0.899, 0.438, -0.438, 0.899, 35.832, 0)">
    <g id="Group_1165" data-name="Group 1165" clip-path="url(#clip-path)">
      <path id="Path_1162" data-name="Path 1162" d="M.017,15.524H0q0,.457,0,.915.005,4.626.013,9.252c0,.693,0,1.389.055,2.079a3.261,3.261,0,0,0,.826,1.873,3.937,3.937,0,0,0,3.134,1.423c1.6,0,3.2,0,4.8,0l10.535,0a3.825,3.825,0,0,0,2.107-.612,3.9,3.9,0,0,0,1.413-1.64,4.2,4.2,0,0,0,.372-1.858q-.006-6,0-12,0-3.826,0-7.652a.627.627,0,0,0-.189-.478q-.671-.66-1.337-1.325Q19.058,2.834,16.388.166a.527.527,0,0,0-.4-.166c-.322.006-.644,0-.966,0Q9.57,0,4.119,0A4.471,4.471,0,0,0,2.366.317,3.7,3.7,0,0,0,.6,1.822,4.142,4.142,0,0,0,.013,4.091q.013,5.717,0,11.433" transform="translate(0 0)" fill="#fff"/>
      <path id="Path_1163" data-name="Path 1163" d="M.017,15.524q0-5.717,0-11.434A4.142,4.142,0,0,1,.6,1.822,3.7,3.7,0,0,1,2.366.317,4.471,4.471,0,0,1,4.119,0q5.451.005,10.9,0c.322,0,.644,0,.966,0a.526.526,0,0,1,.4.166q2.669,2.668,5.34,5.335.666.665,1.337,1.325a.627.627,0,0,1,.189.478q0,3.826,0,7.652,0,6,0,12a4.2,4.2,0,0,1-.372,1.858,3.9,3.9,0,0,1-1.413,1.64,3.826,3.826,0,0,1-2.107.612l-10.535,0c-1.6,0-3.2-.006-4.8,0A3.937,3.937,0,0,1,.894,29.642,3.26,3.26,0,0,1,.068,27.77C.013,27.08.015,26.384.013,25.69Q0,21.065,0,16.439q0-.457,0-.915H.017M15.546.97c-.054,0-.092-.007-.13-.007H13.135Q11.068.96,9,.957c-1.673,0-3.345,0-5.018,0a3.262,3.262,0,0,0-1.156.2A2.864,2.864,0,0,0,.982,3.727c-.011.455-.007.91-.008,1.365Q.964,11.268.957,17.444c0,3.206.012,6.411.02,9.617A3.676,3.676,0,0,0,1,27.593a2.963,2.963,0,0,0,2.932,2.514c1.878-.012,3.756.006,5.634.006,3.234,0,6.468-.009,9.7-.008a2.987,2.987,0,0,0,1.971-.68,2.674,2.674,0,0,0,1.024-1.912c.036-.475.024-.954.025-1.431Q22.3,21.69,22.3,17.3c0-1.132-.009-2.265-.01-3.4q0-2.976,0-5.951V7.692H19.483a3.877,3.877,0,0,1-2.7-1.044,3.531,3.531,0,0,1-1.219-2.542c-.035-.943-.015-1.889-.02-2.833,0-.1,0-.2,0-.3M21.583,6.7,16.511,1.643c-.005.108-.01.163-.01.217,0,.611,0,1.222,0,1.833a2.968,2.968,0,0,0,.278,1.34A2.716,2.716,0,0,0,19.093,6.7c.8.06,1.609.024,2.414.03a.361.361,0,0,0,.076-.028" transform="translate(0 0)" fill="#007ee5"/>
      <path id="Path_1164" data-name="Path 1164" d="M14.589.012c0,.105,0,.2,0,.3,0,.945-.015,1.89.02,2.833a3.531,3.531,0,0,0,1.219,2.542,3.877,3.877,0,0,0,2.7,1.044h2.809c0,.1,0,.177,0,.258q0,2.976,0,5.951c0,1.132.011,2.265.01,3.4q0,4.392-.012,8.785c0,.477.011.956-.025,1.431a2.674,2.674,0,0,1-1.024,1.912,2.987,2.987,0,0,1-1.971.68c-3.234,0-6.468.007-9.7.008-1.878,0-3.756-.018-5.634-.006A2.963,2.963,0,0,1,.045,26.636,3.675,3.675,0,0,1,.02,26.1C.012,22.9,0,19.693,0,16.487Q0,10.311.018,4.135c0-.455,0-.91.008-1.365A2.864,2.864,0,0,1,1.87.207,3.261,3.261,0,0,1,3.027,0C4.7,0,6.372,0,8.044,0Q10.111,0,12.178,0h2.281c.038,0,.076,0,.13.007M3.4,11.525H17.929v-.934H3.4Zm0,4.533H17.945c0-.249,0-.487,0-.725s0-.226-.225-.226q-3.782,0-7.564.005-3.266,0-6.532-.006H3.4Zm14.538,8.119c-.086,0-.156-.012-.226-.013H11.083l-3.249,0q-2.15,0-4.3,0c-.111,0-.144.042-.141.148.006.2,0,.4,0,.6,0,.215,0,.215.219.216q2.749,0,5.5,0c1.177,0,2.355-.006,3.532-.006q2.558,0,5.117,0a.227.227,0,0,0,.1-.006c.032-.017.077-.053.078-.082.006-.282,0-.565,0-.861m-.011-3.588c0-.283,0-.549,0-.814,0-.083-.026-.122-.114-.122-.222,0-.443-.014-.665-.014H5.187c-.544,0-1.088,0-1.632,0-.053,0-.15.045-.151.071-.011.291-.007.582-.007.878Z" transform="translate(0.957 0.957)" fill="#fff"/>
      <path id="Path_1165" data-name="Path 1165" d="M5.083,5.058a.361.361,0,0,1-.076.028c-.8-.006-1.613.03-2.414-.03A2.716,2.716,0,0,1,.279,3.39,2.967,2.967,0,0,1,0,2.05C0,1.439,0,.828,0,.217,0,.163,0,.108.01,0L5.083,5.058" transform="translate(16.501 1.643)" fill="#fff"/>
      <path id="Path_1168" data-name="Path 1168" d="M0,.952V0H.22Q3.486,0,6.752.006q3.782,0,7.564-.005c.223,0,.224,0,.225.226s0,.475,0,.725Z" transform="translate(3.767 19.368)" fill="#007ee5"/>
    </g>
  </g>
  <g id="dropbox_folder_icon" data-name="dropbox folder icon" transform="translate(0 5.557)">
    <g id="Group_1159" data-name="Group 1159">
      <g id="Group_1158" data-name="Group 1158" clip-path="url(#clip-path-2)">
        <g transform="matrix(1, 0, 0, 1, 0, -5.56)" filter="url(#Path_1139)">
          <path id="Path_1139-2" data-name="Path 1139" d="M19.049,28.969q-8.058,0-16.116,0A2.729,2.729,0,0,1,.082,26.914,4,4,0,0,1,0,25.992Q0,14.5,0,3A2.72,2.72,0,0,1,3.018.018C7.4.012,11.775.032,16.153,0a1.313,1.313,0,0,1,1.435.862c.523,1.191,1.183,2.322,1.716,3.51a1.31,1.31,0,0,0,1.408.892c4.782-.039,9.564-.025,14.346-.011a4.141,4.141,0,0,1,1.366.2,2.6,2.6,0,0,1,1.712,2.618c.009,3.537,0,7.074,0,10.611,0,2.42-.061,4.842.019,7.259a2.919,2.919,0,0,1-3.086,3.051c-5.34-.065-10.682-.025-16.023-.025" transform="translate(7.35 8.82)" fill="#91cefe"/>
        </g>
      </g>
    </g>
  </g>
  <g id="Group_1260" data-name="Group 1260" transform="translate(-722 -504.471)">
    <path id="Polygon_12" data-name="Polygon 12" d="M5.724.955a1,1,0,0,1,1.552,0l4.4,5.414A1,1,0,0,1,10.9,8H2.1a1,1,0,0,1-.776-1.631Z" transform="translate(742 524)" fill="#007ee5"/>
    <rect id="Rectangle_924" data-name="Rectangle 924" width="5" height="10" rx="1" transform="translate(746 529)" fill="#007ee5"/>
  </g>
</svg>
