<svg xmlns="http://www.w3.org/2000/svg" width="46.079" height="45.089" viewBox="0 0 46.079 45.089">
  <g id="edit_user_icon" data-name="edit user icon" transform="translate(0 0.15)">
    <path id="Path_1101" data-name="Path 1101" d="M103.836,83.013a21.013,21.013,0,1,1-21.064,20.962,21.047,21.047,0,0,1,21.064-20.962m13.589,34.148a18.965,18.965,0,1,0-27.258,0,14.068,14.068,0,0,1,9.31-10.535,9.139,9.139,0,0,1-4.216-10.857,9.007,9.007,0,0,1,17.115.158,9.111,9.111,0,0,1-4.28,10.7,14.109,14.109,0,0,1,9.329,10.535M103.758,123c.4,0,.8.011,1.2,0,.274-.011.545-.064.818-.09a18.172,18.172,0,0,0,8.6-3.121c1.438-.978,1.215-.567.9-2.178a11.713,11.713,0,0,0-23.14.939.742.742,0,0,0,.374.774A18.749,18.749,0,0,0,103.758,123m.008-17.483a6.825,6.825,0,0,0,6.89-6.8,6.863,6.863,0,1,0-6.89,6.8" transform="translate(-78.885 -83.012)" stroke="#000" stroke-width="0.3"/>
    <g id="Group_957" data-name="Group 957" transform="translate(0 23.573)">
      <ellipse id="Ellipse_384" data-name="Ellipse 384" cx="10.683" cy="10.683" rx="10.683" ry="10.683" transform="translate(0 0)" fill="#ffde0b"/>
    </g>
    <g id="Group_1629" data-name="Group 1629" transform="translate(0 23.573)">
      <ellipse id="Ellipse_384-2" data-name="Ellipse 384" cx="10.683" cy="10.683" rx="10.683" ry="10.683" transform="translate(0 0)"/>
    </g>
    <path id="Path_7321" data-name="Path 7321" d="M12577.123-10963.907l4.2-6.256,6.467-4.187,3.07,1.842.5,1.528-1.947,3.551-5.354,5.01-3.157,1.7h-1.964l-1.817-1.7Z" transform="translate(-12573.237 11001.525)" fill="#ffde0b"/>
    <path id="pen-square" d="M11.333,48.835,5.516,51.159c-1.283,0-3.387-3.3-3.387-4.586L4.458,41c0-1.283-.639-4.217.644-4.217l9.95-2.509c1.283,0,4.12,3.721,4.12,5l-4.193,6.152C14.979,46.71,12.616,48.835,11.333,48.835Zm0-9.979-6.57,6.57-.305,2.765a.586.586,0,0,0,.644.644l2.765-.305,6.57-6.57a.3.3,0,0,0,0-.412L11.75,38.861A.3.3,0,0,0,11.333,38.856Zm5.176-.62-1.457-1.457a1.157,1.157,0,0,0-1.641,0L12.292,37.9a.3.3,0,0,0,0,.412L14.979,41a.3.3,0,0,0,.412,0l1.118-1.118A1.166,1.166,0,0,0,16.509,38.237Z" transform="translate(1.064 -8.681)"/>
  </g>
</svg>
