<svg id="edit_icon" data-name="edit icon" xmlns="http://www.w3.org/2000/svg" width="28.85" height="28.85" viewBox="0 0 28.85 28.85">
  <path id="pen-square" d="M25.759,60.85H3.091A3.092,3.092,0,0,1,0,57.759V35.091A3.092,3.092,0,0,1,3.091,32H25.759a3.092,3.092,0,0,1,3.091,3.091V57.759A3.092,3.092,0,0,1,25.759,60.85ZM15.333,41.4,6.594,50.134l-.406,3.677a.78.78,0,0,0,.856.856l3.677-.406,8.739-8.739a.393.393,0,0,0,0-.547L15.887,41.4A.4.4,0,0,0,15.333,41.4Zm6.884-.824-1.938-1.938a1.539,1.539,0,0,0-2.183,0L16.608,40.12a.393.393,0,0,0,0,.547l3.574,3.574a.393.393,0,0,0,.547,0l1.488-1.488A1.551,1.551,0,0,0,22.217,40.571Z" transform="translate(0 -32)"/>
</svg>
