<svg id="edit_action_plan_button" data-name="edit action plan button" xmlns="http://www.w3.org/2000/svg" xmlns:xlink="http://www.w3.org/1999/xlink" width="26.676" height="26.676" viewBox="0 0 26.676 26.676">
  <defs>
    <clipPath id="clip-path">
      <rect id="Rectangle_754" data-name="Rectangle 754" width="26.676" height="26.676" fill="none"/>
    </clipPath>
    <clipPath id="clip-path-2">
      <rect id="Rectangle_1183" data-name="Rectangle 1183" width="14.254" height="14.25" fill="#007fff"/>
    </clipPath>
  </defs>
  <g id="Group_900" data-name="Group 900" clip-path="url(#clip-path)">
    <path id="Path_1068" data-name="Path 1068" d="M11.914,0A11.914,11.914,0,1,1,0,11.914,11.914,11.914,0,0,1,11.914,0Z" transform="translate(1.424 1.424)" fill="none" stroke="#007fff" stroke-width="2"/>
  </g>
  <g id="Group_1661" data-name="Group 1661" transform="translate(6.211 6.213)">
    <g id="Group_1662" data-name="Group 1662" transform="translate(0 0)" clip-path="url(#clip-path-2)">
      <path id="Path_7358" data-name="Path 7358" d="M8.313,17.205l3.09,3.09a.335.335,0,0,1,0,.473L3.921,28.251.741,28.6A.667.667,0,0,1,0,28.015a.676.676,0,0,1,0-.149l.353-3.179L7.84,17.205a.335.335,0,0,1,.473,0" transform="translate(0 -14.358)" fill="#007fff"/>
      <path id="Path_7359" data-name="Path 7359" d="M60.795,2.063,59.123.391a1.34,1.34,0,0,0-1.891,0L56.019,1.6a.335.335,0,0,0,0,.473l3.09,3.09a.335.335,0,0,0,.473,0L60.8,3.954a1.34,1.34,0,0,0,0-1.891Z" transform="translate(-46.932 0)" fill="#007fff"/>
    </g>
  </g>
</svg>
