<svg id="funding_goals" data-name="funding goals" xmlns="http://www.w3.org/2000/svg" xmlns:xlink="http://www.w3.org/1999/xlink" width="29.318" height="29.277" viewBox="0 0 29.318 29.277">
  <defs>
    <clipPath id="clip-path">
      <rect id="Rectangle_1112" data-name="Rectangle 1112" width="18.936" height="17.063"/>
    </clipPath>
    <clipPath id="clip-path-2">
      <rect id="Rectangle_1113" data-name="Rectangle 1113" width="18.936" height="17.063" fill="none"/>
    </clipPath>
  </defs>
  <path id="Path_7392" data-name="Path 7392" d="M131.7,146.559a14.638,14.638,0,1,1,14.677-14.629A14.617,14.617,0,0,1,131.7,146.559" transform="translate(-117.055 -117.282)" fill="#ffde0b"/>
  <g id="Group_1720" data-name="Group 1720" transform="translate(-4569.341 16136.729)">
    <g id="goals_worked" data-name="goals worked" transform="translate(4577.576 -16129.425)">
      <g id="Group_1540" data-name="Group 1540">
        <g id="Group_1539" data-name="Group 1539" clip-path="url(#clip-path)">
          <path id="Path_7145" data-name="Path 7145" d="M51.713,47.21v3.162c0,.494-.082.56-.72.568-.765.008-1.53.01-2.3,0-.564-.008-.685-.092-.686-.509q-.01-3.235,0-6.47c0-.428.108-.5.678-.5q1.179-.008,2.359,0c.605,0,.663.043.663.491.005,1.086,0,2.172,0,3.258" transform="translate(-37.503 -33.883)"/>
          <path id="Path_7146" data-name="Path 7146" d="M27.7,55.885c0,.7,0,1.4,0,2.1,0,.468-.061.51-.711.514q-1.179.007-2.358,0c-.546,0-.645-.064-.647-.43q-.012-2.188,0-4.376c0-.381.117-.462.682-.462q1.178-.013,2.357,0c.558.006.67.087.674.467.008.729,0,1.459,0,2.188" transform="translate(-18.732 -41.499)"/>
          <path id="Path_7147" data-name="Path 7147" d="M3.734,66.55c0,.336.008.673,0,1.008-.009.277-.123.333-.68.338q-1.21.01-2.421,0c-.483,0-.607-.067-.61-.3q-.015-1.04,0-2.081c0-.237.125-.3.607-.3q1.242-.013,2.484,0c.5,0,.611.07.62.335.011.336,0,.672,0,1.008" transform="translate(-0.012 -50.838)"/>
        </g>
      </g>
      <g id="Group_1542" data-name="Group 1542" transform="translate(0 0)">
        <g id="Group_1541" data-name="Group 1541" clip-path="url(#clip-path-2)">
          <path id="Path_7148" data-name="Path 7148" d="M12.651,14.734v3.114a.141.141,0,0,1-.211.124l-.669-.379A14.889,14.889,0,0,1,.439,23.271a14.73,14.73,0,0,0,10.053-6.4l-.639-.4a.143.143,0,0,1,0-.242l2.581-1.618a.142.142,0,0,1,.217.12" transform="translate(-0.343 -11.377)"/>
        </g>
      </g>
    </g>
    <path id="Path_7394" data-name="Path 7394" d="M148.554,141.331c0-.226,0-.408,0-.589s-.031-.383.054-.5.295-.105.451-.149A2.909,2.909,0,0,0,151,138.642a2.865,2.865,0,0,0,.3-1.8,2.316,2.316,0,0,0-.854-1.53,3.181,3.181,0,0,0-1.1-.574c-.593-.171-1.2-.312-1.791-.476a9.038,9.038,0,0,1-.94-.3,1,1,0,0,1-.681-.663,1.934,1.934,0,0,1-.031-.66,1.208,1.208,0,0,1,.905-1.087,2.91,2.91,0,0,1,1.292-.081,1.417,1.417,0,0,1,1.276,1.208c.019.092.042.183.061.268a6.9,6.9,0,0,0,1.607-.027.682.682,0,0,0,.017-.108,1.155,1.155,0,0,0-.011-.2,3.155,3.155,0,0,0-.755-1.6,2.99,2.99,0,0,0-1.492-.9c-.243-.067-.245-.067-.248-.309s0-.464,0-.7v-.655a7.419,7.419,0,0,0-1.786.017v1.261c0,.3-.012.3-.289.369a2.953,2.953,0,0,0-1.378.7,2.916,2.916,0,0,0-.834,2.655,2.274,2.274,0,0,0,1.215,1.74,3.823,3.823,0,0,0,.711.321c.5.152,1.007.262,1.51.4.454.129.911.257,1.35.426a.94.94,0,0,1,.588.671,1.342,1.342,0,0,1-.9,1.632,2.85,2.85,0,0,1-1.932.006,1.669,1.669,0,0,1-1.151-1.575c0-.094-.014-.187-.022-.3h-1.606a1.875,1.875,0,0,0,.038.787,2.882,2.882,0,0,0,1.19,2.014,3.533,3.533,0,0,0,1.246.531c.249.056.263.08.268.336.005.232,0,.464,0,.7,0,.114.045.186.169.186h1.615" transform="translate(4433.577 -16262.229)"/>
  </g>
</svg>
