<svg id="goals_completed_icon" data-name="goals completed icon" xmlns="http://www.w3.org/2000/svg" xmlns:xlink="http://www.w3.org/1999/xlink" width="28.562" height="35.559" viewBox="0 0 28.562 35.559">
  <defs>
    <clipPath id="clip-path">
      <rect id="Rectangle_1017" data-name="Rectangle 1017" width="28.562" height="35.559" transform="translate(0 4)" fill="none"/>
    </clipPath>
  </defs>
  <g id="Group_1440" data-name="Group 1440" transform="translate(0 -4)" clip-path="url(#clip-path)">
    <path id="Path_1341" data-name="Path 1341" d="M73.9,38a2.748,2.748,0,0,0-.508.432c-.9.907-1.777,1.831-2.688,2.724a7.761,7.761,0,0,1-.925.708l-.025,0-.823-.029v-.006h-1.1v0h0l-.679.011a.278.278,0,0,0-.072.013c-.028-.028-.058-.054-.087-.079-.237-.2-.526-.333-.742-.547-.922-.913-1.825-1.846-2.737-2.769a3.464,3.464,0,0,0-.442-.409,1.026,1.026,0,0,0-1.344.13.963.963,0,0,0-.045,1.288,4.4,4.4,0,0,0,.41.442c1.179,1.195,2.35,2.4,3.544,3.576a1.194,1.194,0,0,1,.388.938c-.014,2.91,0,5.82-.017,8.729a1.432,1.432,0,0,0,.7,1.406h.671a1.432,1.432,0,0,0,.7-1.4c-.036-1.315-.011-2.631-.011-3.946,0-.134,0-.268,0-.4.008-.217-.033-.517.277-.5s.241.325.241.533c.006,1.4.024,2.81-.006,4.214a1.668,1.668,0,0,0,.673,1.5h.671a1.444,1.444,0,0,0,.77-1.5c-.014-2.843,0-5.685-.013-8.528a1.263,1.263,0,0,1,.41-1c.758-.729,1.485-1.49,2.224-2.238.6-.6,1.207-1.2,1.79-1.817a.87.87,0,0,0,.062-1.266A1.006,1.006,0,0,0,73.9,38" transform="translate(-49.633 -24.574)" fill="#007fff"/>
    <path id="Path_1342" data-name="Path 1342" d="M87.959,37.236a1.9,1.9,0,1,0,3.8.059,1.9,1.9,0,1,0-3.8-.059" transform="translate(-71.034 -22.561)" fill="#007fff"/>
    <path id="Path_1343" data-name="Path 1343" d="M81.158,3.332a3.712,3.712,0,0,1,.5-1.257,3.635,3.635,0,0,1,1.233-.489,5.9,5.9,0,0,0-.821-.242A.694.694,0,0,1,81.428.7a6.08,6.08,0,0,0-.217-.7,1.092,1.092,0,0,0-.3.6.785.785,0,0,1-.758.774,4.639,4.639,0,0,0-.647.19c.4.222.878.243,1.13.493a3.9,3.9,0,0,1,.524,1.275" transform="translate(-64.206 6)" fill="#007fff"/>
    <path id="Path_1344" data-name="Path 1344" d="M62.939,20.488a1.21,1.21,0,0,1,1.143-1.072c-.777-.362-.777-.362-1.2-1.2a1.194,1.194,0,0,1-1.036,1.193,1.156,1.156,0,0,1,1.089,1.083" transform="translate(-49.949 -8.708)" fill="#007fff"/>
    <path id="Path_1345" data-name="Path 1345" d="M127.255,16.918c.4-.762.4-.762,1.238-1.2a1.188,1.188,0,0,1-1.2-1.029,1.13,1.13,0,0,1-1.077,1.069,1.17,1.17,0,0,1,1.039,1.155" transform="translate(-101.93 -5.867)" fill="#007fff"/>
    <path id="Path_1346" data-name="Path 1346" d="M87.9,133.952c0,1.14,0,2.281,0,3.421,0,.534-.123.606-1.086.614-1.154.009-2.308.011-3.462,0-.851-.009-1.033-.1-1.035-.551q-.016-3.5,0-7c0-.463.163-.536,1.023-.54q1.779-.008,3.558,0c.913,0,1,.046,1,.531.008,1.175,0,2.35,0,3.525" transform="translate(-66.467 -98.435)" fill="#007fff"/>
    <path id="Path_1347" data-name="Path 1347" d="M46.732,150.627c0,.757.005,1.515,0,2.272,0,.506-.092.552-1.072.556q-1.778.007-3.556,0c-.824,0-.972-.069-.975-.465q-.018-2.367,0-4.734c0-.412.177-.5,1.029-.5q1.778-.014,3.556,0c.841.007,1.01.094,1.017.506.012.789,0,1.578,0,2.367" transform="translate(-33.207 -113.964)" fill="#007fff"/>
    <path id="Path_1348" data-name="Path 1348" d="M5.614,167.059c0,.364.012.728,0,1.091-.013.3-.185.36-1.026.365q-1.825.011-3.651,0c-.729-.005-.916-.073-.921-.327q-.022-1.125,0-2.251c0-.256.189-.324.916-.329q1.873-.014,3.747,0c.754.005.922.076.935.362.016.364,0,.727,0,1.091" transform="translate(0 -128.961)" fill="#007fff"/>
  </g>
</svg>
