<svg id="goals_completed" data-name="goals completed" xmlns="http://www.w3.org/2000/svg" xmlns:xlink="http://www.w3.org/1999/xlink" width="31.24" height="38.894" viewBox="0 0 31.24 38.894">
  <defs>
    <clipPath id="clip-path">
      <rect id="Rectangle_1114" data-name="Rectangle 1114" width="31.24" height="38.894" fill="none"/>
    </clipPath>
    <clipPath id="clip-path-2">
      <rect id="Rectangle_1115" data-name="Rectangle 1115" width="31.24" height="38.893" fill="none"/>
    </clipPath>
  </defs>
  <g id="Group_1548" data-name="Group 1548" transform="translate(0 0)">
    <g id="Group_1545" data-name="Group 1545" transform="translate(0 0)">
      <g id="Group_1544" data-name="Group 1544" clip-path="url(#clip-path)">
        <path id="Path_7149" data-name="Path 7149" d="M18.329,27.508c0-.533-.033-.983.009-1.428a.857.857,0,0,1,.82-.767c.464-.042-2.348-.028-1.881-.035.742-.011.931-.2.934-.952,0-.312.007-.623,0-.935a2.112,2.112,0,0,0-1.174-1.938A6.94,6.94,0,0,1,14.341,19.2.529.529,0,0,0,14,19.017a4.421,4.421,0,0,1-3.923-4.536c0-.28-.01-.561,0-.841A1.505,1.505,0,0,1,11.5,12.126c.418-.038.84-.025,1.26-.037.167-.005.334-.018.533-.028.012-.193.019-.345.034-.5a.645.645,0,0,1,.625-.634,2.955,2.955,0,0,1,.327-.008h10.33c.094,0,.188,0,.281.005a.666.666,0,0,1,.652.662c.012.137.016.275.026.458.179.014.345.034.509.039.4.015.812,0,1.214.039a1.451,1.451,0,0,1,1.393,1.334,6.146,6.146,0,0,1-.12,2.229,4.28,4.28,0,0,1-3.6,3.294.716.716,0,0,0-.525.316,6,6,0,0,1-2.356,2.011,2.3,2.3,0,0,0-1.425,2.308c.009.265,0,.529,0,.794.009.651.213.852.879.861.358.005-1.471-.005-1.112,0,.918.026,1.228.342,1.223,1.265C21.643,27.661,21.352,27.508,18.329,27.508Zm-.564-9.524c0,.441,1.085.159,1.3,0a.555.555,0,0,1,.73,0c.175.129.355.254.53.382a.494.494,0,0,0,.6.069c.221-.147.206-.366.141-.587-.057-.194-.125-.385-.18-.579-.119-.412-.08-.533.267-.8a3.206,3.206,0,0,0,.552-.425.634.634,0,0,0,.118-.5c-.033-.117-.236-.229-.383-.259a3.493,3.493,0,0,0-.652-.015c-.454-.01-.573-.093-.722-.512a3.432,3.432,0,0,0-.215-.615.733.733,0,0,0-.4-.336c-.213-.047-.373.124-.447.331-.085.234-.156.473-.237.709a.571.571,0,0,1-.6.422c-.218,0-.436.005-.654,0a.465.465,0,0,0-.515.313c-.089.258.067.411.248.547.137.1.28.2.417.3.419.317.451.416.3.909-.073.237-.145.476-.2.644m-4.471-4.664c-.569,0-1.094,0-1.618,0-.249,0-.359.15-.358.392,0,.358-.012.716,0,1.073a3.094,3.094,0,0,0,1.59,2.63,5.293,5.293,0,0,0,.7.29c-.466-1.478-.2-2.9-.317-4.387m11.978,4.331a3.085,3.085,0,0,0,2.014-1.9,5.391,5.391,0,0,0,.167-2.125.418.418,0,0,0-.284-.292c-.523-.031-1.049-.014-1.591-.014-.118,1.456.155,2.885-.305,4.327" transform="translate(0.944 1.025)" fill="#2b80f5"/>
        <path id="Path_7150" data-name="Path 7150" d="M18.954,26.65H15.975a.875.875,0,0,1-.226-.016c-.125-.031-.2-.173-.2-.443,0-.38-.01-.76.005-1.138.023-.572.233-.968.515-1.015a.7.7,0,0,1,.127-.005h5.529a.709.709,0,0,1,.152.008c.231.054.416.3.46.755a12.164,12.164,0,0,1,.032,1.484.558.558,0,0,1-.186.34c-.073.062-.165.031-.249.031H18.954" transform="translate(1.457 2.254)" fill="#2b80f5"/>
      </g>
    </g>
    <g id="Group_1547" data-name="Group 1547" transform="translate(0 0)">
      <g id="Group_1546" data-name="Group 1546" clip-path="url(#clip-path-2)">
        <path id="Path_7151" data-name="Path 7151" d="M17.82,8.64a5.664,5.664,0,0,1,.763-1.917,5.552,5.552,0,0,1,1.881-.746,9.14,9.14,0,0,0-1.252-.369,1.06,1.06,0,0,1-.979-.982A9.387,9.387,0,0,0,17.9,3.558c-.244.25-.283.962-.336.953a1.356,1.356,0,0,1-1.278,1.143,7.171,7.171,0,0,0-.987.29c.61.339,1.339.371,1.724.752a5.965,5.965,0,0,1,.8,1.945" transform="translate(1.434 0.334)" fill="#2b80f5"/>
        <path id="Path_7152" data-name="Path 7152" d="M13.453,10.3A1.723,1.723,0,0,1,15.08,8.774c-1.106-.515-1.106-.515-1.708-1.708a1.7,1.7,0,0,1-1.475,1.7,1.645,1.645,0,0,1,1.55,1.542" transform="translate(0.378 -0.088)" fill="#2b80f5"/>
        <path id="Path_7153" data-name="Path 7153" d="M25.921,9.888c.63-1.2.63-1.2,1.949-1.889a1.87,1.87,0,0,1-1.889-1.62,1.779,1.779,0,0,1-1.7,1.683,1.841,1.841,0,0,1,1.635,1.818" transform="translate(1.183 -0.472)" fill="#2b80f5"/>
        <path id="Path_7154" data-name="Path 7154" d="M21.957,31.9v3.742c0,.584-.135.663-1.188.672-1.262.01-2.524.012-3.787,0-.931-.01-1.13-.109-1.132-.6q-.018-3.828,0-7.656c0-.506.178-.586,1.119-.591q1.946-.008,3.892,0c1,0,1.094.05,1.094.581.009,1.285,0,2.57,0,3.855" transform="translate(1.485 2.575)" fill="#2b80f5"/>
        <path id="Path_7155" data-name="Path 7155" d="M14.051,32.933c0,.828.005,1.657,0,2.485,0,.553-.1.6-1.173.608q-1.944.008-3.889,0c-.9,0-1.063-.075-1.066-.509q-.02-2.589,0-5.178c0-.451.194-.547,1.125-.547q1.944-.015,3.889,0c.92.008,1.1.1,1.112.553.013.863,0,1.726,0,2.589" transform="translate(0.742 2.793)" fill="#2b80f5"/>
        <path id="Path_7156" data-name="Path 7156" d="M6.14,34.235c0,.4.013.8,0,1.193-.014.328-.2.394-1.122.4q-2,.011-3.993,0c-.8-.005-1-.08-1.007-.358q-.025-1.23,0-2.462c0-.28.207-.354,1-.36q2.049-.015,4.1,0c.825.005,1.008.083,1.023.4.018.4,0,.8,0,1.193" transform="translate(0 3.061)" fill="#2b80f5"/>
      </g>
    </g>
  </g>
  <circle id="Ellipse_391" data-name="Ellipse 391" cx="3.5" cy="3.5" r="3.5" transform="translate(17 13.867)" fill="#2b80f5"/>
</svg>
