<svg id="goal02" xmlns="http://www.w3.org/2000/svg" xmlns:xlink="http://www.w3.org/1999/xlink" width="29" height="40" viewBox="0 0 29 40">
  <defs>
    <clipPath id="clip-path">
      <rect id="Rectangle_722" data-name="Rectangle 722" width="29" height="40" transform="translate(0 0.106)" fill="none"/>
    </clipPath>
  </defs>
  <g id="Group_830" data-name="Group 830" transform="translate(0 -0.106)" clip-path="url(#clip-path)">
    <path id="Path_958" data-name="Path 958" d="M393.993,1c.116.112.234.222.349.336L404.806,11.8a.974.974,0,0,1,.071.089c-.3,0-.6.009-.9.009-2.322,0-4.643-.009-6.965.009a3.235,3.235,0,0,1-1.853-.46,2.764,2.764,0,0,1-1.128-1.719,3.327,3.327,0,0,1-.043-.621q0-3.787,0-7.574c0-.116-.007-.231-.011-.347L393.993,1" transform="translate(-375.924 -1.133)" fill="#a2cdff"/>
    <path id="Path_959" data-name="Path 959" d="M256.533,531.94a.087.087,0,0,1,.04-.017c.115.007.23.02.344.021l9.618.005v1.8H258.8c-.092,0-.185,0-.277.008l-1.987-.015q0-.9-.008-1.8" transform="translate(-244.859 -507.429)" fill="#efeeef"/>
    <path id="Path_960" data-name="Path 960" d="M256.406,630.362l8.238,0c.571,0,1.141,0,1.712.006l.041.037q0,.878,0,1.756l-9.636,0c-.123,0-.246.006-.369.009l0,0q.008-.9.017-1.805" transform="translate(-244.722 -601.298)" fill="#efefef"/>
    <path id="Path_961" data-name="Path 961" d="M256.471,669.161c.123,0,.246-.009.369-.009l9.636,0a1.2,1.2,0,0,1-.235.048q-4.763,0-9.525,0a1.68,1.68,0,0,1-.245-.036" transform="translate(-244.8 -638.288)" fill="#a38dc2"/>
    <path id="Path_962" data-name="Path 962" d="M267.367,531.284l-9.618-.006c-.115,0-.23-.013-.344-.021.1-.008.2-.023.3-.023q1.778-.006,3.557-.009,2.913,0,5.826.01a1.686,1.686,0,0,1,.283.049" transform="translate(-245.69 -506.764)" fill="#957fb8"/>
    <path id="Path_963" data-name="Path 963" d="M255.564,630.455q-.008.9-.017,1.805a2.713,2.713,0,0,1-.038-.311q-.006-.633,0-1.265a1.068,1.068,0,0,1,.054-.229" transform="translate(-243.88 -601.39)" fill="#a38dc2"/>
    <path id="Path_964" data-name="Path 964" d="M471.152,472.382l.048-.02-.048.02" transform="translate(-449.522 -450.631)" fill="#7e66a8"/>
    <path id="Path_965" data-name="Path 965" d="M471.283,630.532l-.041-.037.041.037" transform="translate(-449.608 -601.428)" fill="#d9d1e7"/>
    <path id="Path_966" data-name="Path 966" d="M29.225,11.2a1.5,1.5,0,0,0-.046-.262c-.3,0-.6.009-.9.009-2.322,0-4.643-.009-6.965.009a3.235,3.235,0,0,1-1.853-.46h0a2.763,2.763,0,0,1-1.128-1.719,3.331,3.331,0,0,1-.043-.621q0-3.787,0-7.574c0-.116-.007-.231-.011-.347h-5.54A.936.936,0,0,1,13,.143c.382-.01.764,0,1.146-.01.088,0,.174-.081.261-.125-.046,0-.092-.008-.138-.008Q8.523,0,2.78,0a2.419,2.419,0,0,0-.57.054A2.729,2.729,0,0,0,.132,1.943L0,2.41v35.4a3.156,3.156,0,0,0,.546,1.278A2.716,2.716,0,0,0,2.36,40.176a.363.363,0,0,1,.1.045H26.771c.143-.038.287-.073.429-.116a2.716,2.716,0,0,0,1.968-2.093,2.519,2.519,0,0,0,.056-.591q0-13.111,0-26.223" transform="translate(-0.227 -0.182)" fill="#d6e8fd"/>
    <path id="Path_968" data-name="Path 968" d="M252.592,351.867c-.292,0-.584-.011-.876-.011h-4.591c-.092,0-.184-.007-.276-.011q0-.9,0-1.8l4.4-.008,2.639-.009h2.96v1.814l-.048.02Z" transform="translate(-235.624 -333.969)" fill="#007fff"/>
    <path id="Path_969" data-name="Path 969" d="M92.036,306.571c-.018-.025-.028-.04-.039-.053l-.426-.528c-.112-.139-.223-.278-.335-.415-.045-.055-.064-.056-.122-.017-.015.01-.028.022-.042.033l-.291.234-.392.315c-.074.06-.075.081-.015.156l.148.184L91.59,307.8c.121.15.241.3.364.451.057.07.1.069.153,0l.229-.276q.535-.651,1.069-1.3.829-1.007,1.659-2.012c.059-.072.048-.118-.013-.166-.167-.132-.33-.271-.5-.406-.071-.058-.141-.117-.213-.174a.081.081,0,0,0-.127.009c-.012.013-.023.027-.034.041l-.674.818-1.192,1.448-.279.337" transform="translate(-86.368 -289.975)" fill="#007fff"/>
    <path id="Path_970" data-name="Path 970" d="M252.592,520.338c-.292,0-.584-.011-.876-.011h-4.591c-.092,0-.184-.007-.276-.011q0-.9,0-1.8l4.4-.008,2.639-.009h2.96v1.814l-.048.02Z" transform="translate(-235.624 -494.625)" fill="#007fff"/>
    <path id="Path_971" data-name="Path 971" d="M92.036,475.043c-.018-.025-.028-.04-.039-.053l-.426-.528c-.112-.139-.223-.278-.335-.415-.045-.055-.064-.056-.122-.017-.015.01-.028.022-.042.033l-.291.234-.392.315c-.074.06-.075.081-.015.156l.148.184,1.067,1.324c.121.15.241.3.364.451.057.07.1.069.153,0l.229-.276q.535-.651,1.069-1.3.829-1.007,1.659-2.012c.059-.071.048-.118-.013-.166-.167-.132-.33-.271-.5-.406-.071-.058-.141-.117-.213-.174a.081.081,0,0,0-.127.009c-.012.013-.023.027-.034.041l-.674.818-1.192,1.448-.279.337" transform="translate(-86.368 -450.632)" fill="#007fff"/>
    <path id="Path_972" data-name="Path 972" d="M252.592,688.81c-.292,0-.584-.011-.876-.011h-4.591c-.092,0-.184-.007-.276-.011q0-.9,0-1.8l4.4-.008,2.639-.009h2.96v1.814l-.048.02-4.21.008" transform="translate(-235.624 -655.281)" fill="#a2cdff"/>
    <path id="Path_973" data-name="Path 973" d="M92.036,643.514c-.018-.025-.028-.04-.039-.053l-.426-.528c-.112-.139-.223-.278-.335-.415-.045-.055-.064-.056-.122-.017-.015.01-.028.022-.042.033l-.291.234-.392.315c-.074.06-.075.081-.015.156l.148.184,1.067,1.324c.121.15.241.3.364.451.057.07.1.069.153,0l.229-.276q.535-.651,1.069-1.3.829-1.007,1.659-2.012c.059-.072.048-.118-.013-.166-.167-.132-.33-.271-.5-.406-.071-.058-.141-.117-.213-.174a.081.081,0,0,0-.127.009c-.012.013-.023.027-.034.041l-.674.818-1.192,1.448-.279.337" transform="translate(-86.368 -611.287)" fill="#a2cdff"/>
  </g>
</svg>
