<svg id="goals_were_worked_on" data-name="goals were worked on" xmlns="http://www.w3.org/2000/svg" xmlns:xlink="http://www.w3.org/1999/xlink" width="28.562" height="25.559" viewBox="0 0 28.562 25.559">
  <defs>
    <clipPath id="clip-path">
      <rect id="Rectangle_1017" data-name="Rectangle 1017" width="28.562" height="25.559" transform="translate(0 14)" fill="none"/>
    </clipPath>
  </defs>
  <g id="Group_1442" data-name="Group 1442" transform="translate(0 -14)">
    <g id="Group_1440" data-name="Group 1440" clip-path="url(#clip-path)">
      <path id="Path_1346" data-name="Path 1346" d="M87.9,133.952c0,1.14,0,2.281,0,3.421,0,.534-.123.606-1.086.614-1.154.009-2.308.011-3.462,0-.851-.009-1.033-.1-1.035-.551q-.016-3.5,0-7c0-.463.163-.536,1.023-.54q1.779-.008,3.558,0c.913,0,1,.046,1,.531.008,1.175,0,2.35,0,3.525" transform="translate(-66.467 -98.435)" fill="#007fff"/>
      <path id="Path_1347" data-name="Path 1347" d="M46.732,150.627c0,.757.005,1.515,0,2.272,0,.506-.092.552-1.072.556q-1.778.007-3.556,0c-.824,0-.972-.069-.975-.465q-.018-2.367,0-4.734c0-.412.177-.5,1.029-.5q1.778-.014,3.556,0c.841.007,1.01.094,1.017.506.012.789,0,1.578,0,2.367" transform="translate(-33.207 -113.964)" fill="#007fff"/>
      <path id="Path_1348" data-name="Path 1348" d="M5.614,167.059c0,.364.012.728,0,1.091-.013.3-.185.36-1.026.365q-1.825.011-3.651,0c-.729-.005-.916-.073-.921-.327q-.022-1.125,0-2.251c0-.256.189-.324.916-.329q1.873-.014,3.747,0c.754.005.922.076.935.362.016.364,0,.727,0,1.091" transform="translate(0 -128.961)" fill="#007fff"/>
    </g>
  </g>
  <path id="Path_1349" data-name="Path 1349" d="M11.822,25.937,11.3,28.229c.549.18,1.077.358,1.607.527A1.269,1.269,0,0,1,14,30.18c.017,1.128.023,2.257.032,3.385,0,.13-.016.259-.025.38a5.4,5.4,0,0,1-2.189.038c-.033-1.045-.067-2.109-.1-3.213-.147-.056-.3-.122-.453-.172-.8-.257-1.613-.5-2.415-.768a1.088,1.088,0,0,1-.864-1.269c.078-1.03.195-2.057.295-3.085.007-.071.01-.142.019-.267-.23.1-.411.194-.6.267a.584.584,0,0,0-.377.447c-.124.491-.264.98-.429,1.458a.936.936,0,0,1-1.783-.041,1.31,1.31,0,0,1,.008-.607c.167-.655.365-1.3.547-1.952a1.151,1.151,0,0,1,.68-.775c.6-.271,1.189-.563,1.779-.853a2.8,2.8,0,0,1,1.868-.2c.478.1.957.191,1.433.3a2.227,2.227,0,0,1,1.4.877c.215.308.474.586.683.9a.6.6,0,0,0,.8.283,5.989,5.989,0,0,1,1.149-.267.839.839,0,0,1,.888.471.8.8,0,0,1-.03.953,1.167,1.167,0,0,1-.536.377c-.7.209-1.414.382-2.125.557a.893.893,0,0,1-.949-.35c-.274-.333-.537-.675-.882-1.111" transform="translate(-4.126 -15.549)" fill="#007fff"/>
  <path id="Path_1350" data-name="Path 1350" d="M31.054,0a2.009,2.009,0,0,1,1.968,1.924,1.96,1.96,0,1,1-3.92.07A1.986,1.986,0,0,1,31.054,0" transform="translate(-23.833 3.215)" fill="#007fff"/>
  <path id="Path_1351" data-name="Path 1351" d="M18.63,73.432h-2.3l1.183-6.3,2.132.818c-.288,1.856-.672,3.652-1.017,5.486" transform="translate(-13.359 -51.847)" fill="#007fff"/>
</svg>
