<svg id="goals_worked" data-name="goals worked" xmlns="http://www.w3.org/2000/svg" xmlns:xlink="http://www.w3.org/1999/xlink" width="33.505" height="29.983" viewBox="0 0 33.505 29.983">
  <defs>
    <clipPath id="clip-path">
      <rect id="Rectangle_1112" data-name="Rectangle 1112" width="33.504" height="29.982" fill="none"/>
    </clipPath>
    <clipPath id="clip-path-2">
      <rect id="Rectangle_1113" data-name="Rectangle 1113" width="33.505" height="29.983" fill="none"/>
    </clipPath>
  </defs>
  <g id="Group_1540" data-name="Group 1540">
    <g id="Group_1539" data-name="Group 1539" transform="translate(0 0)" clip-path="url(#clip-path)">
      <path id="Path_7145" data-name="Path 7145" d="M54.564,50.051v5.556c0,.868-.144.984-1.274,1-1.354.014-2.707.018-4.061,0-1-.015-1.212-.162-1.214-.9q-.019-5.684,0-11.369c0-.752.191-.87,1.2-.877q2.087-.014,4.174,0c1.071,0,1.173.075,1.173.862.009,1.908,0,3.817,0,5.725" transform="translate(-29.422 -26.634)" fill="#2b80f5"/>
      <path id="Path_7146" data-name="Path 7146" d="M30.561,57.9c0,1.229.006,2.46,0,3.69,0,.822-.108.9-1.257.9q-2.086.012-4.172,0c-.967,0-1.14-.112-1.144-.755q-.021-3.844,0-7.689c0-.669.208-.812,1.207-.812q2.085-.023,4.171,0c.987.011,1.185.153,1.193.821.014,1.282,0,2.563,0,3.844" transform="translate(-14.696 -32.621)" fill="#2b80f5"/>
      <path id="Path_7147" data-name="Path 7147" d="M6.595,67.571c0,.591.014,1.182,0,1.772-.015.487-.217.585-1.2.593q-2.141.018-4.283,0C.253,69.928.034,69.817.028,69.4Q0,67.577.028,65.749c0-.416.221-.526,1.074-.535q2.2-.023,4.4,0c.885.008,1.082.123,1.1.588.019.591,0,1.181,0,1.772" transform="translate(-0.009 -39.962)" fill="#2b80f5"/>
    </g>
  </g>
  <g id="Group_1542" data-name="Group 1542">
    <g id="Group_1541" data-name="Group 1541" clip-path="url(#clip-path-2)">
      <path id="Path_7148" data-name="Path 7148" d="M22.047,14.841v5.472a.25.25,0,0,1-.373.218l-1.184-.666A26.407,26.407,0,0,1,.439,29.843,26.082,26.082,0,0,0,18.226,18.6l-1.13-.7a.251.251,0,0,1,0-.426l4.566-2.843a.251.251,0,0,1,.384.211" transform="translate(-0.269 -8.943)" fill="#2b80f5"/>
    </g>
  </g>
</svg>
