<svg xmlns="http://www.w3.org/2000/svg" width="20.522" height="20.519" viewBox="0 0 20.522 20.519">
  <g id="joining_date" data-name="joining date" transform="translate(0.761 0.75)">
    <path id="Path_7872" data-name="Path 7872" d="M6.487,5.539,8.922.38a.639.639,0,0,1,1.168,0l2.427,5.162a.654.654,0,0,0,.49.374l5.436.832a.691.691,0,0,1,.36,1.164l-3.937,4.014a.7.7,0,0,0-.188.6L15.6,18.2a.658.658,0,0,1-.945.718L9.8,16.238a.625.625,0,0,0-.606,0L4.327,18.912a.658.658,0,0,1-.944-.72l.933-5.671a.7.7,0,0,0-.187-.6L.2,7.9A.691.691,0,0,1,.559,6.734L6,5.911a.655.655,0,0,0,.491-.373" transform="translate(-0.001 0)" fill="none" stroke="#000" stroke-linecap="square" stroke-linejoin="bevel" stroke-width="1.5"/>
  </g>
</svg>
