<svg id="last_updated" data-name="last updated" xmlns="http://www.w3.org/2000/svg" xmlns:xlink="http://www.w3.org/1999/xlink" width="18.454" height="20" viewBox="0 0 18.454 20">
  <defs>
    <clipPath id="clip-path">
      <rect id="Rectangle_760" data-name="Rectangle 760" width="18.454" height="20" stroke="#fff" stroke-width="0.5"/>
    </clipPath>
  </defs>
  <g id="Group_906" data-name="Group 906" clip-path="url(#clip-path)">
    <path id="Path_1072" data-name="Path 1072" d="M88.992,209.507c.089-.094.151-.155.207-.22.325-.38.647-.762.973-1.142.128-.15.132-.148.318-.07a8.67,8.67,0,0,0,2.775.646,14.025,14.025,0,0,0,1.551-.025,6.975,6.975,0,0,0,1.509-.264,8.821,8.821,0,0,0,2.471-1.073c.225-.143.443-.3.656-.457.246-.185.491-.372.72-.576a9.4,9.4,0,0,0,1.509-1.774,7.9,7.9,0,0,0,.626-1.148,11.884,11.884,0,0,0,.452-1.189,8.253,8.253,0,0,0,.4-2.416,8.99,8.99,0,0,0-.058-1.323,10.017,10.017,0,0,0-.42-1.921,1.56,1.56,0,0,0-.087-.183c-.649.19-1.279.376-1.909.559a.114.114,0,0,0-.088.17c.027.077.056.153.081.231a6.066,6.066,0,0,1,.31,1.553,8.084,8.084,0,0,1-.058,1.776,6.943,6.943,0,0,1-1.329,3.114,7.015,7.015,0,0,1-2.231,1.945,7.041,7.041,0,0,1-1.888.709,7.581,7.581,0,0,1-2.009.15,8.679,8.679,0,0,1-1.511-.253,1.333,1.333,0,0,1-.18-.074c.414-.52.863-.976,1.272-1.517-.1-.007-.159-.013-.215-.015-.1,0-.21,0-.314-.012-.417-.032-.834-.066-1.251-.1-.18-.014-.36-.024-.539-.038l-1.7-.133c-.365-.028-.73-.055-1.095-.085-.131-.011-.169.022-.156.154a.865.865,0,0,0,.021.12q.163.678.327,1.357.143.593.284,1.186c.121.509.24,1.018.364,1.527.063.259.135.516.213.812" transform="translate(-84.713 -189.507)" stroke="#fff" stroke-width="0.5"/>
    <path id="Path_1073" data-name="Path 1073" d="M.539,13.149c.277-.081.533-.154.788-.231.356-.108.711-.222,1.068-.327.2-.059.2-.051.14-.254-.1-.341-.205-.681-.269-1.029-.061-.33-.063-.67-.1-1A5.011,5.011,0,0,1,2.213,9a6.989,6.989,0,0,1,.778-2.374A7.478,7.478,0,0,1,3.826,5.4a6.448,6.448,0,0,1,1.033-.985A7.169,7.169,0,0,1,7.392,3.161a7.5,7.5,0,0,1,2.039-.229A7.055,7.055,0,0,1,11.2,3.2a1.566,1.566,0,0,1,.177.075L10.124,4.755c.127.015.206.027.285.033l1.113.082c.406.031.811.064,1.217.094.371.027.742.05,1.113.079s.729.067,1.094.094c.143.011.287,0,.444,0a.342.342,0,0,0,.009-.11C15,3.363,14.6,1.7,14.191,0c-.067.064-.108.1-.14.135q-.529.626-1.057,1.253c-.108.127-.12.129-.282.067a9.714,9.714,0,0,0-2.48-.623A8.418,8.418,0,0,0,9,.779c-.377.018-.754.05-1.127.1a6.65,6.65,0,0,0-.888.179c-.386.106-.77.228-1.145.368a8.14,8.14,0,0,0-1.407.688,5.584,5.584,0,0,0-.527.34c-.311.243-.611.5-.913.755a6.456,6.456,0,0,0-.921.975A7.766,7.766,0,0,0,1.136,5.57c-.169.351-.356.7-.5,1.057A8.8,8.8,0,0,0,.062,8.9a9.96,9.96,0,0,0-.029,1.916,9.5,9.5,0,0,0,.319,1.73c.053.194.119.385.187.6" transform="translate(0 0.001)" stroke="#fff" stroke-width="0.5"/>
  </g>
</svg>
