<svg id="LNE_users" data-name="LNE users" xmlns="http://www.w3.org/2000/svg" xmlns:xlink="http://www.w3.org/1999/xlink" width="45" height="45" viewBox="0 0 45 45">
  <defs>
    <clipPath id="clip-path">
      <circle id="Ellipse_444" data-name="Ellipse 444" cx="21.543" cy="21.543" r="21.543" transform="translate(0 0)" fill="none" stroke="#000" stroke-width="1.3"/>
    </clipPath>
  </defs>
  <g id="Group_2466" data-name="Group 2466">
    <path id="Path_7840" data-name="Path 7840" d="M22.5,0A22.5,22.5,0,1,1,0,22.5,22.5,22.5,0,0,1,22.5,0Z" fill="#fcdd4c"/>
    <g id="Group_2459" data-name="Group 2459" transform="translate(0.302 0.611)">
      <g id="Mask_Group_1300" data-name="Mask Group 1300" transform="translate(0.347 0.347)" clip-path="url(#clip-path)">
        <g id="Ellipse_442" data-name="Ellipse 442" transform="translate(14.006 10.464)" fill="none" stroke="#000" stroke-width="2">
          <ellipse cx="7.781" cy="7.719" rx="7.781" ry="7.719" stroke="none"/>
          <ellipse cx="7.781" cy="7.719" rx="6.781" ry="6.719" fill="none"/>
        </g>
        <g id="Ellipse_443" data-name="Ellipse 443" transform="translate(10.289 25.494)" fill="none" stroke="#000" stroke-width="2">
          <ellipse cx="11.498" cy="12.829" rx="11.498" ry="12.829" stroke="none"/>
          <ellipse cx="11.498" cy="12.829" rx="10.498" ry="11.829" fill="none"/>
        </g>
      </g>
      <path id="Path_7788" data-name="Path 7788" d="M21.843,0A21.843,21.843,0,1,1,0,21.843,21.843,21.843,0,0,1,21.843,0Z" transform="translate(0)" fill="none"/>
    </g>
  </g>
</svg>
