<svg id="manage_services_icon" data-name="manage services icon" xmlns="http://www.w3.org/2000/svg" xmlns:xlink="http://www.w3.org/1999/xlink" width="73.694" height="77.737" viewBox="0 0 73.694 77.737">
  <defs>
    <clipPath id="clip-path">
      <rect id="Rectangle_1107" data-name="Rectangle 1107" width="48.753" height="49.177" transform="translate(0 0)" fill="none" stroke="#000" stroke-width="2.7"/>
    </clipPath>
  </defs>
  <path id="Subtraction_1" data-name="Subtraction 1" d="M-13356.5,9463a33.284,33.284,0,0,1-13.04-2.633,33.36,33.36,0,0,1-10.648-7.179,33.36,33.36,0,0,1-7.179-10.648,33.284,33.284,0,0,1-2.633-13.04,33.282,33.282,0,0,1,2.633-13.038,33.375,33.375,0,0,1,7.179-10.649,33.4,33.4,0,0,1,10.648-7.18,33.284,33.284,0,0,1,13.04-2.633,33.284,33.284,0,0,1,13.04,2.633,33.4,33.4,0,0,1,10.648,7.18,33.375,33.375,0,0,1,7.179,10.649A33.282,33.282,0,0,1-13323,9429.5a33.234,33.234,0,0,1-3.131,14.162,14.922,14.922,0,0,0-3.289-1.231c.207-.437.392-.846.563-1.253a29.791,29.791,0,0,0,2.358-11.678,29.751,29.751,0,0,0-2.358-11.674,29.833,29.833,0,0,0-6.429-9.537,29.907,29.907,0,0,0-9.537-6.433,29.845,29.845,0,0,0-11.678-2.355,29.852,29.852,0,0,0-11.678,2.355,29.928,29.928,0,0,0-9.533,6.433,29.878,29.878,0,0,0-6.432,9.537,29.792,29.792,0,0,0-2.356,11.674,29.832,29.832,0,0,0,2.356,11.678,29.862,29.862,0,0,0,6.432,9.537,29.9,29.9,0,0,0,9.533,6.428,29.778,29.778,0,0,0,11.678,2.359,29.979,29.979,0,0,0,8.555-1.236,14.963,14.963,0,0,0,.7,3.439A33.534,33.534,0,0,1-13356.5,9463Z" transform="translate(13390.001 -9395.999)"/>
  <path id="Path_7139" data-name="Path 7139" d="M14.03,0a.661.661,0,0,1,.294.57c.067.892.176,1.782.255,2.673a.492.492,0,0,0,.281.426q.81.465,1.6.958a.576.576,0,0,0,.6.024c.787-.36,1.579-.709,2.371-1.061.52-.231.734-.17,1.016.313q1.1,1.888,2.2,3.783a.744.744,0,0,1-.256,1.163c-.649.476-1.3.949-1.961,1.41a.5.5,0,0,0-.229.527,17.391,17.391,0,0,1-.006,1.91.41.41,0,0,0,.208.443c.771.487,1.535.983,2.3,1.482.519.34.574.528.278,1.047q-1.085,1.9-2.192,3.786a.779.779,0,0,1-1.155.352c-.737-.325-1.473-.651-2.2-.991a.652.652,0,0,0-.747.082,9.926,9.926,0,0,1-1.408.827.65.65,0,0,0-.425.619c-.045.757-.12,1.513-.2,2.267-.066.646-.249.813-.906.816q-2.1.011-4.193,0c-.687,0-.846-.155-.922-.837-.088-.784-.183-1.568-.244-2.354a.58.58,0,0,0-.353-.522c-.506-.275-1.007-.564-1.494-.871a.638.638,0,0,0-.679-.036c-.772.357-1.552.7-2.33,1.04-.518.229-.723.174-1.013-.321Q1.387,17.6.277,15.665a.69.69,0,0,1,.235-1.025c.664-.482,1.327-.964,2-1.434a.562.562,0,0,0,.251-.609,14.052,14.052,0,0,1-.043-1.729.686.686,0,0,0-.325-.646c-.674-.468-1.338-.949-2-1.434-.468-.343-.5-.523-.2-1.033Q1.263,5.9,2.34,4.049c.33-.566.609-.664,1.2-.407.752.326,1.5.658,2.247,1a.564.564,0,0,0,.625-.061,17.087,17.087,0,0,1,1.526-.9.558.558,0,0,0,.351-.514c.063-.8.183-1.6.233-2.4A.779.779,0,0,1,9.1,0Zm2.285,11.751a4.837,4.837,0,1,0-9.674-.063,4.768,4.768,0,0,0,4.835,4.879,4.738,4.738,0,0,0,4.839-4.816" transform="translate(50.523 46.015) rotate(21)" fill="none" stroke="#000" stroke-width="2.4"/>
  <g id="Group_1537" data-name="Group 1537" transform="translate(12.125 10.823)">
    <g id="Group_1537-2" data-name="Group 1537" transform="translate(-3 -3)" clip-path="url(#clip-path)">
      <path id="Path_7142" data-name="Path 7142" d="M26.261,25.586s1.969-5.529,1.732-7.419a8.986,8.986,0,0,0-2.968-5.69c-1.958-1.625-6.849-3.372-9.151-4.452C12.742,6.558,3.26,2.337,3.26,2.337s.153,5.224.5,6.926a16.052,16.052,0,0,0,6.429,9.644c.654.472,2.722,1.732,2.722,1.732" transform="translate(5.84 4.977)" fill="none" stroke="#000" stroke-linecap="round" stroke-linejoin="round" stroke-width="2.7"/>
      <path id="Path_7143" data-name="Path 7143" d="M31.008,12.977l.4-.8s1.937-4.548,5.254-4.457a5.378,5.378,0,0,1,4.794,2.49c.627.753,2.213,3.227,2.213,3.227a13.315,13.315,0,0,0-2.49,1.2,10.589,10.589,0,0,0-1.751,2.674c-.559,1.178-1.128,3.749-1.567,4.978a43.425,43.425,0,0,1-2.029,5.071,21.187,21.187,0,0,1-2.95,3.966c-6.694,6.22-18.021,6.077-24.986,1.1C4.954,30.333.15,24.411.15,24.411c12.293,3.813,19.915,1.107,19.915,1.107A16.071,16.071,0,0,1,9.094,11.412l-.122-1.335" transform="translate(2.933 10.009)" fill="none" stroke="#000" stroke-linecap="round" stroke-linejoin="round" stroke-width="2.7"/>
      <path id="Path_7144" data-name="Path 7144" d="M9.163,8.687S12.611-.079,12.808.155c3.355,3.954,9.95,8.478,11.37,12.382,1.089,3,.135,4.426.135,4.426" transform="translate(11.357 2.933)" fill="none" stroke="#000" stroke-width="2.7"/>
    </g>
  </g>
</svg>
