<svg xmlns="http://www.w3.org/2000/svg" xmlns:xlink="http://www.w3.org/1999/xlink" width="138.118" height="102.798" viewBox="0 0 138.118 102.798">
  <defs>
    <filter id="Rectangle_1602" x="0" y="0" width="125.27" height="84.936" filterUnits="userSpaceOnUse">
      <feOffset dy="1" input="SourceAlpha"/>
      <feGaussianBlur stdDeviation="1.5" result="blur"/>
      <feFlood flood-opacity="0.161"/>
      <feComposite operator="in" in2="blur"/>
      <feComposite in="SourceGraphic"/>
    </filter>
    <clipPath id="clip-path">
      <rect id="Rectangle_1107" data-name="Rectangle 1107" width="45" height="45.391" fill="none" stroke="#000" stroke-width="2"/>
    </clipPath>
    <filter id="Rectangle_1603" x="27.845" y="81" width="69.578" height="21.798" filterUnits="userSpaceOnUse">
      <feOffset dy="1" input="SourceAlpha"/>
      <feGaussianBlur stdDeviation="1.5" result="blur-2"/>
      <feFlood flood-opacity="0.161"/>
      <feComposite operator="in" in2="blur-2"/>
      <feComposite in="SourceGraphic"/>
    </filter>
  </defs>
  <g id="Manage_Software" data-name="Manage Software" transform="translate(4.5 3.5)">
    <g id="Group_2438" data-name="Group 2438" transform="translate(-0.367)">
      <g transform="matrix(1, 0, 0, 1, -4.13, -3.5)" filter="url(#Rectangle_1602)">
        <g id="Rectangle_1602-2" data-name="Rectangle 1602" transform="translate(4.5 3.5)" fill="#fcdd4c" stroke="#000" stroke-width="3">
          <rect width="116.269" height="75.936" rx="11" stroke="none"/>
          <rect x="1.5" y="1.5" width="113.269" height="72.936" rx="9.5" fill="none"/>
        </g>
      </g>
      <g id="Group_2307" data-name="Group 2307" transform="translate(35.671 15.272)">
        <g id="Group_1537" data-name="Group 1537" transform="translate(0 0)" clip-path="url(#clip-path)">
          <path id="Path_7142" data-name="Path 7142" d="M24.49,23.8s1.818-5.1,1.6-6.848A8.294,8.294,0,0,0,23.349,11.7c-1.807-1.5-6.321-3.112-8.446-4.109C12.012,6.233,3.26,2.337,3.26,2.337S3.4,7.158,3.717,8.73a14.817,14.817,0,0,0,5.934,8.9c.6.436,2.512,1.6,2.512,1.6" transform="translate(5.139 4.414)" fill="none" stroke="#000" stroke-linecap="round" stroke-linejoin="round" stroke-width="2"/>
          <path id="Path_7143" data-name="Path 7143" d="M28.632,12.573,29,11.837s1.787-4.2,4.85-4.114a4.964,4.964,0,0,1,4.425,2.3c.579.695,2.043,2.979,2.043,2.979a12.29,12.29,0,0,0-2.3,1.107A9.774,9.774,0,0,0,36.4,16.574c-.516,1.087-1.041,3.461-1.446,4.595a40.082,40.082,0,0,1-1.873,4.68,19.556,19.556,0,0,1-2.723,3.661C24.182,35.251,13.727,35.119,7.3,30.53,4.584,28.592.15,23.126.15,23.126c11.346,3.52,18.382,1.021,18.382,1.021A14.834,14.834,0,0,1,8.405,11.128L8.293,9.9" transform="translate(2.696 8.644)" fill="none" stroke="#000" stroke-linecap="round" stroke-linejoin="round" stroke-width="2"/>
          <path id="Path_7144" data-name="Path 7144" d="M9.163,8.03S12.345-.061,12.527.155c3.1,3.65,9.184,7.825,10.495,11.429,1.005,2.766.125,4.086.125,4.086" transform="translate(9.777 2.696)" fill="none" stroke="#000" stroke-width="2"/>
        </g>
      </g>
      <g transform="matrix(1, 0, 0, 1, -4.13, -3.5)" filter="url(#Rectangle_1603)">
        <g id="Rectangle_1603-2" data-name="Rectangle 1603" transform="translate(32.35 84.5)" fill="#fcdd4c" stroke="#000" stroke-width="3">
          <rect width="60.578" height="12.798" rx="6.399" stroke="none"/>
          <rect x="1.5" y="1.5" width="57.578" height="9.798" rx="4.899" fill="none"/>
        </g>
      </g>
    </g>
    <ellipse id="Ellipse_428" data-name="Ellipse 428" cx="19.701" cy="20.17" rx="19.701" ry="20.17" transform="translate(92.96 17.42)" fill="#fcdd4c"/>
    <path id="Path_7778" data-name="Path 7778" d="M18.175,0a.856.856,0,0,1,.381.739c.086,1.156.228,2.308.33,3.463a.638.638,0,0,0,.364.551q1.049.6,2.076,1.241a.746.746,0,0,0,.776.031c1.02-.466,2.046-.919,3.071-1.374.674-.3.95-.22,1.317.406q1.431,2.446,2.846,4.9A.963.963,0,0,1,29,11.465c-.841.616-1.685,1.23-2.54,1.827a.653.653,0,0,0-.3.683,22.529,22.529,0,0,1-.007,2.475.532.532,0,0,0,.27.573c1,.63,1.989,1.273,2.976,1.92.672.44.744.684.36,1.357q-1.405,2.461-2.839,4.905a1.01,1.01,0,0,1-1.5.456c-.954-.42-1.908-.844-2.853-1.283a.845.845,0,0,0-.968.106,12.858,12.858,0,0,1-1.823,1.071.842.842,0,0,0-.55.8c-.058.981-.156,1.959-.256,2.937-.086.837-.322,1.053-1.174,1.057q-2.716.014-5.432,0c-.89,0-1.1-.2-1.195-1.085-.114-1.016-.237-2.031-.316-3.05a.752.752,0,0,0-.458-.676c-.656-.356-1.3-.73-1.936-1.129a.826.826,0,0,0-.88-.046c-1,.462-2.011.9-3.018,1.347-.671.3-.936.226-1.313-.415Q1.8,22.8.359,20.293a.894.894,0,0,1,.3-1.328c.86-.625,1.72-1.249,2.59-1.858a.728.728,0,0,0,.325-.789,18.2,18.2,0,0,1-.056-2.24.888.888,0,0,0-.42-.836c-.873-.606-1.734-1.229-2.591-1.858-.607-.445-.647-.678-.265-1.339q1.389-2.4,2.784-4.8c.427-.734.789-.86,1.559-.527.975.423,1.947.853,2.911,1.3a.731.731,0,0,0,.81-.079,22.136,22.136,0,0,1,1.977-1.165.722.722,0,0,0,.455-.666c.081-1.038.237-2.071.3-3.11a1.01,1.01,0,0,1,.75-1Zm2.961,15.223A6.266,6.266,0,1,0,8.6,15.142a6.177,6.177,0,0,0,6.263,6.32,6.138,6.138,0,0,0,6.269-6.239" transform="translate(104.34 17.92) rotate(21)" fill="none" stroke="#000" stroke-width="2"/>
  </g>
</svg>
