<svg xmlns="http://www.w3.org/2000/svg" width="63.669" height="63.644" viewBox="0 0 63.669 63.644">
  <g id="manage_clients_icon" data-name="manage clients icon" transform="translate(0.15 0.15)">
    <path id="Path_7126" data-name="Path 7126" d="M114.521,83.014a31.671,31.671,0,1,1-31.749,31.6,31.723,31.723,0,0,1,31.749-31.6M135,134.483A28.584,28.584,0,1,0,92.848,95.9c-10.847,12.495-8.121,29.8,1.071,38.588,1.816-7.78,6.5-13.056,14.032-15.879a13.775,13.775,0,0,1-6.354-16.365,13.575,13.575,0,0,1,25.8.238,13.732,13.732,0,0,1-6.451,16.123A21.265,21.265,0,0,1,135,134.483m-20.6,8.8c.605,0,1.211.017,1.816-.006.412-.016.822-.1,1.234-.136a27.389,27.389,0,0,0,12.967-4.7c2.167-1.474,1.831-.854,1.349-3.282a17.654,17.654,0,0,0-34.878,1.415,1.118,1.118,0,0,0,.563,1.166A28.26,28.26,0,0,0,114.4,143.28m.011-26.352A10.287,10.287,0,0,0,124.8,106.673a10.344,10.344,0,1,0-10.385,10.255" transform="translate(-82.771 -83.012)" fill="#fff" stroke="#fff" stroke-width="0.3"/>
  </g>
</svg>
