<svg id="manage_software_icon" data-name="manage software icon" xmlns="http://www.w3.org/2000/svg" xmlns:xlink="http://www.w3.org/1999/xlink" width="75.002" height="67.998" viewBox="0 0 75.002 67.998">
  <defs>
    <clipPath id="clip-path">
      <rect id="Rectangle_1107" data-name="Rectangle 1107" width="30.554" height="30.82" fill="none" stroke="#000" stroke-width="1.5"/>
    </clipPath>
  </defs>
  <g id="Union_24" data-name="Union 24" transform="translate(13390.001 -8589.999)" fill="none">
    <path d="M-13364,8658a4,4,0,0,1-4-4v-.931a4,4,0,0,1,4-4h4.889V8646H-13381a9,9,0,0,1-9-9v-38a9,9,0,0,1,9-9h57a9,9,0,0,1,9,9v38a9,9,0,0,1-9,9h-20v3.064h4a4,4,0,0,1,4,4V8654a4,4,0,0,1-4,4Z" stroke="none"/>
    <path d="M -13340.0009765625 8654.9970703125 C -13339.4501953125 8654.9970703125 -13339.001953125 8654.548828125 -13339.001953125 8653.998046875 L -13339.001953125 8653.0673828125 C -13339.001953125 8652.5146484375 -13339.4501953125 8652.0654296875 -13340.0009765625 8652.0654296875 L -13347 8652.0654296875 L -13347 8643.0009765625 L -13323.9990234375 8643.0009765625 C -13320.6904296875 8643.0009765625 -13317.9990234375 8640.3095703125 -13317.9990234375 8637.0009765625 L -13317.9990234375 8599.0009765625 C -13317.9990234375 8595.69140625 -13320.6904296875 8592.9990234375 -13323.9990234375 8592.9990234375 L -13380.998046875 8592.9990234375 C -13384.3076171875 8592.9990234375 -13387.0009765625 8595.69140625 -13387.0009765625 8599.0009765625 L -13387.0009765625 8637.0009765625 C -13387.0009765625 8640.3095703125 -13384.3076171875 8643.0009765625 -13380.998046875 8643.0009765625 L -13356.1123046875 8643.0009765625 L -13356.1123046875 8652.0654296875 L -13364.0009765625 8652.0654296875 C -13364.5517578125 8652.0654296875 -13365 8652.5146484375 -13365 8653.0673828125 L -13365 8653.998046875 C -13365 8654.548828125 -13364.5517578125 8654.9970703125 -13364.0009765625 8654.9970703125 L -13340.0009765625 8654.9970703125 M -13340.0009765625 8657.9970703125 L -13364.0009765625 8657.9970703125 C -13366.208984375 8657.9970703125 -13368 8656.2099609375 -13368 8653.998046875 L -13368 8653.0673828125 C -13368 8650.8564453125 -13366.208984375 8649.0654296875 -13364.0009765625 8649.0654296875 L -13359.1123046875 8649.0654296875 L -13359.1123046875 8646.0009765625 L -13380.998046875 8646.0009765625 C -13385.9716796875 8646.0009765625 -13390.0009765625 8641.9716796875 -13390.0009765625 8637.0009765625 L -13390.0009765625 8599.0009765625 C -13390.0009765625 8594.0283203125 -13385.9716796875 8589.9990234375 -13380.998046875 8589.9990234375 L -13323.9990234375 8589.9990234375 C -13319.0283203125 8589.9990234375 -13314.9990234375 8594.0283203125 -13314.9990234375 8599.0009765625 L -13314.9990234375 8637.0009765625 C -13314.9990234375 8641.9716796875 -13319.0283203125 8646.0009765625 -13323.9990234375 8646.0009765625 L -13344 8646.0009765625 L -13344 8649.0654296875 L -13340.0009765625 8649.0654296875 C -13337.7900390625 8649.0654296875 -13336.001953125 8650.8564453125 -13336.001953125 8653.0673828125 L -13336.001953125 8653.998046875 C -13336.001953125 8656.2099609375 -13337.7900390625 8657.9970703125 -13340.0009765625 8657.9970703125 Z" stroke="none" fill="#000"/>
  </g>
  <g id="Rectangle_1105" data-name="Rectangle 1105" transform="translate(0.001 0.001)" fill="none" stroke="#000" stroke-width="3">
    <rect width="75" height="56" rx="9" stroke="none"/>
    <rect x="1.5" y="1.5" width="72" height="53" rx="7.5" fill="none"/>
  </g>
  <g id="Rectangle_1106" data-name="Rectangle 1106" transform="translate(0.001 8.001)" fill="none" stroke="#000" stroke-width="2">
    <rect width="75" height="39.678" stroke="none"/>
    <rect x="1" y="1" width="73" height="37.678" fill="none"/>
  </g>
  <g id="Group_1538" data-name="Group 1538" transform="translate(25.224 15.43)">
    <g id="Group_1537" data-name="Group 1537" transform="translate(-3 -3)" clip-path="url(#clip-path)">
      <path id="Path_7142" data-name="Path 7142" d="M17.675,16.907s1.234-3.465,1.085-4.65A5.631,5.631,0,0,0,16.9,8.692c-1.227-1.018-4.292-2.113-5.735-2.79C9.2,4.983,3.26,2.337,3.26,2.337s.1,3.274.31,4.341A10.06,10.06,0,0,0,7.6,12.722c.41.3,1.706,1.085,1.706,1.085" transform="translate(2.443 2.247)" fill="none" stroke="#000" stroke-linecap="round" stroke-linejoin="round" stroke-width="1.5"/>
      <path id="Path_7143" data-name="Path 7143" d="M19.489,11.015l.25-.5s1.214-2.85,3.293-2.794a3.371,3.371,0,0,1,3,1.56c.393.472,1.387,2.022,1.387,2.022a8.345,8.345,0,0,0-1.56.752,6.636,6.636,0,0,0-1.1,1.676c-.35.738-.707,2.35-.982,3.12a27.215,27.215,0,0,1-1.272,3.178,13.278,13.278,0,0,1-1.849,2.486c-4.2,3.9-11.294,3.808-15.659.692A37.327,37.327,0,0,1,.15,18.181c7.7,2.39,12.481.694,12.481.694a10.072,10.072,0,0,1-6.876-8.84L5.679,9.2" transform="translate(1.782 3.391)" fill="none" stroke="#000" stroke-linecap="round" stroke-linejoin="round" stroke-width="1.5"/>
      <path id="Path_7144" data-name="Path 7144" d="M9.163,5.5S11.324.007,11.447.154c2.1,2.478,6.236,5.313,7.126,7.76.683,1.878.085,2.774.085,2.774" transform="translate(3.697 1.782)" fill="none" stroke="#000" stroke-width="1.5"/>
    </g>
  </g>
</svg>
