<svg xmlns="http://www.w3.org/2000/svg" xmlns:xlink="http://www.w3.org/1999/xlink" width="100.978" height="99.969" viewBox="0 0 100.978 99.969">
  <defs>
    <clipPath id="clip-path">
      <ellipse id="Ellipse_404" data-name="Ellipse 404" cx="45.253" cy="45.485" rx="45.253" ry="45.485" fill="#fff" stroke="#000" stroke-width="2"/>
    </clipPath>
    <filter id="Path_7787" x="0" y="0" width="99.506" height="99.969" filterUnits="userSpaceOnUse">
      <feOffset dy="1" input="SourceAlpha"/>
      <feGaussianBlur stdDeviation="1.5" result="blur"/>
      <feFlood flood-color="#b7a200" flood-opacity="0.749"/>
      <feComposite operator="in" in2="blur"/>
      <feComposite in="SourceGraphic"/>
    </filter>
    <clipPath id="clip-path-2">
      <rect id="Rectangle_1107" data-name="Rectangle 1107" width="45" height="45.391" fill="none" stroke="#000" stroke-width="2"/>
    </clipPath>
  </defs>
  <g id="Manage_Services" data-name="Manage Services" transform="translate(4.5 3.5)">
    <g id="Group_2302" data-name="Group 2302">
      <g transform="matrix(1, 0, 0, 1, -4.5, -3.5)" filter="url(#Path_7787)">
        <g id="Path_7787-2" data-name="Path 7787" transform="translate(4.5 3.5)" fill="#fcdd4c">
          <path d="M 45.25324249267578 89.46902465820312 C 39.34688186645508 89.46902465820312 33.61791610717773 88.30664825439453 28.22549247741699 86.01419067382812 C 23.01577949523926 83.79940032958984 18.3365306854248 80.62830352783203 14.31772994995117 76.58895874023438 C 10.29841709136963 72.54910278320312 7.142879962921143 67.84500122070312 4.938805103302002 62.60733795166016 C 2.656980037689209 57.1849365234375 1.500005006790161 51.42398834228516 1.500005006790161 45.48451232910156 C 1.500005006790161 39.54503631591797 2.656980037689209 33.78408813476562 4.938805103302002 28.36168670654297 C 7.142879962921143 23.12402534484863 10.29841709136963 18.41992568969727 14.31772994995117 14.38006210327148 C 18.3365306854248 10.34072494506836 23.01577949523926 7.169624805450439 28.22549247741699 4.954837322235107 C 33.61791610717773 2.66237473487854 39.34688186645508 1.49999988079071 45.25324249267578 1.49999988079071 C 51.15960311889648 1.49999988079071 56.88856887817383 2.66237473487854 62.28099060058594 4.954837322235107 C 67.49071502685547 7.169624805450439 72.16996765136719 10.34072494506836 76.18875122070312 14.38006210327148 C 80.20807647705078 18.41992568969727 83.36360168457031 23.12402534484863 85.56769561767578 28.3617000579834 C 87.84951782226562 33.78408813476562 89.00649261474609 39.54503631591797 89.00649261474609 45.48451232910156 C 89.00649261474609 51.42398834228516 87.84951782226562 57.1849365234375 85.56769561767578 62.60732650756836 C 83.36360168457031 67.84500122070312 80.20807647705078 72.54910278320312 76.18875122070312 76.58895874023438 C 72.16996765136719 80.62830352783203 67.49071502685547 83.79940032958984 62.28099060058594 86.01419067382812 C 56.88856887817383 88.30664825439453 51.15960311889648 89.46902465820312 45.25324249267578 89.46902465820312 Z" stroke="none"/>
          <path d="M 45.25324249267578 3 C 39.5496711730957 3 34.01815795898438 4.122138977050781 28.81235504150391 6.33526611328125 C 23.78163146972656 8.473953247070312 19.26270294189453 11.53656768798828 15.38108825683594 15.43801116943359 C 11.49842834472656 19.34051513671875 8.450302124023438 23.88441467285156 6.321372985839844 28.94349670410156 C 4.117469787597656 34.18072509765625 3 39.74592590332031 3 45.48451232910156 C 3 51.22309875488281 4.117469787597656 56.78829956054688 6.321372985839844 62.02552795410156 C 8.450302124023438 67.08460998535156 11.49842834472656 71.62850952148438 15.38108825683594 75.53101348876953 C 19.26270294189453 79.43245697021484 23.78163146972656 82.49507141113281 28.81235504150391 84.63375854492188 C 34.01815795898438 86.84688568115234 39.5496711730957 87.96902465820312 45.25324249267578 87.96902465820312 C 50.95681381225586 87.96902465820312 56.48832702636719 86.84688568115234 61.69412994384766 84.63375854492188 C 66.724853515625 82.49507141113281 71.24378967285156 79.43245697021484 75.12539672851562 75.53101348876953 C 79.008056640625 71.62850952148438 82.05618286132812 67.08460998535156 84.18511199951172 62.02552795410156 C 86.38901519775391 56.78829956054688 87.50648498535156 51.22309875488281 87.50648498535156 45.48451232910156 C 87.50648498535156 39.74592590332031 86.38901519775391 34.18072509765625 84.18511199951172 28.94349670410156 C 82.05618286132812 23.88441467285156 79.008056640625 19.34051513671875 75.12539672851562 15.43801116943359 C 71.24378967285156 11.53656768798828 66.724853515625 8.473953247070312 61.69412994384766 6.33526611328125 C 56.48832702636719 4.122138977050781 50.95681381225586 3 45.25324249267578 3 M 45.25324249267578 0 C 70.24591064453125 0 90.50648498535156 20.36411285400391 90.50648498535156 45.48451232910156 C 90.50648498535156 70.60491180419922 70.24591064453125 90.96902465820312 45.25324249267578 90.96902465820312 C 20.26057434082031 90.96902465820312 0 70.60491180419922 0 45.48451232910156 C 0 20.36411285400391 20.26057434082031 0 45.25324249267578 0 Z" stroke="none" fill="#000"/>
        </g>
      </g>
    </g>
    <g id="Group_2303" data-name="Group 2303" transform="translate(22.394 22.42)">
      <g id="Group_1537" data-name="Group 1537" transform="translate(0 0)" clip-path="url(#clip-path-2)">
        <path id="Path_7142" data-name="Path 7142" d="M24.49,23.8s1.818-5.1,1.6-6.848A8.294,8.294,0,0,0,23.349,11.7c-1.807-1.5-6.321-3.112-8.446-4.109C12.012,6.233,3.26,2.337,3.26,2.337S3.4,7.158,3.717,8.73a14.817,14.817,0,0,0,5.934,8.9c.6.436,2.512,1.6,2.512,1.6" transform="translate(5.139 4.414)" fill="none" stroke="#000" stroke-linecap="round" stroke-linejoin="round" stroke-width="2"/>
        <path id="Path_7143" data-name="Path 7143" d="M28.632,12.573,29,11.837s1.787-4.2,4.85-4.114a4.964,4.964,0,0,1,4.425,2.3c.579.695,2.043,2.979,2.043,2.979a12.291,12.291,0,0,0-2.3,1.107A9.774,9.774,0,0,0,36.4,16.574c-.516,1.088-1.041,3.461-1.446,4.595a40.083,40.083,0,0,1-1.873,4.68,19.556,19.556,0,0,1-2.723,3.661C24.182,35.251,13.727,35.119,7.3,30.53,4.584,28.592.15,23.126.15,23.126c11.346,3.52,18.382,1.021,18.382,1.021A14.834,14.834,0,0,1,8.405,11.128L8.293,9.9" transform="translate(2.696 8.644)" fill="none" stroke="#000" stroke-linecap="round" stroke-linejoin="round" stroke-width="2"/>
        <path id="Path_7144" data-name="Path 7144" d="M9.163,8.03S12.345-.061,12.527.155c3.1,3.65,9.184,7.825,10.495,11.429,1.005,2.766.125,4.086.125,4.086" transform="translate(9.777 2.696)" fill="none" stroke="#000" stroke-width="2"/>
      </g>
    </g>
    <ellipse id="Ellipse_421" data-name="Ellipse 421" cx="19.701" cy="20.17" rx="19.701" ry="20.17" transform="translate(55.82 54.5)" fill="#fcdd4c"/>
    <path id="Path_7452" data-name="Path 7452" d="M18.175,0a.856.856,0,0,1,.381.739c.086,1.156.228,2.308.33,3.463a.638.638,0,0,0,.364.551q1.049.6,2.076,1.241a.746.746,0,0,0,.776.031c1.02-.466,2.046-.919,3.071-1.374.674-.3.95-.22,1.317.406q1.431,2.446,2.846,4.9A.963.963,0,0,1,29,11.465c-.841.616-1.685,1.23-2.54,1.827a.653.653,0,0,0-.3.683,22.529,22.529,0,0,1-.007,2.475.532.532,0,0,0,.27.573c1,.63,1.989,1.273,2.976,1.92.672.44.744.684.36,1.357q-1.405,2.461-2.839,4.905a1.01,1.01,0,0,1-1.5.456c-.954-.42-1.908-.844-2.853-1.283a.845.845,0,0,0-.968.106,12.858,12.858,0,0,1-1.823,1.071.842.842,0,0,0-.55.8c-.058.981-.156,1.959-.256,2.937-.086.837-.322,1.053-1.174,1.057q-2.716.014-5.432,0c-.89,0-1.1-.2-1.195-1.085-.114-1.016-.237-2.031-.316-3.05a.752.752,0,0,0-.458-.676c-.656-.356-1.3-.73-1.936-1.129a.826.826,0,0,0-.88-.046c-1,.462-2.011.9-3.018,1.347-.671.3-.936.226-1.313-.415Q1.8,22.8.359,20.293a.894.894,0,0,1,.3-1.328c.86-.625,1.72-1.249,2.59-1.858a.728.728,0,0,0,.325-.789,18.2,18.2,0,0,1-.056-2.24.888.888,0,0,0-.42-.836c-.873-.606-1.734-1.229-2.591-1.858-.607-.445-.647-.678-.265-1.339q1.389-2.4,2.784-4.8c.427-.734.789-.86,1.559-.527.975.423,1.947.853,2.911,1.3a.731.731,0,0,0,.81-.079,22.136,22.136,0,0,1,1.977-1.165.722.722,0,0,0,.455-.666c.081-1.038.237-2.071.3-3.11a1.01,1.01,0,0,1,.75-1Zm2.961,15.223A6.266,6.266,0,1,0,8.6,15.142a6.177,6.177,0,0,0,6.263,6.32,6.138,6.138,0,0,0,6.269-6.239" transform="translate(67.2 55) rotate(21)" fill="none" stroke="#000" stroke-width="2"/>
  </g>
</svg>
