<svg id="notes_icon" xmlns="http://www.w3.org/2000/svg" xmlns:xlink="http://www.w3.org/1999/xlink" width="23.841" height="20.866" viewBox="0 0 23.841 20.866">
  <defs>
    <clipPath id="clip-path">
      <rect id="Rectangle_1503" data-name="Rectangle 1503" width="23.841" height="20.866" transform="translate(0 0)" fill="#007fff"/>
    </clipPath>
  </defs>
  <g id="Group_2148" data-name="Group 2148" clip-path="url(#clip-path)">
    <path id="Path_7748" data-name="Path 7748" d="M6.226,20.866H6.153a.325.325,0,0,1-.176-.308c-.006-.226-.022-.453-.023-.679q0-1.665,0-3.329V16.4H5.791c-.632,0-1.264.006-1.9-.007a5.542,5.542,0,0,1-.929-.084,3.556,3.556,0,0,1-1.894-1.046,3.681,3.681,0,0,1-.964-1.688,3.961,3.961,0,0,1-.089-.856c0-.088-.012-.177-.018-.265V3.966c.007-.109.014-.217.019-.326a3.709,3.709,0,0,1,.13-.972A3.764,3.764,0,0,1,2.221.33,2.711,2.711,0,0,1,3.2.051c.3-.019.6-.024.9-.026C5.432.016,6.769.006,8.107,0Q11.875,0,15.644,0c1.58,0,3.161-.012,4.741.044a3.113,3.113,0,0,1,1.234.279A3.866,3.866,0,0,1,23.451,2.1a2.757,2.757,0,0,1,.335,1.12c.024.449.042.9.048,1.348.009.624.007,1.248.005,1.872q-.011,3.13-.027,6.26a3.4,3.4,0,0,1-.128,1.021,3.876,3.876,0,0,1-1.646,2.127,2.992,2.992,0,0,1-1.431.495c-.453.031-.907.047-1.36.048q-4.152.009-8.3,0a.352.352,0,0,0-.275.113q-1.907,1.9-3.821,3.8c-.2.2-.414.375-.621.562m6.8-11.556h.166c.681,0,1.362,0,2.043,0a.322.322,0,0,0,.3-.139.441.441,0,0,0,.073-.161,1.431,1.431,0,0,0,.023-.266q0-.553,0-1.106a2.027,2.027,0,0,0-.022-.266.345.345,0,0,0-.334-.287H13.028v-.16c0-.685,0-1.369,0-2.054a.3.3,0,0,0-.135-.288.482.482,0,0,0-.172-.078,1.939,1.939,0,0,0-.314-.023q-.492,0-.985,0a2.921,2.921,0,0,0-.327.022.348.348,0,0,0-.292.329q0,1.051,0,2.1c0,.047,0,.094-.006.15h-.427c-.612,0-1.224,0-1.836,0a.229.229,0,0,0-.135.032.4.4,0,0,0-.186.325c0,.064-.011.129-.012.194,0,.373,0,.746,0,1.118,0,.089.014.177.022.266a.387.387,0,0,0,.177.251.266.266,0,0,0,.158.033c.7,0,1.394,0,2.091,0h.154v.16q0,1.051,0,2.1a.214.214,0,0,0,.021.127.418.418,0,0,0,.306.2c.064,0,.129.014.193.014q.59,0,1.179,0a1.572,1.572,0,0,0,.242-.022.346.346,0,0,0,.28-.327V9.31Z" transform="translate(0 0)" fill="#007fff"/>
  </g>
</svg>
