<svg id="prepare_funding_report_icon" xmlns="http://www.w3.org/2000/svg" width="81.852" height="81.106" viewBox="0 0 81.852 81.106">
  <g id="Group_3445" data-name="Group 3445" transform="translate(0.228 1.106)">
    <g id="Group_3453" data-name="Group 3453" transform="translate(0 0)">
      <path id="Subtraction_11" data-name="Subtraction 11" d="M22.69,45.152h-.154A22.541,22.541,0,0,1,0,22.538,22.528,22.528,0,0,1,22.6,0h.069A22.532,22.532,0,0,1,45.216,22.591c0,.226,0,.457-.01.686H39.022a4.351,4.351,0,0,0-4.346,4.346V41.679A22.437,22.437,0,0,1,22.69,45.152Z" transform="translate(-0.228 -1.106)" fill="#ffde0b"/>
      <g id="Path_7831" data-name="Path 7831" transform="translate(32.849 21.47)" fill="none">
        <path d="M5.2,0h38.37a5.2,5.2,0,0,1,5.2,5.2V53.328a5.2,5.2,0,0,1-5.2,5.2H5.2a5.2,5.2,0,0,1-5.2-5.2V5.2A5.2,5.2,0,0,1,5.2,0Z" stroke="none"/>
        <path d="M 5.202713012695312 1.5 C 3.161033630371094 1.5 1.500003814697266 3.161022186279297 1.500003814697266 5.202701568603516 L 1.500003814697266 53.32764053344727 C 1.500003814697266 55.36931991577148 3.161033630371094 57.03034210205078 5.202713012695312 57.03034210205078 L 43.57275390625 57.03034210205078 C 45.61443328857422 57.03034210205078 47.27546310424805 55.36931991577148 47.27546310424805 53.32764053344727 L 47.27546310424805 5.202701568603516 C 47.27546310424805 3.161022186279297 45.61443328857422 1.5 43.57275390625 1.5 L 5.202713012695312 1.5 M 5.202713012695312 0 L 43.57275390625 0 C 46.44613265991211 0 48.77546310424805 2.329322814941406 48.77546310424805 5.202701568603516 L 48.77546310424805 53.32764053344727 C 48.77546310424805 56.20101165771484 46.44613265991211 58.53034210205078 43.57275390625 58.53034210205078 L 5.202713012695312 58.53034210205078 C 2.329334259033203 58.53034210205078 3.814697265625e-06 56.20101165771484 3.814697265625e-06 53.32764053344727 L 3.814697265625e-06 5.202701568603516 C 3.814697265625e-06 2.329322814941406 2.329334259033203 0 5.202713012695312 0 Z" stroke="none" fill="#000"/>
      </g>
      <g id="Group_2610" data-name="Group 2610" transform="translate(50.677 31.461)">
        <path id="Union_63" data-name="Union 63" d="M9.2,2.011H7.821q-3.182,0-6.365,0a3.1,3.1,0,0,1-.627-.072,1,1,0,0,1-.68-.442A.874.874,0,0,1,.157.507,1.335,1.335,0,0,1,1.277,0c.057,0,.114,0,.17,0H6.77c.046,0,.092,0,.139,0H7.52q6.073,0,12.146,0a2.853,2.853,0,0,1,.567.052A.97.97,0,0,1,21.1,1.1a.909.909,0,0,1-.607.771,2.059,2.059,0,0,1-.8.14H9.2Z" transform="translate(0 0)" stroke="rgba(0,0,0,0)" stroke-width="1"/>
      </g>
      <g id="Group_3450" data-name="Group 3450" transform="translate(42.969 31.461)">
        <path id="Union_63-2" data-name="Union 63" d="M9.2,2.011H7.821q-3.182,0-6.365,0a3.1,3.1,0,0,1-.627-.072,1,1,0,0,1-.68-.442A.874.874,0,0,1,.157.507,1.335,1.335,0,0,1,1.277,0c.057,0,.114,0,.17,0H6.77c.046,0,.092,0,.139,0H7.52q6.073,0,12.146,0a2.853,2.853,0,0,1,.567.052A.97.97,0,0,1,21.1,1.1a.909.909,0,0,1-.607.771,2.059,2.059,0,0,1-.8.14H9.2Z" transform="translate(0 0)" stroke="rgba(0,0,0,0)" stroke-width="1"/>
      </g>
      <g id="Group_3448" data-name="Group 3448" transform="translate(50.677 38.16)">
        <path id="Union_63-3" data-name="Union 63" d="M9.2,2.011H7.821q-3.182,0-6.365,0a3.1,3.1,0,0,1-.627-.072,1,1,0,0,1-.68-.442A.874.874,0,0,1,.157.507,1.335,1.335,0,0,1,1.277,0c.057,0,.114,0,.17,0H6.77c.046,0,.092,0,.139,0H7.52q6.073,0,12.146,0a2.853,2.853,0,0,1,.567.052A.97.97,0,0,1,21.1,1.1a.909.909,0,0,1-.607.771,2.059,2.059,0,0,1-.8.14H9.2Z" transform="translate(0 0)" stroke="rgba(0,0,0,0)" stroke-width="1"/>
      </g>
      <g id="Group_3452" data-name="Group 3452" transform="translate(50.677 68.643)">
        <path id="Union_63-4" data-name="Union 63" d="M9.2,2.011H7.821q-3.182,0-6.365,0a3.1,3.1,0,0,1-.627-.072,1,1,0,0,1-.68-.442A.874.874,0,0,1,.157.507,1.335,1.335,0,0,1,1.277,0c.057,0,.114,0,.17,0H6.77c.046,0,.092,0,.139,0H7.52q6.073,0,12.146,0a2.853,2.853,0,0,1,.567.052A.97.97,0,0,1,21.1,1.1a.909.909,0,0,1-.607.771,2.059,2.059,0,0,1-.8.14H9.2Z" transform="translate(0 0)" stroke="rgba(0,0,0,0)" stroke-width="1"/>
      </g>
      <g id="Group_3449" data-name="Group 3449" transform="translate(42.969 38.16)">
        <path id="Union_63-5" data-name="Union 63" d="M9.2,2.011H7.821q-3.182,0-6.365,0a3.1,3.1,0,0,1-.627-.072,1,1,0,0,1-.68-.442A.874.874,0,0,1,.157.507,1.335,1.335,0,0,1,1.277,0c.057,0,.114,0,.17,0H6.77c.046,0,.092,0,.139,0H7.52q6.073,0,12.146,0a2.853,2.853,0,0,1,.567.052A.97.97,0,0,1,21.1,1.1a.909.909,0,0,1-.607.771,2.059,2.059,0,0,1-.8.14H9.2Z" transform="translate(0 0)" stroke="rgba(0,0,0,0)" stroke-width="1"/>
      </g>
      <g id="Group_3451" data-name="Group 3451" transform="translate(42.969 68.643)">
        <path id="Union_63-6" data-name="Union 63" d="M9.2,2.011H7.821q-3.182,0-6.365,0a3.1,3.1,0,0,1-.627-.072,1,1,0,0,1-.68-.442A.874.874,0,0,1,.157.507,1.335,1.335,0,0,1,1.277,0c.057,0,.114,0,.17,0H6.77c.046,0,.092,0,.139,0H7.52q6.073,0,12.146,0a2.853,2.853,0,0,1,.567.052A.97.97,0,0,1,21.1,1.1a.909.909,0,0,1-.607.771,2.059,2.059,0,0,1-.8.14H9.2Z" transform="translate(0 0)" stroke="rgba(0,0,0,0)" stroke-width="1"/>
      </g>
      <g id="Rectangle_2275" data-name="Rectangle 2275" transform="translate(42.433 46.209)" fill="none" stroke="#000" stroke-linecap="round" stroke-width="1">
        <rect width="29.607" height="16.994" rx="0.5" stroke="none"/>
        <rect x="-0.5" y="-0.5" width="30.607" height="17.994" rx="1" fill="none"/>
      </g>
      <line id="Line_368" data-name="Line 368" x2="30.816" transform="translate(41.914 54.757)" fill="none" stroke="#000" stroke-width="1"/>
      <line id="Line_369" data-name="Line 369" y2="18.203" transform="translate(52.532 45.601)" fill="none" stroke="#000" stroke-width="1"/>
      <line id="Line_370" data-name="Line 370" y2="18.203" transform="translate(62.683 45.601)" fill="none" stroke="#000" stroke-width="1"/>
      <path id="Path_8011" data-name="Path 8011" d="M151.569,149.886c0-.376-.008-.678,0-.979s-.052-.637.091-.834c.125-.173.49-.175.75-.247a4.836,4.836,0,0,0,3.22-2.409,4.761,4.761,0,0,0,.5-2.988,3.849,3.849,0,0,0-1.419-2.542,5.287,5.287,0,0,0-1.826-.954c-.985-.284-1.986-.519-2.977-.791a15.025,15.025,0,0,1-1.562-.493,1.659,1.659,0,0,1-1.132-1.1,3.215,3.215,0,0,1-.052-1.1,2.008,2.008,0,0,1,1.5-1.807,4.836,4.836,0,0,1,2.147-.134,2.356,2.356,0,0,1,2.12,2.008c.032.153.07.3.1.446a11.472,11.472,0,0,0,2.671-.046,1.135,1.135,0,0,0,.028-.18,1.913,1.913,0,0,0-.019-.335,5.243,5.243,0,0,0-1.254-2.666,4.969,4.969,0,0,0-2.48-1.5c-.4-.112-.406-.112-.412-.513s0-.771,0-1.157v-1.089a12.331,12.331,0,0,0-2.969.029v2.1c-.005.491-.02.5-.48.614a4.909,4.909,0,0,0-2.291,1.171,4.847,4.847,0,0,0-1.386,4.413,3.779,3.779,0,0,0,2.02,2.892,6.355,6.355,0,0,0,1.181.533c.829.252,1.673.436,2.51.669.754.214,1.514.426,2.244.709a1.562,1.562,0,0,1,.977,1.116,2.231,2.231,0,0,1-1.5,2.713,4.737,4.737,0,0,1-3.211.01,2.774,2.774,0,0,1-1.913-2.617c0-.156-.022-.311-.036-.5h-2.67a3.116,3.116,0,0,0,.064,1.308,4.79,4.79,0,0,0,1.978,3.347,5.873,5.873,0,0,0,2.071.882c.414.092.438.133.446.558.009.385,0,.771,0,1.157,0,.189.075.309.28.309h2.684" transform="translate(-127.712 -117.681)"/>
    </g>
  </g>
</svg>
