<svg id="Print_Report" data-name="Print Report" xmlns="http://www.w3.org/2000/svg" xmlns:xlink="http://www.w3.org/1999/xlink" width="21.537" height="27.544" viewBox="0 0 21.537 27.544">
  <defs>
    <clipPath id="clip-path">
      <rect id="Rectangle_757" data-name="Rectangle 757" width="21.106" height="17.873" fill="#fff"/>
    </clipPath>
    <clipPath id="clip-path-2">
      <rect id="Rectangle_787" data-name="Rectangle 787" width="17.533" height="17.42" transform="translate(0 0)" fill="none"/>
    </clipPath>
  </defs>
  <g id="Group_965" data-name="Group 965">
    <g id="Group_902" data-name="Group 902" transform="translate(0 0)" clip-path="url(#clip-path)">
      <path id="Path_1069" data-name="Path 1069" d="M17.89,13.743c.336,0,.592.005.848,0a2.236,2.236,0,0,0,2.356-2.014q.022-2.1,0-4.209a2.228,2.228,0,0,0-2.319-2.01c-.27-.01-.541,0-.859,0-.009-.124-.025-.233-.025-.342q0-1.466,0-2.932a1.954,1.954,0,0,0-.3-1.131A2.418,2.418,0,0,0,15.477.008q-4.886-.017-9.772,0A2.266,2.266,0,0,0,3.277,2.04c-.02,1.023-.005,2.047-.006,3.07V5.5c-.237,0-.45.008-.662,0A2.313,2.313,0,0,0,0,7.7c.044,1.3.033,2.6,0,3.9a2.294,2.294,0,0,0,2.539,2.148c.227-.009.455,0,.729,0v.438c0,.506,0,1.012,0,1.518a2.283,2.283,0,0,0,2.56,2.171q4.743,0,9.487,0a2.289,2.289,0,0,0,2.568-2.129c.015-.54,0-1.081,0-1.621v-.378m-1.669-3.418a.871.871,0,0,1,.032.155c0,1.748.006,3.5,0,5.243,0,.545-.3.771-.98.772q-4.681,0-9.363,0c-.73,0-1-.235-1.005-.859q0-2.5,0-5c0-.1.017-.2.027-.309ZM4.919,5.487c-.007-.116-.017-.2-.017-.275,0-1,0-2,0-3,0-.593.286-.833.993-.833q4.678,0,9.355,0c.717,0,1,.227,1,.823.007,1.022,0,2.045,0,3.067a1.05,1.05,0,0,1-.045.215Zm-1.257,1.4A1.132,1.132,0,0,1,4.878,7.917a1.144,1.144,0,0,1-1.2,1.009A1.128,1.128,0,0,1,2.45,7.913,1.118,1.118,0,0,1,3.662,6.888" transform="translate(0.001 0)" fill="#fff"/>
    </g>
    <rect id="Rectangle_786" data-name="Rectangle 786" width="12" height="12" rx="1" transform="translate(4.469 10.249)"/>
  </g>
  <g id="Group_967" data-name="Group 967" transform="translate(4.004 10.124)">
    <g id="Group_966" data-name="Group 966" transform="translate(0 0)" clip-path="url(#clip-path-2)">
      <path id="Path_1110" data-name="Path 1110" d="M76.294,33.351a.283.283,0,0,0,.156-.061c.239-.244.482-.485.724-.725a.154.154,0,0,0,.049-.109q.013-.263.03-.525h-.965c0,.012,0,.023,0,.035,0,.077,0,.153,0,.23s0,.153,0,.23,0,.159,0,.239,0,.153,0,.23,0,.153,0,.23a.67.67,0,0,0,.013.227" transform="translate(-64.105 -26.835)" fill="#fff"/>
      <path id="Path_1111" data-name="Path 1111" d="M12.911,38.285c-.033.031-.444.459-.63.639a.278.278,0,0,0-.089.224q.012,1.263.018,2.526,0,.512,0,1.025a2.426,2.426,0,0,1-.017.272.352.352,0,0,1-.386.34c-.088,0-.176-.011-.264-.011-.8,0-1.608,0-2.412,0Q7.6,43.29,6.067,43.282l-.919,0c-.518,0-1.037,0-1.555,0-.545,0-1.089-.008-1.633-.012l-.468,0a.656.656,0,0,1-.28-.07.314.314,0,0,1-.177-.239,1.2,1.2,0,0,1-.02-.219q0-1.912,0-3.825,0-.738,0-1.475c0-1.086-.01-2.173-.011-3.259q0-1.121,0-2.243H0Q0,37.35,0,42.768a1.6,1.6,0,0,0,.057.444,1.421,1.421,0,0,0,.481.773.894.894,0,0,0,.531.216c.553.009,1.107.01,1.66.014l.592,0,2.667.014.724,0,2.959.014.424,0,1.926,0a.23.23,0,0,0,.094-.016c.149-.069.3-.137.444-.215a1,1,0,0,0,.376-.353,2.114,2.114,0,0,0,.211-.483.236.236,0,0,0,.007-.07q.008-.75.014-1.5c0-.291,0-.583,0-.874,0-.406.01-.812.013-1.218q0-.459,0-.919a.126.126,0,0,0-.021-.082c-.08-.081-.166-.156-.256-.239" transform="translate(0 -26.835)" fill="#fff"/>
      <path id="Path_1112" data-name="Path 1112" d="M12.158,6.7s.033-1.5.034-1.59q.012-1.263.018-2.525,0-.513,0-1.025a2.389,2.389,0,0,0-.017-.272.352.352,0,0,0-.386-.34c-.088,0-.176.011-.264.011-.8,0-1.608,0-2.412,0Q7.6.966,6.067.974l-.919,0c-.518,0-1.037,0-1.555,0C3.049.982,2.5.988,1.96.992L1.492,1a.656.656,0,0,0-.279.07.314.314,0,0,0-.177.239,1.212,1.212,0,0,0-.02.219q0,1.912,0,3.825,0,.738,0,1.475C1.006,7.91,1,9,1,10.082Q1,11.2,1,12.325H0Q0,6.906,0,1.488a1.614,1.614,0,0,1,.057-.444A1.42,1.42,0,0,1,.538.271a.894.894,0,0,1,.53-.216C1.622.046,2.175.046,2.728.042l.592,0L5.987.024l.724,0L9.67.006l.424,0L12.02,0a.23.23,0,0,1,.094.016c.149.069.3.137.444.215a1,1,0,0,1,.376.353,2.115,2.115,0,0,1,.211.483.235.235,0,0,1,.007.07q.007.75.014,1.5c0,.291,0,.583,0,.874,0,.406.01.812.013,1.218q0,.459,0,.919a.127.127,0,0,1-.021.082c-.08.081-.919.883-1.008.965" transform="translate(0 -0.001)" fill="#fff"/>
      <path id="Path_1113" data-name="Path 1113" d="M22.193,20.648l-.005-.012a.457.457,0,0,0-.492-.29l-.292,0H19.213c-.815,0-1.631,0-2.446,0a.486.486,0,0,0-.377.151.445.445,0,0,0-.136.341.256.256,0,0,0,.018.113l.005.012a.457.457,0,0,0,.492.29l.292,0h2.192c.815,0,1.631,0,2.446,0a.486.486,0,0,0,.377-.151.445.445,0,0,0,.136-.341.255.255,0,0,0-.018-.113" transform="translate(-11.284 -16.691)" fill="#fff"/>
      <path id="Path_7387" data-name="Path 7387" d="M25.027,20.648l-.008-.012c-.088-.19-.348-.292-.726-.29l-.431,0H20.625c-1.2,0-2.409,0-3.613,0a.916.916,0,0,0-.557.151.384.384,0,0,0-.2.341.184.184,0,0,0,.027.113l.008.012c.088.19.348.292.726.29l.432,0h3.237c1.2,0,2.409,0,3.613,0a.916.916,0,0,0,.557-.151.384.384,0,0,0,.2-.341.183.183,0,0,0-.027-.113" transform="translate(-14.127 -13.503)" fill="#fff"/>
      <path id="Path_7396" data-name="Path 7396" d="M25.027,20.648l-.008-.012c-.088-.19-.348-.292-.726-.29l-.431,0H20.625c-1.2,0-2.409,0-3.613,0a.916.916,0,0,0-.557.151.384.384,0,0,0-.2.341.184.184,0,0,0,.027.113l.008.012c.088.19.348.292.726.29l.432,0h3.237c1.2,0,2.409,0,3.613,0a.916.916,0,0,0,.557-.151.384.384,0,0,0,.2-.341.183.183,0,0,0-.027-.113" transform="translate(-14.127 -9.989)" fill="#fff"/>
      <path id="Path_7388" data-name="Path 7388" d="M25.027,20.648l-.008-.012c-.088-.19-.348-.292-.726-.29l-.431,0H20.625c-1.2,0-2.409,0-3.613,0a.916.916,0,0,0-.557.151.384.384,0,0,0-.2.341.184.184,0,0,0,.027.113l.008.012c.088.19.348.292.726.29l.432,0h3.237c1.2,0,2.409,0,3.613,0a.916.916,0,0,0,.557-.151.384.384,0,0,0,.2-.341.183.183,0,0,0-.027-.113" transform="translate(-14.127 -6.503)" fill="#fff"/>
      <path id="Path_7389" data-name="Path 7389" d="M28.711,20.683,28.7,20.67c-.125-.212-.493-.327-1.031-.324l-.612,0h-4.6c-1.71,0-3.42,0-5.13,0a1.568,1.568,0,0,0-.791.169c-.21.117-.3.245-.286.381a.172.172,0,0,0,.038.127l.011.013c.125.212.493.327,1.031.324l.613,0h4.6c1.71,0,3.42,0,5.13,0a1.568,1.568,0,0,0,.791-.169c.21-.117.3-.245.286-.381a.171.171,0,0,0-.038-.127" transform="translate(33.533 -11.692) rotate(90)" fill="#fff"/>
      <path id="Path_7395" data-name="Path 7395" d="M145.367,132.288c0-.068,0-.123,0-.177s-.009-.115.016-.151.088-.032.135-.045a.874.874,0,0,0,.582-.435.86.86,0,0,0,.09-.54.7.7,0,0,0-.256-.459.955.955,0,0,0-.33-.172c-.178-.051-.359-.094-.538-.143a2.715,2.715,0,0,1-.282-.089.3.3,0,0,1-.2-.2.58.58,0,0,1-.009-.2.363.363,0,0,1,.272-.327.874.874,0,0,1,.388-.024.426.426,0,0,1,.383.363c.006.028.013.055.018.081a2.073,2.073,0,0,0,.483-.008.207.207,0,0,0,.005-.032.344.344,0,0,0,0-.06.947.947,0,0,0-.227-.482.9.9,0,0,0-.448-.27c-.073-.02-.073-.02-.074-.093s0-.139,0-.209v-.2a2.227,2.227,0,0,0-.536.005v.379c0,.089,0,.09-.087.111a.887.887,0,0,0-.414.212.876.876,0,0,0-.25.8.683.683,0,0,0,.365.522,1.147,1.147,0,0,0,.213.1c.15.046.3.079.454.121s.274.077.405.128a.282.282,0,0,1,.177.2.4.4,0,0,1-.271.49.856.856,0,0,1-.58,0,.5.5,0,0,1-.346-.473c0-.028,0-.056-.007-.09h-.482a.563.563,0,0,0,.011.236.866.866,0,0,0,.357.6,1.061,1.061,0,0,0,.374.159c.075.017.079.024.081.1s0,.139,0,.209c0,.034.014.056.051.056h.485" transform="translate(-141.873 -126.447)" fill="#fff"/>
    </g>
  </g>
</svg>
