<svg id="print_and_sign" data-name="print and sign" xmlns="http://www.w3.org/2000/svg" xmlns:xlink="http://www.w3.org/1999/xlink" width="21.537" height="27.544" viewBox="0 0 21.537 27.544">
  <defs>
    <clipPath id="clip-path">
      <rect id="Rectangle_757" data-name="Rectangle 757" width="21.106" height="17.873" fill="#fff"/>
    </clipPath>
    <clipPath id="clip-path-2">
      <rect id="Rectangle_787" data-name="Rectangle 787" width="17.533" height="17.42" transform="translate(0 0)" fill="none"/>
    </clipPath>
  </defs>
  <g id="Group_965" data-name="Group 965">
    <g id="Group_902" data-name="Group 902" transform="translate(0 0)" clip-path="url(#clip-path)">
      <path id="Path_1069" data-name="Path 1069" d="M17.89,13.743c.336,0,.592.005.848,0a2.236,2.236,0,0,0,2.356-2.014q.022-2.1,0-4.209a2.228,2.228,0,0,0-2.319-2.01c-.27-.01-.541,0-.859,0-.009-.124-.025-.233-.025-.342q0-1.466,0-2.932a1.954,1.954,0,0,0-.3-1.131A2.418,2.418,0,0,0,15.477.008q-4.886-.017-9.772,0A2.266,2.266,0,0,0,3.277,2.04c-.02,1.023-.005,2.047-.006,3.07V5.5c-.237,0-.45.008-.662,0A2.313,2.313,0,0,0,0,7.7c.044,1.3.033,2.6,0,3.9a2.294,2.294,0,0,0,2.539,2.148c.227-.009.455,0,.729,0v.438c0,.506,0,1.012,0,1.518a2.283,2.283,0,0,0,2.56,2.171q4.743,0,9.487,0a2.289,2.289,0,0,0,2.568-2.129c.015-.54,0-1.081,0-1.621v-.378m-1.669-3.418a.871.871,0,0,1,.032.155c0,1.748.006,3.5,0,5.243,0,.545-.3.771-.98.772q-4.681,0-9.363,0c-.73,0-1-.235-1.005-.859q0-2.5,0-5c0-.1.017-.2.027-.309ZM4.919,5.487c-.007-.116-.017-.2-.017-.275,0-1,0-2,0-3,0-.593.286-.833.993-.833q4.678,0,9.355,0c.717,0,1,.227,1,.823.007,1.022,0,2.045,0,3.067a1.05,1.05,0,0,1-.045.215Zm-1.257,1.4A1.132,1.132,0,0,1,4.878,7.917a1.144,1.144,0,0,1-1.2,1.009A1.128,1.128,0,0,1,2.45,7.913,1.118,1.118,0,0,1,3.662,6.888" transform="translate(0.001 0)" fill="#fff"/>
    </g>
    <rect id="Rectangle_786" data-name="Rectangle 786" width="12" height="12" rx="1" transform="translate(4.469 10.249)"/>
  </g>
  <g id="Group_967" data-name="Group 967" transform="translate(4.004 10.124)">
    <g id="Group_966" data-name="Group 966" transform="translate(0 0)" clip-path="url(#clip-path-2)">
      <path id="Path_1102" data-name="Path 1102" d="M70.716,31.684a.862.862,0,0,1-.083.112q-.565.552-1.133,1.1-.465.453-.93.906L67.454,34.9a.275.275,0,0,1-.32.032.411.411,0,0,1-.2-.285.3.3,0,0,1,.076-.293c.081-.086.153-.179.237-.261.357-.347.714-.693,1.076-1.034.33-.311.666-.614,1.005-.926-.024-.026-.048-.054-.074-.081-.1-.1-.2-.206-.3-.314a.136.136,0,0,0-.132-.048.3.3,0,0,0-.184.089q-.778.771-1.562,1.536l-.839.822-1.232,1.2c-.012.012-.027.023-.045.038l-.3-.285q-.639-.609-1.277-1.22a.846.846,0,0,1-.1-.149c.056-.056.1-.106.155-.155q.6-.585,1.2-1.169.743-.718,1.488-1.434c.317-.3.635-.605.961-.9a14.679,14.679,0,0,1,1.172-.992c.207-.15.422-.29.633-.435a.234.234,0,0,1,.133-.037,1.372,1.372,0,0,1,.651.126,1.107,1.107,0,0,1,.566,1.332.482.482,0,0,1-.073.139c-.259.317-.52.632-.78.947-.022.027-.043.054-.066.085l.514.367c.049-.06.1-.116.141-.173a.614.614,0,0,1,.222-.184.335.335,0,0,1,.491.184c.007.016.015.031.023.046Z" transform="translate(-53.183 -24.038)" fill="#fff"/>
      <path id="Path_1103" data-name="Path 1103" d="M18.722,68.214A2.237,2.237,0,0,1,19,67.306a9.859,9.859,0,0,1,.836-1.38c.1-.142.2-.285.312-.417.141-.165.293-.322.444-.479q.4-.412.805-.818c.148-.147.3-.288.456-.43.041-.038.087-.069.139-.109L23.6,65.2c-.088.1-.169.2-.254.288a10.784,10.784,0,0,1-1.052.981,14.9,14.9,0,0,1-2.111,1.458,5.688,5.688,0,0,1-.906.432,1.922,1.922,0,0,1-.272.071.95.95,0,0,1-.168,0c-.008.014-.02.04-.035.064-.048.074-.093.15-.147.219a.146.146,0,0,1-.2.043.7.7,0,0,1-.15-.106c-.065-.059-.124-.126-.186-.188a.341.341,0,0,0-.423-.124.866.866,0,0,0-.33.16,4.381,4.381,0,0,1-.386.263,2.631,2.631,0,0,1-.349.146.156.156,0,0,1-.078.007.514.514,0,0,1-.48-.516,2.066,2.066,0,0,1,.179-.793,1.065,1.065,0,0,0,.082-.286.287.287,0,0,0-.251-.343.453.453,0,0,0-.172.025.749.749,0,0,0-.3.181.33.33,0,0,0-.06.086,6.2,6.2,0,0,0-.456,1.05.257.257,0,0,1-.248.2.261.261,0,0,1-.263-.159,1.026,1.026,0,0,1-.061-.2.12.12,0,0,1,.012-.076,10.825,10.825,0,0,1,.571-1.034,2.355,2.355,0,0,1,.5-.57,1.071,1.071,0,0,1,.473-.223.624.624,0,0,1,.31.04.781.781,0,0,1,.569.615.8.8,0,0,1-.155.65.637.637,0,0,0-.113.255,3.3,3.3,0,0,0-.054.33.439.439,0,0,0,.019.148.069.069,0,0,0,.1.05.249.249,0,0,0,.086-.06,3.5,3.5,0,0,0,.224-.272.73.73,0,0,1,.562-.319.837.837,0,0,1,.731.292.6.6,0,0,1,.067.093.242.242,0,0,0,.3.137" transform="translate(-12.203 -53.513)" fill="#fff"/>
      <path id="Path_1105" data-name="Path 1105" d="M19.976,67.483a2.073,2.073,0,0,1-.036.223c-.008.028-.041.052-.067.073-.123.1-.655.679-.706.678-.237-.005-.475-.008-.712-.012h-.068l-2.8,0c-.215,0-.431,0-.646,0a.434.434,0,0,1-.387-.6.627.627,0,0,1,.236-.253.213.213,0,0,1,.08-.024.543.543,0,0,1,.077,0l1.7-.021,1.214-.019,1.156-.019.838-.018h.122" transform="translate(-12.203 -56.713)" fill="#fff"/>
      <path id="Path_1108" data-name="Path 1108" d="M17.939,44.961H16.563c-.114,0-.267-.15-.3-.3a.447.447,0,0,1,.015-.245,1.188,1.188,0,0,1,.169-.3.068.068,0,0,1,.043-.021.231.231,0,0,1,.047,0l1.687-.02c.364,0,.727-.013,1.091-.018.146,0,.245.1.278.3a.7.7,0,0,1-.065.459.237.237,0,0,1-.212.151c-.459,0-.917,0-1.376,0h0" transform="translate(-13.658 -37.026)" fill="#fff"/>
      <path id="Path_1109" data-name="Path 1109" d="M47.273,44.961H45.779a.4.4,0,0,1-.311-.544,1.175,1.175,0,0,1,.184-.3A.076.076,0,0,1,45.7,44.1a.275.275,0,0,1,.051,0l1.832-.02c.395,0,.789-.013,1.184-.018.158,0,.266.1.3.3a.654.654,0,0,1-.07.459.257.257,0,0,1-.23.151c-.5,0-1,0-1.494,0h0" transform="translate(-38.189 -37.026)" fill="#fff"/>
      <path id="Path_1110" data-name="Path 1110" d="M76.294,33.351a.283.283,0,0,0,.156-.061c.239-.244.482-.485.724-.725a.154.154,0,0,0,.049-.109q.013-.263.03-.525h-.965c0,.012,0,.023,0,.035,0,.077,0,.153,0,.23s0,.153,0,.23,0,.159,0,.239,0,.153,0,.23,0,.153,0,.23a.67.67,0,0,0,.013.227" transform="translate(-64.105 -26.835)" fill="#fff"/>
      <path id="Path_1111" data-name="Path 1111" d="M12.911,38.285c-.033.031-.444.459-.63.639a.278.278,0,0,0-.089.224q.012,1.263.018,2.526,0,.512,0,1.025a2.426,2.426,0,0,1-.017.272.352.352,0,0,1-.386.34c-.088,0-.176-.011-.264-.011-.8,0-1.608,0-2.412,0Q7.6,43.29,6.067,43.282l-.919,0c-.518,0-1.037,0-1.555,0-.545,0-1.089-.008-1.633-.012l-.468,0a.656.656,0,0,1-.28-.07.314.314,0,0,1-.177-.239,1.2,1.2,0,0,1-.02-.219q0-1.912,0-3.825,0-.738,0-1.475c0-1.086-.01-2.173-.011-3.259q0-1.121,0-2.243H0Q0,37.35,0,42.768a1.6,1.6,0,0,0,.057.444,1.421,1.421,0,0,0,.481.773.894.894,0,0,0,.531.216c.553.009,1.107.01,1.66.014l.592,0,2.667.014.724,0,2.959.014.424,0,1.926,0a.23.23,0,0,0,.094-.016c.149-.069.3-.137.444-.215a1,1,0,0,0,.376-.353,2.114,2.114,0,0,0,.211-.483.236.236,0,0,0,.007-.07q.008-.75.014-1.5c0-.291,0-.583,0-.874,0-.406.01-.812.013-1.218q0-.459,0-.919a.126.126,0,0,0-.021-.082c-.08-.081-.166-.156-.256-.239" transform="translate(0 -26.835)" fill="#fff"/>
      <path id="Path_1112" data-name="Path 1112" d="M12.158,6.7s.033-1.5.034-1.59q.012-1.263.018-2.525,0-.513,0-1.025a2.389,2.389,0,0,0-.017-.272.352.352,0,0,0-.386-.34c-.088,0-.176.011-.264.011-.8,0-1.608,0-2.412,0Q7.6.966,6.067.974l-.919,0c-.518,0-1.037,0-1.555,0C3.049.982,2.5.988,1.96.992L1.492,1a.656.656,0,0,0-.279.07.314.314,0,0,0-.177.239,1.212,1.212,0,0,0-.02.219q0,1.912,0,3.825,0,.738,0,1.475C1.006,7.91,1,9,1,10.082Q1,11.2,1,12.325H0Q0,6.906,0,1.488a1.614,1.614,0,0,1,.057-.444A1.42,1.42,0,0,1,.538.271a.894.894,0,0,1,.53-.216C1.622.046,2.175.046,2.728.042l.592,0L5.987.024l.724,0L9.67.006l.424,0L12.02,0a.23.23,0,0,1,.094.016c.149.069.3.137.444.215a1,1,0,0,1,.376.353,2.115,2.115,0,0,1,.211.483.235.235,0,0,1,.007.07q.007.75.014,1.5c0,.291,0,.583,0,.874,0,.406.01.812.013,1.218q0,.459,0,.919a.127.127,0,0,1-.021.082c-.08.081-.919.883-1.008.965" transform="translate(0 -0.001)" fill="#fff"/>
      <path id="Path_1113" data-name="Path 1113" d="M24.524,20.648l-.007-.012c-.083-.19-.328-.292-.685-.29l-.407,0H20.374c-1.135,0-2.271,0-3.406,0a.828.828,0,0,0-.525.151.389.389,0,0,0-.19.341.193.193,0,0,0,.025.113l.007.012c.083.19.328.292.685.29l.407,0h3.051c1.135,0,2.271,0,3.406,0a.828.828,0,0,0,.525-.151.389.389,0,0,0,.19-.341.191.191,0,0,0-.025-.113" transform="translate(-13.659 -17.099)" fill="#fff"/>
    </g>
  </g>
  <path id="Path_1114" data-name="Path 1114" d="M20701.738,309.614l.064.092,1.539-1.452,1.105-1.115" transform="translate(-20685.959 -292.225)" fill="none" stroke="#000" stroke-width="1"/>
</svg>
