<svg id="save_icon" data-name="save icon" xmlns="http://www.w3.org/2000/svg" xmlns:xlink="http://www.w3.org/1999/xlink" width="20.656" height="21.723" viewBox="0 0 20.656 21.723">
  <defs>
    <clipPath id="clip-path">
      <rect id="Rectangle_780" data-name="Rectangle 780" width="20.656" height="21.723" fill="#020202"/>
    </clipPath>
  </defs>
  <g id="Group_956" data-name="Group 956" clip-path="url(#clip-path)">
    <path id="Path_1097" data-name="Path 1097" d="M3.326.046v.3q0,3.079,0,6.158a1.41,1.41,0,0,0,.256.919,1.178,1.178,0,0,0,.926.47c.112,0,.225,0,.337,0q4.213,0,8.425,0a1.614,1.614,0,0,0,.512-.061A1.162,1.162,0,0,0,14.6,6.816a2.724,2.724,0,0,0,.023-.353q0-2.984,0-5.967V.013a9.062,9.062,0,0,0,.924-.006.928.928,0,0,1,.832.36c1.363,1.457,2.742,2.9,4.12,4.338a.536.536,0,0,1,.156.407q-.005,7.657,0,15.313a1.236,1.236,0,0,1-1.241,1.3c-3.3-.014-6.6-.006-9.9-.006H1.421c-.121,0-.242,0-.363-.007a1.166,1.166,0,0,1-1.05-1.089C0,20.513,0,20.4,0,20.295Q0,10.853,0,1.412A2.074,2.074,0,0,1,.048.9,1.139,1.139,0,0,1,1.114.019c.708-.016,1.417,0,2.126,0a.449.449,0,0,1,.087.03m6.988,19.6h6.143c.164,0,.329,0,.492-.006a.58.58,0,0,0,.541-.555c.007-.081,0-.163,0-.245q0-3.473,0-6.945c0-.472,0-.944,0-1.416a.6.6,0,0,0-.618-.652c-.069,0-.138,0-.207,0H3.863c-.491,0-.71.229-.718.745,0,.055,0,.109,0,.163q0,1.171,0,2.342,0,2.888,0,5.775c0,.6.187.795.764.795h6.4" transform="translate(0 0)" fill="#020202"/>
    <path id="Path_1098" data-name="Path 1098" d="M106.907,13.66h-2.851c-.069,0-.139,0-.207,0a.586.586,0,0,1-.541-.557c0-.054,0-.109,0-.163q0-2.492,0-4.984a1.246,1.246,0,0,1,.013-.244.584.584,0,0,1,.511-.469,1.914,1.914,0,0,1,.207,0h5.779c.052,0,.1,0,.155,0a.581.581,0,0,1,.553.6c0,.063,0,.127,0,.191q0,2.4,0,4.794c0,.027,0,.054,0,.082,0,.56-.188.756-.716.756h-2.9Z" transform="translate(-97.947 -6.84)" fill="#020202"/>
    <path id="Path_1099" data-name="Path 1099" d="M97.827,221.027h4.791l.078,0a.614.614,0,0,1,.644.628.628.628,0,0,1-.629.677c-.267.01-.535,0-.8,0H93.074a1.7,1.7,0,0,1-.259-.008.642.642,0,0,1-.541-.709.617.617,0,0,1,.606-.587c.406-.009.811,0,1.217,0h3.73" transform="translate(-87.487 -208.976)" fill="#020202"/>
    <path id="Path_1100" data-name="Path 1100" d="M97.813,295.847h4.59c.121,0,.242,0,.363,0a.6.6,0,0,1,.583.577.623.623,0,0,1-.483.7,1.275,1.275,0,0,1-.283.026q-4.771,0-9.542,0a1.169,1.169,0,0,1-.282-.029.629.629,0,0,1-.472-.684.616.616,0,0,1,.574-.59c.069-.006.138,0,.207,0h4.745" transform="translate(-87.499 -279.72)" fill="#020202"/>
  </g>
</svg>
