<svg xmlns="http://www.w3.org/2000/svg" width="37.634" height="37.492" viewBox="0 0 37.634 37.492">
  <g id="review_past_group_events" data-name="review past group events" transform="translate(0.6 0.6)">
    <path id="Path_7996" data-name="Path 7996" d="M591.106,32.575c-.11-.132-.235-.267-.383-.416q-2.9-2.9-5.8-5.8l-1.274-1.273c-.045-.045-.09-.09-.135-.136a1.026,1.026,0,0,1-.356-.621,1.016,1.016,0,0,1,.23-.692,14.748,14.748,0,0,0,2.4-6.68A16.07,16.07,0,0,0,585.829,14a14.383,14.383,0,0,0-1.15-4.643,15.713,15.713,0,0,0-2.938-4.571,14.96,14.96,0,0,0-4.126-3.072A15.279,15.279,0,0,0,573.065.193a15.82,15.82,0,0,0-3.895-.128,14.455,14.455,0,0,0-4.341,1.069,14.725,14.725,0,0,0-6.794,5.433,15.7,15.7,0,0,0-2.55,6.39c-.033.218-.065.443-.1.66q-.018.132-.037.265v2.764q.037.231.073.463c.056.361.113.734.18,1.1a15.147,15.147,0,0,0,1.843,4.836,14.265,14.265,0,0,0,4.5,4.837,15.522,15.522,0,0,0,6.675,2.557,16.061,16.061,0,0,0,3.583.033,14.7,14.7,0,0,0,6.563-2.283c.135-.087.249-.158.356-.223a.979.979,0,0,1,.188-.086l.048-.018.358-.14.29.252.083.07c.079.066.168.14.257.229l1.486,1.477c1.8,1.793,3.669,3.648,5.5,5.481a3.826,3.826,0,0,0,1.5,1.068h1.033a3.233,3.233,0,0,0,1-.552,2.224,2.224,0,0,0,.244-3.166M578.259,22.7a10.814,10.814,0,0,1-7.657,3.285h0a10.8,10.8,0,0,1-7.492-3.131A10.7,10.7,0,0,1,570.6,4.563h.005a10.469,10.469,0,0,1,4.211.883,10.888,10.888,0,0,1,3.435,2.373,10.465,10.465,0,0,1,3.036,7.456,10.283,10.283,0,0,1-3.026,7.428" transform="translate(-555.353 -0.001)" stroke="#ccb9ff" stroke-width="1.2"/>
  </g>
</svg>
