<svg id="Signatures" xmlns="http://www.w3.org/2000/svg" width="45" height="45" viewBox="0 0 45 45">
  <g id="Group_3003" data-name="Group 3003" transform="translate(461.096 13349.35)">
    <circle id="Ellipse_426" data-name="Ellipse 426" cx="22.5" cy="22.5" r="22.5" transform="translate(-461.096 -13349.35)" fill="#5ac0ff"/>
  </g>
  <g id="Group_2980" data-name="Group 2980" transform="translate(-396.491 -574.676)">
    <g id="Group_2979" data-name="Group 2979" transform="translate(403.812 582.076)">
      <g id="Group_2984" data-name="Group 2984" transform="translate(0 0)">
        <path id="Path_7943" data-name="Path 7943" d="M15.151,6.278a1.756,1.756,0,0,1-.168.227q-1.152,1.126-2.31,2.246-.948.923-1.895,1.847Q9.64,11.712,8.5,12.829a.562.562,0,0,1-.652.065.838.838,0,0,1-.415-.581.6.6,0,0,1,.156-.6c.165-.174.312-.365.484-.532.727-.707,1.455-1.413,2.193-2.108.672-.633,1.358-1.252,2.048-1.887-.049-.054-.1-.111-.15-.165-.2-.213-.411-.42-.607-.639a.277.277,0,0,0-.27-.1.612.612,0,0,0-.374.181Q9.332,8.041,7.734,9.6q-.854.838-1.711,1.675l-2.51,2.453c-.025.025-.054.046-.093.078-.207-.195-.412-.387-.615-.58Q1.5,11.984.2,10.74a1.725,1.725,0,0,1-.2-.3c.114-.114.213-.216.316-.316Q1.542,8.929,2.77,7.738,4.283,6.274,5.8,4.816C6.448,4.2,7.1,3.583,7.76,2.985A29.916,29.916,0,0,1,10.15.964c.422-.306.86-.59,1.289-.886A.476.476,0,0,1,11.709,0a2.8,2.8,0,0,1,1.328.256A2.08,2.08,0,0,1,14.3,2.177a2.068,2.068,0,0,1-.105.8.982.982,0,0,1-.148.283c-.527.646-1.06,1.288-1.59,1.931-.045.054-.087.111-.135.173l1.047.747c.1-.123.2-.236.288-.354a1.251,1.251,0,0,1,.452-.376.683.683,0,0,1,1,.376c.014.032.032.062.047.093Z" transform="translate(11.832 4.43) rotate(-17)"/>
        <path id="Path_7944" data-name="Path 7944" d="M8.563,9.251A4.559,4.559,0,0,1,9.124,7.4a20.094,20.094,0,0,1,1.7-2.812c.2-.289.408-.58.637-.849.288-.337.6-.657.9-.975q.814-.84,1.641-1.668c.3-.3.617-.586.93-.876.083-.077.178-.14.282-.221L18.5,3.118c-.179.2-.343.4-.518.587a21.98,21.98,0,0,1-2.143,2,30.373,30.373,0,0,1-4.3,2.971,11.592,11.592,0,0,1-1.847.88,3.915,3.915,0,0,1-.555.145,1.937,1.937,0,0,1-.342,0c-.016.029-.04.082-.072.131-.1.15-.19.306-.3.446a.3.3,0,0,1-.4.087,1.421,1.421,0,0,1-.306-.216c-.133-.12-.253-.256-.38-.384a.694.694,0,0,0-.861-.254,1.764,1.764,0,0,0-.673.327,8.932,8.932,0,0,1-.786.537,5.367,5.367,0,0,1-.711.3.317.317,0,0,1-.159.013,1.048,1.048,0,0,1-.978-1.053,4.21,4.21,0,0,1,.365-1.616,2.17,2.17,0,0,0,.168-.583.585.585,0,0,0-.512-.7.923.923,0,0,0-.35.05,1.527,1.527,0,0,0-.611.369.672.672,0,0,0-.123.175,12.635,12.635,0,0,0-.93,2.139.523.523,0,0,1-.505.4A.532.532,0,0,1,.128,9.55,2.092,2.092,0,0,1,0,9.14a.244.244,0,0,1,.024-.155A22.062,22.062,0,0,1,1.192,6.878,4.8,4.8,0,0,1,2.2,5.715a2.184,2.184,0,0,1,.965-.455,1.271,1.271,0,0,1,.633.081A1.592,1.592,0,0,1,4.961,6.595a1.63,1.63,0,0,1-.316,1.324,1.3,1.3,0,0,0-.231.519,6.722,6.722,0,0,0-.109.673.9.9,0,0,0,.039.3.141.141,0,0,0,.21.1.507.507,0,0,0,.175-.122,7.135,7.135,0,0,0,.457-.554,1.488,1.488,0,0,1,1.146-.651,1.707,1.707,0,0,1,1.489.595,1.223,1.223,0,0,1,.136.19.494.494,0,0,0,.607.28" transform="translate(0 19.976) rotate(-17)"/>
      </g>
    </g>
  </g>
</svg>
