<svg xmlns="http://www.w3.org/2000/svg" width="25.581" height="25.5" viewBox="0 0 25.581 25.5">
  <g id="search_icon" data-name="search icon" transform="translate(0.25 0.25)">
    <path id="Path_7871" data-name="Path 7871" d="M579.975,22.44c-.075-.091-.161-.184-.263-.286l-4-4-.877-.877-.093-.094a.708.708,0,0,1-.245-.428.7.7,0,0,1,.158-.476,10.159,10.159,0,0,0,1.652-4.6,11.046,11.046,0,0,0,.03-2.034,9.908,9.908,0,0,0-.792-3.2A10.823,10.823,0,0,0,573.525,3.3a10.3,10.3,0,0,0-2.842-2.116A10.517,10.517,0,0,0,567.551.133a10.891,10.891,0,0,0-2.682-.088,9.951,9.951,0,0,0-2.99.737A10.141,10.141,0,0,0,557.2,4.524a10.819,10.819,0,0,0-1.756,4.4c-.023.15-.045.3-.066.454l-.026.182v1.9q.025.159.05.319c.039.249.078.506.124.754a10.434,10.434,0,0,0,1.269,3.331,9.824,9.824,0,0,0,3.1,3.332,10.688,10.688,0,0,0,4.6,1.761,11.058,11.058,0,0,0,2.468.022,10.12,10.12,0,0,0,4.52-1.573c.093-.06.171-.109.245-.154a.674.674,0,0,1,.129-.059l.033-.012.246-.1.2.174.057.048c.054.045.116.1.177.158l1.023,1.018c1.242,1.235,2.527,2.513,3.784,3.775A2.634,2.634,0,0,0,578.4,25h.712a2.225,2.225,0,0,0,.692-.38,1.532,1.532,0,0,0,.168-2.181m-8.847-6.8a7.446,7.446,0,0,1-5.273,2.263h0a7.438,7.438,0,0,1-5.16-2.157,7.372,7.372,0,0,1,5.16-12.6h0a7.207,7.207,0,0,1,2.9.608,7.5,7.5,0,0,1,2.366,1.635,7.21,7.21,0,0,1,2.091,5.136,7.085,7.085,0,0,1-2.084,5.117" transform="translate(-555.353 -0.001)" stroke="#5ac0ff" stroke-width="0.5"/>
  </g>
</svg>
