<svg id="alert_icon_MSA_doc" data-name="alert icon MSA doc" xmlns="http://www.w3.org/2000/svg" xmlns:xlink="http://www.w3.org/1999/xlink" width="37.341" height="49.98" viewBox="0 0 37.341 49.98">
  <defs>
    <clipPath id="clip-path">
      <rect id="Rectangle_1042" data-name="Rectangle 1042" width="37.341" height="49.789" fill="rgba(0,0,0,0)"/>
    </clipPath>
  </defs>
  <g id="Path_7327" data-name="Path 7327" transform="translate(0.789)" fill="none">
    <path d="M3,0H32.764a3,3,0,0,1,3,3V46.633a3,3,0,0,1-3,3H3a3,3,0,0,1-3-3V3A3,3,0,0,1,3,0Z" stroke="none"/>
    <path d="M 3.000003814697266 1.199996948242188 C 2.007484436035156 1.199996948242188 1.200004577636719 2.007476806640625 1.200004577636719 2.999996185302734 L 1.200004577636719 46.63251876831055 C 1.200004577636719 47.62503814697266 2.007484436035156 48.43251800537109 3.000003814697266 48.43251800537109 L 32.76404190063477 48.43251800537109 C 33.75656127929688 48.43251800537109 34.56404113769531 47.62503814697266 34.56404113769531 46.63251876831055 L 34.56404113769531 2.999996185302734 C 34.56404113769531 2.007476806640625 33.75656127929688 1.199996948242188 32.76404190063477 1.199996948242188 L 3.000003814697266 1.199996948242188 M 3.000003814697266 -3.814697265625e-06 L 32.76404190063477 -3.814697265625e-06 C 34.42089462280273 -3.814697265625e-06 35.76404190063477 1.343147277832031 35.76404190063477 2.999996185302734 L 35.76404190063477 46.63251876831055 C 35.76404190063477 48.28936767578125 34.42089462280273 49.63251876831055 32.76404190063477 49.63251876831055 L 3.000003814697266 49.63251876831055 C 1.343143463134766 49.63251876831055 3.814697265625e-06 48.28936767578125 3.814697265625e-06 46.63251876831055 L 3.814697265625e-06 2.999996185302734 C 3.814697265625e-06 1.343147277832031 1.343143463134766 -3.814697265625e-06 3.000003814697266 -3.814697265625e-06 Z" stroke="none" fill="#000"/>
  </g>
  <g id="Group_1642" data-name="Group 1642" transform="translate(-570.91 -158.558)">
    <g id="Group_1639" data-name="Group 1639" transform="translate(570.91 158.749)">
      <g id="Group_1487" data-name="Group 1487" transform="translate(0 0)" clip-path="url(#clip-path)">
        <path id="Path_7088" data-name="Path 7088" d="M48.805,108.444v.778a1.171,1.171,0,0,1-1.168,1.167H31.3a1.17,1.17,0,0,1-1.167-1.167v-.777a1.171,1.171,0,0,1,1.167-1.167H47.638a1.171,1.171,0,0,1,1.168,1.167Z" transform="translate(-25.467 -66.73)"/>
        <path id="Path_7107" data-name="Path 7107" d="M48.805,108.444v.778a1.171,1.171,0,0,1-1.168,1.167H31.3a1.17,1.17,0,0,1-1.167-1.167v-.777a1.171,1.171,0,0,1,1.167-1.167H47.638a1.171,1.171,0,0,1,1.168,1.167Z" transform="translate(-16.132 -66.73)"/>
        <path id="Path_7090" data-name="Path 7090" d="M48.805,90.492v.778a1.171,1.171,0,0,1-1.168,1.167H31.3a1.17,1.17,0,0,1-1.167-1.167v-.777A1.171,1.171,0,0,1,31.3,89.326H47.638a1.171,1.171,0,0,1,1.168,1.167Z" transform="translate(-25.467 -55.563)"/>
        <path id="Path_7106" data-name="Path 7106" d="M48.805,90.492v.778a1.171,1.171,0,0,1-1.168,1.167H31.3a1.17,1.17,0,0,1-1.167-1.167v-.777A1.171,1.171,0,0,1,31.3,89.326H47.638a1.171,1.171,0,0,1,1.168,1.167Z" transform="translate(-16.132 -55.563)"/>
        <path id="Path_7092" data-name="Path 7092" d="M48.805,72.539v.778a1.171,1.171,0,0,1-1.168,1.167H31.3a1.17,1.17,0,0,1-1.167-1.167V72.54A1.171,1.171,0,0,1,31.3,71.373H47.638a1.171,1.171,0,0,1,1.168,1.167Z" transform="translate(-25.467 -44.396)"/>
        <path id="Path_7105" data-name="Path 7105" d="M48.805,72.539v.778a1.171,1.171,0,0,1-1.168,1.167H31.3a1.17,1.17,0,0,1-1.167-1.167V72.54A1.171,1.171,0,0,1,31.3,71.373H47.638a1.171,1.171,0,0,1,1.168,1.167Z" transform="translate(-16.132 -44.396)"/>
        <path id="Path_7094" data-name="Path 7094" d="M48.805,54.586v.778a1.171,1.171,0,0,1-1.168,1.167H31.3a1.17,1.17,0,0,1-1.167-1.167v-.777A1.171,1.171,0,0,1,31.3,53.42H47.638a1.171,1.171,0,0,1,1.168,1.167Z" transform="translate(-25.467 -33.229)"/>
        <path id="Path_7104" data-name="Path 7104" d="M48.805,54.586v.778a1.171,1.171,0,0,1-1.168,1.167H31.3a1.17,1.17,0,0,1-1.167-1.167v-.777A1.171,1.171,0,0,1,31.3,53.42H47.638a1.171,1.171,0,0,1,1.168,1.167Z" transform="translate(-16.132 -33.229)"/>
      </g>
    </g>
    <path id="Path_7326" data-name="Path 7326" d="M88.79,83.012A6,6,0,1,1,82.771,89a6.014,6.014,0,0,1,6.019-5.99m3.883,9.757a5.419,5.419,0,1,0-7.788,0,4.02,4.02,0,0,1,2.66-3.01,2.611,2.611,0,0,1-1.2-3.1,2.573,2.573,0,0,1,4.89.045,2.6,2.6,0,0,1-1.223,3.056,4.031,4.031,0,0,1,2.666,3.01m-3.9,1.668c.115,0,.23,0,.344,0,.078,0,.156-.018.234-.026a5.192,5.192,0,0,0,2.458-.892c.411-.279.347-.162.256-.622a3.347,3.347,0,0,0-6.612.268.212.212,0,0,0,.107.221,5.357,5.357,0,0,0,3.213,1.052m0-5A1.95,1.95,0,0,0,90.739,87.5a1.961,1.961,0,1,0-1.969,1.944" transform="translate(500.803 80.811)" stroke="#000" stroke-width="0.3"/>
  </g>
</svg>
