<svg id="alert_icon_service_action_plan" data-name="alert icon service action plan" xmlns="http://www.w3.org/2000/svg" width="35.764" height="49.633" viewBox="0 0 35.764 49.633">
  <g id="Path_7329" data-name="Path 7329" fill="none">
    <path d="M3,0H32.764a3,3,0,0,1,3,3V46.633a3,3,0,0,1-3,3H3a3,3,0,0,1-3-3V3A3,3,0,0,1,3,0Z" stroke="none"/>
    <path d="M 3.000003814697266 1.199996948242188 C 2.007484436035156 1.199996948242188 1.200004577636719 2.007476806640625 1.200004577636719 2.999996185302734 L 1.200004577636719 46.63251876831055 C 1.200004577636719 47.62503814697266 2.007484436035156 48.43251800537109 3.000003814697266 48.43251800537109 L 32.76404190063477 48.43251800537109 C 33.75656127929688 48.43251800537109 34.56404113769531 47.62503814697266 34.56404113769531 46.63251876831055 L 34.56404113769531 2.999996185302734 C 34.56404113769531 2.007476806640625 33.75656127929688 1.199996948242188 32.76404190063477 1.199996948242188 L 3.000003814697266 1.199996948242188 M 3.000003814697266 -3.814697265625e-06 L 32.76404190063477 -3.814697265625e-06 C 34.42089462280273 -3.814697265625e-06 35.76404190063477 1.343147277832031 35.76404190063477 2.999996185302734 L 35.76404190063477 46.63251876831055 C 35.76404190063477 48.28936767578125 34.42089462280273 49.63251876831055 32.76404190063477 49.63251876831055 L 3.000003814697266 49.63251876831055 C 1.343143463134766 49.63251876831055 3.814697265625e-06 48.28936767578125 3.814697265625e-06 46.63251876831055 L 3.814697265625e-06 2.999996185302734 C 3.814697265625e-06 1.343147277832031 1.343143463134766 -3.814697265625e-06 3.000003814697266 -3.814697265625e-06 Z" stroke="none" fill="#000"/>
  </g>
  <path id="Path_7328" data-name="Path 7328" d="M88.79,83.012A6,6,0,1,1,82.771,89a6.014,6.014,0,0,1,6.019-5.99m3.883,9.757a5.419,5.419,0,1,0-7.788,0,4.02,4.02,0,0,1,2.66-3.01,2.611,2.611,0,0,1-1.2-3.1,2.573,2.573,0,0,1,4.89.045,2.6,2.6,0,0,1-1.223,3.056,4.031,4.031,0,0,1,2.666,3.01m-3.9,1.668c.115,0,.23,0,.344,0,.078,0,.156-.018.234-.026a5.192,5.192,0,0,0,2.458-.892c.411-.279.347-.162.256-.622a3.347,3.347,0,0,0-6.612.268.212.212,0,0,0,.107.221,5.357,5.357,0,0,0,3.213,1.052m0-5A1.95,1.95,0,0,0,90.739,87.5a1.961,1.961,0,1,0-1.969,1.944" transform="translate(-70.896 -77.747)" stroke="#000" stroke-width="0.3"/>
  <g id="Group_1643" data-name="Group 1643" transform="translate(-571.699 -232.486)">
    <g id="Rectangle_1152" data-name="Rectangle 1152" transform="translate(576.041 252.951)" fill="none" stroke="#000" stroke-width="1">
      <rect width="27.08" height="23.431" rx="1" stroke="none"/>
      <rect x="0.5" y="0.5" width="26.08" height="22.431" rx="0.5" fill="none"/>
    </g>
    <line id="Line_300" data-name="Line 300" y2="22.856" transform="translate(585.391 252.951)" fill="none" stroke="#000" stroke-width="1"/>
    <line id="Line_301" data-name="Line 301" y2="22.856" transform="translate(593.771 252.951)" fill="none" stroke="#000" stroke-width="1"/>
  </g>
</svg>
