<svg xmlns="http://www.w3.org/2000/svg" xmlns:xlink="http://www.w3.org/1999/xlink" width="69.286" height="92.252" viewBox="0 0 69.286 92.252">
  <defs>
    <filter id="Rectangle_1052" x="0" y="0" width="69.286" height="92.252" filterUnits="userSpaceOnUse">
      <feOffset dy="1" input="SourceAlpha"/>
      <feGaussianBlur stdDeviation="1.5" result="blur"/>
      <feFlood flood-color="#0265a2" flood-opacity="0.624"/>
      <feComposite operator="in" in2="blur"/>
      <feComposite in="SourceGraphic"/>
    </filter>
    <clipPath id="clip-path">
      <rect id="Rectangle_1042" data-name="Rectangle 1042" width="62.54" height="83.387" fill="rgba(0,0,0,0)"/>
    </clipPath>
    <clipPath id="clip-path-2">
      <circle id="Ellipse_451" data-name="Ellipse 451" cx="11.491" cy="11.491" r="11.491" transform="translate(0 0)" fill="none" stroke="#000" stroke-width="1"/>
    </clipPath>
  </defs>
  <g id="MSA_button" data-name="MSA button" transform="translate(3.467 3.5)">
    <g transform="matrix(1, 0, 0, 1, -3.47, -3.5)" filter="url(#Rectangle_1052)">
      <g id="Rectangle_1052-2" data-name="Rectangle 1052" transform="translate(4.5 3.5)" fill="#5ac0ff" stroke="#000" stroke-width="2">
        <rect width="60.286" height="83.252" rx="3" stroke="none"/>
        <rect x="1" y="1" width="58.286" height="81.252" rx="2" fill="none"/>
      </g>
    </g>
    <g id="Group_1488" data-name="Group 1488" transform="translate(0 0.321)">
      <g id="Group_1487" data-name="Group 1487" transform="translate(0 0)" clip-path="url(#clip-path)">
        <path id="Union_61" data-name="Union 61" d="M17.591,27.94H1.956A1.961,1.961,0,0,1,0,25.986v-1.3A1.962,1.962,0,0,1,1.956,22.73h43a1.962,1.962,0,0,1,1.955,1.955h0v1.3a1.96,1.96,0,0,1-1.955,1.954Zm0-11.364H1.956A1.961,1.961,0,0,1,0,14.623v-1.3a1.961,1.961,0,0,1,1.956-1.954h43a1.96,1.96,0,0,1,1.955,1.954v1.3a1.96,1.96,0,0,1-1.955,1.954Zm0-11.365H1.956A1.963,1.963,0,0,1,0,3.256v-1.3A1.963,1.963,0,0,1,1.956,0h43a1.962,1.962,0,0,1,1.955,1.956h0v1.3a1.962,1.962,0,0,1-1.955,1.956Z" transform="translate(7.817 45.181)" fill="none" stroke="#000" stroke-width="1"/>
        <path id="Union_62" data-name="Union 62" d="M17.591,5.212H1.956A1.963,1.963,0,0,1,0,3.256v-1.3A1.963,1.963,0,0,1,1.956,0h43a1.962,1.962,0,0,1,1.955,1.956h0v1.3a1.962,1.962,0,0,1-1.955,1.956Z" transform="translate(7.817 33.816)" fill="none" stroke="#000" stroke-width="1"/>
      </g>
    </g>
    <g id="Group_2549" data-name="Group 2549" transform="translate(19.574 4.8)">
      <g id="Group_2466" data-name="Group 2466" transform="translate(0)">
        <g id="Ellipse_445" data-name="Ellipse 445" fill="#5ac0ff" stroke="#000" stroke-width="1">
          <ellipse cx="11.634" cy="11.966" rx="11.634" ry="11.966" stroke="none"/>
          <ellipse cx="11.634" cy="11.966" rx="11.134" ry="11.466" fill="none"/>
        </g>
        <g id="Group_2459" data-name="Group 2459" transform="translate(0.09 0.326)">
          <path id="Path_7788" data-name="Path 7788" d="M11.651,0A11.651,11.651,0,1,1,0,11.651,11.651,11.651,0,0,1,11.651,0Z" transform="translate(0)" fill="none"/>
          <g id="Mask_Group_1301" data-name="Mask Group 1301" transform="translate(0.185 0.185)" clip-path="url(#clip-path-2)">
            <g id="Ellipse_449" data-name="Ellipse 449" transform="translate(7.471 5.582)" fill="none" stroke="#000" stroke-width="1">
              <ellipse cx="4.151" cy="4.117" rx="4.151" ry="4.117" stroke="none"/>
              <ellipse cx="4.151" cy="4.117" rx="3.651" ry="3.617" fill="none"/>
            </g>
            <g id="Ellipse_450" data-name="Ellipse 450" transform="translate(5.488 13.599)" fill="none" stroke="#000" stroke-width="1">
              <ellipse cx="6.133" cy="6.843" rx="6.133" ry="6.843" stroke="none"/>
              <ellipse cx="6.133" cy="6.843" rx="5.633" ry="6.343" fill="none"/>
            </g>
          </g>
        </g>
      </g>
    </g>
  </g>
</svg>
