<svg xmlns="http://www.w3.org/2000/svg" xmlns:xlink="http://www.w3.org/1999/xlink" width="67" height="86" viewBox="0 0 67 86">
  <defs>
    <filter id="Rectangle_1052" x="0" y="0" width="67" height="86" filterUnits="userSpaceOnUse">
      <feOffset dy="3" input="SourceAlpha"/>
      <feGaussianBlur stdDeviation="3" result="blur"/>
      <feFlood flood-opacity="0.161"/>
      <feComposite operator="in" in2="blur"/>
      <feComposite in="SourceGraphic"/>
    </filter>
    <clipPath id="clip-path">
      <rect id="Rectangle_1042" data-name="Rectangle 1042" width="51.16" height="68.214" fill="rgba(0,0,0,0)"/>
    </clipPath>
  </defs>
  <g id="MSAicon" transform="translate(7.92 6)">
    <g transform="matrix(1, 0, 0, 1, -7.92, -6)" filter="url(#Rectangle_1052)">
      <rect id="Rectangle_1052-2" data-name="Rectangle 1052" width="49" height="68" rx="3" transform="translate(9 6)" fill="#fff"/>
    </g>
    <g id="Group_1488" data-name="Group 1488" transform="translate(-17 -266.737)">
      <g id="Group_1487" data-name="Group 1487" transform="translate(17 267)" clip-path="url(#clip-path)">
        <path id="Path_7088" data-name="Path 7088" d="M55.715,108.876v1.066a1.6,1.6,0,0,1-1.6,1.6H31.734a1.6,1.6,0,0,1-1.6-1.6v-1.065a1.6,1.6,0,0,1,1.6-1.6H54.116a1.6,1.6,0,0,1,1.6,1.6Z" transform="translate(-23.74 -51.724)" fill="#ebd6fd"/>
        <path id="Path_7107" data-name="Path 7107" d="M55.715,108.876v1.066a1.6,1.6,0,0,1-1.6,1.6H31.734a1.6,1.6,0,0,1-1.6-1.6v-1.065a1.6,1.6,0,0,1,1.6-1.6H54.116a1.6,1.6,0,0,1,1.6,1.6Z" transform="translate(-10.95 -51.724)" fill="#ebd6fd"/>
        <path id="Path_7090" data-name="Path 7090" d="M55.715,90.924V91.99a1.6,1.6,0,0,1-1.6,1.6H31.734a1.6,1.6,0,0,1-1.6-1.6V90.925a1.6,1.6,0,0,1,1.6-1.6H54.116a1.6,1.6,0,0,1,1.6,1.6Z" transform="translate(-23.74 -43.069)" fill="#ffdbf8"/>
        <path id="Path_7106" data-name="Path 7106" d="M55.715,90.924V91.99a1.6,1.6,0,0,1-1.6,1.6H31.734a1.6,1.6,0,0,1-1.6-1.6V90.925a1.6,1.6,0,0,1,1.6-1.6H54.116a1.6,1.6,0,0,1,1.6,1.6Z" transform="translate(-10.95 -43.069)" fill="#ffdbf8"/>
        <path id="Path_7092" data-name="Path 7092" d="M55.715,72.971v1.066a1.6,1.6,0,0,1-1.6,1.6H31.734a1.6,1.6,0,0,1-1.6-1.6V72.972a1.6,1.6,0,0,1,1.6-1.6H54.116a1.6,1.6,0,0,1,1.6,1.6Z" transform="translate(-23.74 -34.413)" fill="#bfffbf"/>
        <path id="Path_7105" data-name="Path 7105" d="M55.715,72.971v1.066a1.6,1.6,0,0,1-1.6,1.6H31.734a1.6,1.6,0,0,1-1.6-1.6V72.972a1.6,1.6,0,0,1,1.6-1.6H54.116a1.6,1.6,0,0,1,1.6,1.6Z" transform="translate(-10.95 -34.413)" fill="#bfffbf"/>
        <path id="Path_7094" data-name="Path 7094" d="M55.715,55.018v1.066a1.6,1.6,0,0,1-1.6,1.6H31.734a1.6,1.6,0,0,1-1.6-1.6V55.019a1.6,1.6,0,0,1,1.6-1.6H54.116a1.6,1.6,0,0,1,1.6,1.6Z" transform="translate(-23.74 -25.756)" fill="#d0e7ff"/>
        <path id="Path_7104" data-name="Path 7104" d="M55.715,55.018v1.066a1.6,1.6,0,0,1-1.6,1.6H31.734a1.6,1.6,0,0,1-1.6-1.6V55.019a1.6,1.6,0,0,1,1.6-1.6H54.116a1.6,1.6,0,0,1,1.6,1.6Z" transform="translate(-10.95 -25.756)" fill="#d0e7ff"/>
      </g>
    </g>
    <path id="Path_7108" data-name="Path 7108" d="M91.018,83.013a8.226,8.226,0,1,1-8.246,8.206,8.239,8.239,0,0,1,8.246-8.206m5.32,13.368a7.424,7.424,0,1,0-10.671,0,5.507,5.507,0,0,1,3.645-4.124,3.578,3.578,0,0,1-1.65-4.25,3.526,3.526,0,0,1,6.7.062,3.567,3.567,0,0,1-1.675,4.188,5.523,5.523,0,0,1,3.652,4.124m-5.35,2.285c.157,0,.315,0,.472,0,.107,0,.213-.025.32-.035a7.114,7.114,0,0,0,3.368-1.222c.563-.383.476-.222.35-.853a4.585,4.585,0,0,0-9.059.367.29.29,0,0,0,.146.3,7.34,7.34,0,0,0,4.4,1.441m0-6.844a2.672,2.672,0,0,0,2.7-2.664,2.687,2.687,0,1,0-2.7,2.664" transform="translate(-65.421 -75.797)" fill="#007fff" stroke="#007fff" stroke-width="0.3"/>
  </g>
</svg>
