<svg xmlns="http://www.w3.org/2000/svg" xmlns:xlink="http://www.w3.org/1999/xlink" width="67" height="86" viewBox="0 0 67 86">
  <defs>
    <filter id="Rectangle_1054" x="0" y="0" width="67" height="86" filterUnits="userSpaceOnUse">
      <feOffset dy="3" input="SourceAlpha"/>
      <feGaussianBlur stdDeviation="3" result="blur"/>
      <feFlood flood-opacity="0.161"/>
      <feComposite operator="in" in2="blur"/>
      <feComposite in="SourceGraphic"/>
    </filter>
    <clipPath id="clip-path">
      <rect id="Rectangle_1056" data-name="Rectangle 1056" width="51.16" height="68.214" transform="translate(-1)" fill="rgba(0,0,0,0)"/>
    </clipPath>
  </defs>
  <g id="PROGRESSNOTEicon" transform="translate(8.42 6)">
    <path id="file-alt" d="M53.779,14.978Z" transform="translate(-1.809 0.463)" fill="#edf6ff"/>
    <path id="file-alt-2" data-name="file-alt" d="M53.779,14.978Z" transform="translate(-1.809 0.463)" fill="#edf6ff"/>
    <g transform="matrix(1, 0, 0, 1, -8.42, -6)" filter="url(#Rectangle_1054)">
      <rect id="Rectangle_1054-2" data-name="Rectangle 1054" width="49" height="68" rx="3" transform="translate(9 6)" fill="#fff"/>
    </g>
    <g id="Group_1498" data-name="Group 1498" transform="translate(1 0.262)" clip-path="url(#clip-path)">
      <g id="Rectangle_1055" data-name="Rectangle 1055" transform="translate(3.58 38.738)" fill="none" stroke="#007fff" stroke-width="1">
        <rect width="42" height="9" rx="1" stroke="none"/>
        <rect x="0.5" y="0.5" width="41" height="8" rx="0.5" fill="none"/>
      </g>
      <g id="Rectangle_1057" data-name="Rectangle 1057" transform="translate(3.58 27.738)" fill="none" stroke="#007fff" stroke-width="1">
        <rect width="42" height="9" rx="1" stroke="none"/>
        <rect x="0.5" y="0.5" width="41" height="8" rx="0.5" fill="none"/>
      </g>
      <path id="Path_7101" data-name="Path 7101" d="M49.435,72.971v1.066a1.449,1.449,0,0,1-1.207,1.6H31.342a1.449,1.449,0,0,1-1.207-1.6V72.972a1.449,1.449,0,0,1,1.207-1.6H48.228a1.45,1.45,0,0,1,1.207,1.6Z" transform="translate(-26.147 -14.817)" fill="#bfffbf"/>
      <path id="Path_7102" data-name="Path 7102" d="M49.435,72.971v1.066a1.449,1.449,0,0,1-1.207,1.6H31.342a1.449,1.449,0,0,1-1.207-1.6V72.972a1.449,1.449,0,0,1,1.207-1.6H48.228a1.45,1.45,0,0,1,1.207,1.6Z" transform="translate(-4.263 -14.816)" fill="#ebd6fd"/>
      <path id="Path_7100" data-name="Path 7100" d="M49.435,55.018v1.066a1.449,1.449,0,0,1-1.207,1.6H31.342a1.449,1.449,0,0,1-1.207-1.6V55.019a1.449,1.449,0,0,1,1.207-1.6H48.228a1.45,1.45,0,0,1,1.207,1.6Z" transform="translate(-26.147 -3.162)" fill="#d0e7ff"/>
      <path id="Path_7103" data-name="Path 7103" d="M49.435,55.018v1.066a1.449,1.449,0,0,1-1.207,1.6H31.342a1.449,1.449,0,0,1-1.207-1.6V55.019a1.449,1.449,0,0,1,1.207-1.6H48.228a1.45,1.45,0,0,1,1.207,1.6Z" transform="translate(-4.263 -3.162)" fill="#ffdbf8"/>
    </g>
    <path id="Path_7110" data-name="Path 7110" d="M91.018,83.013a8.226,8.226,0,1,1-8.246,8.206,8.239,8.239,0,0,1,8.246-8.206m5.32,13.368a7.424,7.424,0,1,0-10.671,0,5.507,5.507,0,0,1,3.645-4.124,3.578,3.578,0,0,1-1.65-4.25,3.526,3.526,0,0,1,6.7.062,3.567,3.567,0,0,1-1.675,4.188,5.523,5.523,0,0,1,3.652,4.124m-5.35,2.285c.157,0,.315,0,.472,0,.107,0,.213-.025.32-.035a7.114,7.114,0,0,0,3.368-1.222c.563-.383.476-.222.35-.853a4.585,4.585,0,0,0-9.059.367.29.29,0,0,0,.146.3,7.34,7.34,0,0,0,4.4,1.441m0-6.844a2.672,2.672,0,0,0,2.7-2.664,2.687,2.687,0,1,0-2.7,2.664" transform="translate(-65.421 -75.797)" fill="#007fff" stroke="#007fff" stroke-width="0.3"/>
  </g>
</svg>
