<svg xmlns="http://www.w3.org/2000/svg" width="26.3" height="26.193" viewBox="0 0 26.3 26.193">
  <g id="search" transform="translate(0.6 0.6)">
    <path id="Path_7986" data-name="Path 7986" d="M579.975,22.433c-.075-.091-.161-.184-.263-.286l-4-4-.877-.877-.093-.094a.707.707,0,0,1-.245-.428.7.7,0,0,1,.158-.476,10.158,10.158,0,0,0,1.652-4.6,11.072,11.072,0,0,0,.03-2.033,9.906,9.906,0,0,0-.792-3.2A10.821,10.821,0,0,0,573.525,3.3a10.3,10.3,0,0,0-2.842-2.115A10.521,10.521,0,0,0,567.551.133a10.9,10.9,0,0,0-2.682-.088,9.955,9.955,0,0,0-2.989.736A10.14,10.14,0,0,0,557.2,4.523a10.814,10.814,0,0,0-1.756,4.4c-.023.15-.045.3-.066.454l-.026.182v1.9c.017.106.033.213.05.319.038.249.078.506.124.754a10.43,10.43,0,0,0,1.269,3.33,9.824,9.824,0,0,0,3.1,3.331,10.689,10.689,0,0,0,4.6,1.761,11.061,11.061,0,0,0,2.467.022,10.12,10.12,0,0,0,4.52-1.572c.093-.06.171-.109.245-.154a.672.672,0,0,1,.129-.059l.033-.012.246-.1.2.174.057.048c.054.045.116.1.177.158l1.023,1.017c1.242,1.235,2.527,2.512,3.784,3.774a2.634,2.634,0,0,0,1.031.736h.711a2.225,2.225,0,0,0,.692-.38,1.531,1.531,0,0,0,.168-2.18m-8.847-6.8a7.447,7.447,0,0,1-5.273,2.262h0a7.439,7.439,0,0,1-5.16-2.156,7.37,7.37,0,0,1,5.16-12.6h0a7.209,7.209,0,0,1,2.9.608,7.5,7.5,0,0,1,2.366,1.634,7.207,7.207,0,0,1,2.091,5.135,7.082,7.082,0,0,1-2.084,5.115" transform="translate(-555.353 -0.001)" stroke="#fff" stroke-width="1.2"/>
  </g>
</svg>
