<svg xmlns="http://www.w3.org/2000/svg" width="44.63" height="44.612" viewBox="0 0 44.63 44.612">
  <g id="USERicon" transform="translate(0.15 0.15)">
    <path id="Path_1057" data-name="Path 1057" d="M104.982,83.013a22.155,22.155,0,1,1-22.21,22.1,22.191,22.191,0,0,1,22.21-22.1m14.328,36a20,20,0,1,0-28.74,0,14.834,14.834,0,0,1,9.816-11.108A9.636,9.636,0,0,1,95.94,96.465a9.5,9.5,0,0,1,18.045.166,9.606,9.606,0,0,1-4.513,11.279,14.876,14.876,0,0,1,9.836,11.108M104.9,125.172c.423,0,.847.012,1.27,0,.289-.011.575-.067.863-.095a19.16,19.16,0,0,0,9.071-3.291c1.516-1.031,1.281-.6.944-2.3a12.35,12.35,0,0,0-24.4.99.782.782,0,0,0,.394.816,19.769,19.769,0,0,0,11.856,3.88m.008-18.434a7.2,7.2,0,0,0,7.265-7.174,7.236,7.236,0,1,0-7.265,7.174" transform="translate(-82.771 -83.012)" fill="#007fff" stroke="#007fff" stroke-width="0.3"/>
  </g>
</svg>
