<svg id="calendar_blue_icon" xmlns="http://www.w3.org/2000/svg" xmlns:xlink="http://www.w3.org/1999/xlink" width="25.858" height="25.181" viewBox="0 0 25.858 25.181">
  <defs>
    <clipPath id="clip-path">
      <rect id="Rectangle_969" data-name="Rectangle 969" width="25.858" height="25.181" fill="none"/>
    </clipPath>
  </defs>
  <g id="Mask_Group_1293" data-name="Mask Group 1293" clip-path="url(#clip-path)">
    <path id="Path_1221" data-name="Path 1221" d="M2.37,6.684H23.155a17.479,17.479,0,0,0-.014-1.938,1.443,1.443,0,0,0-1.432-1.308c-.212-.016-.425,0-.638-.007-1.042-.024-1.146-.161-1.1-1.183.021-.53.235-.738.762-.788,2.716-.253,4.427,1.277,4.432,4.026q.015,7.289,0,14.578A3.609,3.609,0,0,1,21.2,24.038q-8.507.032-17.017,0a3.524,3.524,0,0,1-3.8-3.876q-.009-7.4,0-14.791A3.709,3.709,0,0,1,4.888,1.46c.66.087.678.5.671.982-.007.469.028.968-.658.98-.391.007-.782-.009-1.17.021a1.3,1.3,0,0,0-1.348,1.24c-.065.623-.013,1.257-.013,2M23.189,9.23a.505.505,0,0,0-.5-.506c-5.915,0-13.535,0-19.257,0-1.039,0-1.088.05-1.091,1.081q-.013,5.106,0,10.211c0,1.912.661,2,3.172,2.02,4.955.043,9.728.043,14.57.007,2.468-.017,3.107-.146,3.111-2.107,0-2.009,0-8.794,0-10.707" transform="translate(0.158 0.596)" fill="#007fff"/>
    <path id="Path_1222" data-name="Path 1222" d="M2.37,6.684H23.155a17.479,17.479,0,0,0-.014-1.938,1.443,1.443,0,0,0-1.432-1.308c-.212-.016-.425,0-.638-.007-1.042-.024-1.146-.161-1.1-1.183.021-.53.235-.738.762-.788,2.716-.253,4.427,1.277,4.432,4.026q.015,7.289,0,14.578A3.609,3.609,0,0,1,21.2,24.038q-8.507.032-17.017,0a3.524,3.524,0,0,1-3.8-3.876q-.009-7.4,0-14.791A3.709,3.709,0,0,1,4.888,1.46c.66.087.678.5.671.982-.007.469.028.968-.658.98-.391.007-.782-.009-1.17.021a1.3,1.3,0,0,0-1.348,1.24C2.318,5.306,2.37,5.94,2.37,6.684ZM23.189,9.23a.505.505,0,0,0-.5-.506c-5.915,0-13.535,0-19.257,0-1.039,0-1.088.05-1.091,1.081q-.013,5.106,0,10.211c0,1.912.661,2,3.172,2.02,4.955.043,9.728.043,14.57.007,2.468-.017,3.107-.146,3.111-2.107C23.194,17.929,23.191,11.144,23.189,9.23Z" transform="translate(0.158 0.596)" fill="none" stroke="#fff" stroke-miterlimit="10" stroke-width="1"/>
    <path id="Path_1223" data-name="Path 1223" d="M10.354,3.416c-1.13,0-2.261.016-3.391-.006-.825-.016-.894-.111-.907-.934-.011-.877.082-1.012.938-1.018q3.391-.028,6.782,0c.822.007.927.165.906,1.048-.02.8-.1.893-.937.906-1.13.018-2.261,0-3.391,0" transform="translate(2.554 0.609)" fill="#007fff"/>
    <path id="Path_1224" data-name="Path 1224" d="M10.354,3.416c-1.13,0-2.261.016-3.391-.006-.825-.016-.894-.111-.907-.934-.011-.877.082-1.012.938-1.018q3.391-.028,6.782,0c.822.007.927.165.906,1.048-.02.8-.1.893-.937.906C12.615,3.43,11.485,3.416,10.354,3.416Z" transform="translate(2.554 0.609)" fill="none" stroke="#fff" stroke-miterlimit="10" stroke-width="0.748"/>
    <path id="Path_1225" data-name="Path 1225" d="M6.257,2.893c0,.5.021.994-.007,1.489a.914.914,0,0,1-.92.974.885.885,0,0,1-.972-.916A26.835,26.835,0,0,1,4.35,1.358.917.917,0,0,1,5.377.383.942.942,0,0,1,6.254,1.4c.02.5,0,.994,0,1.49" transform="translate(1.818 0.159)" fill="#007fff"/>
    <path id="Path_1226" data-name="Path 1226" d="M6.257,2.893c0,.5.021.994-.007,1.489a.914.914,0,0,1-.92.974.885.885,0,0,1-.972-.916A26.835,26.835,0,0,1,4.35,1.358.917.917,0,0,1,5.377.383.942.942,0,0,1,6.254,1.4C6.274,1.9,6.258,2.4,6.257,2.893Z" transform="translate(1.818 0.159)" fill="none" stroke="#fff" stroke-miterlimit="10" stroke-width="0.748"/>
    <path id="Path_1227" data-name="Path 1227" d="M14.332,2.9c0,.5.026.994-.006,1.489-.043.657-.343.964-.884.977a.849.849,0,0,1-.928-.927c-.037-1.028-.034-2.057,0-3.084.021-.658.34-.967.879-.98.573-.014.882.324.943,1.036.006.07,0,.141.006.212V2.9h-.007" transform="translate(5.267 0.158)" fill="#161615"/>
    <path id="Path_1228" data-name="Path 1228" d="M14.332,2.9c0,.5.026.994-.006,1.489-.043.657-.343.964-.884.977a.849.849,0,0,1-.928-.927c-.037-1.028-.034-2.057,0-3.084.021-.658.34-.967.879-.98.573-.014.882.324.943,1.036.006.07,0,.141.006.212V2.9Z" transform="translate(5.267 0.158)" fill="#007fff" stroke="#fff" stroke-miterlimit="10" stroke-width="0.748"/>
    <path id="Path_1229" data-name="Path 1229" d="M5.56,12.54l1.419-1.227,2.774,3.328,4.932-6.86L16.149,8.84a5.167,5.167,0,0,1-.293.553q-2.487,3.517-4.988,7.022c-.785,1.1-1.307,1.108-2.14.08-1.045-1.29-2.076-2.589-3.169-3.955" transform="translate(2.345 3.282)" fill="#007fff"/>
  </g>
</svg>
