<svg id="calendar_black_icon" xmlns="http://www.w3.org/2000/svg" xmlns:xlink="http://www.w3.org/1999/xlink" width="25" height="24.195" viewBox="0 0 25 24.195">
  <defs>
    <clipPath id="clip-path">
      <rect id="Rectangle_792" data-name="Rectangle 792" width="25" height="24.195" transform="translate(0 0)" fill="none"/>
    </clipPath>
  </defs>
  <g id="Group_983" data-name="Group 983" clip-path="url(#clip-path)">
    <path id="Path_1119" data-name="Path 1119" d="M5.105,7.594V9.231c-.528.026-1.011.054-1.5.072a1.584,1.584,0,0,0-1.744,1.512,16.951,16.951,0,0,0-.012,1.863H23.022a3.65,3.65,0,0,0-.289-2.809c-.7-.972-1.818-.352-2.827-.7-.024-.469-.05-.984-.076-1.484,3.541-.921,5.184,1.278,5.167,3.668q-.051,7.413,0,14.828a3.666,3.666,0,0,1-3.885,3.873c-5.765-.095-11.532-.025-17.3-.032-2.434,0-3.772-1.352-3.776-3.8C.032,21.387.127,16.55,0,11.718c-.069-2.691,1.5-4.809,5.1-4.124M1.917,14.639c-.032.312-.078.555-.079.8,0,3.584-.013,7.168,0,10.752.006,1.389.564,2.023,1.8,2.025q8.87.018,17.74,0a1.567,1.567,0,0,0,1.739-1.624c.011-.107.012-.215.012-.322q0-5.43,0-10.859a5.823,5.823,0,0,0-.107-.768Z" transform="translate(0 -5.859)" fill="#161615"/>
    <rect id="Rectangle_791" data-name="Rectangle 791" width="8.489" height="1.677" transform="translate(8.252 1.68)" fill="#161615"/>
    <path id="Path_1120" data-name="Path 1120" d="M26.783,2.441a6.341,6.341,0,0,1,.035-1.6,1.332,1.332,0,0,1,.79-.82.76.76,0,0,1,.931.788c.051,1.1.051,2.21.009,3.313a.828.828,0,0,1-.925.838.844.844,0,0,1-.842-.92c-.017-.534,0-1.069,0-1.6h.006" transform="translate(-20.996 0)" fill="#161615"/>
    <path id="Path_1121" data-name="Path 1121" d="M82.862,2.553c0,.5.015,1,0,1.5a.891.891,0,1,1-1.78-.016c-.019-1.034-.014-2.068,0-3.1a.84.84,0,0,1,.841-.922c.6-.025.909.359.936.938.025.534.005,1.069.005,1.6" transform="translate(-63.632 -0.008)" fill="#161615"/>
    <path id="Path_1122" data-name="Path 1122" d="M34.949,54.287c.333-.289.542-.481.763-.66.165-.132.344-.246.643-.457l2.754,3.382,5-7,1.441,1.006c-.228.35-.409.647-.609.93-1.59,2.25-3.176,4.5-4.779,6.743-.723,1.01-1.212,1.02-2.01.045-1.063-1.3-2.1-2.617-3.2-3.991" transform="translate(-27.433 -38.897)" fill="#161615"/>
  </g>
</svg>
