<svg id="Issues_found_icon" xmlns="http://www.w3.org/2000/svg" xmlns:xlink="http://www.w3.org/1999/xlink" width="38.679" height="43.881" viewBox="0 0 38.679 43.881">
  <defs>
    <clipPath id="clip-path">
      <rect id="Rectangle_923" data-name="Rectangle 923" width="33.425" height="43.881" fill="none" stroke="#000" stroke-width="1"/>
    </clipPath>
  </defs>
  <g id="Group_2054" data-name="Group 2054" transform="translate(7.254 2.388)">
    <g id="Group_1165" data-name="Group 1165" transform="translate(-2 -2.388)" clip-path="url(#clip-path)">
      <path id="Path_1162" data-name="Path 1162" d="M.021,19.246H0q0,.567,0,1.134.007,5.735.016,11.47c0,.86,0,1.722.068,2.578A4.042,4.042,0,0,0,1.108,36.75a4.881,4.881,0,0,0,3.886,1.765c1.984,0,3.968,0,5.952,0l13.061-.005a4.743,4.743,0,0,0,2.612-.758,4.841,4.841,0,0,0,1.752-2.033,5.212,5.212,0,0,0,.461-2.3q-.007-7.438,0-14.876,0-4.743,0-9.486a.777.777,0,0,0-.234-.593q-.832-.818-1.657-1.642Q23.627,3.514,20.318.206A.653.653,0,0,0,19.82,0c-.4.007-.8,0-1.2,0Q11.865,0,5.107,0A5.543,5.543,0,0,0,2.933.393,4.592,4.592,0,0,0,.746,2.26a5.135,5.135,0,0,0-.73,2.812q.017,7.087,0,14.175" transform="translate(1.837 2.194)" fill="none" stroke="#000" stroke-width="1"/>
      <path id="Path_1163" data-name="Path 1163" d="M.021,19.246q0-7.087,0-14.175A5.135,5.135,0,0,1,.746,2.26,4.592,4.592,0,0,1,2.933.393,5.543,5.543,0,0,1,5.107,0q6.758.006,13.516,0c.4,0,.8,0,1.2,0a.653.653,0,0,1,.5.206q3.309,3.308,6.621,6.614.826.824,1.657,1.642a.777.777,0,0,1,.234.593q0,4.743,0,9.486,0,7.438,0,14.876a5.213,5.213,0,0,1-.461,2.3,4.841,4.841,0,0,1-1.752,2.033,4.743,4.743,0,0,1-2.612.758l-13.061.005c-1.984,0-3.968-.007-5.952,0A4.881,4.881,0,0,1,1.108,36.75,4.042,4.042,0,0,1,.084,34.428C.016,33.573.019,32.71.016,31.85Q0,26.115,0,20.38q0-.567,0-1.134H.021M19.273,1.2c-.066,0-.114-.009-.161-.009H16.284q-2.562,0-5.125-.006c-2.074,0-4.147.006-6.221.005A4.044,4.044,0,0,0,3.5,1.443,3.55,3.55,0,0,0,1.218,4.621c-.014.564-.009,1.128-.01,1.692Q1.2,13.97,1.186,21.627c0,3.974.015,7.949.025,11.923a4.557,4.557,0,0,0,.03.66,3.674,3.674,0,0,0,3.636,3.117c2.328-.015,4.657.008,6.985.007,4.009,0,8.019-.011,12.028-.01a3.7,3.7,0,0,0,2.444-.843,3.315,3.315,0,0,0,1.27-2.37c.044-.589.029-1.182.03-1.774q.011-5.445.015-10.891c0-1.4-.011-2.808-.012-4.211q0-3.689,0-7.378v-.32H24.155A4.807,4.807,0,0,1,20.81,8.242,4.378,4.378,0,0,1,19.3,5.09c-.043-1.17-.019-2.342-.025-3.513,0-.122,0-.244,0-.375m7.486,7.106L20.47,2.037c-.007.134-.013.2-.013.269,0,.757,0,1.515,0,2.272A3.68,3.68,0,0,0,20.8,6.239,3.368,3.368,0,0,0,23.671,8.3c.993.074,1.995.03,2.993.038a.447.447,0,0,0,.095-.034" transform="translate(1.837 2.194)" stroke="#000" stroke-width="1"/>
      <path id="Path_1164" data-name="Path 1164" d="M18.087.015c0,.13,0,.253,0,.375.005,1.171-.019,2.343.025,3.513a4.378,4.378,0,0,0,1.512,3.152A4.807,4.807,0,0,0,22.969,8.35h3.482c0,.119,0,.219,0,.32q0,3.689,0,7.378c0,1.4.013,2.808.012,4.211q0,5.446-.015,10.891c0,.591.014,1.185-.031,1.774a3.315,3.315,0,0,1-1.27,2.37,3.7,3.7,0,0,1-2.444.843c-4.009,0-8.019.009-12.028.01-2.328,0-4.657-.022-6.985-.007A3.674,3.674,0,0,1,.056,33.023a4.557,4.557,0,0,1-.03-.66C.015,28.389,0,24.414,0,20.44Q0,12.783.022,5.126c0-.564,0-1.128.01-1.692A3.55,3.55,0,0,1,2.319.256,4.043,4.043,0,0,1,3.752.005C5.826.006,7.9,0,9.973,0Q12.536,0,15.1.006h2.828c.047,0,.095.005.161.009" transform="translate(3.023 3.38)" fill="#ffde0b" stroke="#000" stroke-width="1"/>
      <path id="Path_1165" data-name="Path 1165" d="M6.3,6.271a.447.447,0,0,1-.095.034c-1-.008-2,.037-2.993-.038A3.368,3.368,0,0,1,.346,4.2,3.679,3.679,0,0,1,0,2.541C0,1.784,0,1.027,0,.269,0,.2.006.134.013,0L6.3,6.271" transform="translate(22.294 4.23)" fill="#ffde0b" stroke="#000" stroke-width="1"/>
    </g>
  </g>
  <circle id="Ellipse_411" data-name="Ellipse 411" cx="10.983" cy="10.983" r="10.983" transform="translate(0 21.915)"/>
  <path id="Path_7747" data-name="Path 7747" d="M1.559-2.68H4.181l.712-8.66H.96Zm1.3,5.6A1.944,1.944,0,0,0,4.893,1,1.9,1.9,0,0,0,2.863-.883,1.9,1.9,0,0,0,.833,1,1.944,1.944,0,0,0,2.863,2.923Z" transform="translate(7.953 37.2)" fill="#ffde0b"/>
</svg>
