<svg xmlns="http://www.w3.org/2000/svg" width="26.529" height="26.518" viewBox="0 0 26.529 26.518">
  <g id="LNEuser" transform="translate(0.15 0.15)">
    <ellipse id="Ellipse_15" data-name="Ellipse 15" cx="12" cy="12.5" rx="12" ry="12.5" transform="translate(1.114 0.665)" fill="#ffde0b"/>
    <path id="Path_7085" data-name="Path 7085" d="M95.913,83.013A13.109,13.109,0,1,1,82.771,96.09,13.13,13.13,0,0,1,95.913,83.013m8.477,21.3a11.831,11.831,0,1,0-17,0,8.777,8.777,0,0,1,5.808-6.572,5.7,5.7,0,0,1-2.63-6.773,5.619,5.619,0,0,1,10.677.1,5.684,5.684,0,0,1-2.67,6.673,8.8,8.8,0,0,1,5.82,6.572m-8.526,3.641c.251,0,.5.007.752,0,.171-.007.34-.04.511-.056a11.337,11.337,0,0,0,5.367-1.947c.9-.61.758-.354.559-1.359a7.307,7.307,0,0,0-14.436.586.463.463,0,0,0,.233.483,11.7,11.7,0,0,0,7.015,2.3m0-10.907a4.258,4.258,0,0,0,4.3-4.245,4.281,4.281,0,1,0-4.3,4.245" transform="translate(-82.771 -83.012)" stroke="#000" stroke-width="0.3"/>
  </g>
</svg>
