<svg xmlns="http://www.w3.org/2000/svg" xmlns:xlink="http://www.w3.org/1999/xlink" width="21.752" height="28" viewBox="0 0 21.752 28">
  <defs>
    <clipPath id="clip-path">
      <rect id="Rectangle_923" data-name="Rectangle 923" width="20.115" height="26.872" fill="none"/>
    </clipPath>
  </defs>
  <g id="supervisor_reviewed_icon" transform="translate(0 0.001)">
    <g id="Group_1657" data-name="Group 1657" transform="translate(-21698.91 15347.2)">
      <g id="Group_1657-2" data-name="Group 1657" transform="translate(21700.547 -15347.2)">
        <g id="Group_1165" data-name="Group 1165" clip-path="url(#clip-path)">
          <path id="Path_1162" data-name="Path 1162" d="M.015,13.427H0q0,.4,0,.791,0,4,.011,8c0,.6,0,1.2.048,1.8a2.82,2.82,0,0,0,.714,1.62A3.405,3.405,0,0,0,3.484,26.87c1.384,0,2.768,0,4.152,0l9.112,0a3.309,3.309,0,0,0,1.822-.529,3.377,3.377,0,0,0,1.222-1.418,3.636,3.636,0,0,0,.322-1.607q-.005-5.189,0-10.378,0-3.309,0-6.618A.542.542,0,0,0,19.95,5.9q-.58-.571-1.156-1.146Q16.484,2.452,14.175.144A.455.455,0,0,0,13.827,0c-.278,0-.557,0-.835,0Q8.277,0,3.563,0A3.867,3.867,0,0,0,2.046.274,3.2,3.2,0,0,0,.52,1.576,3.583,3.583,0,0,0,.011,3.538q.012,4.945,0,9.889" transform="translate(0 0)" fill="#fff"/>
          <path id="Path_1163" data-name="Path 1163" d="M.015,13.427q0-4.945,0-9.889A3.583,3.583,0,0,1,.52,1.576,3.2,3.2,0,0,1,2.046.274,3.867,3.867,0,0,1,3.563,0q4.715,0,9.43,0c.278,0,.557,0,.835,0a.455.455,0,0,1,.347.143q2.309,2.308,4.619,4.615.576.575,1.156,1.146a.542.542,0,0,1,.164.414q0,3.309,0,6.618,0,5.189,0,10.378a3.637,3.637,0,0,1-.322,1.607,3.377,3.377,0,0,1-1.222,1.418,3.309,3.309,0,0,1-1.822.529l-9.112,0c-1.384,0-2.768,0-4.152,0A3.405,3.405,0,0,1,.773,25.639a2.82,2.82,0,0,1-.714-1.62c-.048-.6-.046-1.2-.048-1.8q-.011-4-.011-8,0-.4,0-.791H.015M13.446.839c-.046,0-.079-.006-.112-.006H11.361q-1.788,0-3.575,0c-1.447,0-2.893,0-4.34,0a2.822,2.822,0,0,0-1,.175A2.477,2.477,0,0,0,.85,3.224C.84,3.617.844,4.011.843,4.4Q.834,9.746.827,15.088c0,2.773.01,5.545.018,8.318a3.179,3.179,0,0,0,.021.46A2.563,2.563,0,0,0,3.4,26.041c1.624-.011,3.249.005,4.873,0,2.8,0,5.594-.008,8.391-.007a2.584,2.584,0,0,0,1.7-.588,2.313,2.313,0,0,0,.886-1.654c.031-.411.02-.825.021-1.237q.007-3.8.011-7.6c0-.979-.008-1.959-.009-2.938q0-2.574,0-5.148V6.653H16.852a3.354,3.354,0,0,1-2.334-.9,3.054,3.054,0,0,1-1.055-2.2c-.03-.816-.013-1.634-.017-2.451,0-.085,0-.171,0-.261M18.668,5.8,14.281,1.421c0,.094-.009.141-.009.188,0,.528,0,1.057,0,1.585a2.567,2.567,0,0,0,.241,1.159,2.35,2.35,0,0,0,2,1.441c.693.052,1.392.021,2.088.026a.312.312,0,0,0,.066-.024" transform="translate(0 0)" fill="#007ee5"/>
          <path id="Path_1164" data-name="Path 1164" d="M12.619.011c0,.091,0,.176,0,.261,0,.817-.013,1.635.017,2.451a3.054,3.054,0,0,0,1.055,2.2,3.354,3.354,0,0,0,2.334.9h2.429c0,.083,0,.153,0,.223q0,2.574,0,5.148c0,.979.009,1.959.009,2.938q0,3.8-.011,7.6c0,.413.01.827-.021,1.237a2.313,2.313,0,0,1-.886,1.654,2.584,2.584,0,0,1-1.7.588c-2.8,0-5.594.006-8.391.007-1.624,0-3.249-.016-4.873,0A2.563,2.563,0,0,1,.039,23.039a3.179,3.179,0,0,1-.021-.46C.01,19.806,0,17.033,0,14.26Q0,8.918.015,3.576c0-.394,0-.787.007-1.181A2.477,2.477,0,0,1,1.618.179a2.821,2.821,0,0,1,1-.175c1.447,0,2.893,0,4.34,0q1.788,0,3.575,0h1.973c.033,0,.066,0,.112.006M2.943,9.968H15.508V9.161H2.943Zm0,3.92H15.522c0-.216,0-.421,0-.627s0-.2-.194-.2q-3.271,0-6.542,0-2.825,0-5.65-.005h-.19Zm12.574,7.023c-.074,0-.135-.011-.2-.011H9.586l-2.81,0q-1.86,0-3.719,0c-.1,0-.124.036-.122.128.005.173,0,.346,0,.519s0,.186.19.186q2.378,0,4.756,0c1.018,0,2.037-.005,3.055-.005q2.213,0,4.426,0a.2.2,0,0,0,.085,0c.028-.015.067-.046.067-.071.005-.244,0-.488,0-.745m-.009-3.1c0-.245,0-.475,0-.7,0-.072-.023-.105-.1-.106-.192,0-.383-.012-.575-.012H4.486c-.471,0-.941,0-1.411,0-.046,0-.129.039-.13.062-.009.251-.006.5-.006.759Z" transform="translate(0.827 0.828)" fill="#fff"/>
          <path id="Path_1165" data-name="Path 1165" d="M4.4,4.375A.312.312,0,0,1,4.33,4.4c-.7-.005-1.4.026-2.088-.026a2.35,2.35,0,0,1-2-1.441A2.567,2.567,0,0,1,0,1.773C0,1.245,0,.716,0,.188,0,.141,0,.094.009,0L4.4,4.375" transform="translate(14.272 1.421)" fill="#fff"/>
        </g>
      </g>
    </g>
    <circle id="Ellipse_398" data-name="Ellipse 398" cx="8" cy="8" r="8" transform="translate(0 11.999)" fill="#007fff"/>
    <path id="Path_7338" data-name="Path 7338" d="M5.56,12.235l1.328-1.149,2.6,3.115L14.1,7.781l1.371.991a4.836,4.836,0,0,1-.274.518q-2.328,3.292-4.669,6.573c-.735,1.026-1.223,1.037-2,.075-.978-1.207-1.943-2.423-2.966-3.7" transform="translate(-2.16 7.845)" fill="#fff"/>
  </g>
</svg>
