<svg id="Calendar" xmlns="http://www.w3.org/2000/svg" width="28.021" height="27.119" viewBox="0 0 28.021 27.119">
  <path id="Path_7907" data-name="Path 7907" d="M5.722,7.61V9.444c-.592.029-1.134.06-1.676.081a1.776,1.776,0,0,0-1.955,1.694,19,19,0,0,0-.014,2.088H25.8c.148-1.111.367-2.184-.324-3.148-.78-1.089-2.038-.395-3.168-.783-.027-.526-.056-1.1-.085-1.663,3.969-1.032,5.81,1.433,5.792,4.111q-.057,8.309,0,16.62a4.109,4.109,0,0,1-4.355,4.341c-6.461-.106-12.926-.027-19.389-.036-2.728,0-4.228-1.515-4.233-4.258C.036,23.07.142,17.648,0,12.232c-.078-3.017,1.686-5.39,5.72-4.622m-3.573,7.9c-.036.35-.088.622-.088.893-.006,4.017-.015,8.034,0,12.051.006,1.557.632,2.267,2.015,2.27q9.942.021,19.884,0A1.756,1.756,0,0,0,25.91,28.9c.012-.12.014-.241.014-.361q0-6.086-.005-12.171a6.527,6.527,0,0,0-.12-.861Z" transform="translate(0 -5.665)" fill="#161615"/>
  <rect id="Rectangle_1951" data-name="Rectangle 1951" width="9.515" height="1.879" transform="translate(9.25 1.883)" fill="#161615"/>
  <path id="Path_7908" data-name="Path 7908" d="M26.787,2.736A7.108,7.108,0,0,1,26.826.948a1.493,1.493,0,0,1,.886-.919.852.852,0,0,1,1.043.884c.058,1.236.058,2.477.01,3.713a.928.928,0,0,1-1.037.94.946.946,0,0,1-.944-1.032c-.02-.6,0-1.2,0-1.8h.007" transform="translate(-20.301 0)" fill="#161615"/>
  <path id="Path_7909" data-name="Path 7909" d="M83.079,2.86c0,.559.017,1.12,0,1.678a1,1,0,1,1-2-.018c-.021-1.158-.016-2.318,0-3.476A.941.941,0,0,1,82.024.011c.677-.027,1.019.4,1.049,1.051.028.6.006,1.2.006,1.8" transform="translate(-61.525 -0.007)" fill="#161615"/>
  <g id="Calendar-2" data-name="Calendar" transform="translate(0)">
    <rect id="Rectangle_1952" data-name="Rectangle 1952" width="28.021" height="27.119" fill="none"/>
  </g>
</svg>
