<svg xmlns="http://www.w3.org/2000/svg" width="18.998" height="24.245" viewBox="0 0 18.998 24.245">
  <g id="Guide" transform="translate(0.75 0.944)">
    <path id="Path_7989" data-name="Path 7989" d="M14.3,5.524c0-.043.008.513,0,.47-.147,0-.317-.594-.464-.594-1.136,0-2.271,0-3.407,0a1.572,1.572,0,0,1-.906-.227h0a1.364,1.364,0,0,1-.552-.848,1.658,1.658,0,0,1-.021-.307q0-1.868,0-3.737c0-.057,0-.114-.005-.171C8.338.114,3.233,0,1.36,0a1.174,1.174,0,0,0-.279.027A1.339,1.339,0,0,0,.065.958L0,1.188V18.654a1.564,1.564,0,0,0,.267.631,1.327,1.327,0,0,0,.887.536.177.177,0,0,1,.047.022H13.1c.07-.019.14-.036.21-.057a1.335,1.335,0,0,0,.963-1.033,1.253,1.253,0,0,0,.027-.292q0-6.469,0-12.938" transform="translate(0 2.709)" fill="#ffde0b" stroke="#000" stroke-width="1.5"/>
    <path id="Path_7990" data-name="Path 7990" d="M394.043,1.618c1.46,1.688,3.005,3.449,4.465,5.138a.468.468,0,0,1,.03.043c-.126,0-.252,0-.377,0-.972,0-1.944,0-2.916,0a1.214,1.214,0,0,1-.776-.223A1.368,1.368,0,0,1,394,5.752a1.861,1.861,0,0,1-.018-.3q0-1.833,0-3.666c0-.056,0-.112,0-.168" transform="translate(-381.04 -1.503)" stroke="#000" stroke-linecap="round" stroke-linejoin="round" stroke-width="1.5"/>
    <path id="Path_7991" data-name="Path 7991" d="M14.3,5.532c0-.043.008.513,0,.47-.147,0-.317-.594-.464-.594-1.136,0-2.271,0-3.407,0a1.572,1.572,0,0,1-.906-.227h0a1.364,1.364,0,0,1-.552-.848,1.658,1.658,0,0,1-.021-.307q0-1.868,0-3.737c0-.057,0-.114-.005-.171-.6,0-5.707-.115-7.58-.114a1.174,1.174,0,0,0-.279.027A1.339,1.339,0,0,0,.065.966L0,1.2V18.662a1.564,1.564,0,0,0,.267.631,1.327,1.327,0,0,0,.887.536.177.177,0,0,1,.047.022H13.1c.07-.019.14-.036.21-.057a1.335,1.335,0,0,0,.963-1.033,1.253,1.253,0,0,0,.027-.292q0-6.469,0-12.938" transform="translate(3.199 -0.008)" fill="#ffde0b" stroke="#000" stroke-width="1.5"/>
  </g>
</svg>
