<svg id="Help" xmlns="http://www.w3.org/2000/svg" width="12.175" height="22.796" viewBox="0 0 12.175 22.796">
  <path id="Path_7786" data-name="Path 7786" d="M.825-16.059a11.11,11.11,0,0,1,1.193-.893A8.416,8.416,0,0,1,3.4-17.676a8.874,8.874,0,0,1,1.616-.485,9.373,9.373,0,0,1,1.87-.177A7.854,7.854,0,0,1,9.4-17.96a5.577,5.577,0,0,1,1.924,1.077A4.813,4.813,0,0,1,12.561-15.2,5.353,5.353,0,0,1,13-13a5.6,5.6,0,0,1-.331,2.024,5.668,5.668,0,0,1-.831,1.485,6.331,6.331,0,0,1-1.1,1.093q-.6.462-1.139.862a8.4,8.4,0,0,0-.931.793,1.67,1.67,0,0,0-.485.87L7.8-3.669H4.888L4.6-6.162a2.038,2.038,0,0,1,.185-1.285,3.8,3.8,0,0,1,.785-1,10.319,10.319,0,0,1,1.1-.877,11.05,11.05,0,0,0,1.139-.908A4.789,4.789,0,0,0,8.7-11.326a2.763,2.763,0,0,0,.362-1.439,2.02,2.02,0,0,0-.7-1.616,2.752,2.752,0,0,0-1.855-.6,4.725,4.725,0,0,0-1.424.185,5.926,5.926,0,0,0-.993.408q-.416.223-.708.408a1.046,1.046,0,0,1-.554.185.95.95,0,0,1-.877-.508ZM3.7,2.011A2.44,2.44,0,0,1,3.9,1.049,2.386,2.386,0,0,1,4.427.264,2.576,2.576,0,0,1,8,.264a2.386,2.386,0,0,1,.531.785,2.44,2.44,0,0,1,.192.962A2.4,2.4,0,0,1,7.2,4.273a2.74,2.74,0,0,1-1.978,0,2.433,2.433,0,0,1-.793-.516A2.408,2.408,0,0,1,3.7,2.011Z" transform="translate(-0.825 18.337)"/>
</svg>
