<svg id="Material_distributed" data-name="Material distributed" xmlns="http://www.w3.org/2000/svg" xmlns:xlink="http://www.w3.org/1999/xlink" width="45" height="45" viewBox="0 0 45 45">
  <defs>
    <clipPath id="clip-path">
      <circle id="Ellipse_439" data-name="Ellipse 439" cx="22.5" cy="22.5" r="22.5" fill="none" stroke="#707070" stroke-width="2"/>
    </clipPath>
    <clipPath id="clip-path-2">
      <rect id="Rectangle_1975" data-name="Rectangle 1975" width="25.149" height="25.086" fill="none"/>
    </clipPath>
  </defs>
  <g id="Group_2736" data-name="Group 2736">
    <g id="Group_2735" data-name="Group 2735" transform="translate(0 0)">
      <g id="Group_2456" data-name="Group 2456" transform="translate(0 0)">
        <g id="Group_2455" data-name="Group 2455" transform="translate(0)">
          <path id="Path_7875" data-name="Path 7875" d="M22.5,0A22.5,22.5,0,1,1,0,22.5,22.5,22.5,0,0,1,22.5,0Z" fill="#ccb9ff"/>
        </g>
      </g>
    </g>
  </g>
  <g id="Group_2854" data-name="Group 2854" transform="translate(9.926 9.957)">
    <g id="Group_2853" data-name="Group 2853" clip-path="url(#clip-path-2)">
      <path id="Path_7916" data-name="Path 7916" d="M281.644,114.611v.3q0,7.007.007,14.014a.936.936,0,0,1-.7,1q-5.488,2.023-10.967,4.073c-.06.022-.123.036-.23.067v-.325q0-7.166-.008-14.333a.474.474,0,0,1,.377-.535q5.615-2.07,11.22-4.166c.089-.033.181-.06.3-.1" transform="translate(-256.502 -108.984)"/>
      <path id="Path_7917" data-name="Path 7917" d="M.021,114.434c1.128.423,2.237.834,3.343,1.253,1.071.406,1.069.409,1.069,1.566,0,.834-.035,1.671.022,2.5a1.043,1.043,0,0,0,.451.725c.912.511,1.862.954,2.8,1.42a.731.731,0,0,0,1.13-.689c0-1.136,0-2.273,0-3.464.655.243,1.278.472,1.9.706,1.059.4,1.058.4,1.058,1.527q0,6.748,0,13.5v.386l-3.261-1.629c-2.653-1.328-5.313-2.643-7.949-4a1.169,1.169,0,0,1-.557-.837C-.01,123.148,0,118.9,0,114.657c0-.063.01-.126.019-.223" transform="translate(0 -108.816)"/>
      <path id="Path_7918" data-name="Path 7918" d="M191.288,60.263l-3.116,1.17q-4.236,1.588-8.475,3.17a.648.648,0,0,1-.414,0c-1.2-.44-2.4-.894-3.695-1.378.611-.237,1.143-.445,1.677-.651q4.818-1.856,9.64-3.7a1.045,1.045,0,0,1,.666,0c1.117.4,2.223.823,3.333,1.24.1.039.206.08.384.15" transform="translate(-166.968 -55.93)"/>
      <path id="Path_7919" data-name="Path 7919" d="M30.316,1.318,23.981,3.809Q21.492,4.786,19,5.76a.489.489,0,0,1-.3.048c-1.3-.475-2.587-.961-3.96-1.476.786-.3,1.5-.566,2.208-.833C20.01,2.351,23.07,1.2,26.138.065a1.273,1.273,0,0,1,.8,0c1.11.385,2.205.813,3.381,1.254" transform="translate(-14.016 0)"/>
    </g>
  </g>
</svg>
