<svg id="People_seen" data-name="People seen" xmlns="http://www.w3.org/2000/svg" xmlns:xlink="http://www.w3.org/1999/xlink" width="45" height="45" viewBox="0 0 45 45">
  <defs>
    <clipPath id="clip-path">
      <circle id="Ellipse_439" data-name="Ellipse 439" cx="22.5" cy="22.5" r="22.5" fill="none" stroke="#707070" stroke-width="2"/>
    </clipPath>
    <clipPath id="clip-path-2">
      <ellipse id="Ellipse_463" data-name="Ellipse 463" cx="22.5" cy="21.1" rx="22.5" ry="21.1" transform="translate(0 6)" fill="none" stroke="#707070" stroke-width="1"/>
    </clipPath>
  </defs>
  <g id="Group_2735" data-name="Group 2735">
    <g id="Group_2456" data-name="Group 2456" transform="translate(0 0)">
      <g id="Group_2455" data-name="Group 2455" transform="translate(0)">
        <path id="Path_7875" data-name="Path 7875" d="M22.5,0A22.5,22.5,0,1,1,0,22.5,22.5,22.5,0,0,1,22.5,0Z" fill="#ccb9ff"/>
      </g>
    </g>
  </g>
  <g id="Mask_Group_1302" data-name="Mask Group 1302" transform="translate(0 -4.424)" clip-path="url(#clip-path-2)">
    <g id="Group_2852" data-name="Group 2852" transform="translate(0.761 22.402)">
      <path id="Subtraction_8" data-name="Subtraction 8" d="M1.483,17.774H0a8.224,8.224,0,0,1,2.085-3.946A9.458,9.458,0,0,1,5.816,11.4,6.3,6.3,0,0,1,3.131,4.108,5.767,5.767,0,0,1,8.562,0a5.457,5.457,0,0,1,1.845.323,5.936,5.936,0,0,1,3.619,3.89,6.455,6.455,0,0,1-.149,4.105A6.045,6.045,0,0,1,11.3,11.4c2.731.968,4.959,3.939,5.748,6.374H15.627a7.789,7.789,0,0,0-2.72-3.893,7.105,7.105,0,0,0-5.769-1.336,7.611,7.611,0,0,0-5.655,5.229ZM8.562,1.432A4.229,4.229,0,0,0,5.487,2.768,4.71,4.71,0,0,0,4.193,6a4.506,4.506,0,0,0,4.332,4.65h.059a4.208,4.208,0,0,0,3.059-1.328,4.687,4.687,0,0,0,1.288-3.218V6.082A4.715,4.715,0,0,0,11.678,2.81,4.232,4.232,0,0,0,8.6,1.433Z" transform="translate(0 0)" stroke="#000" stroke-width="0.2"/>
      <path id="Subtraction_9" data-name="Subtraction 9" d="M1.416,17H0a7.871,7.871,0,0,1,1.991-3.775A9.032,9.032,0,0,1,5.555,10.9,6.031,6.031,0,0,1,2.991,3.93,5.509,5.509,0,0,1,8.178,0,5.2,5.2,0,0,1,9.94.309,5.675,5.675,0,0,1,13.4,4.03a6.184,6.184,0,0,1-.142,3.927,5.781,5.781,0,0,1-2.46,2.947c2.608.926,4.736,3.768,5.49,6.1H14.926a7.451,7.451,0,0,0-2.6-3.724A6.778,6.778,0,0,0,6.817,12a7.274,7.274,0,0,0-5.4,5ZM8.178,1.37A4.037,4.037,0,0,0,5.241,2.648,4.509,4.509,0,0,0,4.005,5.742a4.307,4.307,0,0,0,4.137,4.448H8.2A4.016,4.016,0,0,0,11.121,8.92a4.487,4.487,0,0,0,1.23-3.078V5.818a4.514,4.514,0,0,0-1.2-3.129A4.039,4.039,0,0,0,8.214,1.37Z" transform="translate(26.756 0.385)" stroke="#000" stroke-width="0.2"/>
      <path id="Subtraction_10" data-name="Subtraction 10" d="M1.679,21.459H0a9.5,9.5,0,0,1,2.358-5.015,11.085,11.085,0,0,1,4.59-3.071A7.384,7.384,0,0,1,3.789,4.82,6.785,6.785,0,0,1,10.18,0a6.44,6.44,0,0,1,2.172.379,6.974,6.974,0,0,1,4.259,4.565,7.555,7.555,0,0,1-.176,4.818A7.1,7.1,0,0,1,13.4,13.377a10.6,10.6,0,0,1,4.5,3.411,12.707,12.707,0,0,1,2.433,4.67H18.664a9.413,9.413,0,0,0-1.2-2.81,9.048,9.048,0,0,0-1.945-2.182,8.535,8.535,0,0,0-5.338-1.915,8.423,8.423,0,0,0-1.678.17A8.614,8.614,0,0,0,4.15,17.071a9.33,9.33,0,0,0-2.471,4.388Zm8.5-19.778A4.984,4.984,0,0,0,6.561,3.248a5.517,5.517,0,0,0-1.522,3.8,5.292,5.292,0,0,0,5.1,5.456h.071a4.957,4.957,0,0,0,3.6-1.559,5.492,5.492,0,0,0,1.516-3.776V7.137A5.525,5.525,0,0,0,13.847,3.3a4.987,4.987,0,0,0-3.623-1.617Z" transform="translate(11.43 2.025)"/>
    </g>
  </g>
</svg>
