<svg xmlns="http://www.w3.org/2000/svg" width="22.055" height="30.168" viewBox="0 0 22.055 30.168">
  <g id="average_number_of_client_goals" data-name="average number of client goals" transform="translate(0.75 0.894)">
    <path id="Path_7444" data-name="Path 7444" d="M394.073,1.618c2.1,2.427,4.32,4.958,6.419,7.386a.672.672,0,0,1,.043.062c-.181,0-.362.006-.543.006-1.4,0-2.794-.006-4.191.006a1.745,1.745,0,0,1-1.115-.32,1.966,1.966,0,0,1-.679-1.2,2.674,2.674,0,0,1-.026-.432q0-2.635,0-5.27c0-.08,0-.161-.006-.241" transform="translate(-379.979 -1.453)" stroke="#000" stroke-linecap="round" stroke-linejoin="round" stroke-width="1.5"/>
    <path id="Path_7445" data-name="Path 7445" d="M20.55,7.948c0-.062.011.737,0,.675-.211,0-.455-.854-.666-.854-1.633,0-3.265-.006-4.9.006a2.26,2.26,0,0,1-1.3-.326h0a1.961,1.961,0,0,1-.793-1.219,2.383,2.383,0,0,1-.03-.441q0-2.686,0-5.372c0-.082,0-.164-.007-.246-.866,0-8.2-.166-10.9-.164a1.687,1.687,0,0,0-.4.039A1.925,1.925,0,0,0,.093,1.385L0,1.715V26.823a2.248,2.248,0,0,0,.384.906,1.907,1.907,0,0,0,1.275.771.254.254,0,0,1,.067.032h17.1c.1-.027.2-.052.3-.082a1.919,1.919,0,0,0,1.384-1.485,1.8,1.8,0,0,0,.039-.419q0-9.3,0-18.6" transform="translate(0 -0.008)" fill="#fff" stroke="#000" stroke-width="1.5"/>
    <path id="Path_7767" data-name="Path 7767" d="M251.653,351.566c-.244,0-.488-.009-.732-.01h-3.84c-.077,0-.154-.006-.231-.01q0-.754,0-1.508l3.679-.007,2.207-.007h2.476v1.517l-.04.017Z" transform="translate(-237.939 -338.157)"/>
    <path id="Path_7769" data-name="Path 7769" d="M251.653,351.566c-.244,0-.488-.009-.732-.01h-3.84c-.077,0-.154-.006-.231-.01q0-.754,0-1.508l3.679-.007,2.207-.007h2.476v1.517l-.04.017Z" transform="translate(-237.939 -329.532)"/>
    <path id="Path_7768" data-name="Path 7768" d="M91.757,306.132c-.015-.021-.023-.033-.032-.045l-.356-.442c-.093-.116-.186-.232-.28-.347-.038-.046-.053-.047-.1-.014-.012.008-.024.018-.035.027l-.243.2-.328.264c-.062.05-.063.067-.012.13l.124.154.892,1.107c.1.126.2.252.3.378.048.059.08.058.128,0l.191-.231q.447-.545.894-1.09.693-.842,1.388-1.683c.049-.06.04-.1-.011-.139-.14-.111-.276-.226-.414-.34-.059-.049-.118-.1-.178-.145a.068.068,0,0,0-.106.007c-.01.011-.019.023-.029.034l-.563.684-1,1.211-.233.282" transform="translate(-87.494 -293.812)"/>
    <path id="Path_7770" data-name="Path 7770" d="M91.757,306.132c-.015-.021-.023-.033-.032-.045l-.356-.442c-.093-.116-.186-.232-.28-.347-.038-.046-.053-.047-.1-.014-.012.008-.024.018-.035.027l-.243.2-.328.264c-.062.05-.063.067-.012.13l.124.154.892,1.107c.1.126.2.252.3.378.048.059.08.058.128,0l.191-.231q.447-.545.894-1.09.693-.842,1.388-1.683c.049-.06.04-.1-.011-.139-.14-.111-.276-.226-.414-.34-.059-.049-.118-.1-.178-.145a.068.068,0,0,0-.106.007c-.01.011-.019.023-.029.034l-.563.684-1,1.211-.233.282" transform="translate(-87.494 -285.187)"/>
  </g>
</svg>
