<svg id="condoms_distributed_icon" xmlns="http://www.w3.org/2000/svg" xmlns:xlink="http://www.w3.org/1999/xlink" width="112.655" height="106.891" viewBox="0 0 112.655 106.891">
  <defs>
    <clipPath id="clip-path">
      <rect id="Rectangle_1528" data-name="Rectangle 1528" width="57.188" height="57.215" fill="none"/>
    </clipPath>
  </defs>
  <g id="Group_2130" data-name="Group 2130" transform="translate(-14631.345 19256)">
    <g id="Group_2126" data-name="Group 2126" transform="translate(14660.406 -19232.107)">
      <g id="Group_2123" data-name="Group 2123" clip-path="url(#clip-path)">
        <path id="Path_7363" data-name="Path 7363" d="M0,29.592a.415.415,0,0,0,.035-.137,1.832,1.832,0,0,1,.774-1.513Q13.84,14.911,26.863,1.873c.5-.5,1.011-.97,1.5-1.475a1.091,1.091,0,0,1,.8-.337c.242-.009.482-.04.723-.061h3.852c.279.034.559.058.836.1.632.1.761.226.774.87.026,1.361.025,2.723.036,4.085,0,.115,0,.229,0,.4.474,0,.918-.007,1.362,0,1.05.02,2.1.027,3.148.081.644.033.888.275.907.91.039,1.3.033,2.605.045,3.908,0,.173,0,.345,0,.549h.344c1.245,0,2.49-.007,3.735.006,1.075.011,1.348.283,1.359,1.356.014,1.245.006,2.49.007,3.735v.346c.144,0,.258,0,.372,0,1.371.015,2.742.029,4.113.048.612.009.819.188.875.8.051.551.08,1.106.09,1.659.016.885.008,1.77.01,2.655v.3h.366c1.352.009,2.7.008,4.056.031.706.012.842.14.932.84a10.293,10.293,0,0,1,.084,1.338c0,1.313-.033,2.625-.048,3.938a1.062,1.062,0,0,1-.317.78c-2.374,2.413-4.719,4.854-7.112,7.248q-9.758,9.76-19.548,19.489c-.455.453-.915.9-1.4,1.323a1.186,1.186,0,0,1-.633.306,33.21,33.21,0,0,1-5.507-.019c-.613-.06-.758-.228-.769-.84-.026-1.371-.026-2.743-.037-4.114,0-.114,0-.228,0-.4-.535,0-1.038.008-1.541,0-.991-.018-1.983-.025-2.973-.076-.637-.033-.886-.276-.9-.913-.039-1.36-.033-2.722-.045-4.083,0-.114,0-.227,0-.369h-.349c-1.245,0-2.49.006-3.735-.007-1.07-.011-1.343-.286-1.355-1.362-.013-1.245-.006-2.49-.007-3.735,0-.1,0-.209,0-.341-.828,0-1.623,0-2.418,0-.68-.005-1.361,0-2.04-.042-.623-.035-.864-.27-.907-.882C5.5,39.259,5.5,38.6,5.482,37.936c-.019-.807-.031-1.614-.046-2.421a1.251,1.251,0,0,0-.023-.134H5.085c-1.342-.009-2.684-.006-4.026-.031-.747-.014-.857-.129-.973-.867-.039-.247-.058-.5-.086-.747V29.592m55.264-5.958c-.151,0-.266,0-.381,0-1.42-.017-2.84-.031-4.26-.052a.58.58,0,0,1-.662-.521,3.852,3.852,0,0,1-.112-.806c-.025-1.235-.033-2.47-.047-3.705,0-.114,0-.227,0-.372h-.352c-.71,0-1.42.009-2.13,0s-1.4-.013-2.1-.073c-.6-.052-.737-.249-.747-.858q-.03-2.1-.061-4.2c0-.083-.012-.166-.019-.25-1.438-.043-2.847-.084-4.256-.128-.975-.031-1.078-.127-1.093-1.107-.018-1.264-.018-2.529-.025-3.793,0-.113,0-.225,0-.359-.132,0-.218,0-.3,0-1.186-.017-2.373-.032-3.559-.055a6.056,6.056,0,0,1-.813-.065.752.752,0,0,1-.726-.745,6.363,6.363,0,0,1-.056-.814c-.005-1.158,0-2.315,0-3.473,0-.1-.009-.2-.015-.32-1.2,0-2.367.023-3.533-.012a1.343,1.343,0,0,0-1.083.455Q15.555,15.782,2.162,29.172a.719.719,0,0,0-.218.436c-.017,1.245-.01,2.49-.009,3.735,0,.065.011.131.02.222.128,0,.243,0,.358,0,1.42.017,2.84.031,4.259.052a.579.579,0,0,1,.664.518,3.835,3.835,0,0,1,.112.806c.025,1.235.033,2.47.047,3.705,0,.114,0,.228,0,.376h.377c1.264.008,2.529.009,3.793.028.966.014,1.065.118,1.1,1.073.043,1.341.078,2.683.118,4.025,0,.084.013.168.022.273.252,0,.485,0,.717,0q1.9.027,3.793.057c.529.009.712.169.789.7a4.745,4.745,0,0,1,.053.639c.011,1.206.014,2.412.02,3.618,0,.114,0,.228,0,.369h.3c.856,0,1.712-.008,2.568.009.592.012,1.187.032,1.775.1.721.084.777.378.778.838,0,1.391.028,2.782.043,4.172,0,.1,0,.209,0,.346h.342c1.167,0,2.334-.006,3.5.005a.71.71,0,0,0,.56-.227q8.144-8.157,16.3-16.3Q49.7,33.374,55.064,28.007c.084-.084.191-.2.192-.3.013-1.341.009-2.682.009-4.07" stroke="#000" stroke-width="1"/>
        <path id="Path_7364" data-name="Path 7364" d="M42.551,58.9c-.182-8.654,7.439-16.361,15.943-16.324,9.7-.475,17.3,7.986,16.952,16.406.386,8.833-7.706,16.847-16.4,16.473-8.733.339-16.786-7.446-16.493-16.555m31.051.083c.342-6.573-5.44-14.873-15.2-14.59A14.793,14.793,0,0,0,44.368,59.014c-.044,8.031,7,14.86,14.62,14.6A14.474,14.474,0,0,0,73.6,58.983" transform="translate(-30.411 -30.42)"/>
        <path id="Path_7365" data-name="Path 7365" d="M59.343,70.879A11.681,11.681,0,1,1,70.782,82.672,11.656,11.656,0,0,1,59.343,70.879m21.462.1a14.4,14.4,0,0,0-.15-2,9.911,9.911,0,0,0-9.616-7.776,9.808,9.808,0,1,0,3.389,19.008c2.914-1,6.638-4.592,6.377-9.231" transform="translate(-42.415 -42.395)"/>
      </g>
    </g>
    <g id="Group_2125" data-name="Group 2125" transform="translate(-9072.09 -16048.371) rotate(45)">
      <rect id="Rectangle_1529" data-name="Rectangle 1529" width="21.88" height="5.281" transform="translate(14626.67 -19031.752) rotate(-180)"/>
      <path id="Path_7366" data-name="Path 7366" d="M6.943.3a.6.6,0,0,0-1.08.078L.015,15.344a.654.654,0,0,0,.477.771L16.5,17.549a.6.6,0,0,0,.551-.931Z" transform="matrix(-0.848, -0.53, 0.53, -0.848, 14626.679, -19021.086)"/>
    </g>
    <g id="Group_2129" data-name="Group 2129" transform="translate(14670.352 -19171.164) rotate(135)">
      <rect id="Rectangle_1529-2" data-name="Rectangle 1529" width="21.88" height="5.281" transform="translate(21.881 15.947) rotate(-180)"/>
      <path id="Path_7366-2" data-name="Path 7366" d="M6.943,17.253a.6.6,0,0,1-1.08-.078L.015,2.207a.654.654,0,0,1,.477-.771L16.5,0a.6.6,0,0,1,.551.931Z" transform="matrix(-0.848, 0.53, -0.53, -0.848, 31.19, 14.884)"/>
    </g>
    <g id="Group_2127" data-name="Group 2127" transform="translate(17844.738 4560.09) rotate(-45)">
      <rect id="Rectangle_1529-3" data-name="Rectangle 1529" width="21.88" height="5.281" transform="translate(14626.67 -19031.752) rotate(-180)"/>
      <path id="Path_7366-3" data-name="Path 7366" d="M6.943.3a.6.6,0,0,0-1.08.078L.015,15.344a.654.654,0,0,0,.477.771L16.5,17.549a.6.6,0,0,0,.551-.931Z" transform="matrix(-0.848, -0.53, 0.53, -0.848, 14626.679, -19021.086)"/>
    </g>
    <g id="Group_2128" data-name="Group 2128" transform="translate(14653.399 -19216.994) rotate(-135)">
      <rect id="Rectangle_1529-4" data-name="Rectangle 1529" width="21.88" height="5.281" transform="translate(21.881 15.947) rotate(-180)"/>
      <path id="Path_7366-4" data-name="Path 7366" d="M6.943,17.253a.6.6,0,0,1-1.08-.078L.015,2.207a.654.654,0,0,1,.477-.771L16.5,0a.6.6,0,0,1,.551.931Z" transform="matrix(-0.848, 0.53, -0.53, -0.848, 31.19, 14.884)"/>
    </g>
  </g>
</svg>
