<svg xmlns="http://www.w3.org/2000/svg" xmlns:xlink="http://www.w3.org/1999/xlink" width="92.441" height="100.075" viewBox="0 0 92.441 100.075">
  <defs>
    <clipPath id="clip-path">
      <rect id="Rectangle_1528" data-name="Rectangle 1528" width="64.418" height="64.449" fill="none"/>
    </clipPath>
    <filter id="Path_7776" x="64.487" y="2.21" width="26.415" height="27.369" filterUnits="userSpaceOnUse">
      <feOffset dy="1" input="SourceAlpha"/>
      <feGaussianBlur stdDeviation="1.5" result="blur"/>
      <feFlood flood-color="#6a4cbc" flood-opacity="0.686"/>
      <feComposite operator="in" in2="blur"/>
      <feComposite in="SourceGraphic"/>
    </filter>
    <filter id="Path_7776-2" x="1.538" y="2.21" width="26.416" height="27.369" filterUnits="userSpaceOnUse">
      <feOffset dy="1" input="SourceAlpha"/>
      <feGaussianBlur stdDeviation="1.5" result="blur-2"/>
      <feFlood flood-color="#6a4cbc" flood-opacity="0.686"/>
      <feComposite operator="in" in2="blur-2"/>
      <feComposite in="SourceGraphic"/>
    </filter>
    <filter id="Path_7776-3" x="64.486" y="72.496" width="26.416" height="27.369" filterUnits="userSpaceOnUse">
      <feOffset dy="1" input="SourceAlpha"/>
      <feGaussianBlur stdDeviation="1.5" result="blur-3"/>
      <feFlood flood-color="#6a4cbc" flood-opacity="0.686"/>
      <feComposite operator="in" in2="blur-3"/>
      <feComposite in="SourceGraphic"/>
    </filter>
    <filter id="Path_7776-4" x="1.539" y="72.496" width="26.416" height="27.369" filterUnits="userSpaceOnUse">
      <feOffset dy="1" input="SourceAlpha"/>
      <feGaussianBlur stdDeviation="1.5" result="blur-4"/>
      <feFlood flood-color="#6a4cbc" flood-opacity="0.686"/>
      <feComposite operator="in" in2="blur-4"/>
      <feComposite in="SourceGraphic"/>
    </filter>
  </defs>
  <g id="Condoms_Distributed" data-name="Condoms Distributed" transform="translate(2.57 2.537)">
    <g id="Group_2437" data-name="Group 2437" transform="translate(3439.769 15485.031)">
      <g id="Group_2436" data-name="Group 2436" transform="translate(-3439.769 -15485.031)">
        <g id="Group_2126" data-name="Group 2126" transform="translate(11.44 13.234)">
          <g id="Group_2123" data-name="Group 2123" clip-path="url(#clip-path)">
            <path id="Path_7363" data-name="Path 7363" d="M0,33.333a.468.468,0,0,0,.04-.154,2.063,2.063,0,0,1,.872-1.7Q15.589,16.8,30.259,2.11c.558-.558,1.138-1.093,1.686-1.661a1.229,1.229,0,0,1,.9-.38c.272-.01.543-.045.814-.069H38c.314.038.629.066.941.116.712.116.858.255.872.98.029,1.534.029,3.067.04,4.6,0,.129,0,.258,0,.454.534,0,1.034-.008,1.535,0,1.182.023,2.366.031,3.546.091.725.037,1,.31,1.022,1.025.044,1.467.037,2.935.051,4.4,0,.194,0,.389,0,.618H46.4c1.4,0,2.8-.008,4.207.007,1.211.013,1.518.319,1.531,1.527.015,1.4.007,2.8.008,4.207v.39c.162,0,.29,0,.419,0,1.544.017,3.089.032,4.633.054.689.01.922.212.986.905.057.621.09,1.245.1,1.869.018,1,.009,1.994.012,2.991v.338H58.7c1.523.01,3.046.009,4.568.035.795.014.949.158,1.05.946a11.594,11.594,0,0,1,.095,1.507c-.005,1.479-.037,2.957-.055,4.436a1.2,1.2,0,0,1-.357.879C61.332,35.1,58.691,37.847,56,40.543Q45,51.538,33.976,62.5c-.512.51-1.031,1.015-1.576,1.491a1.336,1.336,0,0,1-.713.344,37.408,37.408,0,0,1-6.2-.022c-.691-.068-.854-.257-.867-.947-.029-1.544-.029-3.089-.041-4.634,0-.128,0-.257,0-.456-.6,0-1.169.009-1.736,0-1.117-.02-2.234-.029-3.349-.086-.717-.037-1-.311-1.018-1.028-.044-1.532-.037-3.066-.05-4.6,0-.128,0-.256,0-.416H18.03c-1.4,0-2.8.007-4.207-.008-1.205-.013-1.513-.323-1.526-1.534-.015-1.4-.006-2.8-.008-4.207,0-.118,0-.235,0-.385-.933,0-1.828.005-2.724,0-.766-.006-1.534,0-2.3-.048-.7-.04-.973-.3-1.021-.994-.051-.742-.054-1.488-.071-2.232-.021-.909-.035-1.818-.052-2.727a1.409,1.409,0,0,0-.026-.151H5.728c-1.512-.01-3.024-.007-4.536-.034C.351,39.8.227,39.674.1,38.842.053,38.564.031,38.282,0,38V33.333m62.252-6.711c-.17,0-.3,0-.429,0-1.6-.019-3.2-.035-4.8-.059a.653.653,0,0,1-.745-.587,4.339,4.339,0,0,1-.126-.908c-.028-1.391-.037-2.782-.053-4.173,0-.128,0-.256,0-.419h-.4c-.8,0-1.6.01-2.4,0s-1.579-.014-2.362-.082c-.676-.058-.831-.281-.841-.967q-.034-2.366-.068-4.733c0-.093-.014-.187-.021-.281-1.62-.049-3.207-.095-4.794-.144-1.1-.035-1.215-.143-1.231-1.247-.021-1.424-.02-2.848-.029-4.273,0-.127,0-.253,0-.4-.148,0-.246,0-.343,0-1.336-.02-2.673-.036-4.009-.062a6.821,6.821,0,0,1-.916-.073.847.847,0,0,1-.817-.839,7.168,7.168,0,0,1-.063-.916c-.006-1.3,0-2.608,0-3.912,0-.115-.01-.23-.016-.361-1.352,0-2.667.026-3.979-.013a1.512,1.512,0,0,0-1.22.513Q17.522,17.777,2.435,32.86a.809.809,0,0,0-.245.491c-.019,1.4-.011,2.8-.01,4.207,0,.074.013.147.022.25.145,0,.274,0,.4,0,1.6.019,3.2.035,4.8.058a.652.652,0,0,1,.748.583,4.319,4.319,0,0,1,.127.907c.028,1.391.038,2.783.053,4.174,0,.128,0,.257,0,.423h.425c1.424.009,2.849.01,4.273.031,1.088.016,1.2.133,1.235,1.209.048,1.511.088,3.023.133,4.534,0,.094.015.189.025.308.284,0,.546,0,.807,0q2.136.03,4.272.064c.6.01.8.191.888.785a5.345,5.345,0,0,1,.06.719c.012,1.359.016,2.717.023,4.076,0,.128,0,.257,0,.416h.333c.964,0,1.928-.009,2.892.01.667.013,1.337.036,2,.113.812.094.875.426.877.944,0,1.567.031,3.133.049,4.7,0,.118,0,.235,0,.389h.385c1.315,0,2.63-.007,3.944.006A.8.8,0,0,0,31.583,62q9.174-9.188,18.358-18.366,6.043-6.043,12.085-12.089c.094-.094.216-.226.217-.341.014-1.51.01-3.021.01-4.585"/>
            <path id="Path_7364" data-name="Path 7364" d="M42.552,60.966c-.2-9.748,8.379-18.43,17.959-18.388,10.928-.535,19.483,9,19.1,18.48.435,9.95-8.68,18.978-18.476,18.556C51.294,80,42.222,71.227,42.552,60.966m34.977.094c.385-7.4-6.128-16.754-17.117-16.435A16.663,16.663,0,0,0,44.6,61.095c-.049,9.046,7.888,16.738,16.468,16.443A16.3,16.3,0,0,0,77.529,61.059" transform="translate(-28.877 -28.886)"/>
            <path id="Path_7365" data-name="Path 7365" d="M59.344,72.342A13.158,13.158,0,1,1,72.23,85.626,13.13,13.13,0,0,1,59.344,72.342m24.175.118a16.221,16.221,0,0,0-.169-2.254,11.164,11.164,0,0,0-10.832-8.759,11.048,11.048,0,1,0,3.818,21.411c3.283-1.129,7.478-5.172,7.184-10.4" transform="translate(-40.276 -40.257)"/>
          </g>
        </g>
        <g id="Group_2432" data-name="Group 2432" transform="translate(78.946 0) rotate(43)">
          <g transform="matrix(0.73, -0.68, 0.68, 0.73, -61.35, 53.74)" filter="url(#Path_7776)">
            <path id="Path_7776-5" data-name="Path 7776" d="M0,19.319V0" transform="translate(84.28 7.83) rotate(43)" fill="none" stroke="#000" stroke-linecap="round" stroke-width="3"/>
          </g>
          <path id="Path_7777" data-name="Path 7777" d="M0,6.791,5.6,0l5.825,6.791" transform="translate(0 0)" fill="none" stroke="#000" stroke-linecap="round" stroke-linejoin="round" stroke-width="3"/>
        </g>
        <g id="Group_2434" data-name="Group 2434" transform="translate(22.884 15.58) rotate(137)">
          <g transform="matrix(-0.73, -0.68, 0.68, -0.73, 6.26, 30.61)" filter="url(#Path_7776-2)">
            <path id="Path_7776-6" data-name="Path 7776" d="M0,0V19.319" transform="translate(21.33 21.96) rotate(137)" fill="none" stroke="#000" stroke-linecap="round" stroke-width="3"/>
          </g>
          <path id="Path_7777-2" data-name="Path 7777" d="M0,0,5.6,6.791,11.424,0" transform="translate(0 14.513)" fill="none" stroke="#000" stroke-linecap="round" stroke-linejoin="round" stroke-width="3"/>
        </g>
        <g id="Group_2433" data-name="Group 2433" transform="translate(64.417 79.42) rotate(-43)">
          <g transform="matrix(0.73, 0.68, -0.68, 0.73, 6.9, -105.62)" filter="url(#Path_7776-3)">
            <path id="Path_7776-7" data-name="Path 7776" d="M0,0V19.319" transform="translate(71.11 78.12) rotate(-43)" fill="none" stroke="#000" stroke-linecap="round" stroke-width="3"/>
          </g>
          <path id="Path_7777-3" data-name="Path 7777" d="M0,0,5.6,6.791,11.424,0" transform="translate(0 14.512)" fill="none" stroke="#000" stroke-linecap="round" stroke-linejoin="round" stroke-width="3"/>
        </g>
        <g id="Group_2435" data-name="Group 2435" transform="translate(8.356 95) rotate(-137)">
          <g transform="matrix(-0.73, 0.68, -0.68, -0.73, 74.51, 63.88)" filter="url(#Path_7776-4)">
            <path id="Path_7776-8" data-name="Path 7776" d="M0,19.319V0" transform="translate(8.16 92.25) rotate(-137)" fill="none" stroke="#000" stroke-linecap="round" stroke-width="3"/>
          </g>
          <path id="Path_7777-4" data-name="Path 7777" d="M0,6.79,5.6,0l5.825,6.791" transform="translate(0 0)" fill="none" stroke="#000" stroke-linecap="round" stroke-linejoin="round" stroke-width="3"/>
        </g>
      </g>
    </g>
  </g>
</svg>
