<svg id="generate_data_and_charts_icon" xmlns="http://www.w3.org/2000/svg" xmlns:xlink="http://www.w3.org/1999/xlink" width="36.241" height="39.342" viewBox="0 0 36.241 39.342">
  <defs>
    <clipPath id="clip-path">
      <rect id="Rectangle_760" data-name="Rectangle 760" width="16.106" height="17.456"/>
    </clipPath>
  </defs>
  <g id="Group_3460" data-name="Group 3460" transform="translate(0.191 -0.176)">
    <g id="Group_3459" data-name="Group 3459" transform="translate(0 21.246)">
      <g id="Union_71" data-name="Union 71" transform="translate(-0.191 1.93)" fill="#ffde0b">
        <path d="M 12.5 10.25 C 9.417880058288574 10.25 6.479100227355957 9.943320274353027 4.225009918212891 9.386460304260254 C 1.729040026664734 8.769829750061035 0.8738999962806702 8.04010009765625 0.7621099948883057 7.706130027770996 L 0.75 7.669951915740967 L 0.75 7.638949871063232 L 0.75 0.75 L 24.25 0.75 L 24.25 7.669951915740967 L 24.23789024353027 7.706130027770996 C 24.12610054016113 8.04010009765625 23.27095985412598 8.769829750061035 20.77499008178711 9.386460304260254 C 18.52090072631836 9.943320274353027 15.58211994171143 10.25 12.5 10.25 Z" stroke="none"/>
        <path d="M 12.5 9.5 C 15.33872032165527 9.5 18.08230018615723 9.232190132141113 20.2253303527832 8.74590015411377 C 22.35751342773438 8.262081146240234 23.25517654418945 7.710071563720703 23.5 7.468088626861572 L 23.5 1.5 L 1.5 1.5 L 1.5 7.468088626861572 C 1.744824290275574 7.710071563720703 2.642486333847046 8.262081146240234 4.774670124053955 8.74590015411377 C 6.917699813842773 9.232190132141113 9.661279678344727 9.5 12.5 9.5 M 12.5 11 C 5.979010105133057 11 0.6243799924850464 9.657440185546875 0.05090000107884407 7.944200038909912 L -1.77635683940025e-15 7.944200038909912 L -1.77635683940025e-15 -8.881784197001252e-16 L 25 -8.881784197001252e-16 L 25 7.944200038909912 L 24.94910049438477 7.944200038909912 C 24.37561988830566 9.657440185546875 19.0209903717041 11 12.5 11 Z" stroke="none" fill="#000"/>
      </g>
      <g id="Ellipse_487" data-name="Ellipse 487" transform="translate(-0.191 -0.07)" fill="#ffde0b" stroke="#000" stroke-width="1.5">
        <ellipse cx="12.5" cy="3" rx="12.5" ry="3" stroke="none"/>
        <ellipse cx="12.5" cy="3" rx="11.75" ry="2.25" fill="none"/>
      </g>
    </g>
    <g id="Group_3458" data-name="Group 3458" transform="translate(0 10.064)">
      <g id="Union_71-2" data-name="Union 71" transform="translate(-0.191 3.111)" fill="#ffde0b">
        <path d="M 12.5 10.25 C 9.417880058288574 10.25 6.479100227355957 9.943320274353027 4.225009918212891 9.386460304260254 C 1.729040026664734 8.769829750061035 0.8738999962806702 8.04010009765625 0.7621099948883057 7.706130027770996 L 0.75 7.669951915740967 L 0.75 7.638949871063232 L 0.75 0.75 L 24.25 0.75 L 24.25 7.669951915740967 L 24.23789024353027 7.706130027770996 C 24.12610054016113 8.04010009765625 23.27095985412598 8.769829750061035 20.77499008178711 9.386460304260254 C 18.52090072631836 9.943320274353027 15.58211994171143 10.25 12.5 10.25 Z" stroke="none"/>
        <path d="M 12.5 9.5 C 15.33872032165527 9.5 18.08230018615723 9.232190132141113 20.2253303527832 8.74590015411377 C 22.35751342773438 8.262081146240234 23.25517654418945 7.710071563720703 23.5 7.468088626861572 L 23.5 1.5 L 1.5 1.5 L 1.5 7.468088626861572 C 1.744824290275574 7.710071563720703 2.642486333847046 8.262081146240234 4.774670124053955 8.74590015411377 C 6.917699813842773 9.232190132141113 9.661279678344727 9.5 12.5 9.5 M 12.5 11 C 5.979010105133057 11 0.6243799924850464 9.657440185546875 0.05090000107884407 7.944200038909912 L -1.77635683940025e-15 7.944200038909912 L -1.77635683940025e-15 -8.881784197001252e-16 L 25 -8.881784197001252e-16 L 25 7.944200038909912 L 24.94910049438477 7.944200038909912 C 24.37561988830566 9.657440185546875 19.0209903717041 11 12.5 11 Z" stroke="none" fill="#000"/>
      </g>
      <g id="Ellipse_487-2" data-name="Ellipse 487" transform="translate(-0.191 0.111)" fill="#ffde0b" stroke="#000" stroke-width="1.5">
        <ellipse cx="12.5" cy="3.5" rx="12.5" ry="3.5" stroke="none"/>
        <ellipse cx="12.5" cy="3.5" rx="11.75" ry="2.75" fill="none"/>
      </g>
    </g>
    <g id="Union_70" data-name="Union 70" transform="translate(-0.191 3.176)" fill="#ffde0b">
      <path d="M 12.5 10.25 C 9.417880058288574 10.25 6.479100227355957 9.943320274353027 4.225009918212891 9.386460304260254 C 1.729040026664734 8.769829750061035 0.8738999962806702 8.04010009765625 0.7621099948883057 7.706130027770996 L 0.75 7.669951915740967 L 0.75 7.638949871063232 L 0.75 0.75 L 24.25 0.75 L 24.25 7.669951915740967 L 24.23789024353027 7.706130027770996 C 24.12610054016113 8.04010009765625 23.27095985412598 8.769829750061035 20.77499008178711 9.386460304260254 C 18.52090072631836 9.943320274353027 15.58211994171143 10.25 12.5 10.25 Z" stroke="none"/>
      <path d="M 12.5 9.5 C 15.33872032165527 9.5 18.08230018615723 9.232190132141113 20.2253303527832 8.74590015411377 C 22.35751342773438 8.262081146240234 23.25517654418945 7.710071563720703 23.5 7.468088626861572 L 23.5 1.5 L 1.5 1.5 L 1.5 7.468088626861572 C 1.744824290275574 7.710071563720703 2.642486333847046 8.262081146240234 4.774670124053955 8.74590015411377 C 6.917699813842773 9.232190132141113 9.661279678344727 9.5 12.5 9.5 M 12.5 11 C 5.979010105133057 11 0.6243799924850464 9.657440185546875 0.05090000107884407 7.944200038909912 L -1.77635683940025e-15 7.944200038909912 L -1.77635683940025e-15 -8.881784197001252e-16 L 25 -8.881784197001252e-16 L 25 7.944200038909912 L 24.94910049438477 7.944200038909912 C 24.37561988830566 9.657440185546875 19.0209903717041 11 12.5 11 Z" stroke="none" fill="#000"/>
    </g>
    <g id="Ellipse_484" data-name="Ellipse 484" transform="translate(-0.191 0.176)" fill="#ffde0b" stroke="#000" stroke-width="1.5">
      <ellipse cx="12.5" cy="3.5" rx="12.5" ry="3.5" stroke="none"/>
      <ellipse cx="12.5" cy="3.5" rx="11.75" ry="2.75" fill="none"/>
    </g>
  </g>
  <path id="Path_8015" data-name="Path 8015" d="M11.428,0A11.566,11.566,0,0,1,22.856,11.7,11.566,11.566,0,0,1,11.428,23.4,11.566,11.566,0,0,1,0,11.7,11.566,11.566,0,0,1,11.428,0Z" transform="translate(13.385 15.942)" fill="#ffde0b"/>
  <g id="Group_3462" data-name="Group 3462" transform="translate(16.737 18.915)">
    <g id="Group_906" data-name="Group 906" clip-path="url(#clip-path)">
      <path id="Path_1072" data-name="Path 1072" d="M88.838,207.836c.078-.082.132-.135.181-.192.284-.332.565-.665.849-1,.112-.13.115-.13.278-.061a7.567,7.567,0,0,0,2.422.564,12.242,12.242,0,0,0,1.354-.022,6.088,6.088,0,0,0,1.317-.23,7.7,7.7,0,0,0,2.156-.937c.2-.125.387-.259.573-.4.214-.161.428-.325.629-.5a8.2,8.2,0,0,0,1.317-1.548,6.9,6.9,0,0,0,.546-1,10.372,10.372,0,0,0,.394-1.037,7.2,7.2,0,0,0,.353-2.109,7.845,7.845,0,0,0-.051-1.155,8.742,8.742,0,0,0-.367-1.677,1.361,1.361,0,0,0-.076-.16c-.567.166-1.116.328-1.667.488a.1.1,0,0,0-.077.149c.024.067.049.134.071.2a5.294,5.294,0,0,1,.271,1.355,7.055,7.055,0,0,1-.051,1.55,6.059,6.059,0,0,1-1.16,2.718,6.122,6.122,0,0,1-1.948,1.7,6.146,6.146,0,0,1-1.648.619,6.618,6.618,0,0,1-1.754.131,7.579,7.579,0,0,1-1.318-.221,1.165,1.165,0,0,1-.157-.064c.361-.454.753-.852,1.11-1.324-.09-.006-.138-.011-.188-.013-.091,0-.183,0-.274-.01-.364-.028-.728-.058-1.092-.086-.157-.012-.314-.021-.471-.033l-1.486-.117c-.318-.025-.637-.048-.955-.075-.114-.009-.147.02-.136.135a.754.754,0,0,0,.019.1q.142.592.285,1.184.124.517.248,1.035c.106.444.209.889.318,1.332.055.226.118.45.186.708" transform="translate(-85.103 -190.38)"/>
      <path id="Path_1073" data-name="Path 1073" d="M.47,11.476c.242-.071.465-.134.687-.2.311-.094.62-.194.932-.286.176-.052.172-.045.122-.222-.084-.3-.179-.595-.235-.9-.053-.288-.055-.585-.09-.876a4.373,4.373,0,0,1,.045-1.137,6.1,6.1,0,0,1,.679-2.072A6.526,6.526,0,0,1,3.34,4.715a5.628,5.628,0,0,1,.9-.86,6.257,6.257,0,0,1,2.211-1.1,6.546,6.546,0,0,1,1.78-.2,6.158,6.158,0,0,1,1.546.232,1.367,1.367,0,0,1,.155.065L8.836,4.15c.111.013.18.024.249.029l.972.071c.354.027.708.056,1.062.082.324.024.648.043.971.069s.636.059.955.082c.125.009.251,0,.387,0a.3.3,0,0,0,.008-.1c-.348-1.454-.7-2.908-1.055-4.39-.059.056-.094.084-.122.118q-.462.546-.922,1.094c-.094.111-.1.112-.246.059A8.478,8.478,0,0,0,8.931.726,7.347,7.347,0,0,0,7.852.68C7.523.7,7.194.723,6.868.767a5.8,5.8,0,0,0-.775.156c-.337.093-.672.2-1,.321a7.1,7.1,0,0,0-1.228.6,4.873,4.873,0,0,0-.46.3c-.272.212-.533.437-.8.659a5.635,5.635,0,0,0-.8.851,6.778,6.778,0,0,0-.813,1.21c-.148.306-.311.607-.435.922a7.681,7.681,0,0,0-.5,1.986A8.693,8.693,0,0,0,.029,9.442a8.289,8.289,0,0,0,.279,1.51c.047.17.1.336.163.524" transform="translate(0 0.001)"/>
    </g>
  </g>
</svg>
