<svg id="key_metrics" data-name="key metrics" xmlns="http://www.w3.org/2000/svg" width="29.318" height="29.277" viewBox="0 0 29.318 29.277">
  <path id="Path_7380" data-name="Path 7380" d="M131.7,146.559a14.638,14.638,0,1,1,14.677-14.629A14.617,14.617,0,0,1,131.7,146.559" transform="translate(-117.055 -117.282)" fill="#ffde0b"/>
  <path id="Path_7383" data-name="Path 7383" d="M33.618,125.73c0,.8.01,1.6,0,2.4-.011.659-.158.791-.877.8q-1.56.024-3.12,0c-.623-.011-.783-.161-.787-.719q-.019-2.473,0-4.948c0-.563.161-.712.783-.723q1.6-.031,3.2,0c.644.011.788.167.8.8.014.8,0,1.6,0,2.4" transform="translate(-22.824 -106.629)"/>
  <path id="Path_7384" data-name="Path 7384" d="M33.618,128.187c0,1.414.01,2.827,0,4.237-.011,1.165-.158,1.4-.877,1.418q-1.56.043-3.12,0c-.623-.02-.783-.284-.787-1.27q-.019-4.369,0-8.742c0-.994.161-1.258.783-1.278q1.6-.054,3.2,0c.644.019.788.3.8,1.406.014,1.414,0,2.823,0,4.237" transform="translate(-16.667 -111.549)"/>
  <path id="Path_7385" data-name="Path 7385" d="M33.618,130.191c0,1.914.01,3.828,0,5.737-.011,1.577-.158,1.893-.877,1.919q-1.56.058-3.12,0c-.623-.027-.783-.384-.787-1.72q-.019-5.915,0-11.836c0-1.346.161-1.7.783-1.73q1.6-.074,3.2,0c.644.026.788.4.8,1.9.014,1.914,0,3.823,0,5.737" transform="translate(-10.51 -115.563)"/>
</svg>
