<svg id="meeting_funding" data-name="meeting funding" xmlns="http://www.w3.org/2000/svg" width="29.318" height="29.277" viewBox="0 0 29.318 29.277">
  <path id="Path_7377" data-name="Path 7377" d="M131.7,146.559a14.638,14.638,0,1,1,14.677-14.629A14.617,14.617,0,0,1,131.7,146.559" transform="translate(-117.055 -117.282)" fill="#ffde0b"/>
  <path id="Path_7378" data-name="Path 7378" d="M151.514,149.729c0-.373-.008-.673,0-.972s-.052-.633.09-.828c.124-.171.486-.174.744-.246a4.8,4.8,0,0,0,3.2-2.391,4.726,4.726,0,0,0,.493-2.966,3.821,3.821,0,0,0-1.409-2.524,5.248,5.248,0,0,0-1.813-.947c-.978-.282-1.972-.515-2.955-.785a14.9,14.9,0,0,1-1.55-.489,1.647,1.647,0,0,1-1.123-1.093,3.191,3.191,0,0,1-.052-1.089,1.993,1.993,0,0,1,1.494-1.794,4.8,4.8,0,0,1,2.131-.133,2.338,2.338,0,0,1,2.1,1.994c.032.152.07.3.1.443a11.388,11.388,0,0,0,2.651-.045,1.125,1.125,0,0,0,.028-.178,1.9,1.9,0,0,0-.019-.332,5.206,5.206,0,0,0-1.245-2.647,4.933,4.933,0,0,0-2.462-1.485c-.4-.111-.4-.111-.409-.51s0-.765,0-1.148v-1.081a12.239,12.239,0,0,0-2.947.029v2.081c-.005.488-.02.493-.476.609a4.872,4.872,0,0,0-2.274,1.163,4.811,4.811,0,0,0-1.375,4.38,3.751,3.751,0,0,0,2,2.871,6.307,6.307,0,0,0,1.173.529c.823.25,1.661.433,2.492.664.749.213,1.5.423,2.227.7a1.551,1.551,0,0,1,.97,1.108,2.215,2.215,0,0,1-1.491,2.693,4.7,4.7,0,0,1-3.187.01,2.754,2.754,0,0,1-1.9-2.6c0-.155-.022-.309-.036-.493h-2.65a3.094,3.094,0,0,0,.063,1.3,4.756,4.756,0,0,0,1.964,3.322,5.829,5.829,0,0,0,2.055.876c.411.092.434.132.443.554.009.382,0,.765,0,1.148,0,.188.074.307.278.307h2.665" transform="translate(-135.413 -124.86)"/>
</svg>
