<svg id="Monitor_Funding_Requirements" data-name="Monitor Funding Requirements" xmlns="http://www.w3.org/2000/svg" width="66.667" height="80" viewBox="0 0 66.667 80">
  <g id="Path_7831" data-name="Path 7831" fill="#fff">
    <path d="M 59.5555534362793 79.25 L 7.111109733581543 79.25 C 3.603576421737671 79.25 0.7499987483024597 76.39642333984375 0.7499987483024597 72.88890075683594 L 0.7499987483024597 7.111111164093018 C 0.7499987483024597 3.603577852249146 3.603576421737671 0.75 7.111109733581543 0.75 L 59.5555534362793 0.75 C 63.06308746337891 0.75 65.91666412353516 3.603577852249146 65.91666412353516 7.111111164093018 L 65.91666412353516 72.88890075683594 C 65.91666412353516 76.39642333984375 63.06308746337891 79.25 59.5555534362793 79.25 Z" stroke="none"/>
    <path d="M 7.111110687255859 1.5 C 4.017131805419922 1.5 1.5 4.017135620117188 1.5 7.111114501953125 L 1.5 72.88888549804688 C 1.5 75.98286437988281 4.017131805419922 78.5 7.111110687255859 78.5 L 59.5555534362793 78.5 C 62.64953231811523 78.5 65.16666412353516 75.98286437988281 65.16666412353516 72.88888549804688 L 65.16666412353516 7.111114501953125 C 65.16666412353516 4.017135620117188 62.64953231811523 1.5 59.5555534362793 1.5 L 7.111110687255859 1.5 M 7.111110687255859 0 L 59.5555534362793 0 C 63.4829216003418 0 66.66666412353516 3.183753967285156 66.66666412353516 7.111114501953125 L 66.66666412353516 72.88888549804688 C 66.66666412353516 76.81625366210938 63.4829216003418 80 59.5555534362793 80 L 7.111110687255859 80 C 3.183753967285156 80 0 76.81625366210938 0 72.88888549804688 L 0 7.111114501953125 C 0 3.183753967285156 3.183753967285156 0 7.111110687255859 0 Z" stroke="none" fill="#000"/>
  </g>
  <g id="Group_2603" data-name="Group 2603" transform="translate(9.985 59.237)">
    <path id="Union_63" data-name="Union 63" d="M10.857,2.373H9.228q-3.754,0-7.51,0a3.655,3.655,0,0,1-.739-.085,1.185,1.185,0,0,1-.8-.522A1.031,1.031,0,0,1,.185.6,1.575,1.575,0,0,1,1.506,0c.067,0,.134,0,.2,0h6.28c.054,0,.109,0,.163,0h.721Q16.038,0,23.2,0a3.367,3.367,0,0,1,.669.062A1.145,1.145,0,0,1,24.9,1.3a1.073,1.073,0,0,1-.716.909,2.429,2.429,0,0,1-.944.165H10.857Z" transform="translate(15.871 3.652)"/>
    <path id="Path" d="M8.9.267a.933.933,0,0,1,1.308,0,.9.9,0,0,1,0,1.291L4.662,7.037a.933.933,0,0,1-1.308,0L.271,3.993a.9.9,0,0,1,0-1.291.933.933,0,0,1,1.308,0L4.008,5.1Z" transform="translate(2)" fill="#1a051d"/>
  </g>
  <g id="Group_2605" data-name="Group 2605" transform="translate(13.524 8.909)">
    <path id="Path_7821" data-name="Path 7821" d="M136.839,156.843a19.78,19.78,0,1,1,19.833-19.767,19.752,19.752,0,0,1-19.833,19.767" transform="translate(-117.055 -117.282)" fill="#ffde0b"/>
    <path id="Path_7822" data-name="Path 7822" d="M150.632,147.227c0-.329-.007-.594,0-.858s-.046-.558.079-.73c.109-.151.429-.153.657-.217a4.237,4.237,0,0,0,2.821-2.111,4.172,4.172,0,0,0,.435-2.618,3.373,3.373,0,0,0-1.244-2.228,4.633,4.633,0,0,0-1.6-.836c-.863-.249-1.74-.455-2.608-.693a13.163,13.163,0,0,1-1.368-.432,1.453,1.453,0,0,1-.991-.965,2.817,2.817,0,0,1-.046-.961A1.76,1.76,0,0,1,148.085,133a4.237,4.237,0,0,1,1.881-.117,2.064,2.064,0,0,1,1.858,1.76c.028.134.062.266.089.391a10.052,10.052,0,0,0,2.34-.04.993.993,0,0,0,.024-.158,1.676,1.676,0,0,0-.017-.293,4.594,4.594,0,0,0-1.1-2.336,4.354,4.354,0,0,0-2.173-1.311c-.354-.1-.356-.1-.361-.45s0-.676,0-1.014v-.954a10.8,10.8,0,0,0-2.6.025v1.837c0,.43-.018.435-.42.538A4.3,4.3,0,0,0,145.6,131.9a4.247,4.247,0,0,0-1.214,3.866,3.311,3.311,0,0,0,1.769,2.534,5.569,5.569,0,0,0,1.035.467c.726.221,1.466.382,2.2.586.661.188,1.326.374,1.966.621a1.369,1.369,0,0,1,.856.978,1.955,1.955,0,0,1-1.316,2.377,4.15,4.15,0,0,1-2.813.009,2.431,2.431,0,0,1-1.676-2.293c0-.137-.02-.273-.031-.435h-2.339a2.73,2.73,0,0,0,.056,1.146,4.2,4.2,0,0,0,1.733,2.932,5.145,5.145,0,0,0,1.814.773c.363.081.383.116.391.489.008.337,0,.675,0,1.014,0,.166.066.271.246.271h2.352" transform="translate(-129.529 -118.04)"/>
  </g>
</svg>
