<svg id="Monitor_Quality_icon" data-name="Monitor Quality icon" xmlns="http://www.w3.org/2000/svg" xmlns:xlink="http://www.w3.org/1999/xlink" width="69.991" height="70.665" viewBox="0 0 69.991 70.665">
  <defs>
    <clipPath id="clip-path">
      <rect id="Rectangle_1121" data-name="Rectangle 1121" width="69.991" height="70.665" fill="none"/>
    </clipPath>
    <clipPath id="clip-path-2">
      <rect id="Rectangle_1122" data-name="Rectangle 1122" width="28.784" height="29.021" fill="none"/>
    </clipPath>
  </defs>
  <g id="Group_1603" data-name="Group 1603">
    <g id="Group_1602" data-name="Group 1602" clip-path="url(#clip-path)">
      <path id="Path_7249" data-name="Path 7249" d="M0,32.511Q0,20.5.006,8.49A8.377,8.377,0,0,1,1.8,3.147,7.988,7.988,0,0,1,4.756.813,8.4,8.4,0,0,1,7.942.041C8.348.024,8.755,0,9.162,0Q28.7,0,48.243,0A8.773,8.773,0,0,1,52.879,1.21a8.28,8.28,0,0,1,2.76,2.745,8.158,8.158,0,0,1,1.2,3.935c.03.527.043,1.056.043,1.584q0,23.41,0,46.82a9.237,9.237,0,0,1-.824,4.008,8.278,8.278,0,0,1-5.355,4.41,9.714,9.714,0,0,1-2.319.29q-19.937.009-39.875,0a8.8,8.8,0,0,1-3.842-.827,8.282,8.282,0,0,1-2.308-1.686,8.155,8.155,0,0,1-2.279-4.8,9.286,9.286,0,0,1-.075-1.218Q0,44.489,0,32.511" transform="translate(0 0)" fill="#ffde0b"/>
      <path id="Path_7251" data-name="Path 7251" d="M29.465,17.039c.03.352.073.719.089,1.088.1,2.381.18,4.763.306,7.143a2.855,2.855,0,0,0,.374,1.2c1.182,2.1,2.4,4.179,3.6,6.266.145.251.277.509.411.756-2.326,1.723-6.621,1.85-9.6-.324a8.932,8.932,0,0,1-3.094-10.782c1.592-3.872,5.637-5.671,7.913-5.346" transform="translate(-12.32 -6.885)"/>
      <path id="Path_7252" data-name="Path 7252" d="M106.072,16.65c0-.863,0-1.661,0-2.459a.411.411,0,0,1,.439-.459c.214-.01.428-.013.642-.013q6.3,0,12.605,0c.313,0,.626.038.991.061v2.854a6.114,6.114,0,0,1-.824.109q-6.463.011-12.926,0c-.284,0-.568-.057-.927-.1" transform="translate(-72.34 -4.573)"/>
      <path id="Path_7253" data-name="Path 7253" d="M68.259,19.572c-.277.016-.563.055-.848.047q-4.29-.127-8.581-.268c-.748-.024-.8-.055-.814-.76q-.076-4.416-.126-8.831a5.381,5.381,0,0,1,.062-.617C63.386,8.724,68.5,13.9,68.259,19.572m-1.294-1.235c-.256-4.192-4.39-8.015-7.706-7.888v7.673l7.706.215" transform="translate(-38.408 -1.334)"/>
      <path id="Path_7254" data-name="Path 7254" d="M63.756,56.558l-4.162-7.142,7.8.166c.387,2.381-1.4,5.786-3.642,6.977" transform="translate(-39.607 -29.714)"/>
      <path id="Path_7255" data-name="Path 7255" d="M106.128,35.347h2.242c2.109,0,4.219,0,6.329,0,.806,0,.816.015.825.793.006.534-.011,1.069,0,1.6.011.406-.158.59-.568.578-.454-.013-.908,0-1.362,0q-3.325,0-6.649,0c-.8,0-.811-.017-.818-.8-.006-.687,0-1.373,0-2.173" transform="translate(-72.378 -19.805)"/>
      <rect id="Rectangle_1120" data-name="Rectangle 1120" width="56.841" height="2.151" transform="translate(0.049 30.353)"/>
    </g>
  </g>
  <path id="Path_7262" data-name="Path 7262" d="M96.108,123.757v7.935c0,1.239-.158,1.405-1.393,1.424-1.48.021-2.96.026-4.44,0-1.091-.021-1.325-.232-1.327-1.278q-.021-8.118,0-16.236c0-1.074.209-1.243,1.312-1.252q2.281-.019,4.563,0c1.171,0,1.282.107,1.282,1.231.01,2.726,0,5.451,0,8.176" transform="translate(-58.89 -75.709)"/>
  <path id="Path_7263" data-name="Path 7263" d="M66.038,140.356c0,1.58.006,3.162,0,4.742,0,1.056-.118,1.152-1.375,1.161q-2.28.015-4.56,0c-1.056,0-1.246-.144-1.25-.971q-.023-4.941,0-9.882c0-.86.227-1.044,1.319-1.044q2.281-.029,4.56,0c1.078.015,1.3.2,1.3,1.056.016,1.647,0,3.294,0,4.941" transform="translate(-38.962 -88.957)"/>
  <path id="Path_7264" data-name="Path 7264" d="M36.018,130.529c0,2,.016,4,0,5.99-.017,1.647-.237,1.976-1.316,2q-2.341.06-4.682,0c-.935-.028-1.174-.4-1.181-1.8q-.028-6.176,0-12.357c0-1.405.242-1.779,1.174-1.806q2.4-.077,4.805,0c.967.027,1.182.417,1.2,1.987.021,2,0,3.991,0,5.99" transform="translate(-19.086 -81.129)"/>
  <g id="Group_1605" data-name="Group 1605" transform="translate(40.188 41.644)">
    <g id="Group_1604" data-name="Group 1604" transform="translate(0 0)" clip-path="url(#clip-path-2)">
      <path id="Path_7265" data-name="Path 7265" d="M28.325,15.807a3.25,3.25,0,0,1,.051-3.115,1.759,1.759,0,0,0-.522-2.644,3.742,3.742,0,0,1-1.707-3.52,1.552,1.552,0,0,0-1.253-1.685c-.453-.145-.9-.305-1.363-.421a2.5,2.5,0,0,1-1.682-1.409c-.921-1.788-1.158-1.9-3.142-1.571A3.4,3.4,0,0,1,15.775.761c-1.2-.979-1.765-1.012-2.932-.1a3.538,3.538,0,0,1-3.553.8,3.746,3.746,0,0,0-.622-.068c-.844-.132-1.395.482-1.786,1.313A3.567,3.567,0,0,1,4.133,4.918c-1.344.244-1.721.759-1.723,2.214A3.55,3.55,0,0,1,.973,10.2c-1.1.857-1.217,1.425-.6,2.744a3.412,3.412,0,0,1-.018,3.514,1.781,1.781,0,0,0,.455,2.432,4.679,4.679,0,0,1,.947.857,4.884,4.884,0,0,1,.821,1.889c.21,2.179.2,2.262,2.269,2.834a3.009,3.009,0,0,1,2.091,1.55C7.86,27.83,8,27.873,10.074,27.6a3.44,3.44,0,0,1,2.823.593c1.4,1.11,1.821,1.086,3.284.029a3.338,3.338,0,0,1,3.044-.706c1.442.386,1.98.123,2.682-1.214a3.659,3.659,0,0,1,2.92-2.2,1.673,1.673,0,0,0,1.5-1.658,7.891,7.891,0,0,0,.095-1.136,2.588,2.588,0,0,1,1.088-2.2c1.452-1.192,1.581-1.606.82-3.3" transform="translate(0 0)"/>
      <path id="Path_7266" data-name="Path 7266" d="M36.954,29.542l-6.807,6.7-3.32-3.119L24.55,35.667,30.1,41.182l9.385-9.253Z" transform="translate(-17.533 -21.099)" fill="#ffde0b"/>
    </g>
  </g>
</svg>
