<svg id="Monitor_Impacts_icon" data-name="Monitor Impacts icon" xmlns="http://www.w3.org/2000/svg" xmlns:xlink="http://www.w3.org/1999/xlink" width="78.711" height="87.025" viewBox="0 0 78.711 87.025">
  <defs>
    <clipPath id="clip-path">
      <rect id="Rectangle_1130" data-name="Rectangle 1130" width="78.711" height="87.025" transform="translate(-8 -6)" fill="none"/>
    </clipPath>
  </defs>
  <g id="Group_1609" data-name="Group 1609" transform="translate(8 6)">
    <g id="Group_1608" data-name="Group 1608" transform="translate(0 0)" clip-path="url(#clip-path)">
      <path id="Path_7278" data-name="Path 7278" d="M411.8,94.133a4.083,4.083,0,1,1,5.621,1.321,4.083,4.083,0,0,1-5.621-1.321" transform="translate(-350.784 -69.167)" fill="#ffde0b"/>
      <rect id="Rectangle_1124" data-name="Rectangle 1124" width="9.842" height="2.308" transform="matrix(0.85, -0.527, 0.527, 0.85, 53.706, 28.024)" fill="#ffde0b"/>
      <path id="Path_7279" data-name="Path 7279" d="M346.788,125.969a.271.271,0,0,0-.482.041l-2.7,6.628a.28.28,0,0,0,.208.337l7.135.539a.271.271,0,0,0,.251-.413Z" transform="translate(-292.495 -101.891)" fill="#ffde0b"/>
      <path id="Path_7280" data-name="Path 7280" d="M32.219,321.793a4.1,4.1,0,1,0-.454,5.776,4.1,4.1,0,0,0,.454-5.776" transform="translate(-25.238 -263.82)" fill="#ffde0b"/>
      <rect id="Rectangle_1125" data-name="Rectangle 1125" width="9.876" height="2.315" transform="translate(4.627 58.338) rotate(-40.509)" fill="#ffde0b"/>
      <path id="Path_7281" data-name="Path 7281" d="M85.8,275.835a.272.272,0,0,1,.186-.448l7.159-.553a.281.281,0,0,1,.258.3l-1.663,6.985a.272.272,0,0,1-.472.114Z" transform="translate(-77.614 -224.557)" fill="#ffde0b"/>
      <rect id="Rectangle_1126" data-name="Rectangle 1126" width="2.315" height="9.876" transform="matrix(0.65, -0.76, 0.76, 0.65, 45.418, 50.736)" fill="#ffde0b"/>
      <path id="Path_7284" data-name="Path 7284" d="M205.363,403.792A4.147,4.147,0,1,0,209.449,408a4.147,4.147,0,0,0-4.087-4.206" transform="translate(-173.494 -334.297)" fill="#ffde0b"/>
      <rect id="Rectangle_1127" data-name="Rectangle 1127" width="9.996" height="2.344" transform="translate(30.572 71.528) rotate(-89.173)" fill="#ffde0b"/>
      <path id="Path_7285" data-name="Path 7285" d="M198.9,324.881a.276.276,0,0,1-.216-.441l4.366-5.81a.285.285,0,0,1,.4.006l4.2,5.934a.276.276,0,0,1-.229.435Z" transform="translate(-171.31 -260.776)" fill="#ffde0b"/>
      <path id="Path_7286" data-name="Path 7286" d="M208.226,8.293a4.147,4.147,0,1,0-4.087-4.206,4.147,4.147,0,0,0,4.087,4.206" transform="translate(-176.436 -3.239)" fill="#ffde0b"/>
      <rect id="Rectangle_1128" data-name="Rectangle 1128" width="9.996" height="2.344" transform="translate(30.599 12.983) rotate(-89.173)" fill="#ffde0b"/>
      <path id="Path_7287" data-name="Path 7287" d="M209.819,98.742a.276.276,0,0,1,.216.441l-4.366,5.81a.285.285,0,0,1-.4-.006l-4.2-5.934a.276.276,0,0,1,.229-.435Z" transform="translate(-173.746 -88.296)" fill="#ffde0b"/>
      <path id="Path_7288" data-name="Path 7288" d="M7.5,90.873a4.083,4.083,0,1,0-5.653,1.175A4.083,4.083,0,0,0,7.5,90.873" transform="translate(-5.459 -67.206)" fill="#ffde0b"/>
      <rect id="Rectangle_1129" data-name="Rectangle 1129" width="2.308" height="9.842" transform="translate(-0.231 23.445) rotate(-56.744)" fill="#ffde0b"/>
      <path id="Path_7289" data-name="Path 7289" d="M74.413,124.573a.271.271,0,0,1,.481.053l2.523,6.7a.28.28,0,0,1-.217.331l-7.146.355a.271.271,0,0,1-.24-.42Z" transform="translate(-65.633 -101.62)" fill="#ffde0b"/>
    </g>
  </g>
  <ellipse id="Ellipse_394" data-name="Ellipse 394" cx="14.5" cy="14" rx="14.5" ry="14" transform="translate(25.306 29.648)" fill="#2b80f5"/>
  <path id="Path_7293" data-name="Path 7293" d="M201.354,194.91v0a5.358,5.358,0,0,0-3.126-3.531,3.053,3.053,0,0,0,1.434-3.585,3.02,3.02,0,0,0-5.736-.053,3.063,3.063,0,0,0,1.413,3.636,4.448,4.448,0,0,0-3.12,3.531c-.027.232-.032.935-.032.935a7.041,7.041,0,0,0,9.3-.1Zm-6.869-6.221a2.3,2.3,0,1,1,4.6.039s0,.008,0,.012a2.289,2.289,0,0,1-2.309,2.268h-.01a2.3,2.3,0,0,1-2.28-2.319m5.85,7.1a6.088,6.088,0,0,1-2.883,1.046c-.091.009-.183.027-.274.03-.134,0-.269,0-.4,0h0A6.283,6.283,0,0,1,193,195.634a.248.248,0,0,1-.125-.259,3.925,3.925,0,0,1,7.755-.315c.107.54.182.4-.3.731" transform="translate(-156.972 -155.176)" fill="#fff"/>
  <rect id="Rectangle_1134" data-name="Rectangle 1134" width="13" height="4" transform="translate(34.154 39.648)" fill="#2b80f5"/>
  <path id="Path_7291" data-name="Path 7291" d="M132.545,155.718v0a5.347,5.347,0,0,0-3.12-3.523,3.047,3.047,0,0,0,1.432-3.578,3.013,3.013,0,0,0-5.724-.053,3.056,3.056,0,0,0,1.41,3.629,4.439,4.439,0,0,0-3.114,3.523c-.027.232-.032.933-.032.933a7.027,7.027,0,0,0,9.281-.1Zm-6.855-6.209a2.3,2.3,0,0,1,4.59.039v.012a2.284,2.284,0,0,1-2.3,2.263h-.01a2.3,2.3,0,0,1-2.276-2.315m5.838,7.088a6.078,6.078,0,0,1-2.877,1.044c-.091.009-.182.027-.274.03-.134,0-.269,0-.4,0h0a6.271,6.271,0,0,1-3.761-1.231.248.248,0,0,1-.125-.259,3.918,3.918,0,0,1,7.74-.314c.107.539.181.4-.3.73" transform="translate(-96.391 -109.307)" fill="#fff"/>
  <path id="Path_7292" data-name="Path 7292" d="M275.162,155.718v0a5.347,5.347,0,0,0-3.12-3.523,3.047,3.047,0,0,0,1.432-3.578,3.013,3.013,0,0,0-5.724-.053,3.057,3.057,0,0,0,1.41,3.629,4.439,4.439,0,0,0-3.114,3.523c-.027.232-.032.933-.032.933a7.027,7.027,0,0,0,9.281-.1Zm-6.855-6.209a2.3,2.3,0,0,1,4.591.039v.012a2.284,2.284,0,0,1-2.3,2.263h-.01a2.3,2.3,0,0,1-2.276-2.315m5.838,7.088a6.077,6.077,0,0,1-2.877,1.044c-.091.009-.182.027-.274.03-.134,0-.269,0-.4,0h0a6.271,6.271,0,0,1-3.761-1.231.248.248,0,0,1-.125-.259,3.918,3.918,0,0,1,7.74-.314c.107.539.181.4-.3.73" transform="translate(-222.521 -109.307)" fill="#fff"/>
  <path id="Path_7294" data-name="Path 7294" d="M-.633,0H11V3H0Z" transform="translate(27.154 46.648)" fill="#2b80f5"/>
  <path id="Path_7295" data-name="Path 7295" d="M0,0H12.2L10.849,2.647,0,3Z" transform="translate(41.154 46.648)" fill="#2b80f5"/>
  <path id="Path_7290" data-name="Path 7290" d="M202.73,196.293v0a6.162,6.162,0,0,0-3.6-4.06,3.511,3.511,0,0,0,1.65-4.123,3.473,3.473,0,0,0-6.6-.061,3.522,3.522,0,0,0,1.625,4.182,5.116,5.116,0,0,0-3.588,4.06c-.032.267-.037,1.075-.037,1.075a8.1,8.1,0,0,0,10.7-.11Zm-7.9-7.155a2.645,2.645,0,0,1,5.29.045s0,.01,0,.014a2.632,2.632,0,0,1-2.656,2.608h-.012a2.645,2.645,0,0,1-2.622-2.668m6.728,8.169a7,7,0,0,1-3.316,1.2c-.105.01-.21.031-.316.035-.155,0-.31,0-.464,0h0a7.226,7.226,0,0,1-4.334-1.418.286.286,0,0,1-.144-.3,4.515,4.515,0,0,1,8.919-.362c.123.621.209.464-.345.841" transform="translate(-157.67 -144.8)" fill="#fff"/>
  <rect id="Rectangle_1131" data-name="Rectangle 1131" width="13" height="3" transform="translate(33.154 51.648)" fill="#2b80f5"/>
  <path id="Path_7296" data-name="Path 7296" d="M600.006,40.683c-.137-.164-.293-.334-.478-.519q-3.622-3.626-7.247-7.249l-1.591-1.59c-.057-.056-.113-.112-.168-.17a1.283,1.283,0,0,1-.445-.776,1.269,1.269,0,0,1,.287-.864,18.416,18.416,0,0,0,3-8.343,20.06,20.06,0,0,0,.055-3.687,17.964,17.964,0,0,0-1.437-5.8,19.625,19.625,0,0,0-3.67-5.709,18.68,18.68,0,0,0-5.154-3.836,19.08,19.08,0,0,0-5.681-1.9,19.757,19.757,0,0,0-4.864-.16,18.054,18.054,0,0,0-5.421,1.335A18.389,18.389,0,0,0,558.7,8.2a19.608,19.608,0,0,0-3.185,7.981c-.042.273-.081.553-.119.824q-.023.165-.047.33v3.451q.046.289.091.578c.07.451.142.917.224,1.368a18.916,18.916,0,0,0,2.3,6.04,17.815,17.815,0,0,0,5.618,6.041,19.386,19.386,0,0,0,8.336,3.193,20.059,20.059,0,0,0,4.475.041,18.353,18.353,0,0,0,8.2-2.851c.169-.109.31-.2.445-.279a1.219,1.219,0,0,1,.235-.107l.06-.022.447-.175.362.315.1.087c.1.082.21.175.321.286l1.855,1.845c2.253,2.24,4.582,4.556,6.863,6.845a4.777,4.777,0,0,0,1.87,1.334h1.29a4.034,4.034,0,0,0,1.255-.69,2.777,2.777,0,0,0,.3-3.954M583.961,28.354a13.505,13.505,0,0,1-9.562,4.1h-.006a13.492,13.492,0,0,1-9.357-3.91A13.366,13.366,0,0,1,574.393,5.7h.006a13.074,13.074,0,0,1,5.26,1.1,13.6,13.6,0,0,1,4.291,2.964,13.07,13.07,0,0,1,3.791,9.312,12.843,12.843,0,0,1-3.78,9.277" transform="translate(-534.531 23.984)"/>
</svg>
