<svg xmlns="http://www.w3.org/2000/svg" xmlns:xlink="http://www.w3.org/1999/xlink" width="61.328" height="65.585" viewBox="0 0 61.328 65.585">
  <defs>
    <clipPath id="clip-path">
      <rect id="Rectangle_1118" data-name="Rectangle 1118" width="59.085" height="65.585" fill="#ffde0b"/>
    </clipPath>
  </defs>
  <g id="Monitor_staff_progres" data-name="Monitor staff progres" transform="translate(0.15)">
    <g id="Group_1595" data-name="Group 1595" transform="translate(2 0.001)">
      <g id="Group_1594" data-name="Group 1594" transform="translate(0 -0.001)" clip-path="url(#clip-path)">
        <path id="Path_7235" data-name="Path 7235" d="M34.477,18.78a7.328,7.328,0,0,1-8.295,2.864,8.563,8.563,0,0,1-1.958-.979.9.9,0,0,0-1.163,0c-2.866,2.023-5.752,4.019-8.645,6.033.1.578.226,1.13.277,1.689a6.987,6.987,0,0,1-3.367,6.933,6.874,6.874,0,0,1-7.641.155,7.354,7.354,0,0,1-.125-12.62c2.085-1.328,6.142-1.351,8.024.281a.874.874,0,0,0,1.272.008c2.549-1.813,5.121-3.6,7.7-5.371.891-.613.907-.589.673-1.611A7.318,7.318,0,0,1,27.6,7.321a7.4,7.4,0,0,1,8.138,7.143c.021.5.142.791.648.959,2.269.751,4.528,1.534,6.943,2.358a1.884,1.884,0,0,1,.16-.305A7.286,7.286,0,0,1,53.4,15.786a1.064,1.064,0,0,0,1.433,0c2.644-1.868-4.085,2.956-1.412,1.131.462-.315,2.514,2.913,2.221,3.116-2.1,1.457,5.193-3.745,3.091-2.289-.648.449-1.288.912-1.953,1.334a.744.744,0,0,0-.346.955,7.268,7.268,0,0,1-3.028,8,7.544,7.544,0,0,1-9-.7,7.2,7.2,0,0,1-2.353-5.36c0-.364-.069-.619-.456-.75-2.366-.8-4.728-1.62-7.12-2.442m-6.142-7.627a3.414,3.414,0,0,0-3.491,3.456,3.454,3.454,0,0,0,3.507,3.539,3.5,3.5,0,1,0-.017-6.995m21.034,7.211a3.483,3.483,0,0,0-3.523,3.517,3.518,3.518,0,1,0,7.036.016,3.535,3.535,0,0,0-3.513-3.533M10.882,29.214A3.419,3.419,0,0,0,7.53,25.645a3.523,3.523,0,0,0-.262,7.042,3.431,3.431,0,0,0,3.614-3.473" transform="translate(-0.038 0.001)" fill="#ffde0b"/>
        <path id="Path_7236" data-name="Path 7236" d="M128.4,196.2q0-7.674,0-15.349c0-1.959.955-2.927,2.886-2.928q4.49,0,8.981,0a2.6,2.6,0,0,1,2.87,2.878q.008,14.7,0,29.391c0,.463.005.925,0,1.388a2.6,2.6,0,0,1-2.864,2.828c-1.252.013-2.5,0-3.756,0-1.66,0-3.32,0-4.98,0-2.249,0-3.135-.875-3.137-3.106q-.008-7.552,0-15.1" transform="translate(-107.413 -148.851)" fill="#ffde0b"/>
        <path id="Path_7237" data-name="Path 7237" d="M271.692,236.833c0,3.893-.059,7.788.026,11.679a2.77,2.77,0,0,1-2.991,2.962c-2.993-.07-5.989-.014-8.984-.027a2.422,2.422,0,0,1-2.549-1.646,4.824,4.824,0,0,1-.142-1.448q-.014-8.535-.007-17.071c0-2.1-.006-4.193,0-6.289a2.449,2.449,0,0,1,2.7-2.769c3.1-.032,6.208-.026,9.311,0a2.475,2.475,0,0,1,2.637,2.683c.009,3.975,0,7.95,0,11.925" transform="translate(-215.037 -185.89)" fill="#ffde0b"/>
        <path id="Path_7238" data-name="Path 7238" d="M.021,277.6c0-2.693.055-5.388-.019-8.08A2.686,2.686,0,0,1,3,266.6c2.908.08,5.823.105,8.73.006a2.831,2.831,0,0,1,3.054,3.085c-.048,5.251-.016,10.5-.021,15.753,0,2.174-.978,3.151-3.133,3.153q-4.284,0-8.567,0a5.468,5.468,0,0,1-.974-.068,2.338,2.338,0,0,1-2.063-2.522c-.007-2.8,0-5.6,0-8.407Z" transform="translate(0 -223.034)" fill="#ffde0b"/>
      </g>
    </g>
    <g id="Group_1596" data-name="Group 1596" transform="translate(-310.771 -474.453)">
      <ellipse id="Ellipse_392" data-name="Ellipse 392" cx="8.248" cy="8.592" rx="8.248" ry="8.592" transform="translate(311.537 495.456)" fill="#ffde0b"/>
      <path id="Path_7239" data-name="Path 7239" d="M91.8,83.013A9.01,9.01,0,1,1,82.771,92,9.025,9.025,0,0,1,91.8,83.013m5.827,14.643a8.132,8.132,0,1,0-11.688,0,6.033,6.033,0,0,1,3.992-4.517,3.919,3.919,0,0,1-1.808-4.656,3.862,3.862,0,0,1,7.339.068,3.907,3.907,0,0,1-1.835,4.587,6.05,6.05,0,0,1,4,4.518m-5.86,2.5c.172,0,.345,0,.517,0,.117,0,.234-.027.351-.039a7.792,7.792,0,0,0,3.689-1.338c.617-.419.521-.243.384-.934a5.022,5.022,0,0,0-9.923.4.318.318,0,0,0,.16.332,8.04,8.04,0,0,0,4.822,1.578m0-7.5a2.927,2.927,0,0,0,2.955-2.918,2.943,2.943,0,1,0-2.955,2.918" transform="translate(228 411.987)" stroke="#000" stroke-width="0.3"/>
    </g>
    <g id="Group_1597" data-name="Group 1597" transform="translate(-288.771 -490.453)">
      <ellipse id="Ellipse_392-2" data-name="Ellipse 392" cx="8.248" cy="8.592" rx="8.248" ry="8.592" transform="translate(311.537 495.456)" fill="#ffde0b"/>
      <path id="Path_7239-2" data-name="Path 7239" d="M91.8,83.013A9.01,9.01,0,1,1,82.771,92,9.025,9.025,0,0,1,91.8,83.013m5.827,14.643a8.132,8.132,0,1,0-11.688,0,6.033,6.033,0,0,1,3.992-4.517,3.919,3.919,0,0,1-1.808-4.656,3.862,3.862,0,0,1,7.339.068,3.907,3.907,0,0,1-1.835,4.587,6.05,6.05,0,0,1,4,4.518m-5.86,2.5c.172,0,.345,0,.517,0,.117,0,.234-.027.351-.039a7.792,7.792,0,0,0,3.689-1.338c.617-.419.521-.243.384-.934a5.022,5.022,0,0,0-9.923.4.318.318,0,0,0,.16.332,8.04,8.04,0,0,0,4.822,1.578m0-7.5a2.927,2.927,0,0,0,2.955-2.918,2.943,2.943,0,1,0-2.955,2.918" transform="translate(228 411.987)" stroke="#000" stroke-width="0.3"/>
    </g>
    <g id="Group_1598" data-name="Group 1598" transform="translate(-267.771 -481.443)">
      <ellipse id="Ellipse_392-3" data-name="Ellipse 392" cx="8.248" cy="8.592" rx="8.248" ry="8.592" transform="translate(311.537 495.456)" fill="#ffde0b"/>
      <path id="Path_7239-3" data-name="Path 7239" d="M91.8,83.013A9.01,9.01,0,1,1,82.771,92,9.025,9.025,0,0,1,91.8,83.013m5.827,14.643a8.132,8.132,0,1,0-11.688,0,6.033,6.033,0,0,1,3.992-4.517,3.919,3.919,0,0,1-1.808-4.656,3.862,3.862,0,0,1,7.339.068,3.907,3.907,0,0,1-1.835,4.587,6.05,6.05,0,0,1,4,4.518m-5.86,2.5c.172,0,.345,0,.517,0,.117,0,.234-.027.351-.039a7.792,7.792,0,0,0,3.689-1.338c.617-.419.521-.243.384-.934a5.022,5.022,0,0,0-9.923.4.318.318,0,0,0,.16.332,8.04,8.04,0,0,0,4.822,1.578m0-7.5a2.927,2.927,0,0,0,2.955-2.918,2.943,2.943,0,1,0-2.955,2.918" transform="translate(228 411.987)" stroke="#000" stroke-width="0.3"/>
    </g>
  </g>
</svg>
