<svg id="Number_of_active_clients" data-name="Number of active clients" xmlns="http://www.w3.org/2000/svg" width="29.963" height="29.963" viewBox="0 0 29.963 29.963">
  <g id="Group_909" data-name="Group 909">
    <g id="Path_7766" data-name="Path 7766" fill="none">
      <path d="M14.981,0A14.981,14.981,0,1,1,0,14.981,14.981,14.981,0,0,1,14.981,0Z" stroke="none"/>
      <path d="M 14.98136138916016 2.000001907348633 C 11.51391220092773 2.000001907348633 8.254011154174805 3.350301742553711 5.802150726318359 5.802150726318359 C 3.350301742553711 8.254011154174805 2.000001907348633 11.51391220092773 2.000001907348633 14.98136138916016 C 2.000001907348633 18.44881057739258 3.350301742553711 21.70871162414551 5.802150726318359 24.16057205200195 C 8.254011154174805 26.6124210357666 11.51391220092773 27.96272087097168 14.98136138916016 27.96272087097168 C 18.44881057739258 27.96272087097168 21.70871162414551 26.6124210357666 24.16057205200195 24.16057205200195 C 26.6124210357666 21.70871162414551 27.96272087097168 18.44881057739258 27.96272087097168 14.98136138916016 C 27.96272087097168 11.51391220092773 26.6124210357666 8.254011154174805 24.16057205200195 5.802150726318359 C 21.70871162414551 3.350301742553711 18.44881057739258 2.000001907348633 14.98136138916016 2.000001907348633 M 14.98136138916016 1.9073486328125e-06 C 23.25534057617188 1.9073486328125e-06 29.96272087097168 6.707382202148438 29.96272087097168 14.98136138916016 C 29.96272087097168 23.25534057617188 23.25534057617188 29.96272087097168 14.98136138916016 29.96272087097168 C 6.707382202148438 29.96272087097168 1.9073486328125e-06 23.25534057617188 1.9073486328125e-06 14.98136138916016 C 1.9073486328125e-06 6.707382202148438 6.707382202148438 1.9073486328125e-06 14.98136138916016 1.9073486328125e-06 Z" stroke="none" fill="#000"/>
    </g>
  </g>
  <path id="Path" d="M11.042.332a1.158,1.158,0,0,1,1.622,0,1.122,1.122,0,0,1,0,1.6L5.782,8.727a1.158,1.158,0,0,1-1.622,0L.336,4.953a1.122,1.122,0,0,1,0-1.6,1.158,1.158,0,0,1,1.622,0L4.971,6.325Z" transform="translate(8.981 11.452)" fill="#1a051d"/>
</svg>
