<svg id="Plan_for_Community_Needs_icon" data-name="Plan for Community  Needs icon" xmlns="http://www.w3.org/2000/svg" xmlns:xlink="http://www.w3.org/1999/xlink" width="57.443" height="65.649" viewBox="0 0 57.443 65.649">
  <defs>
    <clipPath id="clip-path">
      <rect id="Rectangle_1136" data-name="Rectangle 1136" width="57.443" height="65.649" fill="none"/>
    </clipPath>
  </defs>
  <g id="Group_1610" data-name="Group 1610" clip-path="url(#clip-path)">
    <path id="Path_7297" data-name="Path 7297" d="M0,32.831Q0,20.7.006,8.573a8.46,8.46,0,0,1,1.814-5.4A8.066,8.066,0,0,1,4.8.82,8.488,8.488,0,0,1,8.02.041C8.431.023,8.841,0,9.252,0Q28.986,0,48.72,0A8.86,8.86,0,0,1,53.4,1.221a8.362,8.362,0,0,1,2.788,2.772A8.239,8.239,0,0,1,57.4,7.967c.031.532.043,1.066.043,1.6q0,23.641,0,47.282a9.329,9.329,0,0,1-.832,4.048A8.36,8.36,0,0,1,51.2,65.351a9.81,9.81,0,0,1-2.342.292q-20.134.009-40.268,0a8.891,8.891,0,0,1-3.88-.836,8.364,8.364,0,0,1-2.331-1.7,8.235,8.235,0,0,1-2.3-4.85,9.378,9.378,0,0,1-.075-1.23Q0,44.927,0,32.831" transform="translate(0 0)" fill="#ffde0b"/>
    <path id="Path_7298" data-name="Path 7298" d="M21.95,52.783V66.692h3.233c-.217-.33-.52-.6-.57-.917a1.687,1.687,0,0,1,.186-1.183,1.078,1.078,0,0,1,1.039.023c.951.805,1.842,1.686,2.715,2.578a1,1,0,0,1-.1,1.517q-1.263,1.268-2.584,2.476c-.451.414-1.061.693-1.455.07-.191-.3-.007-.916.145-1.339a5.2,5.2,0,0,1,.852-1.1c-1.038,0-1.828.045-2.612-.009A2.656,2.656,0,0,1,20,65.867c-.03-2.33-.04-9.895.01-12.224a2.731,2.731,0,0,1,2.738-2.886c1.587-.084,3.181-.019,4.772.006.588.01,1.223.129,1.264.857.045.812-.574,1.04-1.258,1.054-1.193.023-2.387,0-3.58.019-.61.008-1.22.054-1.995.09" transform="translate(-13.159 -33.412)"/>
    <path id="Path_7299" data-name="Path 7299" d="M22.121,143.261H25.6a4.277,4.277,0,0,1-.749-1.024c-.105-.328-.114-.939.067-1.052a1.32,1.32,0,0,1,1.193-.087,31.079,31.079,0,0,1,2.719,2.569,1,1,0,0,1-.135,1.514q-1.268,1.262-2.578,2.481c-.387.358-.839.641-1.357.2-.59-.5-.341-1.007.029-1.491.235-.308.495-.6.977-1.173-1.038,0-1.8.017-2.561,0-2.043-.055-2.919-.894-2.947-2.9-.032-2.272-.037-4.545,0-6.817a2.79,2.79,0,0,1,2.929-3.042c1.476-.045,2.954-.012,4.431,0a1.417,1.417,0,0,1,.819.136,1.582,1.582,0,0,1,.577.921c.021.223-.336.636-.59.7a8.565,8.565,0,0,1-1.852.187c-1.135.029-2.272.006-3.408.025-.558.01-1.035.194-1.038.862-.011,2.6,0,5.2,0,7.989" transform="translate(-13.328 -87.237)"/>
    <path id="Path_7300" data-name="Path 7300" d="M129.212,110.006h-3.475a4.277,4.277,0,0,0,.749-1.024c.105-.328.114-.939-.067-1.052a1.32,1.32,0,0,0-1.193-.087,31.074,31.074,0,0,0-2.719,2.569,1,1,0,0,0,.135,1.514q1.268,1.262,2.578,2.481c.387.358.839.641,1.357.2.59-.5.341-1.007-.029-1.491-.235-.308-.495-.6-.977-1.173,1.038,0,1.8.017,2.561,0,2.043-.055,2.919-.894,2.947-2.9.032-2.272.037-4.545,0-6.817a2.79,2.79,0,0,0-2.929-3.042c-1.476-.045-2.954-.012-4.431,0a1.417,1.417,0,0,0-.819.136,1.582,1.582,0,0,0-.577.921c-.021.223.336.636.59.7a8.565,8.565,0,0,0,1.852.187c1.135.029,2.272.006,3.408.025.558.01,1.035.194,1.038.862.011,2.6,0,5.2,0,7.989" transform="translate(-80.516 -65.329)"/>
    <path id="Path_7301" data-name="Path 7301" d="M54.486,98.752c-.851,0-1.7.027-2.552-.007a1.652,1.652,0,0,1-1.746-1.538,19.74,19.74,0,0,1,0-3.561,1.589,1.589,0,0,1,1.738-1.518c1.7-.005,18-.047,19.7.02,1.124.045,1.6.577,1.671,1.738a26.186,26.186,0,0,1,0,3.062,1.684,1.684,0,0,1-1.825,1.8c-.79.055-16.187.01-16.981.01Zm-2.3-2H71.326V94.1H52.189Z" transform="translate(-33.01 -60.682)"/>
    <path id="Path_7302" data-name="Path 7302" d="M54.486,132.055c-.851,0-1.7.027-2.552-.007a1.652,1.652,0,0,1-1.746-1.538,19.744,19.744,0,0,1,0-3.562,1.588,1.588,0,0,1,1.738-1.518c1.7-.005,18-.048,19.7.02,1.124.045,1.6.577,1.671,1.738a26.186,26.186,0,0,1,0,3.062,1.684,1.684,0,0,1-1.825,1.8c-.79.055-16.187.01-16.981.01Zm-2.3-2H71.326v-2.645H52.189Z" transform="translate(-33.01 -82.622)"/>
    <path id="Path_7303" data-name="Path 7303" d="M54.486,164.471c-.851,0-1.7.027-2.552-.007a1.652,1.652,0,0,1-1.746-1.538,19.74,19.74,0,0,1,0-3.561,1.588,1.588,0,0,1,1.738-1.518c1.7-.005,18-.048,19.7.02,1.124.045,1.6.577,1.671,1.738a26.186,26.186,0,0,1,0,3.062,1.684,1.684,0,0,1-1.825,1.8c-.79.055-16.187.011-16.981.011Zm-2.3-2H71.326v-2.645H52.189Z" transform="translate(-33.01 -103.978)"/>
    <path id="Path_7304" data-name="Path 7304" d="M62.354,8.178a11.7,11.7,0,0,1,11.9,11.485,11.9,11.9,0,0,1-23.79,0,11.7,11.7,0,0,1,11.9-11.485" transform="translate(-33.243 -5.388)" fill="#3d81ec"/>
    <path id="Path_7305" data-name="Path 7305" d="M81.8,19.836h0a4.411,4.411,0,0,0-2.573-2.907,2.513,2.513,0,0,0,1.181-2.951,2.486,2.486,0,0,0-4.722-.044,2.522,2.522,0,0,0,1.163,2.993,3.662,3.662,0,0,0-2.569,2.907c-.022.191-.026.77-.026.77a5.8,5.8,0,0,0,7.656-.082Zm-5.655-5.121a1.894,1.894,0,0,1,3.787.032v.01a1.884,1.884,0,0,1-1.9,1.867h-.008a1.893,1.893,0,0,1-1.877-1.909m4.816,5.845a5.012,5.012,0,0,1-2.373.861c-.075.008-.151.022-.226.025h-.329a5.17,5.17,0,0,1-3.111-1.013.2.2,0,0,1-.1-.213,3.231,3.231,0,0,1,6.384-.259c.088.445.15.329-.247.6" transform="translate(-48.919 -8.069)" fill="#fff"/>
    <rect id="Rectangle_1135" data-name="Rectangle 1135" width="11.39" height="3.505" transform="translate(24.16 11.552)" fill="#3d81ec"/>
    <path id="Path_7306" data-name="Path 7306" d="M61.991,37.811h0a4.234,4.234,0,0,0-2.47-2.79,2.413,2.413,0,0,0,1.134-2.833,2.386,2.386,0,0,0-4.532-.042,2.419,2.419,0,0,0,1.116,2.873,3.515,3.515,0,0,0-2.466,2.79c-.021.184-.025.739-.025.739a5.564,5.564,0,0,0,7.348-.079Zm-5.428-4.916a1.821,1.821,0,0,1,3.634.031v.009a1.809,1.809,0,0,1-1.821,1.792h-.008a1.821,1.821,0,0,1-1.8-1.833m4.622,5.612a4.812,4.812,0,0,1-2.278.827c-.072.007-.144.021-.217.024h-.317a4.965,4.965,0,0,1-2.978-.974.2.2,0,0,1-.1-.205,3.1,3.1,0,0,1,6.128-.249c.085.427.143.317-.237.578" transform="translate(-36.068 -20.111)" fill="#fff"/>
    <path id="Path_7307" data-name="Path 7307" d="M102.058,37.74h0a4.25,4.25,0,0,0-2.479-2.8,2.421,2.421,0,0,0,1.138-2.843,2.394,2.394,0,0,0-4.548-.042,2.429,2.429,0,0,0,1.12,2.883,3.527,3.527,0,0,0-2.474,2.8c-.021.184-.025.741-.025.741a5.583,5.583,0,0,0,7.374-.079Zm-5.447-4.933a1.827,1.827,0,0,1,3.648.031v.01a1.814,1.814,0,0,1-1.827,1.8h-.008a1.828,1.828,0,0,1-1.808-1.839m4.639,5.632a4.825,4.825,0,0,1-2.286.829c-.072.007-.145.021-.218.024h-.318a4.981,4.981,0,0,1-2.988-.978.2.2,0,0,1-.1-.206,3.113,3.113,0,0,1,6.15-.249c.085.428.144.318-.238.58" transform="translate(-62.448 -20.048)" fill="#fff"/>
    <path id="Path_7308" data-name="Path 7308" d="M51.963,50.391l9.935.492v2.628l-7.99-.316Z" transform="translate(-34.234 -33.198)" fill="#3d81ec"/>
    <path id="Path_7309" data-name="Path 7309" d="M88.786,51.834l9.893.023-1.868,2.524-8.025.082Z" transform="translate(-58.493 -34.148)" fill="#3d81ec"/>
    <path id="Path_7310" data-name="Path 7310" d="M81.487,49.316h0A4.773,4.773,0,0,0,78.7,46.171a2.72,2.72,0,0,0,1.278-3.194,2.69,2.69,0,0,0-5.113-.047,2.728,2.728,0,0,0,1.259,3.24,3.963,3.963,0,0,0-2.779,3.145c-.025.207-.029.833-.029.833a6.274,6.274,0,0,0,8.289-.085Zm-6.12-5.543a2.049,2.049,0,1,1,4.1.035v.011a2.039,2.039,0,0,1-2.057,2.021H77.4a2.049,2.049,0,0,1-2.031-2.067h0M80.579,50.1a5.419,5.419,0,0,1-2.569.929c-.081.008-.162.024-.245.027h-.359a5.6,5.6,0,0,1-3.357-1.1.222.222,0,0,1-.112-.233,3.5,3.5,0,0,1,6.909-.28c.1.481.162.359-.267.651" transform="translate(-48.3 -27.077)" fill="#fff"/>
    <path id="Path_7311" data-name="Path 7311" d="M68.242,64.673h11.39l-3.327,3-5.927-.543Z" transform="translate(-44.959 -42.607)" fill="#3d81ec"/>
  </g>
</svg>
