<svg id="Print_report_large" data-name="Print report large" xmlns="http://www.w3.org/2000/svg" xmlns:xlink="http://www.w3.org/1999/xlink" width="53.279" height="50.076" viewBox="0 0 53.279 50.076">
  <defs>
    <clipPath id="clip-path">
      <rect id="Rectangle_757" data-name="Rectangle 757" width="53.279" height="50.076" fill="#fff"/>
    </clipPath>
  </defs>
  <g id="Group_902" data-name="Group 902" clip-path="url(#clip-path)">
    <path id="Path_1069" data-name="Path 1069" d="M45.162,38.5c.847,0,1.495.014,2.141,0a5.884,5.884,0,0,0,5.948-5.643q.055-5.9,0-11.792A5.871,5.871,0,0,0,47.4,15.435c-.682-.027-1.367,0-2.17,0-.024-.349-.063-.654-.063-.96q-.007-4.108,0-8.216A5.97,5.97,0,0,0,39.071.023Q26.738-.026,14.4.017a5.947,5.947,0,0,0-6.13,5.7c-.051,2.867-.013,5.735-.014,8.6v1.1c-.6,0-1.136.023-1.671,0A6.082,6.082,0,0,0,0,21.571c.11,3.638.084,7.282.008,10.921a6.029,6.029,0,0,0,6.41,6.02c.573-.024,1.149,0,1.839,0v1.227c0,1.418-.007,2.835,0,4.253.023,3.6,2.646,6.079,6.461,6.082q11.974.01,23.948,0c3.788,0,6.393-2.394,6.482-5.965.038-1.513.008-3.029.009-4.543V38.5m-4.213-9.576a2.675,2.675,0,0,1,.082.434c0,4.9.015,9.793-.008,14.689-.007,1.526-.768,2.161-2.475,2.162q-11.818.007-23.635,0c-1.844,0-2.536-.659-2.537-2.406q-.006-7.006,0-14.013c0-.276.043-.553.068-.867ZM12.418,15.372c-.019-.325-.042-.547-.042-.769,0-2.8-.007-5.6,0-8.4,0-1.662.722-2.333,2.507-2.334q11.808-.007,23.616,0c1.809,0,2.519.637,2.529,2.307.017,2.865.008,5.729,0,8.594a3.226,3.226,0,0,1-.112.6ZM9.246,19.3a2.976,2.976,0,0,1,3.069,2.883,3,3,0,0,1-3.031,2.828A2.864,2.864,0,1,1,9.246,19.3" transform="translate(0.001 0)" fill="#fff"/>
  </g>
</svg>
