<svg xmlns="http://www.w3.org/2000/svg" xmlns:xlink="http://www.w3.org/1999/xlink" width="72.711" height="98.501" viewBox="0 0 72.711 98.501">
  <defs>
    <filter id="Path_7798" x="0" y="0" width="72.711" height="72.711" filterUnits="userSpaceOnUse">
      <feOffset dy="1" input="SourceAlpha"/>
      <feGaussianBlur stdDeviation="1.5" result="blur"/>
      <feFlood flood-color="#6a4cbc" flood-opacity="0.455"/>
      <feComposite operator="in" in2="blur"/>
      <feComposite in="SourceGraphic"/>
    </filter>
    <clipPath id="clip-path">
      <rect id="Rectangle_1535" data-name="Rectangle 1535" width="67.318" height="36.127" fill="none" stroke="#ccb9ff" stroke-width="1"/>
    </clipPath>
    <clipPath id="clip-path-2">
      <ellipse id="Ellipse_402" data-name="Ellipse 402" cx="29.432" cy="31.259" rx="29.432" ry="31.259" transform="translate(4.056 3)" fill="none" stroke="#707070" stroke-width="1"/>
    </clipPath>
  </defs>
  <g id="Support_Group" data-name="Support Group" transform="translate(4.5 0.413)">
    <g transform="matrix(1, 0, 0, 1, -4.5, -0.41)" filter="url(#Path_7798)">
      <path id="Path_7798-2" data-name="Path 7798" d="M31.856,0A31.856,31.856,0,1,1,0,31.856,31.856,31.856,0,0,1,31.856,0Z" transform="translate(4.5 3.5)" fill="#ccb9ff"/>
    </g>
    <g id="Group_2447" data-name="Group 2447" transform="translate(-15251.62 19056.088)">
      <g id="Group_2144" data-name="Group 2144" transform="translate(15251.622 -18994.127)">
        <g id="Group_2143" data-name="Group 2143" transform="translate(0 0)" clip-path="url(#clip-path)">
          <path id="Path_7379" data-name="Path 7379" d="M67.318,6.58a11.7,11.7,0,0,1-2.849,4.308A132.587,132.587,0,0,1,46.617,28.043,13.705,13.705,0,0,1,36.664,31.2c-4.705-.429-9.432-.626-14.148-.943a12.978,12.978,0,0,0-7.705,1.882c-1.922,1.15-3.837,2.311-5.76,3.459A3.965,3.965,0,0,1,8,36.106a1.725,1.725,0,0,1-1.579-.723,1.247,1.247,0,0,1,.29-1.546c5.165-3.331,10.1-7.138,16.908-6.331,4.735.561,9.531.6,14.3.9a8.572,8.572,0,0,0,5.715-1.754,108.168,108.168,0,0,0,16.727-15.51c1.074-1.177,2.151-2.353,3.179-3.57a2.714,2.714,0,0,0-.022-3.889c-1.064-1.04-2.548-.935-3.879.171C53.4,9.042,47.161,14.233,40.858,19.339a5.684,5.684,0,0,1-3.1,1.248c-3.629.156-7.268.065-10.9.075-.943,0-1.594-.438-1.61-1.377s.609-1.418,1.56-1.42l.9,0c2.838,0,5.677.007,8.516-.007a6.813,6.813,0,0,0,1.625-.152,2.443,2.443,0,0,0-.528-4.833c-1.443-.046-2.891.047-4.332-.027-3.323-.168-6.656-.282-9.961-.635a14.38,14.38,0,0,0-11.862,4.051,24.615,24.615,0,0,1-4.313,2.879c-1.326.782-2.768,1.366-4.106,2.129-1.027.586-2.035.651-2.667-.344-.421-1.469,1-2.018,1.558-2.307a46.32,46.32,0,0,0,9.291-5.845c3.68-3.161,8.188-3.943,13.03-3.358,3.341.4,6.739.328,10.108.527,1.87.111,3.731.381,5.6.5A2.17,2.17,0,0,0,41,10.006c2.724-2.082,5.481-4.13,8.1-6.343,2.757-2.331,4.313-2.638,7.653-1.02.372-.346.763-.722,1.167-1.083a5.521,5.521,0,0,1,9.1,2.255c.088.229.2.449.3.673ZM42.239,12.951l.487,1.449L54.442,4.837c-1.528-.414-1.727-.419-2.519.222-3.2,2.589-6.381,5.2-9.684,7.893" transform="translate(0 0)" stroke="#ccb9ff" stroke-width="1"/>
        </g>
      </g>
      <g id="Mask_Group_1294" data-name="Mask Group 1294" transform="translate(15250.038 -19056)" clip-path="url(#clip-path-2)">
        <g id="Group_2142" data-name="Group 2142" transform="translate(1.051 27.557)">
          <path id="Subtraction_3" data-name="Subtraction 3" d="M1.94,23.054H0a10.638,10.638,0,0,1,2.727-5.119,12.382,12.382,0,0,1,4.88-3.153A8.139,8.139,0,0,1,4.1,5.328,7.535,7.535,0,0,1,11.2,0a7.193,7.193,0,0,1,2.414.419,7.726,7.726,0,0,1,4.734,5.045,8.306,8.306,0,0,1-.2,5.325,7.858,7.858,0,0,1-3.369,4c3.572,1.255,6.486,5.109,7.519,8.267h-1.86A10.1,10.1,0,0,0,16.884,18a9.361,9.361,0,0,0-7.547-1.733,9.924,9.924,0,0,0-7.4,6.782Zm9.26-21.2A5.555,5.555,0,0,0,7.177,3.59a6.082,6.082,0,0,0-1.692,4.2,5.865,5.865,0,0,0,5.666,6.031h.077a5.526,5.526,0,0,0,4-1.723,6.052,6.052,0,0,0,1.685-4.173V7.888a6.087,6.087,0,0,0-1.639-4.243,5.557,5.557,0,0,0-4.027-1.787Z" transform="translate(4 4.5)" stroke="#000" stroke-width="0.2"/>
          <path id="Subtraction_6" data-name="Subtraction 6" d="M1.853,22.054H0a10.181,10.181,0,0,1,2.6-4.9,11.825,11.825,0,0,1,4.661-3.017A7.792,7.792,0,0,1,3.912,5.1,7.2,7.2,0,0,1,10.7,0,6.861,6.861,0,0,1,13,.4a7.386,7.386,0,0,1,4.521,4.826,7.957,7.957,0,0,1-.186,5.094,7.514,7.514,0,0,1-3.218,3.823c3.412,1.2,6.2,4.887,7.182,7.908H19.525a9.665,9.665,0,0,0-3.4-4.83,8.93,8.93,0,0,0-7.208-1.658,9.484,9.484,0,0,0-7.065,6.488ZM10.7,1.777A5.3,5.3,0,0,0,6.856,3.434,5.823,5.823,0,0,0,5.239,7.448a5.607,5.607,0,0,0,5.412,5.77h.074a5.275,5.275,0,0,0,3.822-1.648,5.794,5.794,0,0,0,1.609-3.992V7.546a5.827,5.827,0,0,0-1.565-4.059,5.3,5.3,0,0,0-3.846-1.71Z" transform="translate(39 5)" stroke="#000" stroke-width="0.2"/>
          <path id="Subtraction_5" data-name="Subtraction 5" d="M2.2,27.834H0a12.276,12.276,0,0,1,3.084-6.5,14.508,14.508,0,0,1,6-3.983A9.539,9.539,0,0,1,4.956,6.252,8.865,8.865,0,0,1,13.316,0a8.488,8.488,0,0,1,2.841.492,9.078,9.078,0,0,1,5.571,5.921,9.721,9.721,0,0,1-.23,6.249,9.225,9.225,0,0,1-3.965,4.689,13.857,13.857,0,0,1,5.892,4.425,16.433,16.433,0,0,1,3.183,6.057H24.415a12.155,12.155,0,0,0-1.568-3.645,11.77,11.77,0,0,0-2.545-2.83,11.223,11.223,0,0,0-6.983-2.483,11.109,11.109,0,0,0-2.2.221,11.3,11.3,0,0,0-5.7,3.046A12.075,12.075,0,0,0,2.2,27.833ZM13.316,2.18A6.546,6.546,0,0,0,8.582,4.213,7.124,7.124,0,0,0,6.591,9.137a6.89,6.89,0,0,0,6.668,7.077h.093a6.511,6.511,0,0,0,4.708-2.021,7.092,7.092,0,0,0,1.983-4.9V9.257a7.133,7.133,0,0,0-1.929-4.979,6.549,6.549,0,0,0-4.739-2.1Z" transform="translate(18.952 7.126)"/>
        </g>
      </g>
      <g id="Path_7793" data-name="Path 7793" transform="translate(15251.621 -19053)" fill="none">
        <path d="M31.856,0A31.856,31.856,0,1,1,0,31.856,31.856,31.856,0,0,1,31.856,0Z" stroke="none"/>
        <path d="M 31.85563850402832 2.499992370605469 C 27.89154815673828 2.499992370605469 24.04737091064453 3.275806427001953 20.42987060546875 4.805881500244141 C 16.93451690673828 6.284294128417969 13.79484939575195 8.401283264160156 11.09807205200195 11.09807205200195 C 8.401283264160156 13.79484939575195 6.284294128417969 16.93451690673828 4.805881500244141 20.42987060546875 C 3.275806427001953 24.04737091064453 2.499992370605469 27.89154815673828 2.499992370605469 31.85563850402832 C 2.499992370605469 35.81972503662109 3.275806427001953 39.66390609741211 4.805881500244141 43.28140258789062 C 6.284294128417969 46.77676010131836 8.401283264160156 49.91642761230469 11.09806060791016 52.61320495605469 C 13.79484939575195 55.30998229980469 16.93451690673828 57.42698287963867 20.42987060546875 58.9053840637207 C 24.04737091064453 60.43545913696289 27.89154815673828 61.21127319335938 31.85563850402832 61.21127319335938 C 35.81972503662109 61.21127319335938 39.66390609741211 60.43545913696289 43.28140258789062 58.9053840637207 C 46.77676010131836 57.42698287963867 49.91642761230469 55.30998229980469 52.61320495605469 52.61320495605469 C 55.30998229980469 49.91642761230469 57.42698287963867 46.77676010131836 58.9053840637207 43.28140258789062 C 60.43545913696289 39.66390609741211 61.21127319335938 35.81972503662109 61.21127319335938 31.85563850402832 C 61.21127319335938 27.89154815673828 60.43545913696289 24.04737091064453 58.9053840637207 20.42987060546875 C 57.42698287963867 16.93451690673828 55.30998229980469 13.79484939575195 52.61320495605469 11.09806060791016 C 49.91642761230469 8.401283264160156 46.77676010131836 6.284294128417969 43.28140258789062 4.805881500244141 C 39.66390609741211 3.275806427001953 35.81972503662109 2.499992370605469 31.85563850402832 2.499992370605469 M 31.85563850402832 -7.62939453125e-06 C 49.44901657104492 -7.62939453125e-06 63.71127319335938 14.26226043701172 63.71127319335938 31.85563850402832 C 63.71127319335938 49.44901657104492 49.44901657104492 63.71127319335938 31.85563850402832 63.71127319335938 C 14.26226043701172 63.71127319335938 -7.62939453125e-06 49.44901657104492 -7.62939453125e-06 31.85563850402832 C -7.62939453125e-06 14.26226043701172 14.26226043701172 -7.62939453125e-06 31.85563850402832 -7.62939453125e-06 Z" stroke="none" fill="#000"/>
      </g>
    </g>
    <g id="Union_55" data-name="Union 55" transform="translate(35.474 2.087)" fill="#ccb9ff" stroke-linecap="round">
      <path d="M 4.228732109069824 24.40115165710449 C 4.324240207672119 23.62805557250977 4.541455745697021 22.24030303955078 5.020340442657471 19.75503730773926 L 5.132220268249512 19.17440795898438 L 4.677360534667969 18.79658699035645 C 2.305980443954468 16.82683753967285 1.000000357627869 14.25285816192627 1.000000357627869 11.54879760742188 C 1.000000357627869 5.732167720794678 7.015250205993652 0.9999978542327881 14.40900039672852 0.9999978542327881 C 21.80274963378906 0.9999978542327881 27.81800079345703 5.732167720794678 27.81800079345703 11.54879760742188 C 27.81800079345703 17.36492729187012 21.80274963378906 22.09669876098633 14.40900039672852 22.09669876098633 C 13.45121002197266 22.09669876098633 12.49503040313721 22.01655769348145 11.56702041625977 21.85850715637207 L 11.29296016693115 21.81183815002441 L 11.03414058685303 21.91330718994141 C 7.133840084075928 23.44236373901367 5.189961910247803 24.11012649536133 4.228732109069824 24.40115165710449 Z" stroke="none"/>
      <path d="M 5.45786714553833 22.94223594665527 C 6.573305606842041 22.55150604248047 8.226670265197754 21.93983840942383 10.66915035247803 20.98229789733887 L 11.18680000305176 20.77935791015625 L 11.7349100112915 20.87270736694336 C 12.60762023925781 21.02133750915527 13.50731086730957 21.09669876098633 14.40900039672852 21.09669876098633 C 17.80466079711914 21.09669876098633 20.9788703918457 20.05149841308594 23.34691047668457 18.15363693237305 C 25.58526992797852 16.35969734191895 26.81800079345703 14.01405811309814 26.81800079345703 11.54879760742188 C 26.81800079345703 9.083127975463867 25.58526039123535 6.737197875976562 23.34686088562012 4.943137645721436 C 20.97888946533203 3.045227766036987 17.80470085144043 1.999997854232788 14.40900039672852 1.999997854232788 C 11.0132999420166 1.999997854232788 7.839110374450684 3.045227766036987 5.471140384674072 4.943137645721436 C 3.23274040222168 6.737197875976562 2.000000476837158 9.083127975463867 2.000000476837158 11.54879760742188 C 2.000000476837158 13.95019817352295 3.177760362625122 16.2509880065918 5.316320419311523 18.02734756469727 L 6.226040363311768 18.78298759460449 L 6.002270221710205 19.94424819946289 C 5.756218433380127 21.22118377685547 5.581635475158691 22.19730758666992 5.45786714553833 22.94223594665527 M 3.344860315322876 25.62396812438965 C 3.28303050994873 25.62397766113281 3.240620374679565 25.61491775512695 3.219300508499146 25.59599876403809 C 2.988970279693604 25.39162826538086 3.45991039276123 22.56802749633789 4.038400173187256 19.56582832336426 C 1.537850379943848 17.48878860473633 3.967285238104523e-07 14.66276741027832 3.967285238104523e-07 11.54879760742188 C 3.967285238104523e-07 5.170497894287109 6.451200485229492 -2.123107833540416e-06 14.40900039672852 -2.123107833540416e-06 C 22.36680030822754 -2.123107833540416e-06 28.81800079345703 5.170497894287109 28.81800079345703 11.54879760742188 C 28.81800079345703 17.92619705200195 22.36680030822754 23.09669876098633 14.40900039672852 23.09669876098633 C 13.37688064575195 23.09669876098633 12.36978054046631 23.00962829589844 11.39913082122803 22.84431838989258 C 8.10382080078125 24.13619804382324 4.137050628662109 25.62386703491211 3.344860315322876 25.62396812438965 Z" stroke="none" fill="#000"/>
    </g>
    <g id="Union_56" data-name="Union 56" transform="translate(29.999 25.209) rotate(180)" fill="#ccb9ff" stroke-linecap="round">
      <path d="M 14.99940013885498 24.20900344848633 C 7.280100345611572 24.20900344848633 1.00000011920929 19.26487350463867 1.00000011920929 13.18770408630371 C 1.00000011920929 11.65740394592285 1.392590165138245 10.17574405670166 2.166860103607178 8.78387451171875 C 2.926290035247803 7.418684482574463 4.01308012008667 6.204694271087646 5.397059917449951 5.175634384155273 L 5.916940212249756 4.789074420928955 L 5.776649951934814 4.156604290008545 C 5.355376243591309 2.257375955581665 5.145999908447266 1.132067084312439 5.042985916137695 0.4694886803627014 C 5.944080352783203 0.7055222392082214 7.715548992156982 1.238842606544495 11.17051029205322 2.440104246139526 L 11.4237699508667 2.528154373168945 L 11.68710041046143 2.477694272994995 C 12.76514053344727 2.271134376525879 13.87956047058105 2.166404247283936 14.99940013885498 2.166404247283936 C 22.71870040893555 2.166404247283936 28.99880027770996 7.110534191131592 28.99880027770996 13.18770408630371 C 28.99880027770996 19.26487350463867 22.71870040893555 24.20900344848633 14.99940013885498 24.20900344848633 Z" stroke="none"/>
      <path d="M 14.99940013885498 23.20900344848633 C 18.55273056030273 23.20900344848633 21.87516975402832 22.11461448669434 24.35470008850098 20.12744522094727 C 26.70462989807129 18.2441234588623 27.99880027770996 15.77954387664795 27.99880027770996 13.18770408630371 C 27.99880027770996 10.59586429595947 26.70462989807129 8.131284713745117 24.35470008850098 6.247964382171631 C 21.87516975402832 4.260794162750244 18.55273056030273 3.166404247283936 14.99940013885498 3.166404247283936 C 13.94256019592285 3.166404247283936 12.89144992828369 3.265124320983887 11.87528991699219 3.459834337234497 L 11.34860992431641 3.560744285583496 L 10.84210014343262 3.384634256362915 C 8.770298004150391 2.664283752441406 7.323136329650879 2.190412044525146 6.31529426574707 1.878670215606689 C 6.425284862518311 2.428513050079346 6.567930221557617 3.106058120727539 6.752920150756836 3.940054416656494 L 7.033500194549561 5.204994201660156 L 5.993750095367432 5.978104114532471 C 4.724319934844971 6.921994209289551 3.730780124664307 8.02955436706543 3.040750026702881 9.270004272460938 C 2.350160121917725 10.51144409179688 2.000000238418579 11.82954406738281 2.000000238418579 13.18770408630371 C 2.000000238418579 15.77954387664795 3.294170141220093 18.2441234588623 5.644100189208984 20.12744522094727 C 8.123630523681641 22.11461448669434 11.44606971740723 23.20900344848633 14.99940013885498 23.20900344848633 M 14.99940013885498 25.20900344848633 C 6.715800285339355 25.20900344848633 1.388549719649745e-07 19.82700347900391 1.388549719649745e-07 13.18770408630371 C 1.388549719649745e-07 9.705143928527832 1.847790122032166 6.568564414978027 4.800380229949951 4.373154163360596 C 4.218389987945557 1.749374389648438 3.795460224151611 -0.4895456731319427 3.99780011177063 -0.6821956634521484 C 4.265567302703857 -0.9371559619903564 8.015510559082031 0.284414529800415 11.49892044067383 1.495564341545105 C 12.62199974060059 1.28037428855896 13.79407024383545 1.166404366493225 14.99940013885498 1.166404366493225 C 23.28300094604492 1.166404366493225 29.99880027770996 6.548404216766357 29.99880027770996 13.18770408630371 C 29.99880027770996 19.82700347900391 23.28300094604492 25.20900344848633 14.99940013885498 25.20900344848633 Z" stroke="none" fill="#000"/>
    </g>
  </g>
</svg>
