<svg id="support_groups_icon" xmlns="http://www.w3.org/2000/svg" xmlns:xlink="http://www.w3.org/1999/xlink" width="72.345" height="98.582" viewBox="0 0 72.345 98.582">
  <defs>
    <clipPath id="clip-path">
      <rect id="Rectangle_1540" data-name="Rectangle 1540" width="68.979" height="37.018" transform="translate(3.101 61.325)" fill="none"/>
    </clipPath>
    <clipPath id="clip-path-2">
      <path id="Path_7398" data-name="Path 7398" d="M3.1,33.643A32.643,32.643,0,1,0,35.743,1,32.643,32.643,0,0,0,3.1,33.643" fill="none"/>
    </clipPath>
    <clipPath id="clip-path-3">
      <rect id="Rectangle_1541" data-name="Rectangle 1541" width="72.345" height="98.583" transform="translate(0 0)" fill="none"/>
    </clipPath>
  </defs>
  <g id="Group_2157" data-name="Group 2157">
    <g id="Group_2156" data-name="Group 2156" clip-path="url(#clip-path)">
      <path id="Path_7390" data-name="Path 7390" d="M72.081,68.066a11.985,11.985,0,0,1-2.92,4.414c-5.67,6.306-11.519,12.409-18.291,17.579A14.041,14.041,0,0,1,40.67,93.3c-4.821-.44-9.665-.641-14.5-.966a13.3,13.3,0,0,0-7.9,1.928c-1.969,1.178-3.932,2.368-5.9,3.545a4.054,4.054,0,0,1-1.068.521,1.77,1.77,0,0,1-1.618-.741A1.277,1.277,0,0,1,9.984,96c5.288-3.415,10.344-7.316,17.318-6.489,4.851.575,9.766.613,14.65.926a8.787,8.787,0,0,0,5.856-1.8,110.535,110.535,0,0,0,17.143-15.89c1.1-1.206,2.2-2.411,3.257-3.658a2.781,2.781,0,0,0,.03-3.933l-.053-.052c-1.09-1.066-2.611-.958-3.975.175-6.4,5.312-12.783,10.631-19.242,15.862A5.827,5.827,0,0,1,41.8,82.424c-3.718.16-7.448.067-11.172.077-.966,0-1.634-.449-1.65-1.411s.624-1.453,1.6-1.455h.919c2.908,0,5.817.008,8.726-.007a6.954,6.954,0,0,0,1.665-.156,2.5,2.5,0,0,0-.541-4.952c-1.478-.047-2.963.048-4.439-.027-3.4-.172-6.82-.289-10.207-.651a14.734,14.734,0,0,0-12.154,4.151,25.221,25.221,0,0,1-4.419,2.95c-1.359.8-2.837,1.4-4.207,2.182-1.053.6-2.086.667-2.733-.353-.432-1.505,1.022-2.068,1.6-2.364a47.467,47.467,0,0,0,9.52-5.989c3.771-3.239,8.39-4.041,13.351-3.441,3.424.414,6.906.336,10.358.54,1.917.113,3.823.391,5.74.512a2.228,2.228,0,0,0,1.364-.446c2.791-2.133,5.616-4.232,8.3-6.5,2.825-2.389,4.42-2.7,7.842-1.045.381-.354.781-.74,1.2-1.11a5.657,5.657,0,0,1,9.326,2.311c.09.235.206.46.31.689ZM46.381,74.6l.5,1.484,12.005-9.8c-1.565-.424-1.77-.43-2.581.227-3.278,2.652-6.538,5.326-9.923,8.088"/>
      <path id="Path_7391" data-name="Path 7391" d="M72.081,68.066a11.985,11.985,0,0,1-2.92,4.414c-5.67,6.306-11.519,12.409-18.291,17.579A14.041,14.041,0,0,1,40.67,93.3c-4.821-.44-9.665-.641-14.5-.966a13.3,13.3,0,0,0-7.9,1.928c-1.969,1.178-3.932,2.368-5.9,3.545a4.054,4.054,0,0,1-1.068.521,1.77,1.77,0,0,1-1.618-.741A1.277,1.277,0,0,1,9.984,96c5.288-3.415,10.344-7.316,17.318-6.489,4.851.575,9.766.613,14.65.926a8.787,8.787,0,0,0,5.856-1.8,110.535,110.535,0,0,0,17.143-15.89c1.1-1.206,2.2-2.411,3.257-3.658a2.781,2.781,0,0,0,.03-3.933l-.053-.052c-1.09-1.066-2.611-.958-3.975.175-6.4,5.312-12.783,10.631-19.242,15.862A5.827,5.827,0,0,1,41.8,82.424c-3.718.16-7.448.067-11.172.077-.966,0-1.634-.449-1.65-1.411s.624-1.453,1.6-1.455h.919c2.908,0,5.817.008,8.726-.007a6.954,6.954,0,0,0,1.665-.156,2.5,2.5,0,0,0-.541-4.952c-1.478-.047-2.963.048-4.439-.027-3.4-.172-6.82-.289-10.207-.651a14.734,14.734,0,0,0-12.154,4.151,25.221,25.221,0,0,1-4.419,2.95c-1.359.8-2.837,1.4-4.207,2.182-1.053.6-2.086.667-2.733-.353-.432-1.505,1.022-2.068,1.6-2.364a47.467,47.467,0,0,0,9.52-5.989c3.771-3.239,8.39-4.041,13.351-3.441,3.424.414,6.906.336,10.358.54,1.917.113,3.823.391,5.74.512a2.228,2.228,0,0,0,1.364-.446c2.791-2.133,5.616-4.232,8.3-6.5,2.825-2.389,4.42-2.7,7.842-1.045.381-.354.781-.74,1.2-1.11a5.657,5.657,0,0,1,9.326,2.311c.09.235.206.46.31.689ZM46.381,74.6l.5,1.484,12.005-9.8c-1.565-.424-1.77-.43-2.581.227-3.278,2.652-6.538,5.326-9.923,8.088" fill="none" stroke="#000" stroke-width="0.5"/>
    </g>
  </g>
  <g id="Group_2159" data-name="Group 2159">
    <g id="Group_2158" data-name="Group 2158" clip-path="url(#clip-path-2)">
      <path id="Path_7392" data-name="Path 7392" d="M6.563,54.738H4.349a11.425,11.425,0,0,1,3.113-5.572,14.224,14.224,0,0,1,5.57-3.433,8.671,8.671,0,0,1-4.008-10.3,8.569,8.569,0,1,1,12.2,10.3c4.077,1.366,7.4,5.562,8.582,9H27.682a11.141,11.141,0,0,0-21.119,0M17.132,31.66a6.51,6.51,0,0,0-.055,13.019h.088a6.485,6.485,0,0,0,6.49-6.419v-.034a6.515,6.515,0,0,0-6.465-6.565h-.058Z"/>
      <path id="Path_7393" data-name="Path 7393" d="M6.563,54.738H4.349a11.425,11.425,0,0,1,3.113-5.572,14.224,14.224,0,0,1,5.57-3.433,8.671,8.671,0,0,1-4.008-10.3,8.569,8.569,0,1,1,12.2,10.3c4.077,1.366,7.4,5.562,8.582,9H27.682a11.141,11.141,0,0,0-21.119,0ZM17.132,31.66a6.51,6.51,0,0,0-.055,13.019h.088a6.485,6.485,0,0,0,6.49-6.419v-.034a6.515,6.515,0,0,0-6.465-6.565h-.058Z" fill="none" stroke="#000" stroke-width="0.5"/>
      <path id="Path_7394" data-name="Path 7394" d="M43.823,55.459H41.7a11.187,11.187,0,0,1,2.985-6.034,14.1,14.1,0,0,1,5.815-3.7,8.681,8.681,0,0,1-4-10.291,8.546,8.546,0,0,1,16.233.149,8.642,8.642,0,0,1-4.063,10.151,13.37,13.37,0,0,1,5.7,4.1,15.039,15.039,0,0,1,3.08,5.619h-2.12a11.111,11.111,0,0,0-21.5,0Zm10.762-23.8a6.51,6.51,0,0,0-.055,13.019h.09A6.478,6.478,0,0,0,61.1,38.261v-.035a6.51,6.51,0,0,0-6.454-6.565Z"/>
      <path id="Path_7395" data-name="Path 7395" d="M43.823,55.459H41.7a11.187,11.187,0,0,1,2.985-6.034,14.1,14.1,0,0,1,5.815-3.7,8.681,8.681,0,0,1-4-10.291,8.546,8.546,0,0,1,16.233.149,8.642,8.642,0,0,1-4.063,10.151,13.37,13.37,0,0,1,5.7,4.1,15.039,15.039,0,0,1,3.08,5.619h-2.12a11.111,11.111,0,0,0-21.5,0Zm10.762-23.8a6.51,6.51,0,0,0-.055,13.019h.09A6.478,6.478,0,0,0,61.1,38.261v-.035a6.51,6.51,0,0,0-6.454-6.565Z" fill="none" stroke="#000" stroke-width="0.5"/>
      <path id="Path_7396" data-name="Path 7396" d="M24.816,62.07H22.691a11.187,11.187,0,0,1,2.985-6.034,14.1,14.1,0,0,1,5.815-3.7,8.681,8.681,0,0,1-4-10.291,8.546,8.546,0,0,1,16.233.149,8.642,8.642,0,0,1-4.063,10.151,13.37,13.37,0,0,1,5.7,4.1,15.04,15.04,0,0,1,3.08,5.619h-2.12a11.111,11.111,0,0,0-21.5,0Zm10.762-23.8a6.51,6.51,0,0,0-.055,13.019h.09a6.478,6.478,0,0,0,6.478-6.417v-.035a6.51,6.51,0,0,0-6.454-6.565Z"/>
      <path id="Path_7397" data-name="Path 7397" d="M24.816,62.07H22.691a11.187,11.187,0,0,1,2.985-6.034,14.1,14.1,0,0,1,5.815-3.7,8.681,8.681,0,0,1-4-10.291,8.546,8.546,0,0,1,16.233.149,8.642,8.642,0,0,1-4.063,10.151,13.37,13.37,0,0,1,5.7,4.1,15.04,15.04,0,0,1,3.08,5.619h-2.12a11.111,11.111,0,0,0-21.5,0Zm10.762-23.8a6.51,6.51,0,0,0-.055,13.019h.09a6.478,6.478,0,0,0,6.478-6.417v-.035a6.51,6.51,0,0,0-6.454-6.565Z" fill="none" stroke="#000" stroke-width="0.5"/>
    </g>
  </g>
  <g id="Group_2161" data-name="Group 2161">
    <g id="Group_2160" data-name="Group 2160" clip-path="url(#clip-path-3)">
      <path id="Path_7399" data-name="Path 7399" d="M66.18,21.848H64.568a31.146,31.146,0,1,1-59.419,6H4c-.126,0-.245-.025-.368-.037A32.64,32.64,0,1,0,66.18,21.848"/>
      <path id="Path_7400" data-name="Path 7400" d="M66.18,21.848H64.568a31.671,31.671,0,0,1,1.992,7.285,30.2,30.2,0,0,1,.326,4.509A31.142,31.142,0,1,1,5.149,27.847H4c-.126,0-.245-.025-.368-.037A32.64,32.64,0,1,0,66.18,21.848Z" fill="none" stroke="#000" stroke-width="1.5"/>
      <path id="Path_7401" data-name="Path 7401" d="M16.011,9.551a31.155,31.155,0,0,1,27.763-6h4.639a32.669,32.669,0,0,0-34.692,6Z"/>
      <path id="Path_7402" data-name="Path 7402" d="M16.011,9.551a31.155,31.155,0,0,1,27.763-6h4.639a32.669,32.669,0,0,0-34.692,6Z" fill="none" stroke="#000" stroke-width="1.5"/>
      <path id="Path_7403" data-name="Path 7403" d="M39.44,21.672l5.286-1.214H67.746a2.077,2.077,0,0,0,2.074-2.075V7.7a2.077,2.077,0,0,0-2.074-2.074H42.722A2.077,2.077,0,0,0,40.648,7.7v8.687Zm-1.464,2.44a.98.98,0,0,1-.948-1.2l1.545-6.76V7.7a4.15,4.15,0,0,1,4.15-4.149H67.746A4.149,4.149,0,0,1,71.895,7.7V18.383a4.149,4.149,0,0,1-4.149,4.15H44.961L38.2,24.086a.967.967,0,0,1-.222.026" transform="translate(-1.259 -1)"/>
      <path id="Path_7404" data-name="Path 7404" d="M4,11.551a2,2,0,0,0-2,2v10.3a2,2,0,0,0,2,2H26.19l5.095,1.171L30.12,21.923V13.551a2,2,0,0,0-2-2Zm0-2H28.12a4,4,0,0,1,4,4V21.7l1.49,6.515a.944.944,0,0,1-1.129,1.133l-6.518-1.5H4a4,4,0,0,1-4-4v-10.3a4,4,0,0,1,4-4"/>
      <line id="Line_334" data-name="Line 334" x2="22" transform="translate(4.868 16.945)" fill="none" stroke="#000" stroke-linecap="round" stroke-width="2"/>
      <line id="Line_335" data-name="Line 335" x2="14" transform="translate(8.868 21.945)" fill="none" stroke="#000" stroke-linecap="round" stroke-width="2"/>
      <line id="Line_336" data-name="Line 336" x2="13" transform="translate(48.368 9.945)" fill="none" stroke="#000" stroke-linecap="round" stroke-width="2"/>
      <line id="Line_337" data-name="Line 337" x2="18" transform="translate(45.868 14.945)" fill="none" stroke="#000" stroke-linecap="round" stroke-width="2"/>
    </g>
  </g>
</svg>
