<svg id="action_2" data-name="action 2" xmlns="http://www.w3.org/2000/svg" width="90" height="10" viewBox="0 0 90 10">
  <path id="Path_7950" data-name="Path 7950" d="M298.534,696.967c-2.627-.022-5.254-.06-7.881-.062q-20.661-.008-41.322,0c-.828,0-1.655-.041-2.482-.062q.012-4.893.023-9.784,19.792-.02,39.586-.042,11.873-.015,23.748-.047h26.643v9.847l-.428.11-37.887.042" transform="translate(-246.849 -686.967)" fill="#dcf1ff"/>
  <path id="Path_7953" data-name="Path 7953" d="M264.077,696.967c-.876-.022-1.751-.06-2.627-.062q-6.887-.008-13.774,0c-.276,0-.552-.041-.828-.062q0-4.893.008-9.784,6.6-.02,13.2-.042c2.639-.01,5.277-.031,7.916-.047h8.881v9.847l-.143.11-12.629.042" transform="translate(-246.849 -686.968)" fill="#5ac0ff"/>
  <path id="Path_7954" data-name="Path 7954" d="M264.077,696.967c-.876-.022-1.751-.06-2.627-.062q-6.887-.008-13.774,0c-.276,0-.552-.041-.828-.062q0-4.893.008-9.784,6.6-.02,13.2-.042c2.639-.01,5.277-.031,7.916-.047h8.881v9.847l-.143.11-12.629.042" transform="translate(-216.849 -686.968)" fill="#5ac0ff"/>
</svg>
