<svg id="edit_action_plan" data-name="edit action plan" xmlns="http://www.w3.org/2000/svg" width="34" height="34" viewBox="0 0 34 34">
  <g id="Group_909" data-name="Group 909">
    <g id="Path_7766" data-name="Path 7766" fill="none">
      <path d="M17,0A17,17,0,1,1,0,17,17,17,0,0,1,17,0Z" stroke="none"/>
      <path d="M 17 2 C 12.99336051940918 2 9.226520538330078 3.560270309448242 6.393400192260742 6.393400192260742 C 3.560270309448242 9.226520538330078 2 12.99336051940918 2 17 C 2 21.00664901733398 3.560270309448242 24.77347946166992 6.393400192260742 27.60659980773926 C 9.226520538330078 30.43972969055176 12.99334907531738 32 17 32 C 21.00664901733398 32 24.77347946166992 30.43972969055176 27.60660934448242 27.60660934448242 C 30.43972969055176 24.77347946166992 32 21.00664901733398 32 17 C 32 12.99334907531738 30.43972969055176 9.226520538330078 27.60659980773926 6.393400192260742 C 24.77347946166992 3.560270309448242 21.00664901733398 2 17 2 M 17 0 C 26.38885116577148 0 34 7.611160278320312 34 17 C 34 26.38885116577148 26.38885116577148 34 17 34 C 7.611160278320312 34 0 26.38885116577148 0 17 C 0 7.611160278320312 7.611160278320312 0 17 0 Z" stroke="none" fill="#000"/>
    </g>
  </g>
  <path id="Combined_Shape" data-name="Combined Shape" d="M1.006,16.113A.951.951,0,0,1,0,15.107V12.084a.914.914,0,0,1,.3-.7L8.157,3.525l4.432,4.43L4.733,15.811a.914.914,0,0,1-.7.3Zm8.56-14L11.379.3a.975.975,0,0,1,1.41,0l3.022,3.022a.973.973,0,0,1,0,1.41L14,6.546Z" transform="translate(10.087 8.944)" fill="#1a051d"/>
</svg>
